<?xml version="1.0" encoding="UTF-8" standalone="no"?>
<!DOCTYPE svg PUBLIC "-//W3C//DTD SVG 1.1//EN" "http://www.w3.org/Graphics/SVG/1.1/DTD/svg11.dtd">
<svg width="100%" height="100%" viewBox="0 0 930 819" version="1.1" xmlns="http://www.w3.org/2000/svg" xmlns:xlink="http://www.w3.org/1999/xlink" xml:space="preserve" xmlns:serif="http://www.serif.com/" style="fill-rule:evenodd;clip-rule:evenodd;stroke-linejoin:round;stroke-miterlimit:2;">
    <g transform="matrix(1.09319,0,0,1.09319,-64.1919,-67.0993)">
        <path d="M241.939,88.352C415.903,88.352 799.135,261.862 799.135,435.826C799.135,609.789 415.903,791.117 241.939,791.117C67.976,791.117 89.323,623.59 89.323,449.627C89.323,275.663 67.976,88.352 241.939,88.352Z" style="fill-opacity:0.04;"/>
    </g>
    <g transform="matrix(0.86784,0,0,0.86784,0,104.61)">
        <rect x="38.5" y="263.5" width="969" height="2" style="fill:rgb(47,46,65);"/>
    </g>
    <g transform="matrix(0.86784,0,0,0.86784,-83.5296,18.8122)">
        <path d="M957.174,746.777C943.355,764.907 959.194,800.215 959.194,800.215C959.194,800.215 997.437,806.127 1011.26,787.997C1025.08,769.867 1009.24,734.559 1009.24,734.559C1009.24,734.559 970.992,728.646 957.174,746.777Z" style="fill:rgb(245,0,87);fill-rule:nonzero;"/>
    </g>
    <g transform="matrix(0.86784,0,0,0.86784,-83.5296,18.8122)">
        <path d="M233.25,342.864C191.558,342.864 157.25,308.556 157.25,266.864C157.25,225.172 191.558,190.864 233.25,190.864C274.942,190.864 309.25,225.172 309.25,266.864C309.203,308.539 274.925,342.817 233.25,342.864ZM233.25,192.864C192.655,192.864 159.25,226.269 159.25,266.864C159.25,307.459 192.655,340.864 233.25,340.864C273.845,340.864 307.25,307.459 307.25,266.864C307.204,226.286 273.828,192.91 233.25,192.864Z" style="fill:rgb(47,46,65);fill-rule:nonzero;"/>
    </g>
    <g transform="matrix(0.86784,0,0,0.86784,-83.5296,18.8122)">
        <path d="M233.25,175.364C207.334,175.364 186.25,158.205 186.25,137.114C186.25,116.023 207.334,98.864 233.25,98.864C259.166,98.864 280.25,116.023 280.25,137.114C280.25,158.205 259.166,175.364 233.25,175.364ZM233.25,100.492C208.437,100.492 188.25,116.92 188.25,137.114C188.25,157.308 208.437,173.736 233.25,173.736C258.063,173.736 278.25,157.308 278.25,137.114C278.25,116.92 258.063,100.492 233.25,100.492Z" style="fill:rgb(47,46,65);fill-rule:nonzero;"/>
    </g>
    <g transform="matrix(0.86784,0,0,0.86784,-83.5296,18.8122)">
        <path d="M211.25,157.864C205.643,157.864 201.25,149.518 201.25,138.864C201.25,128.21 205.643,119.864 211.25,119.864C216.857,119.864 221.25,128.21 221.25,138.864C221.25,149.518 216.857,157.864 211.25,157.864ZM211.25,121.864C206.913,121.864 203.25,129.649 203.25,138.864C203.25,148.079 206.913,155.864 211.25,155.864C215.587,155.864 219.25,148.079 219.25,138.864C219.25,129.649 215.587,121.864 211.25,121.864Z" style="fill:rgb(47,46,65);fill-rule:nonzero;"/>
    </g>
    <g transform="matrix(0.86784,0,0,0.86784,-83.5296,18.8122)">
        <path d="M255.25,157.864C249.643,157.864 245.25,149.518 245.25,138.864C245.25,128.21 249.643,119.864 255.25,119.864C260.857,119.864 265.25,128.21 265.25,138.864C265.25,149.518 260.857,157.864 255.25,157.864ZM255.25,121.864C250.913,121.864 247.25,129.649 247.25,138.864C247.25,148.079 250.913,155.864 255.25,155.864C259.587,155.864 263.25,148.079 263.25,138.864C263.25,129.649 259.587,121.864 255.25,121.864Z" style="fill:rgb(47,46,65);fill-rule:nonzero;"/>
    </g>
    <g transform="matrix(0.86784,0,0,0.86784,-83.5296,18.8122)">
        <path d="M331.25,247.864C309.307,247.864 291.25,229.807 291.25,207.864C291.25,185.921 309.307,167.864 331.25,167.864C353.193,167.864 371.25,185.921 371.25,207.864C371.225,229.798 353.184,247.839 331.25,247.864ZM331.25,169.864C310.404,169.864 293.25,187.018 293.25,207.864C293.25,228.71 310.404,245.864 331.25,245.864C352.096,245.864 369.25,228.71 369.25,207.864C369.226,187.027 352.087,169.888 331.25,169.864Z" style="fill:rgb(47,46,65);fill-rule:nonzero;"/>
    </g>
    <g transform="matrix(0.86784,0,0,0.86784,-83.5296,18.8122)">
        <path d="M136.25,247.864C114.307,247.864 96.25,229.807 96.25,207.864C96.25,185.921 114.307,167.864 136.25,167.864C158.193,167.864 176.25,185.921 176.25,207.864C176.225,229.798 158.184,247.839 136.25,247.864ZM136.25,169.864C115.404,169.864 98.25,187.018 98.25,207.864C98.25,228.71 115.404,245.864 136.25,245.864C157.096,245.864 174.25,228.71 174.25,207.864C174.226,187.027 157.087,169.888 136.25,169.864Z" style="fill:rgb(47,46,65);fill-rule:nonzero;"/>
    </g>
    <g transform="matrix(0.86784,0,0,0.86784,-83.5296,18.8122)">
        <path d="M233.25,362.864C218.951,362.864 207.75,358.032 207.75,351.864C207.75,345.696 218.951,340.864 233.25,340.864C247.549,340.864 258.75,345.696 258.75,351.864C258.75,358.032 247.549,362.864 233.25,362.864ZM233.25,342.864C219.193,342.864 209.75,347.518 209.75,351.864C209.75,356.21 219.193,360.864 233.25,360.864C247.307,360.864 256.75,356.21 256.75,351.864C256.75,347.518 247.307,342.864 233.25,342.864Z" style="fill:rgb(47,46,65);fill-rule:nonzero;"/>
    </g>
    <g transform="matrix(0.86784,0,0,0.86784,-83.5296,18.8122)">
        <path d="M572.25,342.864C530.558,342.864 496.25,308.556 496.25,266.864C496.25,225.172 530.558,190.864 572.25,190.864C613.942,190.864 648.25,225.172 648.25,266.864C648.203,308.539 613.925,342.817 572.25,342.864ZM572.25,192.864C531.655,192.864 498.25,226.269 498.25,266.864C498.25,307.459 531.655,340.864 572.25,340.864C612.845,340.864 646.25,307.459 646.25,266.864C646.204,226.286 612.828,192.91 572.25,192.864Z" style="fill:rgb(47,46,65);fill-rule:nonzero;"/>
    </g>
    <g transform="matrix(0.86784,0,0,0.86784,-83.5296,18.8122)">
        <path d="M572.25,192.864C546.467,192.864 525.25,171.647 525.25,145.864C525.25,120.081 546.467,98.864 572.25,98.864C598.033,98.864 619.25,120.081 619.25,145.864C619.221,171.636 598.022,192.835 572.25,192.864ZM572.25,100.864C547.564,100.864 527.25,121.178 527.25,145.864C527.25,170.55 547.564,190.864 572.25,190.864C596.936,190.864 617.25,170.55 617.25,145.864C617.222,121.188 596.926,100.892 572.25,100.864Z" style="fill:rgb(47,46,65);fill-rule:nonzero;"/>
    </g>
    <g transform="matrix(0.86784,0,0,0.86784,-83.5296,18.8122)">
        <path d="M550.25,157.864C544.643,157.864 540.25,149.518 540.25,138.864C540.25,128.21 544.643,119.864 550.25,119.864C555.857,119.864 560.25,128.21 560.25,138.864C560.25,149.518 555.857,157.864 550.25,157.864ZM550.25,121.864C545.913,121.864 542.25,129.649 542.25,138.864C542.25,148.079 545.913,155.864 550.25,155.864C554.587,155.864 558.25,148.079 558.25,138.864C558.25,129.649 554.587,121.864 550.25,121.864Z" style="fill:rgb(47,46,65);fill-rule:nonzero;"/>
    </g>
    <g transform="matrix(0.86784,0,0,0.86784,-83.5296,18.8122)">
        <path d="M594.25,157.864C588.643,157.864 584.25,149.518 584.25,138.864C584.25,128.21 588.643,119.864 594.25,119.864C599.857,119.864 604.25,128.21 604.25,138.864C604.25,149.518 599.857,157.864 594.25,157.864ZM594.25,121.864C589.913,121.864 586.25,129.649 586.25,138.864C586.25,148.079 589.913,155.864 594.25,155.864C598.587,155.864 602.25,148.079 602.25,138.864C602.25,129.649 598.587,121.864 594.25,121.864Z" style="fill:rgb(47,46,65);fill-rule:nonzero;"/>
    </g>
    <g transform="matrix(0.86784,0,0,0.86784,-83.5296,18.8122)">
        <path d="M679.25,348.864C657.307,348.864 639.25,330.807 639.25,308.864C639.25,286.921 657.307,268.864 679.25,268.864C701.193,268.864 719.25,286.921 719.25,308.864C719.225,330.798 701.184,348.839 679.25,348.864ZM679.25,270.864C658.404,270.864 641.25,288.018 641.25,308.864C641.25,329.71 658.404,346.864 679.25,346.864C700.096,346.864 717.25,329.71 717.25,308.864C717.226,288.027 700.087,270.888 679.25,270.864Z" style="fill:rgb(47,46,65);fill-rule:nonzero;"/>
    </g>
    <g transform="matrix(0.86784,0,0,0.86784,-83.5296,18.8122)">
        <path d="M458,301.864C457.916,301.865 457.833,301.865 457.749,301.865C435.805,301.865 417.748,283.808 417.748,261.864C417.748,239.92 435.805,221.863 457.749,221.863C479.693,221.863 497.75,239.92 497.75,261.864C497.793,283.729 479.865,301.77 458,301.864ZM458,223.864C457.921,223.864 457.841,223.863 457.762,223.863C436.915,223.863 419.761,241.017 419.761,261.864C419.761,282.711 436.915,299.865 457.762,299.865C478.608,299.865 495.763,282.711 495.763,261.864C495.804,241.092 478.772,223.953 458,223.864Z" style="fill:rgb(47,46,65);fill-rule:nonzero;"/>
    </g>
    <g transform="matrix(0.86784,0,0,0.86784,-83.5296,18.8122)">
        <path d="M572.25,362.864C557.951,362.864 546.75,358.032 546.75,351.864C546.75,345.696 557.951,340.864 572.25,340.864C586.549,340.864 597.75,345.696 597.75,351.864C597.75,358.032 586.549,362.864 572.25,362.864ZM572.25,342.864C558.193,342.864 548.75,347.518 548.75,351.864C548.75,356.21 558.193,360.864 572.25,360.864C586.307,360.864 595.75,356.21 595.75,351.864C595.75,347.518 586.307,342.864 572.25,342.864Z" style="fill:rgb(47,46,65);fill-rule:nonzero;"/>
    </g>
    <g transform="matrix(0.86784,0,0,0.86784,-83.5296,18.8122)">
        <path d="M922.25,345.864C880.558,345.864 846.25,311.556 846.25,269.864C846.25,228.172 880.558,193.864 922.25,193.864C963.942,193.864 998.25,228.172 998.25,269.864C998.203,311.539 963.925,345.817 922.25,345.864ZM922.25,195.864C881.655,195.864 848.25,229.269 848.25,269.864C848.25,310.459 881.655,343.864 922.25,343.864C962.845,343.864 996.25,310.459 996.25,269.864C996.204,229.286 962.828,195.91 922.25,195.864Z" style="fill:rgb(47,46,65);fill-rule:nonzero;"/>
    </g>
    <g transform="matrix(0.86784,0,0,0.86784,-83.5296,18.8122)">
        <path d="M962.25,202.864C936.467,202.864 915.25,181.647 915.25,155.864C915.25,130.081 936.467,108.864 962.25,108.864C988.033,108.864 1009.25,130.081 1009.25,155.864C1009.22,181.636 988.022,202.835 962.25,202.864ZM962.25,110.864C937.564,110.864 917.25,131.178 917.25,155.864C917.25,180.55 937.564,200.864 962.25,200.864C986.936,200.864 1007.25,180.55 1007.25,155.864C1007.22,131.188 986.926,110.892 962.25,110.864Z" style="fill:rgb(47,46,65);fill-rule:nonzero;"/>
    </g>
    <g transform="matrix(0.86784,0,0,0.86784,-83.5296,18.8122)">
        <path d="M940.25,185.864C934.643,185.864 930.25,177.518 930.25,166.864C930.25,156.21 934.643,147.864 940.25,147.864C945.857,147.864 950.25,156.21 950.25,166.864C950.25,177.518 945.857,185.864 940.25,185.864ZM940.25,149.864C935.913,149.864 932.25,157.649 932.25,166.864C932.25,176.079 935.913,183.864 940.25,183.864C944.587,183.864 948.25,176.079 948.25,166.864C948.25,157.649 944.587,149.864 940.25,149.864Z" style="fill:rgb(47,46,65);fill-rule:nonzero;"/>
    </g>
    <g transform="matrix(0.86784,0,0,0.86784,-83.5296,18.8122)">
        <path d="M984.25,185.864C978.643,185.864 974.25,177.518 974.25,166.864C974.25,156.21 978.643,147.864 984.25,147.864C989.857,147.864 994.25,156.21 994.25,166.864C994.25,177.518 989.857,185.864 984.25,185.864ZM984.25,149.864C979.913,149.864 976.25,157.649 976.25,166.864C976.25,176.079 979.913,183.864 984.25,183.864C988.587,183.864 992.25,176.079 992.25,166.864C992.25,157.649 988.587,149.864 984.25,149.864Z" style="fill:rgb(47,46,65);fill-rule:nonzero;"/>
    </g>
    <g transform="matrix(0.86784,0,0,0.86784,-83.5296,18.8122)">
        <path d="M1029.25,351.864C1007.31,351.864 989.25,333.807 989.25,311.864C989.25,289.921 1007.31,271.864 1029.25,271.864C1051.19,271.864 1069.25,289.921 1069.25,311.864C1069.22,333.798 1051.18,351.839 1029.25,351.864ZM1029.25,273.864C1008.4,273.864 991.25,291.018 991.25,311.864C991.25,332.71 1008.4,349.864 1029.25,349.864C1050.1,349.864 1067.25,332.71 1067.25,311.864C1067.23,291.027 1050.09,273.888 1029.25,273.864Z" style="fill:rgb(47,46,65);fill-rule:nonzero;"/>
    </g>
    <g transform="matrix(0.86784,0,0,0.86784,-83.5296,18.8122)">
        <path d="M808.25,304.864C786.307,304.864 768.25,286.807 768.25,264.864C768.25,242.921 786.307,224.864 808.25,224.864C830.193,224.864 848.25,242.921 848.25,264.864C848.225,286.798 830.184,304.839 808.25,304.864ZM808.25,226.864C787.404,226.864 770.25,244.018 770.25,264.864C770.25,285.71 787.404,302.864 808.25,302.864C829.096,302.864 846.25,285.71 846.25,264.864C846.226,244.027 829.087,226.888 808.25,226.864Z" style="fill:rgb(47,46,65);fill-rule:nonzero;"/>
    </g>
    <g transform="matrix(0.86784,0,0,0.86784,-83.5296,18.8122)">
        <path d="M891.75,361.864C877.451,361.864 866.25,357.032 866.25,350.864C866.25,344.696 877.451,339.864 891.75,339.864C906.049,339.864 917.25,344.696 917.25,350.864C917.25,357.032 906.049,361.864 891.75,361.864ZM891.75,341.864C877.693,341.864 868.25,346.518 868.25,350.864C868.25,355.21 877.693,359.864 891.75,359.864C905.807,359.864 915.25,355.21 915.25,350.864C915.25,346.518 905.807,341.864 891.75,341.864Z" style="fill:rgb(47,46,65);fill-rule:nonzero;"/>
    </g>
    <g transform="matrix(0.86784,0,0,0.86784,-83.5296,18.8122)">
        <path d="M458.275,145.892C426.985,112.731 358.133,125.71 357.441,125.845L357.059,123.883C357.762,123.745 427.69,110.566 459.73,144.519L458.275,145.892Z" style="fill:rgb(245,0,87);fill-rule:nonzero;"/>
    </g>
    <g transform="matrix(0.86784,0,0,0.86784,-83.5296,18.8122)">
        <path d="M466.25,154.864C461.113,151.653 453.962,148.269 448.278,147.136L457.912,144.052L463.341,135.52C462.993,141.305 464.449,149.081 466.25,154.864Z" style="fill:rgb(245,0,87);fill-rule:nonzero;"/>
    </g>
    <g transform="matrix(0.86784,0,0,0.86784,-83.5296,18.8122)">
        <path d="M772.275,199.892C740.984,166.73 672.133,179.71 671.441,179.845L671.059,177.883C671.762,177.746 741.691,164.566 773.73,198.519L772.275,199.892Z" style="fill:rgb(245,0,87);fill-rule:nonzero;"/>
    </g>
    <g transform="matrix(0.86784,0,0,0.86784,-83.5296,18.8122)">
        <path d="M780.25,208.864C775.113,205.653 767.962,202.269 762.278,201.136L771.912,198.052L777.341,189.52C776.993,195.305 778.449,203.081 780.25,208.864Z" style="fill:rgb(245,0,87);fill-rule:nonzero;"/>
    </g>
    <g transform="matrix(0.86784,0,0,0.86784,-83.5296,18.8122)">
        <path d="M777.833,287.602C777.833,287.602 756.657,287.602 754.304,300.543C751.951,313.484 748.422,454.658 750.775,472.305C753.128,489.952 753.128,486.422 753.128,486.422C753.128,486.422 748.437,519.957 759.018,521.424C769.598,522.892 769.598,482.893 769.598,482.893L777.833,339.366L777.833,287.602Z" style="fill:rgb(158,97,106);fill-rule:nonzero;"/>
    </g>
    <g transform="matrix(0.86784,0,0,0.86784,-83.5296,18.8122)">
        <path d="M869.596,287.602C869.596,287.602 890.772,287.602 893.125,300.543C895.478,313.484 899.007,454.658 896.655,472.305C894.302,489.952 894.302,486.422 894.302,486.422C894.302,486.422 898.992,519.957 888.412,521.424C877.831,522.892 877.831,482.893 877.831,482.893L869.596,339.366L869.596,287.602Z" style="fill:rgb(158,97,106);fill-rule:nonzero;"/>
    </g>
    <g transform="matrix(0.86784,0,0,0.86784,-83.5296,18.8122)">
        <path d="M774.304,779.358L764.892,779.358C753.275,779.358 743.716,788.917 743.716,800.534L801.362,800.534L801.362,773.476L774.304,773.476L774.304,779.358Z" style="fill:rgb(47,46,65);fill-rule:nonzero;"/>
    </g>
    <g transform="matrix(0.86784,0,0,0.86784,-83.5296,18.8122)">
        <path d="M864.89,779.358L874.302,779.358C885.919,779.358 895.478,788.917 895.478,800.534L837.832,800.534L837.832,773.476L864.89,773.476L864.89,779.358Z" style="fill:rgb(47,46,65);fill-rule:nonzero;"/>
    </g>
    <g transform="matrix(0.86784,0,0,0.86784,0,104.61)">
        <circle cx="718.053" cy="131.092" r="30.588" style="fill:rgb(158,97,106);"/>
    </g>
    <g transform="matrix(0.86784,0,0,0.86784,-83.5296,18.8122)">
        <path d="M807.244,246.427C807.244,246.427 803.715,285.249 799.009,288.779C794.303,292.308 848.42,286.426 848.42,286.426C848.42,286.426 829.597,258.191 833.126,248.78C836.656,239.368 807.244,246.427 807.244,246.427Z" style="fill:rgb(158,97,106);fill-rule:nonzero;"/>
    </g>
    <g transform="matrix(0.86784,0,0,0.86784,-83.5296,18.8122)">
        <path d="M876.655,287.602C876.655,287.602 811.95,260.544 769.598,287.602C769.598,287.602 759.01,314.661 767.245,329.955C775.48,345.248 788.421,381.718 775.48,406.424C762.539,431.129 776.657,420.541 776.657,420.541C776.657,420.541 760.186,486.422 757.834,538.186C755.481,589.95 764.892,775.829 771.951,777.005C779.01,778.182 801.362,780.535 803.715,777.005C806.068,773.476 822.538,527.598 822.538,527.598C822.538,527.598 829.597,779.358 836.656,779.358C843.714,779.358 862.538,779.358 866.067,773.476C869.596,767.594 899.007,540.539 888.419,493.481C877.831,446.423 870.773,422.894 870.773,422.894C870.773,422.894 883.714,414.659 880.184,409.953C876.655,405.247 859.008,354.66 867.243,346.425C875.478,338.19 876.655,287.602 876.655,287.602Z" style="fill:rgb(47,46,65);fill-rule:nonzero;"/>
    </g>
    <g transform="matrix(0.86784,0,0,0.86784,0,104.61)">
        <circle cx="737.465" cy="112.657" r="49.411" style="fill:rgb(47,46,65);"/>
    </g>
    <g transform="matrix(0.86784,0,0,0.86784,-83.5296,18.8122)">
        <path d="M864.569,186.786C847.375,182.745 836.239,165.687 839.456,148.321C839.311,148.827 839.176,149.337 839.054,149.855C838.469,152.347 838.174,154.898 838.174,157.458C838.174,175.718 853.2,190.743 871.46,190.743C886.853,190.743 900.334,180.066 903.86,165.082C903.982,164.565 904.088,164.047 904.184,163.53C899.33,180.512 881.762,190.825 864.569,186.786Z" style="fill:rgb(47,46,65);fill-rule:nonzero;"/>
    </g>
    <g transform="matrix(0.86784,0,0,0.86784,0,104.61)">
        <circle cx="770.33" cy="70.18" r="24.18" style="fill:rgb(47,46,65);"/>
    </g>
    <g transform="matrix(0.86784,0,0,0.86784,0,104.61)">
        <rect x="482.5" y="699.5" width="434" height="2" style="fill:rgb(47,46,65);"/>
    </g>
</svg>
