<?xml version="1.0" encoding="UTF-8" standalone="no"?>
<!DOCTYPE svg PUBLIC "-//W3C//DTD SVG 1.1//EN" "http://www.w3.org/Graphics/SVG/1.1/DTD/svg11.dtd">
<svg width="100%" height="100%" viewBox="0 0 1920 650" version="1.1" xmlns="http://www.w3.org/2000/svg" xmlns:xlink="http://www.w3.org/1999/xlink" xml:space="preserve" xmlns:serif="http://www.serif.com/" style="fill-rule:evenodd;clip-rule:evenodd;stroke-linejoin:round;stroke-miterlimit:2;">
    <g transform="matrix(0.299011,0,0,0.299011,289.783,270.407)">
        <circle cx="246.392" cy="188.402" r="5.823" style="fill-opacity:0.1;"/>
    </g>
    <g transform="matrix(0.291407,0,0,0.291407,1433.61,50.1664)">
        <circle cx="246.392" cy="188.402" r="5.823" style="fill:rgb(255,220,230);"/>
    </g>
    <g transform="matrix(0.291407,0,0,0.291407,1019.05,206.932)">
        <circle cx="246.392" cy="188.402" r="5.823" style="fill-opacity:0.13;"/>
    </g>
    <g transform="matrix(0.291407,0,0,0.291407,980.391,206.58)">
        <circle cx="246.392" cy="188.402" r="5.823" style="fill-opacity:0.13;"/>
    </g>
    <g transform="matrix(0.299011,0,0,0.299011,289.748,277.028)">
        <circle cx="246.392" cy="188.402" r="5.823" style="fill-opacity:0.1;"/>
    </g>
    <g transform="matrix(0.291407,0,0,0.291407,1433.58,56.6192)">
        <circle cx="246.392" cy="188.402" r="5.823" style="fill:rgb(255,220,230);"/>
    </g>
    <g transform="matrix(0.291407,0,0,0.291407,1019.01,213.385)">
        <circle cx="246.392" cy="188.402" r="5.823" style="fill-opacity:0.13;"/>
    </g>
    <g transform="matrix(0.291407,0,0,0.291407,980.357,213.033)">
        <circle cx="246.392" cy="188.402" r="5.823" style="fill-opacity:0.13;"/>
    </g>
    <g transform="matrix(0.299011,0,0,0.299011,289.74,283.597)">
        <circle cx="246.392" cy="188.402" r="5.823" style="fill-opacity:0.1;"/>
    </g>
    <g transform="matrix(0.291407,0,0,0.291407,1433.57,63.0213)">
        <circle cx="246.392" cy="188.402" r="5.823" style="fill:rgb(255,220,230);"/>
    </g>
    <g transform="matrix(0.291407,0,0,0.291407,1019.01,219.787)">
        <circle cx="246.392" cy="188.402" r="5.823" style="fill-opacity:0.13;"/>
    </g>
    <g transform="matrix(0.291407,0,0,0.291407,980.349,219.435)">
        <circle cx="246.392" cy="188.402" r="5.823" style="fill-opacity:0.13;"/>
    </g>
    <g transform="matrix(0.299011,0,0,0.299011,289.748,290.044)">
        <circle cx="246.392" cy="188.402" r="5.823" style="fill-opacity:0.1;"/>
    </g>
    <g transform="matrix(0.291407,0,0,0.291407,1433.58,69.3038)">
        <circle cx="246.392" cy="188.402" r="5.823" style="fill:rgb(255,220,230);"/>
    </g>
    <g transform="matrix(0.291407,0,0,0.291407,1019.01,226.069)">
        <circle cx="246.392" cy="188.402" r="5.823" style="fill-opacity:0.13;"/>
    </g>
    <g transform="matrix(0.291407,0,0,0.291407,980.357,225.718)">
        <circle cx="246.392" cy="188.402" r="5.823" style="fill-opacity:0.13;"/>
    </g>
    <g transform="matrix(0.299011,0,0,0.299011,289.748,296.935)">
        <circle cx="246.392" cy="188.402" r="5.823" style="fill-opacity:0.1;"/>
    </g>
    <g transform="matrix(0.291407,0,0,0.291407,1433.58,76.0201)">
        <circle cx="246.392" cy="188.402" r="5.823" style="fill:rgb(255,220,230);"/>
    </g>
    <g transform="matrix(0.291407,0,0,0.291407,1019.01,232.786)">
        <circle cx="246.392" cy="188.402" r="5.823" style="fill-opacity:0.13;"/>
    </g>
    <g transform="matrix(0.291407,0,0,0.291407,980.357,232.434)">
        <circle cx="246.392" cy="188.402" r="5.823" style="fill-opacity:0.13;"/>
    </g>
    <g transform="matrix(0.299011,0,0,0.299011,289.748,303.428)">
        <circle cx="246.392" cy="188.402" r="5.823" style="fill-opacity:0.1;"/>
    </g>
    <g transform="matrix(0.291407,0,0,0.291407,1433.58,82.3477)">
        <circle cx="246.392" cy="188.402" r="5.823" style="fill:rgb(255,220,230);"/>
    </g>
    <g transform="matrix(0.291407,0,0,0.291407,1019.01,239.113)">
        <circle cx="246.392" cy="188.402" r="5.823" style="fill-opacity:0.13;"/>
    </g>
    <g transform="matrix(0.291407,0,0,0.291407,980.357,238.762)">
        <circle cx="246.392" cy="188.402" r="5.823" style="fill-opacity:0.13;"/>
    </g>
    <g transform="matrix(0.299011,0,0,0.299011,296.448,270.407)">
        <circle cx="246.392" cy="188.402" r="5.823" style="fill-opacity:0.1;"/>
    </g>
    <g transform="matrix(0.291407,0,0,0.291407,1440.11,50.1664)">
        <circle cx="246.392" cy="188.402" r="5.823" style="fill:rgb(255,220,230);"/>
    </g>
    <g transform="matrix(0.291407,0,0,0.291407,1025.54,206.932)">
        <circle cx="246.392" cy="188.402" r="5.823" style="fill-opacity:0.13;"/>
    </g>
    <g transform="matrix(0.291407,0,0,0.291407,986.887,206.58)">
        <circle cx="246.392" cy="188.402" r="5.823" style="fill-opacity:0.13;"/>
    </g>
    <g transform="matrix(0.299011,0,0,0.299011,296.315,277.021)">
        <circle cx="246.392" cy="188.402" r="5.823" style="fill-opacity:0.1;"/>
    </g>
    <g transform="matrix(0.291407,0,0,0.291407,1439.98,56.6127)">
        <circle cx="246.392" cy="188.402" r="5.823" style="fill:rgb(255,220,230);"/>
    </g>
    <g transform="matrix(0.291407,0,0,0.291407,1025.41,213.378)">
        <circle cx="246.392" cy="188.402" r="5.823" style="fill-opacity:0.13;"/>
    </g>
    <g transform="matrix(0.291407,0,0,0.291407,986.757,213.027)">
        <circle cx="246.392" cy="188.402" r="5.823" style="fill-opacity:0.13;"/>
    </g>
    <g transform="matrix(0.299011,0,0,0.299011,296.315,283.597)">
        <circle cx="246.392" cy="188.402" r="5.823" style="fill-opacity:0.1;"/>
    </g>
    <g transform="matrix(0.291407,0,0,0.291407,1439.98,63.0213)">
        <circle cx="246.392" cy="188.402" r="5.823" style="fill:rgb(255,220,230);"/>
    </g>
    <g transform="matrix(0.291407,0,0,0.291407,1025.41,219.787)">
        <circle cx="246.392" cy="188.402" r="5.823" style="fill-opacity:0.13;"/>
    </g>
    <g transform="matrix(0.291407,0,0,0.291407,986.757,219.435)">
        <circle cx="246.392" cy="188.402" r="5.823" style="fill-opacity:0.13;"/>
    </g>
    <g transform="matrix(0.299011,0,0,0.299011,296.315,290.044)">
        <circle cx="246.392" cy="188.402" r="5.823" style="fill-opacity:0.1;"/>
    </g>
    <g transform="matrix(0.291407,0,0,0.291407,1439.98,69.3038)">
        <circle cx="246.392" cy="188.402" r="5.823" style="fill:rgb(255,220,230);"/>
    </g>
    <g transform="matrix(0.291407,0,0,0.291407,1025.41,226.069)">
        <circle cx="246.392" cy="188.402" r="5.823" style="fill-opacity:0.13;"/>
    </g>
    <g transform="matrix(0.291407,0,0,0.291407,986.757,225.718)">
        <circle cx="246.392" cy="188.402" r="5.823" style="fill-opacity:0.13;"/>
    </g>
    <g transform="matrix(0.299011,0,0,0.299011,296.315,296.935)">
        <circle cx="246.392" cy="188.402" r="5.823" style="fill-opacity:0.1;"/>
    </g>
    <g transform="matrix(0.291407,0,0,0.291407,1439.98,76.0201)">
        <circle cx="246.392" cy="188.402" r="5.823" style="fill:rgb(255,220,230);"/>
    </g>
    <g transform="matrix(0.291407,0,0,0.291407,1025.41,232.786)">
        <circle cx="246.392" cy="188.402" r="5.823" style="fill-opacity:0.13;"/>
    </g>
    <g transform="matrix(0.291407,0,0,0.291407,986.757,232.434)">
        <circle cx="246.392" cy="188.402" r="5.823" style="fill-opacity:0.13;"/>
    </g>
    <g transform="matrix(0.299011,0,0,0.299011,296.315,303.503)">
        <circle cx="246.392" cy="188.402" r="5.823" style="fill-opacity:0.1;"/>
    </g>
    <g transform="matrix(0.291407,0,0,0.291407,1439.98,82.4208)">
        <circle cx="246.392" cy="188.402" r="5.823" style="fill:rgb(255,220,230);"/>
    </g>
    <g transform="matrix(0.291407,0,0,0.291407,1025.41,239.186)">
        <circle cx="246.392" cy="188.402" r="5.823" style="fill-opacity:0.13;"/>
    </g>
    <g transform="matrix(0.291407,0,0,0.291407,986.757,238.835)">
        <circle cx="246.392" cy="188.402" r="5.823" style="fill-opacity:0.13;"/>
    </g>
    <g transform="matrix(2.95657,0,0,2.95657,-144.747,-515.324)">
        <path d="M246.392,182.579C243.176,182.579 240.569,185.186 240.569,188.402C240.569,191.616 243.178,194.226 246.392,194.226C249.608,194.226 252.216,191.619 252.216,188.402L246.392,188.402L246.392,182.579Z" style="fill:rgb(255,220,230);"/>
    </g>
    <g transform="matrix(0.299011,0,0,0.299011,303.047,270.407)">
        <circle cx="246.392" cy="188.402" r="5.823" style="fill-opacity:0.1;"/>
    </g>
    <g transform="matrix(0.291407,0,0,0.291407,1446.54,50.1664)">
        <circle cx="246.392" cy="188.402" r="5.823" style="fill:rgb(255,220,230);"/>
    </g>
    <g transform="matrix(0.291407,0,0,0.291407,1031.97,206.932)">
        <circle cx="246.392" cy="188.402" r="5.823" style="fill-opacity:0.13;"/>
    </g>
    <g transform="matrix(0.291407,0,0,0.291407,993.318,206.58)">
        <circle cx="246.392" cy="188.402" r="5.823" style="fill-opacity:0.13;"/>
    </g>
    <g transform="matrix(0.299011,0,0,0.299011,303.047,276.981)">
        <circle cx="246.392" cy="188.402" r="5.823" style="fill-opacity:0.1;"/>
    </g>
    <g transform="matrix(0.291407,0,0,0.291407,1446.54,56.573)">
        <circle cx="246.392" cy="188.402" r="5.823" style="fill:rgb(255,220,230);"/>
    </g>
    <g transform="matrix(0.291407,0,0,0.291407,1031.97,213.339)">
        <circle cx="246.392" cy="188.402" r="5.823" style="fill-opacity:0.13;"/>
    </g>
    <g transform="matrix(0.291407,0,0,0.291407,993.318,212.987)">
        <circle cx="246.392" cy="188.402" r="5.823" style="fill-opacity:0.13;"/>
    </g>
    <g transform="matrix(0.299011,0,0,0.299011,303.17,283.597)">
        <circle cx="246.392" cy="188.402" r="5.823" style="fill-opacity:0.1;"/>
    </g>
    <g transform="matrix(0.291407,0,0,0.291407,1446.66,63.0213)">
        <circle cx="246.392" cy="188.402" r="5.823" style="fill:rgb(255,220,230);"/>
    </g>
    <g transform="matrix(0.291407,0,0,0.291407,1032.09,219.787)">
        <circle cx="246.392" cy="188.402" r="5.823" style="fill-opacity:0.13;"/>
    </g>
    <g transform="matrix(0.291407,0,0,0.291407,993.438,219.435)">
        <circle cx="246.392" cy="188.402" r="5.823" style="fill-opacity:0.13;"/>
    </g>
    <g transform="matrix(0.299011,0,0,0.299011,302.952,290.261)">
        <circle cx="246.392" cy="188.402" r="5.823" style="fill-opacity:0.1;"/>
    </g>
    <g transform="matrix(0.291407,0,0,0.291407,1446.45,69.5155)">
        <circle cx="246.392" cy="188.402" r="5.823" style="fill:rgb(255,220,230);"/>
    </g>
    <g transform="matrix(0.291407,0,0,0.291407,1031.88,226.281)">
        <circle cx="246.392" cy="188.402" r="5.823" style="fill-opacity:0.13;"/>
    </g>
    <g transform="matrix(0.291407,0,0,0.291407,993.225,225.93)">
        <circle cx="246.392" cy="188.402" r="5.823" style="fill-opacity:0.13;"/>
    </g>
    <g transform="matrix(0.299011,0,0,0.299011,302.952,296.617)">
        <circle cx="246.392" cy="188.402" r="5.823" style="fill-opacity:0.1;"/>
    </g>
    <g transform="matrix(0.291407,0,0,0.291407,1446.45,75.7095)">
        <circle cx="246.392" cy="188.402" r="5.823" style="fill:rgb(255,220,230);"/>
    </g>
    <g transform="matrix(0.291407,0,0,0.291407,1031.88,232.475)">
        <circle cx="246.392" cy="188.402" r="5.823" style="fill-opacity:0.13;"/>
    </g>
    <g transform="matrix(0.291407,0,0,0.291407,993.225,232.124)">
        <circle cx="246.392" cy="188.402" r="5.823" style="fill-opacity:0.13;"/>
    </g>
    <g transform="matrix(0.299011,0,0,0.299011,302.952,303.503)">
        <circle cx="246.392" cy="188.402" r="5.823" style="fill-opacity:0.1;"/>
    </g>
    <g transform="matrix(0.291407,0,0,0.291407,1446.45,82.4208)">
        <circle cx="246.392" cy="188.402" r="5.823" style="fill:rgb(255,220,230);"/>
    </g>
    <g transform="matrix(0.291407,0,0,0.291407,1031.88,239.186)">
        <circle cx="246.392" cy="188.402" r="5.823" style="fill-opacity:0.13;"/>
    </g>
    <g transform="matrix(0.291407,0,0,0.291407,993.225,238.835)">
        <circle cx="246.392" cy="188.402" r="5.823" style="fill-opacity:0.13;"/>
    </g>
    <g transform="matrix(0.299011,0,0,0.299011,310.05,270.407)">
        <circle cx="246.392" cy="188.402" r="5.823" style="fill-opacity:0.1;"/>
    </g>
    <g transform="matrix(0.291407,0,0,0.291407,1453.36,50.1664)">
        <circle cx="246.392" cy="188.402" r="5.823" style="fill:rgb(255,220,230);"/>
    </g>
    <g transform="matrix(0.291407,0,0,0.291407,1038.8,206.932)">
        <circle cx="246.392" cy="188.402" r="5.823" style="fill-opacity:0.13;"/>
    </g>
    <g transform="matrix(0.291407,0,0,0.291407,1000.14,206.58)">
        <circle cx="246.392" cy="188.402" r="5.823" style="fill-opacity:0.13;"/>
    </g>
    <g transform="matrix(0.299011,0,0,0.299011,309.688,276.981)">
        <circle cx="246.392" cy="188.402" r="5.823" style="fill-opacity:0.1;"/>
    </g>
    <g transform="matrix(0.291407,0,0,0.291407,1453.01,56.573)">
        <circle cx="246.392" cy="188.402" r="5.823" style="fill:rgb(255,220,230);"/>
    </g>
    <g transform="matrix(0.291407,0,0,0.291407,1038.45,213.339)">
        <circle cx="246.392" cy="188.402" r="5.823" style="fill-opacity:0.13;"/>
    </g>
    <g transform="matrix(0.291407,0,0,0.291407,999.79,212.987)">
        <circle cx="246.392" cy="188.402" r="5.823" style="fill-opacity:0.13;"/>
    </g>
    <g transform="matrix(0.299011,0,0,0.299011,309.719,283.597)">
        <circle cx="246.392" cy="188.402" r="5.823" style="fill-opacity:0.1;"/>
    </g>
    <g transform="matrix(0.291407,0,0,0.291407,1453.04,63.0213)">
        <circle cx="246.392" cy="188.402" r="5.823" style="fill:rgb(255,220,230);"/>
    </g>
    <g transform="matrix(0.291407,0,0,0.291407,1038.48,219.787)">
        <circle cx="246.392" cy="188.402" r="5.823" style="fill-opacity:0.13;"/>
    </g>
    <g transform="matrix(0.291407,0,0,0.291407,999.82,219.435)">
        <circle cx="246.392" cy="188.402" r="5.823" style="fill-opacity:0.13;"/>
    </g>
    <g transform="matrix(0.299011,0,0,0.299011,309.688,290.261)">
        <circle cx="246.392" cy="188.402" r="5.823" style="fill-opacity:0.1;"/>
    </g>
    <g transform="matrix(0.291407,0,0,0.291407,1453.01,69.5155)">
        <circle cx="246.392" cy="188.402" r="5.823" style="fill:rgb(255,220,230);"/>
    </g>
    <g transform="matrix(0.291407,0,0,0.291407,1038.45,226.281)">
        <circle cx="246.392" cy="188.402" r="5.823" style="fill-opacity:0.13;"/>
    </g>
    <g transform="matrix(0.291407,0,0,0.291407,999.79,225.93)">
        <circle cx="246.392" cy="188.402" r="5.823" style="fill-opacity:0.13;"/>
    </g>
    <g transform="matrix(0.299011,0,0,0.299011,309.688,296.617)">
        <circle cx="246.392" cy="188.402" r="5.823" style="fill-opacity:0.1;"/>
    </g>
    <g transform="matrix(0.291407,0,0,0.291407,1453.01,75.7095)">
        <circle cx="246.392" cy="188.402" r="5.823" style="fill:rgb(255,220,230);"/>
    </g>
    <g transform="matrix(0.291407,0,0,0.291407,1038.45,232.475)">
        <circle cx="246.392" cy="188.402" r="5.823" style="fill-opacity:0.13;"/>
    </g>
    <g transform="matrix(0.291407,0,0,0.291407,999.79,232.124)">
        <circle cx="246.392" cy="188.402" r="5.823" style="fill-opacity:0.13;"/>
    </g>
    <g transform="matrix(2.96982,0,0,2.96982,291.021,-517.743)">
        <path d="M246.392,182.579C249.606,182.579 252.216,185.188 252.216,188.402C252.216,191.616 249.606,194.226 246.392,194.226C243.178,194.226 240.569,191.616 240.569,188.402C240.569,185.188 243.178,182.579 246.392,182.579ZM246.392,185.491C247.999,185.491 249.304,186.795 249.304,188.402C249.304,190.009 247.999,191.314 246.392,191.314C244.785,191.314 243.48,190.009 243.48,188.402C243.48,186.795 244.785,185.491 246.392,185.491Z" style="fill:rgb(255,247,229);"/>
    </g>
    <g transform="matrix(0.299011,0,0,0.299011,309.688,303.467)">
        <circle cx="246.392" cy="188.402" r="5.823" style="fill-opacity:0.1;"/>
    </g>
    <g transform="matrix(0.291407,0,0,0.291407,1453.01,82.3855)">
        <circle cx="246.392" cy="188.402" r="5.823" style="fill:rgb(255,220,230);"/>
    </g>
    <g transform="matrix(0.291407,0,0,0.291407,1038.45,239.151)">
        <circle cx="246.392" cy="188.402" r="5.823" style="fill-opacity:0.13;"/>
    </g>
    <g transform="matrix(0.291407,0,0,0.291407,999.79,238.8)">
        <circle cx="246.392" cy="188.402" r="5.823" style="fill-opacity:0.13;"/>
    </g>
    <g transform="matrix(0.299011,0,0,0.299011,316.318,270.407)">
        <circle cx="246.392" cy="188.402" r="5.823" style="fill-opacity:0.1;"/>
    </g>
    <g transform="matrix(0.291407,0,0,0.291407,1459.47,50.1664)">
        <circle cx="246.392" cy="188.402" r="5.823" style="fill:rgb(255,220,230);"/>
    </g>
    <g transform="matrix(0.291407,0,0,0.291407,1044.91,206.932)">
        <circle cx="246.392" cy="188.402" r="5.823" style="fill-opacity:0.13;"/>
    </g>
    <g transform="matrix(0.291407,0,0,0.291407,1006.25,206.58)">
        <circle cx="246.392" cy="188.402" r="5.823" style="fill-opacity:0.13;"/>
    </g>
    <g transform="matrix(0.299011,0,0,0.299011,316.318,276.981)">
        <circle cx="246.392" cy="188.402" r="5.823" style="fill-opacity:0.1;"/>
    </g>
    <g transform="matrix(0.291407,0,0,0.291407,1459.47,56.573)">
        <circle cx="246.392" cy="188.402" r="5.823" style="fill:rgb(255,220,230);"/>
    </g>
    <g transform="matrix(0.291407,0,0,0.291407,1044.91,213.339)">
        <circle cx="246.392" cy="188.402" r="5.823" style="fill-opacity:0.13;"/>
    </g>
    <g transform="matrix(0.291407,0,0,0.291407,1006.25,212.987)">
        <circle cx="246.392" cy="188.402" r="5.823" style="fill-opacity:0.13;"/>
    </g>
    <g transform="matrix(0.299011,0,0,0.299011,316.359,283.597)">
        <circle cx="246.392" cy="188.402" r="5.823" style="fill-opacity:0.1;"/>
    </g>
    <g transform="matrix(0.291407,0,0,0.291407,1459.51,63.0213)">
        <circle cx="246.392" cy="188.402" r="5.823" style="fill:rgb(255,220,230);"/>
    </g>
    <g transform="matrix(0.291407,0,0,0.291407,1044.95,219.787)">
        <circle cx="246.392" cy="188.402" r="5.823" style="fill-opacity:0.13;"/>
    </g>
    <g transform="matrix(0.291407,0,0,0.291407,1006.29,219.435)">
        <circle cx="246.392" cy="188.402" r="5.823" style="fill-opacity:0.13;"/>
    </g>
    <g transform="matrix(0.299011,0,0,0.299011,316.359,290.185)">
        <circle cx="246.392" cy="188.402" r="5.823" style="fill-opacity:0.1;"/>
    </g>
    <g transform="matrix(0.291407,0,0,0.291407,1459.51,69.4416)">
        <circle cx="246.392" cy="188.402" r="5.823" style="fill:rgb(255,220,230);"/>
    </g>
    <g transform="matrix(0.291407,0,0,0.291407,1044.95,226.207)">
        <circle cx="246.392" cy="188.402" r="5.823" style="fill-opacity:0.13;"/>
    </g>
    <g transform="matrix(0.291407,0,0,0.291407,1006.29,225.856)">
        <circle cx="246.392" cy="188.402" r="5.823" style="fill-opacity:0.13;"/>
    </g>
    <g transform="matrix(0.299011,0,0,0.299011,316.359,296.804)">
        <circle cx="246.392" cy="188.402" r="5.823" style="fill-opacity:0.1;"/>
    </g>
    <g transform="matrix(0.291407,0,0,0.291407,1459.51,75.8918)">
        <circle cx="246.392" cy="188.402" r="5.823" style="fill:rgb(255,220,230);"/>
    </g>
    <g transform="matrix(0.291407,0,0,0.291407,1044.95,232.657)">
        <circle cx="246.392" cy="188.402" r="5.823" style="fill-opacity:0.13;"/>
    </g>
    <g transform="matrix(0.291407,0,0,0.291407,1006.29,232.306)">
        <circle cx="246.392" cy="188.402" r="5.823" style="fill-opacity:0.13;"/>
    </g>
    <g transform="matrix(0.299011,0,0,0.299011,316.359,303.467)">
        <circle cx="246.392" cy="188.402" r="5.823" style="fill-opacity:0.1;"/>
    </g>
    <g transform="matrix(0.291407,0,0,0.291407,1459.51,82.3855)">
        <circle cx="246.392" cy="188.402" r="5.823" style="fill:rgb(255,220,230);"/>
    </g>
    <g transform="matrix(0.291407,0,0,0.291407,1044.95,239.151)">
        <circle cx="246.392" cy="188.402" r="5.823" style="fill-opacity:0.13;"/>
    </g>
    <g transform="matrix(0.291407,0,0,0.291407,1006.29,238.8)">
        <circle cx="246.392" cy="188.402" r="5.823" style="fill-opacity:0.13;"/>
    </g>
    <g transform="matrix(0.299011,0,0,0.299011,322.869,270.407)">
        <circle cx="246.392" cy="188.402" r="5.823" style="fill-opacity:0.1;"/>
    </g>
    <g transform="matrix(0.291407,0,0,0.291407,1465.86,50.1664)">
        <circle cx="246.392" cy="188.402" r="5.823" style="fill:rgb(255,220,230);"/>
    </g>
    <g transform="matrix(0.291407,0,0,0.291407,1051.29,206.932)">
        <circle cx="246.392" cy="188.402" r="5.823" style="fill-opacity:0.13;"/>
    </g>
    <g transform="matrix(0.291407,0,0,0.291407,1012.64,206.58)">
        <circle cx="246.392" cy="188.402" r="5.823" style="fill-opacity:0.13;"/>
    </g>
    <g transform="matrix(0.299011,0,0,0.299011,322.869,276.981)">
        <circle cx="246.392" cy="188.402" r="5.823" style="fill-opacity:0.1;"/>
    </g>
    <g transform="matrix(0.291407,0,0,0.291407,1465.86,56.573)">
        <circle cx="246.392" cy="188.402" r="5.823" style="fill:rgb(255,220,230);"/>
    </g>
    <g transform="matrix(0.291407,0,0,0.291407,1051.29,213.339)">
        <circle cx="246.392" cy="188.402" r="5.823" style="fill-opacity:0.13;"/>
    </g>
    <g transform="matrix(0.291407,0,0,0.291407,1012.64,212.987)">
        <circle cx="246.392" cy="188.402" r="5.823" style="fill-opacity:0.13;"/>
    </g>
    <g transform="matrix(0.299011,0,0,0.299011,322.935,283.597)">
        <circle cx="246.392" cy="188.402" r="5.823" style="fill-opacity:0.1;"/>
    </g>
    <g transform="matrix(0.291407,0,0,0.291407,1465.92,63.0213)">
        <circle cx="246.392" cy="188.402" r="5.823" style="fill:rgb(255,220,230);"/>
    </g>
    <g transform="matrix(0.291407,0,0,0.291407,1051.36,219.787)">
        <circle cx="246.392" cy="188.402" r="5.823" style="fill-opacity:0.13;"/>
    </g>
    <g transform="matrix(0.291407,0,0,0.291407,1012.7,219.435)">
        <circle cx="246.392" cy="188.402" r="5.823" style="fill-opacity:0.13;"/>
    </g>
    <g transform="matrix(0.299011,0,0,0.299011,322.935,290.185)">
        <circle cx="246.392" cy="188.402" r="5.823" style="fill-opacity:0.1;"/>
    </g>
    <g transform="matrix(0.291407,0,0,0.291407,1465.92,69.4416)">
        <circle cx="246.392" cy="188.402" r="5.823" style="fill:rgb(255,220,230);"/>
    </g>
    <g transform="matrix(0.291407,0,0,0.291407,1051.36,226.207)">
        <circle cx="246.392" cy="188.402" r="5.823" style="fill-opacity:0.13;"/>
    </g>
    <g transform="matrix(0.291407,0,0,0.291407,1012.7,225.856)">
        <circle cx="246.392" cy="188.402" r="5.823" style="fill-opacity:0.13;"/>
    </g>
    <g transform="matrix(0.299011,0,0,0.299011,322.935,296.804)">
        <circle cx="246.392" cy="188.402" r="5.823" style="fill-opacity:0.1;"/>
    </g>
    <g transform="matrix(0.291407,0,0,0.291407,1465.92,75.8918)">
        <circle cx="246.392" cy="188.402" r="5.823" style="fill:rgb(255,220,230);"/>
    </g>
    <g transform="matrix(0.291407,0,0,0.291407,1051.36,232.657)">
        <circle cx="246.392" cy="188.402" r="5.823" style="fill-opacity:0.13;"/>
    </g>
    <g transform="matrix(0.291407,0,0,0.291407,1012.7,232.306)">
        <circle cx="246.392" cy="188.402" r="5.823" style="fill-opacity:0.13;"/>
    </g>
    <g transform="matrix(0.299011,0,0,0.299011,322.935,303.467)">
        <circle cx="246.392" cy="188.402" r="5.823" style="fill-opacity:0.1;"/>
    </g>
    <g transform="matrix(0.291407,0,0,0.291407,1465.92,82.3855)">
        <circle cx="246.392" cy="188.402" r="5.823" style="fill:rgb(255,220,230);"/>
    </g>
    <g transform="matrix(0.291407,0,0,0.291407,1051.36,239.151)">
        <circle cx="246.392" cy="188.402" r="5.823" style="fill-opacity:0.13;"/>
    </g>
    <g transform="matrix(0.291407,0,0,0.291407,1012.7,238.8)">
        <circle cx="246.392" cy="188.402" r="5.823" style="fill-opacity:0.13;"/>
    </g>
    <g transform="matrix(0.457082,0,0,0.457082,593.195,297.013)">
        <path d="M901.962,404.566C901.962,396.165 895.141,389.344 886.74,389.344L856.297,389.344C847.896,389.344 841.075,396.165 841.075,404.566L841.075,435.009C841.075,443.411 847.896,450.231 856.297,450.231L886.74,450.231C895.141,450.231 901.962,443.411 901.962,435.009L901.962,404.566Z" style="fill:rgb(226,242,255);"/>
    </g>
</svg>
