<?xml version="1.0" encoding="UTF-8" standalone="no"?>
<!DOCTYPE svg PUBLIC "-//W3C//DTD SVG 1.1//EN" "http://www.w3.org/Graphics/SVG/1.1/DTD/svg11.dtd">
<svg width="100%" height="100%" viewBox="0 0 1920 650" version="1.1" xmlns="http://www.w3.org/2000/svg" xmlns:xlink="http://www.w3.org/1999/xlink" xml:space="preserve" xmlns:serif="http://www.serif.com/" style="fill-rule:evenodd;clip-rule:evenodd;stroke-linejoin:round;stroke-miterlimit:2;">
    <g transform="matrix(0.299011,0,0,0.299011,336.24,250.195)">
        <circle cx="246.392" cy="188.402" r="5.823" style="fill-opacity:0.1;"/>
    </g>
    <g transform="matrix(0.291407,0,0,0.291407,1433.61,50.1664)">
        <circle cx="246.392" cy="188.402" r="5.823" style="fill:rgb(255,220,230);"/>
    </g>
    <g transform="matrix(0.291407,0,0,0.291407,1011.51,166.98)">
        <circle cx="246.392" cy="188.402" r="5.823" style="fill-opacity:0.13;"/>
    </g>
    <g transform="matrix(0.291407,0,0,0.291407,972.856,166.628)">
        <circle cx="246.392" cy="188.402" r="5.823" style="fill-opacity:0.13;"/>
    </g>
    <g transform="matrix(0.299011,0,0,0.299011,336.204,256.816)">
        <circle cx="246.392" cy="188.402" r="5.823" style="fill-opacity:0.1;"/>
    </g>
    <g transform="matrix(0.291407,0,0,0.291407,1433.58,56.6192)">
        <circle cx="246.392" cy="188.402" r="5.823" style="fill:rgb(255,220,230);"/>
    </g>
    <g transform="matrix(0.291407,0,0,0.291407,1011.48,173.433)">
        <circle cx="246.392" cy="188.402" r="5.823" style="fill-opacity:0.13;"/>
    </g>
    <g transform="matrix(0.291407,0,0,0.291407,972.822,173.081)">
        <circle cx="246.392" cy="188.402" r="5.823" style="fill-opacity:0.13;"/>
    </g>
    <g transform="matrix(0.299011,0,0,0.299011,336.197,263.385)">
        <circle cx="246.392" cy="188.402" r="5.823" style="fill-opacity:0.1;"/>
    </g>
    <g transform="matrix(0.291407,0,0,0.291407,1433.57,63.0213)">
        <circle cx="246.392" cy="188.402" r="5.823" style="fill:rgb(255,220,230);"/>
    </g>
    <g transform="matrix(0.291407,0,0,0.291407,1011.47,179.835)">
        <circle cx="246.392" cy="188.402" r="5.823" style="fill-opacity:0.13;"/>
    </g>
    <g transform="matrix(0.291407,0,0,0.291407,972.815,179.483)">
        <circle cx="246.392" cy="188.402" r="5.823" style="fill-opacity:0.13;"/>
    </g>
    <g transform="matrix(0.299011,0,0,0.299011,336.204,269.831)">
        <circle cx="246.392" cy="188.402" r="5.823" style="fill-opacity:0.1;"/>
    </g>
    <g transform="matrix(0.291407,0,0,0.291407,1433.58,69.3038)">
        <circle cx="246.392" cy="188.402" r="5.823" style="fill:rgb(255,220,230);"/>
    </g>
    <g transform="matrix(0.291407,0,0,0.291407,1011.48,186.117)">
        <circle cx="246.392" cy="188.402" r="5.823" style="fill-opacity:0.13;"/>
    </g>
    <g transform="matrix(0.291407,0,0,0.291407,972.822,185.766)">
        <circle cx="246.392" cy="188.402" r="5.823" style="fill-opacity:0.13;"/>
    </g>
    <g transform="matrix(0.299011,0,0,0.299011,336.204,276.723)">
        <circle cx="246.392" cy="188.402" r="5.823" style="fill-opacity:0.1;"/>
    </g>
    <g transform="matrix(0.291407,0,0,0.291407,1433.58,76.0201)">
        <circle cx="246.392" cy="188.402" r="5.823" style="fill:rgb(255,220,230);"/>
    </g>
    <g transform="matrix(0.291407,0,0,0.291407,1011.48,192.834)">
        <circle cx="246.392" cy="188.402" r="5.823" style="fill-opacity:0.13;"/>
    </g>
    <g transform="matrix(0.291407,0,0,0.291407,972.822,192.482)">
        <circle cx="246.392" cy="188.402" r="5.823" style="fill-opacity:0.13;"/>
    </g>
    <g transform="matrix(0.299011,0,0,0.299011,336.204,283.216)">
        <circle cx="246.392" cy="188.402" r="5.823" style="fill-opacity:0.1;"/>
    </g>
    <g transform="matrix(0.291407,0,0,0.291407,1433.58,82.3477)">
        <circle cx="246.392" cy="188.402" r="5.823" style="fill:rgb(255,220,230);"/>
    </g>
    <g transform="matrix(0.291407,0,0,0.291407,1011.48,199.161)">
        <circle cx="246.392" cy="188.402" r="5.823" style="fill-opacity:0.13;"/>
    </g>
    <g transform="matrix(0.291407,0,0,0.291407,972.822,198.81)">
        <circle cx="246.392" cy="188.402" r="5.823" style="fill-opacity:0.13;"/>
    </g>
    <g transform="matrix(0.299011,0,0,0.299011,342.905,250.195)">
        <circle cx="246.392" cy="188.402" r="5.823" style="fill-opacity:0.1;"/>
    </g>
    <g transform="matrix(0.291407,0,0,0.291407,1440.11,50.1664)">
        <circle cx="246.392" cy="188.402" r="5.823" style="fill:rgb(255,220,230);"/>
    </g>
    <g transform="matrix(0.291407,0,0,0.291407,1018.01,166.98)">
        <circle cx="246.392" cy="188.402" r="5.823" style="fill-opacity:0.13;"/>
    </g>
    <g transform="matrix(0.291407,0,0,0.291407,979.352,166.628)">
        <circle cx="246.392" cy="188.402" r="5.823" style="fill-opacity:0.13;"/>
    </g>
    <g transform="matrix(0.299011,0,0,0.299011,342.772,256.809)">
        <circle cx="246.392" cy="188.402" r="5.823" style="fill-opacity:0.1;"/>
    </g>
    <g transform="matrix(0.291407,0,0,0.291407,1439.98,56.6127)">
        <circle cx="246.392" cy="188.402" r="5.823" style="fill:rgb(255,220,230);"/>
    </g>
    <g transform="matrix(0.291407,0,0,0.291407,1017.88,173.426)">
        <circle cx="246.392" cy="188.402" r="5.823" style="fill-opacity:0.13;"/>
    </g>
    <g transform="matrix(0.291407,0,0,0.291407,979.223,173.075)">
        <circle cx="246.392" cy="188.402" r="5.823" style="fill-opacity:0.13;"/>
    </g>
    <g transform="matrix(0.299011,0,0,0.299011,342.772,263.385)">
        <circle cx="246.392" cy="188.402" r="5.823" style="fill-opacity:0.1;"/>
    </g>
    <g transform="matrix(0.291407,0,0,0.291407,1439.98,63.0213)">
        <circle cx="246.392" cy="188.402" r="5.823" style="fill:rgb(255,220,230);"/>
    </g>
    <g transform="matrix(0.291407,0,0,0.291407,1017.88,179.835)">
        <circle cx="246.392" cy="188.402" r="5.823" style="fill-opacity:0.13;"/>
    </g>
    <g transform="matrix(0.291407,0,0,0.291407,979.223,179.483)">
        <circle cx="246.392" cy="188.402" r="5.823" style="fill-opacity:0.13;"/>
    </g>
    <g transform="matrix(0.299011,0,0,0.299011,342.772,269.831)">
        <circle cx="246.392" cy="188.402" r="5.823" style="fill-opacity:0.1;"/>
    </g>
    <g transform="matrix(0.291407,0,0,0.291407,1439.98,69.3038)">
        <circle cx="246.392" cy="188.402" r="5.823" style="fill:rgb(255,220,230);"/>
    </g>
    <g transform="matrix(0.291407,0,0,0.291407,1017.88,186.117)">
        <circle cx="246.392" cy="188.402" r="5.823" style="fill-opacity:0.13;"/>
    </g>
    <g transform="matrix(0.291407,0,0,0.291407,979.223,185.766)">
        <circle cx="246.392" cy="188.402" r="5.823" style="fill-opacity:0.13;"/>
    </g>
    <g transform="matrix(0.299011,0,0,0.299011,342.772,276.723)">
        <circle cx="246.392" cy="188.402" r="5.823" style="fill-opacity:0.1;"/>
    </g>
    <g transform="matrix(0.291407,0,0,0.291407,1439.98,76.0201)">
        <circle cx="246.392" cy="188.402" r="5.823" style="fill:rgb(255,220,230);"/>
    </g>
    <g transform="matrix(0.291407,0,0,0.291407,1017.88,192.834)">
        <circle cx="246.392" cy="188.402" r="5.823" style="fill-opacity:0.13;"/>
    </g>
    <g transform="matrix(0.291407,0,0,0.291407,979.223,192.482)">
        <circle cx="246.392" cy="188.402" r="5.823" style="fill-opacity:0.13;"/>
    </g>
    <g transform="matrix(0.299011,0,0,0.299011,342.772,283.291)">
        <circle cx="246.392" cy="188.402" r="5.823" style="fill-opacity:0.1;"/>
    </g>
    <g transform="matrix(0.291407,0,0,0.291407,1439.98,82.4208)">
        <circle cx="246.392" cy="188.402" r="5.823" style="fill:rgb(255,220,230);"/>
    </g>
    <g transform="matrix(0.291407,0,0,0.291407,1017.88,199.234)">
        <circle cx="246.392" cy="188.402" r="5.823" style="fill-opacity:0.13;"/>
    </g>
    <g transform="matrix(0.291407,0,0,0.291407,979.223,198.883)">
        <circle cx="246.392" cy="188.402" r="5.823" style="fill-opacity:0.13;"/>
    </g>
    <g transform="matrix(2.95657,0,0,2.95657,309.31,-296.215)">
        <path d="M246.392,182.579C243.176,182.579 240.569,185.186 240.569,188.402C240.569,191.616 243.178,194.226 246.392,194.226C249.608,194.226 252.216,191.619 252.216,188.402L246.392,188.402L246.392,182.579Z" style="fill:rgb(255,220,230);"/>
    </g>
    <g transform="matrix(0.299011,0,0,0.299011,349.504,250.195)">
        <circle cx="246.392" cy="188.402" r="5.823" style="fill-opacity:0.1;"/>
    </g>
    <g transform="matrix(0.291407,0,0,0.291407,1446.54,50.1664)">
        <circle cx="246.392" cy="188.402" r="5.823" style="fill:rgb(255,220,230);"/>
    </g>
    <g transform="matrix(0.291407,0,0,0.291407,1024.44,166.98)">
        <circle cx="246.392" cy="188.402" r="5.823" style="fill-opacity:0.13;"/>
    </g>
    <g transform="matrix(0.291407,0,0,0.291407,985.783,166.628)">
        <circle cx="246.392" cy="188.402" r="5.823" style="fill-opacity:0.13;"/>
    </g>
    <g transform="matrix(0.299011,0,0,0.299011,349.504,256.768)">
        <circle cx="246.392" cy="188.402" r="5.823" style="fill-opacity:0.1;"/>
    </g>
    <g transform="matrix(0.291407,0,0,0.291407,1446.54,56.573)">
        <circle cx="246.392" cy="188.402" r="5.823" style="fill:rgb(255,220,230);"/>
    </g>
    <g transform="matrix(0.291407,0,0,0.291407,1024.44,173.386)">
        <circle cx="246.392" cy="188.402" r="5.823" style="fill-opacity:0.13;"/>
    </g>
    <g transform="matrix(0.291407,0,0,0.291407,985.783,173.035)">
        <circle cx="246.392" cy="188.402" r="5.823" style="fill-opacity:0.13;"/>
    </g>
    <g transform="matrix(0.299011,0,0,0.299011,349.627,263.385)">
        <circle cx="246.392" cy="188.402" r="5.823" style="fill-opacity:0.1;"/>
    </g>
    <g transform="matrix(0.291407,0,0,0.291407,1446.66,63.0213)">
        <circle cx="246.392" cy="188.402" r="5.823" style="fill:rgb(255,220,230);"/>
    </g>
    <g transform="matrix(0.291407,0,0,0.291407,1024.56,179.835)">
        <circle cx="246.392" cy="188.402" r="5.823" style="fill-opacity:0.13;"/>
    </g>
    <g transform="matrix(0.291407,0,0,0.291407,985.903,179.483)">
        <circle cx="246.392" cy="188.402" r="5.823" style="fill-opacity:0.13;"/>
    </g>
    <g transform="matrix(0.299011,0,0,0.299011,349.408,270.049)">
        <circle cx="246.392" cy="188.402" r="5.823" style="fill-opacity:0.1;"/>
    </g>
    <g transform="matrix(0.291407,0,0,0.291407,1446.45,69.5155)">
        <circle cx="246.392" cy="188.402" r="5.823" style="fill:rgb(255,220,230);"/>
    </g>
    <g transform="matrix(0.291407,0,0,0.291407,1024.35,186.329)">
        <circle cx="246.392" cy="188.402" r="5.823" style="fill-opacity:0.13;"/>
    </g>
    <g transform="matrix(0.291407,0,0,0.291407,985.69,185.977)">
        <circle cx="246.392" cy="188.402" r="5.823" style="fill-opacity:0.13;"/>
    </g>
    <g transform="matrix(0.299011,0,0,0.299011,349.408,276.404)">
        <circle cx="246.392" cy="188.402" r="5.823" style="fill-opacity:0.1;"/>
    </g>
    <g transform="matrix(0.291407,0,0,0.291407,1446.45,75.7095)">
        <circle cx="246.392" cy="188.402" r="5.823" style="fill:rgb(255,220,230);"/>
    </g>
    <g transform="matrix(0.291407,0,0,0.291407,1024.35,192.523)">
        <circle cx="246.392" cy="188.402" r="5.823" style="fill-opacity:0.13;"/>
    </g>
    <g transform="matrix(0.291407,0,0,0.291407,985.69,192.171)">
        <circle cx="246.392" cy="188.402" r="5.823" style="fill-opacity:0.13;"/>
    </g>
    <g transform="matrix(0.299011,0,0,0.299011,349.408,283.291)">
        <circle cx="246.392" cy="188.402" r="5.823" style="fill-opacity:0.1;"/>
    </g>
    <g transform="matrix(0.291407,0,0,0.291407,1446.45,82.4208)">
        <circle cx="246.392" cy="188.402" r="5.823" style="fill:rgb(255,220,230);"/>
    </g>
    <g transform="matrix(0.291407,0,0,0.291407,1024.35,199.234)">
        <circle cx="246.392" cy="188.402" r="5.823" style="fill-opacity:0.13;"/>
    </g>
    <g transform="matrix(0.291407,0,0,0.291407,985.69,198.883)">
        <circle cx="246.392" cy="188.402" r="5.823" style="fill-opacity:0.13;"/>
    </g>
    <g transform="matrix(0.299011,0,0,0.299011,356.507,250.195)">
        <circle cx="246.392" cy="188.402" r="5.823" style="fill-opacity:0.1;"/>
    </g>
    <g transform="matrix(0.291407,0,0,0.291407,1453.36,50.1664)">
        <circle cx="246.392" cy="188.402" r="5.823" style="fill:rgb(255,220,230);"/>
    </g>
    <g transform="matrix(0.291407,0,0,0.291407,1031.26,166.98)">
        <circle cx="246.392" cy="188.402" r="5.823" style="fill-opacity:0.13;"/>
    </g>
    <g transform="matrix(0.291407,0,0,0.291407,992.608,166.628)">
        <circle cx="246.392" cy="188.402" r="5.823" style="fill-opacity:0.13;"/>
    </g>
    <g transform="matrix(0.299011,0,0,0.299011,356.144,256.768)">
        <circle cx="246.392" cy="188.402" r="5.823" style="fill-opacity:0.1;"/>
    </g>
    <g transform="matrix(0.291407,0,0,0.291407,1453.01,56.573)">
        <circle cx="246.392" cy="188.402" r="5.823" style="fill:rgb(255,220,230);"/>
    </g>
    <g transform="matrix(0.291407,0,0,0.291407,1030.91,173.386)">
        <circle cx="246.392" cy="188.402" r="5.823" style="fill-opacity:0.13;"/>
    </g>
    <g transform="matrix(0.291407,0,0,0.291407,992.255,173.035)">
        <circle cx="246.392" cy="188.402" r="5.823" style="fill-opacity:0.13;"/>
    </g>
    <g transform="matrix(0.299011,0,0,0.299011,356.176,263.385)">
        <circle cx="246.392" cy="188.402" r="5.823" style="fill-opacity:0.1;"/>
    </g>
    <g transform="matrix(0.291407,0,0,0.291407,1453.04,63.0213)">
        <circle cx="246.392" cy="188.402" r="5.823" style="fill:rgb(255,220,230);"/>
    </g>
    <g transform="matrix(0.291407,0,0,0.291407,1030.94,179.835)">
        <circle cx="246.392" cy="188.402" r="5.823" style="fill-opacity:0.13;"/>
    </g>
    <g transform="matrix(0.291407,0,0,0.291407,992.286,179.483)">
        <circle cx="246.392" cy="188.402" r="5.823" style="fill-opacity:0.13;"/>
    </g>
    <g transform="matrix(0.299011,0,0,0.299011,356.144,270.049)">
        <circle cx="246.392" cy="188.402" r="5.823" style="fill-opacity:0.1;"/>
    </g>
    <g transform="matrix(0.291407,0,0,0.291407,1453.01,69.5155)">
        <circle cx="246.392" cy="188.402" r="5.823" style="fill:rgb(255,220,230);"/>
    </g>
    <g transform="matrix(0.291407,0,0,0.291407,1030.91,186.329)">
        <circle cx="246.392" cy="188.402" r="5.823" style="fill-opacity:0.13;"/>
    </g>
    <g transform="matrix(0.291407,0,0,0.291407,992.255,185.977)">
        <circle cx="246.392" cy="188.402" r="5.823" style="fill-opacity:0.13;"/>
    </g>
    <g transform="matrix(0.299011,0,0,0.299011,356.144,276.404)">
        <circle cx="246.392" cy="188.402" r="5.823" style="fill-opacity:0.1;"/>
    </g>
    <g transform="matrix(0.291407,0,0,0.291407,1453.01,75.7095)">
        <circle cx="246.392" cy="188.402" r="5.823" style="fill:rgb(255,220,230);"/>
    </g>
    <g transform="matrix(0.291407,0,0,0.291407,1030.91,192.523)">
        <circle cx="246.392" cy="188.402" r="5.823" style="fill-opacity:0.13;"/>
    </g>
    <g transform="matrix(0.291407,0,0,0.291407,992.255,192.171)">
        <circle cx="246.392" cy="188.402" r="5.823" style="fill-opacity:0.13;"/>
    </g>
    <g transform="matrix(2.96982,0,0,2.96982,291.021,-517.743)">
        <path d="M246.392,182.579C249.606,182.579 252.216,185.188 252.216,188.402C252.216,191.616 249.606,194.226 246.392,194.226C243.178,194.226 240.569,191.616 240.569,188.402C240.569,185.188 243.178,182.579 246.392,182.579ZM246.392,185.491C247.999,185.491 249.304,186.795 249.304,188.402C249.304,190.009 247.999,191.314 246.392,191.314C244.785,191.314 243.48,190.009 243.48,188.402C243.48,186.795 244.785,185.491 246.392,185.491Z" style="fill:rgb(255,247,229);"/>
    </g>
    <g transform="matrix(0.299011,0,0,0.299011,356.144,283.254)">
        <circle cx="246.392" cy="188.402" r="5.823" style="fill-opacity:0.1;"/>
    </g>
    <g transform="matrix(0.291407,0,0,0.291407,1453.01,82.3855)">
        <circle cx="246.392" cy="188.402" r="5.823" style="fill:rgb(255,220,230);"/>
    </g>
    <g transform="matrix(0.291407,0,0,0.291407,1030.91,199.199)">
        <circle cx="246.392" cy="188.402" r="5.823" style="fill-opacity:0.13;"/>
    </g>
    <g transform="matrix(0.291407,0,0,0.291407,992.255,198.847)">
        <circle cx="246.392" cy="188.402" r="5.823" style="fill-opacity:0.13;"/>
    </g>
    <g transform="matrix(0.299011,0,0,0.299011,362.775,250.195)">
        <circle cx="246.392" cy="188.402" r="5.823" style="fill-opacity:0.1;"/>
    </g>
    <g transform="matrix(0.291407,0,0,0.291407,1459.47,50.1664)">
        <circle cx="246.392" cy="188.402" r="5.823" style="fill:rgb(255,220,230);"/>
    </g>
    <g transform="matrix(0.291407,0,0,0.291407,1037.37,166.98)">
        <circle cx="246.392" cy="188.402" r="5.823" style="fill-opacity:0.13;"/>
    </g>
    <g transform="matrix(0.291407,0,0,0.291407,998.717,166.628)">
        <circle cx="246.392" cy="188.402" r="5.823" style="fill-opacity:0.13;"/>
    </g>
    <g transform="matrix(0.299011,0,0,0.299011,362.775,256.768)">
        <circle cx="246.392" cy="188.402" r="5.823" style="fill-opacity:0.1;"/>
    </g>
    <g transform="matrix(0.291407,0,0,0.291407,1459.47,56.573)">
        <circle cx="246.392" cy="188.402" r="5.823" style="fill:rgb(255,220,230);"/>
    </g>
    <g transform="matrix(0.291407,0,0,0.291407,1037.37,173.386)">
        <circle cx="246.392" cy="188.402" r="5.823" style="fill-opacity:0.13;"/>
    </g>
    <g transform="matrix(0.291407,0,0,0.291407,998.717,173.035)">
        <circle cx="246.392" cy="188.402" r="5.823" style="fill-opacity:0.13;"/>
    </g>
    <g transform="matrix(0.299011,0,0,0.299011,362.816,263.385)">
        <circle cx="246.392" cy="188.402" r="5.823" style="fill-opacity:0.1;"/>
    </g>
    <g transform="matrix(0.291407,0,0,0.291407,1459.51,63.0213)">
        <circle cx="246.392" cy="188.402" r="5.823" style="fill:rgb(255,220,230);"/>
    </g>
    <g transform="matrix(0.291407,0,0,0.291407,1037.41,179.835)">
        <circle cx="246.392" cy="188.402" r="5.823" style="fill-opacity:0.13;"/>
    </g>
    <g transform="matrix(0.291407,0,0,0.291407,998.757,179.483)">
        <circle cx="246.392" cy="188.402" r="5.823" style="fill-opacity:0.13;"/>
    </g>
    <g transform="matrix(0.299011,0,0,0.299011,362.816,269.973)">
        <circle cx="246.392" cy="188.402" r="5.823" style="fill-opacity:0.1;"/>
    </g>
    <g transform="matrix(0.291407,0,0,0.291407,1459.51,69.4416)">
        <circle cx="246.392" cy="188.402" r="5.823" style="fill:rgb(255,220,230);"/>
    </g>
    <g transform="matrix(0.291407,0,0,0.291407,1037.41,186.255)">
        <circle cx="246.392" cy="188.402" r="5.823" style="fill-opacity:0.13;"/>
    </g>
    <g transform="matrix(0.291407,0,0,0.291407,998.757,185.904)">
        <circle cx="246.392" cy="188.402" r="5.823" style="fill-opacity:0.13;"/>
    </g>
    <g transform="matrix(0.299011,0,0,0.299011,362.816,276.591)">
        <circle cx="246.392" cy="188.402" r="5.823" style="fill-opacity:0.1;"/>
    </g>
    <g transform="matrix(0.291407,0,0,0.291407,1459.51,75.8918)">
        <circle cx="246.392" cy="188.402" r="5.823" style="fill:rgb(255,220,230);"/>
    </g>
    <g transform="matrix(0.291407,0,0,0.291407,1037.41,192.705)">
        <circle cx="246.392" cy="188.402" r="5.823" style="fill-opacity:0.13;"/>
    </g>
    <g transform="matrix(0.291407,0,0,0.291407,998.757,192.354)">
        <circle cx="246.392" cy="188.402" r="5.823" style="fill-opacity:0.13;"/>
    </g>
    <g transform="matrix(0.299011,0,0,0.299011,362.816,283.254)">
        <circle cx="246.392" cy="188.402" r="5.823" style="fill-opacity:0.1;"/>
    </g>
    <g transform="matrix(0.291407,0,0,0.291407,1459.51,82.3855)">
        <circle cx="246.392" cy="188.402" r="5.823" style="fill:rgb(255,220,230);"/>
    </g>
    <g transform="matrix(0.291407,0,0,0.291407,1037.41,199.199)">
        <circle cx="246.392" cy="188.402" r="5.823" style="fill-opacity:0.13;"/>
    </g>
    <g transform="matrix(0.291407,0,0,0.291407,998.757,198.847)">
        <circle cx="246.392" cy="188.402" r="5.823" style="fill-opacity:0.13;"/>
    </g>
    <g transform="matrix(0.299011,0,0,0.299011,369.325,250.195)">
        <circle cx="246.392" cy="188.402" r="5.823" style="fill-opacity:0.1;"/>
    </g>
    <g transform="matrix(0.291407,0,0,0.291407,1465.86,50.1664)">
        <circle cx="246.392" cy="188.402" r="5.823" style="fill:rgb(255,220,230);"/>
    </g>
    <g transform="matrix(0.291407,0,0,0.291407,1043.76,166.98)">
        <circle cx="246.392" cy="188.402" r="5.823" style="fill-opacity:0.13;"/>
    </g>
    <g transform="matrix(0.291407,0,0,0.291407,1005.1,166.628)">
        <circle cx="246.392" cy="188.402" r="5.823" style="fill-opacity:0.13;"/>
    </g>
    <g transform="matrix(0.299011,0,0,0.299011,369.325,256.768)">
        <circle cx="246.392" cy="188.402" r="5.823" style="fill-opacity:0.1;"/>
    </g>
    <g transform="matrix(0.291407,0,0,0.291407,1465.86,56.573)">
        <circle cx="246.392" cy="188.402" r="5.823" style="fill:rgb(255,220,230);"/>
    </g>
    <g transform="matrix(0.291407,0,0,0.291407,1043.76,173.386)">
        <circle cx="246.392" cy="188.402" r="5.823" style="fill-opacity:0.13;"/>
    </g>
    <g transform="matrix(0.291407,0,0,0.291407,1005.1,173.035)">
        <circle cx="246.392" cy="188.402" r="5.823" style="fill-opacity:0.13;"/>
    </g>
    <g transform="matrix(0.299011,0,0,0.299011,369.392,263.385)">
        <circle cx="246.392" cy="188.402" r="5.823" style="fill-opacity:0.1;"/>
    </g>
    <g transform="matrix(0.291407,0,0,0.291407,1465.92,63.0213)">
        <circle cx="246.392" cy="188.402" r="5.823" style="fill:rgb(255,220,230);"/>
    </g>
    <g transform="matrix(0.291407,0,0,0.291407,1043.82,179.835)">
        <circle cx="246.392" cy="188.402" r="5.823" style="fill-opacity:0.13;"/>
    </g>
    <g transform="matrix(0.291407,0,0,0.291407,1005.17,179.483)">
        <circle cx="246.392" cy="188.402" r="5.823" style="fill-opacity:0.13;"/>
    </g>
    <g transform="matrix(0.299011,0,0,0.299011,369.392,269.973)">
        <circle cx="246.392" cy="188.402" r="5.823" style="fill-opacity:0.1;"/>
    </g>
    <g transform="matrix(0.291407,0,0,0.291407,1465.92,69.4416)">
        <circle cx="246.392" cy="188.402" r="5.823" style="fill:rgb(255,220,230);"/>
    </g>
    <g transform="matrix(0.291407,0,0,0.291407,1043.82,186.255)">
        <circle cx="246.392" cy="188.402" r="5.823" style="fill-opacity:0.13;"/>
    </g>
    <g transform="matrix(0.291407,0,0,0.291407,1005.17,185.904)">
        <circle cx="246.392" cy="188.402" r="5.823" style="fill-opacity:0.13;"/>
    </g>
    <g transform="matrix(0.299011,0,0,0.299011,369.392,276.591)">
        <circle cx="246.392" cy="188.402" r="5.823" style="fill-opacity:0.1;"/>
    </g>
    <g transform="matrix(0.291407,0,0,0.291407,1465.92,75.8918)">
        <circle cx="246.392" cy="188.402" r="5.823" style="fill:rgb(255,220,230);"/>
    </g>
    <g transform="matrix(0.291407,0,0,0.291407,1043.82,192.705)">
        <circle cx="246.392" cy="188.402" r="5.823" style="fill-opacity:0.13;"/>
    </g>
    <g transform="matrix(0.291407,0,0,0.291407,1005.17,192.354)">
        <circle cx="246.392" cy="188.402" r="5.823" style="fill-opacity:0.13;"/>
    </g>
    <g transform="matrix(0.299011,0,0,0.299011,369.392,283.254)">
        <circle cx="246.392" cy="188.402" r="5.823" style="fill-opacity:0.1;"/>
    </g>
    <g transform="matrix(0.291407,0,0,0.291407,1465.92,82.3855)">
        <circle cx="246.392" cy="188.402" r="5.823" style="fill:rgb(255,220,230);"/>
    </g>
    <g transform="matrix(0.291407,0,0,0.291407,1043.82,199.199)">
        <circle cx="246.392" cy="188.402" r="5.823" style="fill-opacity:0.13;"/>
    </g>
    <g transform="matrix(0.291407,0,0,0.291407,1005.17,198.847)">
        <circle cx="246.392" cy="188.402" r="5.823" style="fill-opacity:0.13;"/>
    </g>
    <g transform="matrix(0.457082,0,0,0.457082,593.195,297.013)">
        <path d="M901.962,404.566C901.962,396.165 895.141,389.344 886.74,389.344L856.297,389.344C847.896,389.344 841.075,396.165 841.075,404.566L841.075,435.009C841.075,443.411 847.896,450.231 856.297,450.231L886.74,450.231C895.141,450.231 901.962,443.411 901.962,435.009L901.962,404.566Z" style="fill:rgb(226,242,255);"/>
    </g>
    <g id="XMLID_784_" transform="matrix(1,0,0,1,-93.2502,346.509)">
        <g id="XMLID_785_">
            <g transform="matrix(0.7071,0.7071,-0.7071,0.7071,415.677,-716.297)">
                <g id="XMLID_794_">
                    <rect id="XMLID_795_" x="1071.91" y="134.602" width="1.146" height="18.031" style="fill:rgb(39,35,97);"/>
                </g>
            </g>
            <g transform="matrix(0.7071,0.7071,-0.7071,0.7071,419.411,-725.313)">
                <g id="XMLID_792_">
                    <rect id="XMLID_793_" x="1084.66" y="134.602" width="1.146" height="18.031" style="fill:rgb(39,35,97);"/>
                </g>
            </g>
            <g transform="matrix(0.7071,0.7071,-0.7071,0.7071,423.146,-734.328)">
                <g id="XMLID_790_">
                    <rect id="XMLID_791_" x="1097.41" y="134.602" width="1.146" height="18.031" style="fill:rgb(39,35,97);"/>
                </g>
            </g>
            <g transform="matrix(0.7071,0.7071,-0.7071,0.7071,426.88,-743.344)">
                <g id="XMLID_788_">
                    <rect id="XMLID_789_" x="1110.16" y="134.602" width="1.146" height="18.031" style="fill:rgb(39,35,97);"/>
                </g>
            </g>
            <g transform="matrix(0.7071,0.7071,-0.7071,0.7071,430.614,-752.359)">
                <g id="XMLID_786_">
                    <rect id="XMLID_787_" x="1122.91" y="134.602" width="1.146" height="18.031" style="fill:rgb(39,35,97);"/>
                </g>
            </g>
        </g>
    </g>
    <g transform="matrix(1,0,0,1,1385.09,192.24)">
        <path d="M79.77,159.955C76.231,156.193 73.543,151.616 72.024,146.539L79.77,159.955Z" style="fill:rgb(43,79,91);fill-rule:nonzero;"/>
        <path d="M87.626,166.153C86.866,165.718 86.125,165.255 85.402,164.773L70.698,139.302C70.633,138.496 70.605,137.671 70.605,136.846L70.605,136.67L87.626,166.153Z" style="fill:rgb(43,79,91);fill-rule:nonzero;"/>
        <path d="M93.417,168.775C92.806,168.562 92.194,168.339 91.601,168.089L70.912,132.26C71.005,131.612 71.107,130.972 71.236,130.343L93.417,168.775Z" style="fill:rgb(43,79,91);fill-rule:nonzero;"/>
        <path d="M98.439,170.063C97.902,169.97 97.364,169.859 96.836,169.739L72.097,126.906C72.255,126.378 72.431,125.849 72.616,125.34L82.187,141.906C83.206,146.427 85.587,150.439 88.867,153.488L98.439,170.063Z" style="fill:rgb(43,79,91);fill-rule:nonzero;"/>
        <path d="M74.479,121.142L81.817,133.845C81.715,134.558 81.65,135.281 81.632,136.013L73.812,122.467C74.025,122.022 74.248,121.578 74.479,121.142Z" style="fill:rgb(43,79,91);fill-rule:nonzero;"/>
        <path d="M103.007,170.554C102.507,170.535 102.016,170.507 101.525,170.461L93.724,156.943C94.354,157.286 95.012,157.591 95.688,157.869L103.007,170.554Z" style="fill:rgb(43,79,91);fill-rule:nonzero;"/>
        <path d="M76.675,117.538L83.124,128.703C82.92,129.203 82.744,129.722 82.586,130.241L75.915,118.678C76.156,118.289 76.416,117.917 76.675,117.538Z" style="fill:rgb(43,79,91);fill-rule:nonzero;"/>
        <path d="M107.223,170.452C106.779,170.499 106.324,170.527 105.861,170.545L99.19,158.991C99.718,159.121 100.255,159.222 100.793,159.306L107.223,170.452Z" style="fill:rgb(43,79,91);fill-rule:nonzero;"/>
        <path d="M79.149,114.406L85.107,124.728C84.857,125.126 84.616,125.534 84.384,125.951L78.297,115.397C78.574,115.064 78.862,114.73 79.149,114.406Z" style="fill:rgb(43,79,91);fill-rule:nonzero;"/>
        <path d="M111.179,169.887C110.753,169.98 110.326,170.063 109.891,170.127L103.794,159.574C103.98,159.583 104.165,159.583 104.35,159.583C104.647,159.583 104.934,159.574 105.221,159.565L111.179,169.887Z" style="fill:rgb(43,79,91);fill-rule:nonzero;"/>
        <path d="M81.863,111.691L87.543,121.531C87.247,121.856 86.959,122.18 86.691,122.522L80.937,112.553C81.242,112.248 81.548,111.96 81.863,111.691Z" style="fill:rgb(43,79,91);fill-rule:nonzero;"/>
        <path d="M114.894,168.905C114.496,169.035 114.088,169.165 113.681,169.276L107.927,159.306C108.353,159.232 108.78,159.158 109.206,159.056L114.894,168.905Z" style="fill:rgb(43,79,91);fill-rule:nonzero;"/>
        <path d="M84.782,109.357L90.332,118.956C89.999,119.197 89.684,119.466 89.368,119.753L83.79,110.089C84.115,109.838 84.448,109.588 84.782,109.357Z" style="fill:rgb(43,79,91);fill-rule:nonzero;"/>
        <path d="M118.378,167.542C118.007,167.709 117.628,167.876 117.248,168.033L111.67,158.379C112.068,158.24 112.457,158.101 112.837,157.935L118.378,167.542Z" style="fill:rgb(43,79,91);fill-rule:nonzero;"/>
        <path d="M87.923,107.364L93.427,116.898C93.066,117.093 92.704,117.306 92.361,117.528L86.858,107.985C87.209,107.772 87.562,107.569 87.923,107.364Z" style="fill:rgb(43,79,91);fill-rule:nonzero;"/>
        <path d="M121.667,165.81C121.315,166.024 120.954,166.227 120.592,166.421L115.088,156.897C115.449,156.693 115.811,156.49 116.163,156.277L121.667,165.81Z" style="fill:rgb(43,79,91);fill-rule:nonzero;"/>
        <path d="M91.258,105.734L96.836,115.388C96.437,115.518 96.048,115.666 95.659,115.824L90.128,106.244C90.499,106.067 90.878,105.9 91.258,105.734Z" style="fill:rgb(43,79,91);fill-rule:nonzero;"/>
        <path d="M124.743,163.735C124.419,163.985 124.076,164.226 123.743,164.466L118.202,154.868C118.535,154.617 118.85,154.357 119.165,154.08L124.743,163.735Z" style="fill:rgb(43,79,91);fill-rule:nonzero;"/>
        <path d="M94.816,104.474L100.561,114.434C100.126,114.499 99.7,114.582 99.283,114.684L93.603,104.853C94.01,104.715 94.409,104.585 94.816,104.474Z" style="fill:rgb(43,79,91);fill-rule:nonzero;"/>
        <path d="M127.616,161.289C127.31,161.577 126.995,161.863 126.68,162.142L121.01,152.312C121.306,151.997 121.593,151.672 121.871,151.338L127.616,161.289Z" style="fill:rgb(43,79,91);fill-rule:nonzero;"/>
        <path d="M98.587,103.594L104.656,114.119C104.554,114.11 104.452,114.11 104.35,114.11C103.98,114.11 103.609,114.119 103.247,114.138L97.3,103.844C97.726,103.751 98.152,103.668 98.587,103.594Z" style="fill:rgb(43,79,91);fill-rule:nonzero;"/>
        <path d="M130.256,158.463C129.978,158.796 129.691,159.129 129.403,159.454L123.464,149.16C123.714,148.77 123.964,148.363 124.187,147.955L130.256,158.463Z" style="fill:rgb(43,79,91);fill-rule:nonzero;"/>
        <path d="M102.608,103.149L109.242,114.647C108.714,114.518 108.186,114.425 107.649,114.351L101.237,103.251C101.691,103.205 102.145,103.167 102.608,103.149Z" style="fill:rgb(43,79,91);fill-rule:nonzero;"/>
        <path d="M132.666,155.21C132.416,155.59 132.156,155.97 131.897,156.341L125.485,145.24C125.689,144.75 125.865,144.24 126.032,143.72L132.666,155.21Z" style="fill:rgb(43,79,91);fill-rule:nonzero;"/>
        <path d="M106.917,103.205L114.635,116.565C114.005,116.241 113.365,115.954 112.698,115.694L105.434,103.121C105.935,103.14 106.426,103.158 106.917,103.205Z" style="fill:rgb(43,79,91);fill-rule:nonzero;"/>
        <path d="M134.778,151.458C134.564,151.902 134.342,152.338 134.11,152.773L126.846,140.191C126.948,139.496 127.013,138.792 127.05,138.078L134.778,151.458Z" style="fill:rgb(43,79,91);fill-rule:nonzero;"/>
        <path d="M111.587,103.881L124.021,125.423C122.771,123.273 121.177,121.356 119.314,119.734L109.984,103.575C110.521,103.658 111.059,103.76 111.587,103.881Z" style="fill:rgb(43,79,91);fill-rule:nonzero;"/>
        <path d="M136.52,147.067C136.353,147.586 136.177,148.104 135.992,148.605L126.661,132.455C126.17,129.935 125.262,127.563 124.02,125.423L136.52,147.067Z" style="fill:rgb(43,79,91);fill-rule:nonzero;"/>
        <path d="M137.743,141.757C137.65,142.397 137.539,143.027 137.41,143.656L114.979,104.806C115.59,105.01 116.192,105.233 116.786,105.473L137.743,141.757Z" style="fill:rgb(43,79,91);fill-rule:nonzero;"/>
        <path d="M138.095,136.847C138.095,137.042 138.095,137.236 138.086,137.431L120.714,107.328C121.464,107.745 122.187,108.18 122.9,108.662L138.03,134.864C138.076,135.513 138.095,136.18 138.095,136.847Z" style="fill:rgb(43,79,91);fill-rule:nonzero;"/>
        <path d="M136.918,127.98L128.32,113.091C132.36,117.167 135.371,122.272 136.918,127.98Z" style="fill:rgb(43,79,91);fill-rule:nonzero;"/>
    </g>
    <g transform="matrix(0.738594,0,0,0.738594,451.574,-55.5448)">
        <path d="M79.77,159.955C76.231,156.193 73.543,151.616 72.024,146.539L79.77,159.955Z" style="fill:rgb(255,220,230);fill-rule:nonzero;"/>
        <path d="M87.626,166.153C86.866,165.718 86.125,165.255 85.402,164.773L70.698,139.302C70.633,138.496 70.605,137.671 70.605,136.846L70.605,136.67L87.626,166.153Z" style="fill:rgb(255,220,230);fill-rule:nonzero;"/>
        <path d="M93.417,168.775C92.806,168.562 92.194,168.339 91.601,168.089L70.912,132.26C71.005,131.612 71.107,130.972 71.236,130.343L93.417,168.775Z" style="fill:rgb(255,220,230);fill-rule:nonzero;"/>
        <path d="M98.439,170.063C97.902,169.97 97.364,169.859 96.836,169.739L72.097,126.906C72.255,126.378 72.431,125.849 72.616,125.34L82.187,141.906C83.206,146.427 85.587,150.439 88.867,153.488L98.439,170.063Z" style="fill:rgb(255,220,230);fill-rule:nonzero;"/>
        <path d="M74.479,121.142L81.817,133.845C81.715,134.558 81.65,135.281 81.632,136.013L73.812,122.467C74.025,122.022 74.248,121.578 74.479,121.142Z" style="fill:rgb(255,220,230);fill-rule:nonzero;"/>
        <path d="M103.007,170.554C102.507,170.535 102.016,170.507 101.525,170.461L93.724,156.943C94.354,157.286 95.012,157.591 95.688,157.869L103.007,170.554Z" style="fill:rgb(255,220,230);fill-rule:nonzero;"/>
        <path d="M76.675,117.538L83.124,128.703C82.92,129.203 82.744,129.722 82.586,130.241L75.915,118.678C76.156,118.289 76.416,117.917 76.675,117.538Z" style="fill:rgb(255,220,230);fill-rule:nonzero;"/>
        <path d="M107.223,170.452C106.779,170.499 106.324,170.527 105.861,170.545L99.19,158.991C99.718,159.121 100.255,159.222 100.793,159.306L107.223,170.452Z" style="fill:rgb(255,220,230);fill-rule:nonzero;"/>
        <path d="M79.149,114.406L85.107,124.728C84.857,125.126 84.616,125.534 84.384,125.951L78.297,115.397C78.574,115.064 78.862,114.73 79.149,114.406Z" style="fill:rgb(255,220,230);fill-rule:nonzero;"/>
        <path d="M111.179,169.887C110.753,169.98 110.326,170.063 109.891,170.127L103.794,159.574C103.98,159.583 104.165,159.583 104.35,159.583C104.647,159.583 104.934,159.574 105.221,159.565L111.179,169.887Z" style="fill:rgb(255,220,230);fill-rule:nonzero;"/>
        <path d="M81.863,111.691L87.543,121.531C87.247,121.856 86.959,122.18 86.691,122.522L80.937,112.553C81.242,112.248 81.548,111.96 81.863,111.691Z" style="fill:rgb(255,220,230);fill-rule:nonzero;"/>
        <path d="M114.894,168.905C114.496,169.035 114.088,169.165 113.681,169.276L107.927,159.306C108.353,159.232 108.78,159.158 109.206,159.056L114.894,168.905Z" style="fill:rgb(255,220,230);fill-rule:nonzero;"/>
        <path d="M84.782,109.357L90.332,118.956C89.999,119.197 89.684,119.466 89.368,119.753L83.79,110.089C84.115,109.838 84.448,109.588 84.782,109.357Z" style="fill:rgb(255,220,230);fill-rule:nonzero;"/>
        <path d="M118.378,167.542C118.007,167.709 117.628,167.876 117.248,168.033L111.67,158.379C112.068,158.24 112.457,158.101 112.837,157.935L118.378,167.542Z" style="fill:rgb(255,220,230);fill-rule:nonzero;"/>
        <path d="M87.923,107.364L93.427,116.898C93.066,117.093 92.704,117.306 92.361,117.528L86.858,107.985C87.209,107.772 87.562,107.569 87.923,107.364Z" style="fill:rgb(255,220,230);fill-rule:nonzero;"/>
        <path d="M121.667,165.81C121.315,166.024 120.954,166.227 120.592,166.421L115.088,156.897C115.449,156.693 115.811,156.49 116.163,156.277L121.667,165.81Z" style="fill:rgb(255,220,230);fill-rule:nonzero;"/>
        <path d="M91.258,105.734L96.836,115.388C96.437,115.518 96.048,115.666 95.659,115.824L90.128,106.244C90.499,106.067 90.878,105.9 91.258,105.734Z" style="fill:rgb(255,220,230);fill-rule:nonzero;"/>
        <path d="M124.743,163.735C124.419,163.985 124.076,164.226 123.743,164.466L118.202,154.868C118.535,154.617 118.85,154.357 119.165,154.08L124.743,163.735Z" style="fill:rgb(255,220,230);fill-rule:nonzero;"/>
        <path d="M94.816,104.474L100.561,114.434C100.126,114.499 99.7,114.582 99.283,114.684L93.603,104.853C94.01,104.715 94.409,104.585 94.816,104.474Z" style="fill:rgb(255,220,230);fill-rule:nonzero;"/>
        <path d="M127.616,161.289C127.31,161.577 126.995,161.863 126.68,162.142L121.01,152.312C121.306,151.997 121.593,151.672 121.871,151.338L127.616,161.289Z" style="fill:rgb(255,220,230);fill-rule:nonzero;"/>
        <path d="M98.587,103.594L104.656,114.119C104.554,114.11 104.452,114.11 104.35,114.11C103.98,114.11 103.609,114.119 103.247,114.138L97.3,103.844C97.726,103.751 98.152,103.668 98.587,103.594Z" style="fill:rgb(255,220,230);fill-rule:nonzero;"/>
        <path d="M130.256,158.463C129.978,158.796 129.691,159.129 129.403,159.454L123.464,149.16C123.714,148.77 123.964,148.363 124.187,147.955L130.256,158.463Z" style="fill:rgb(255,220,230);fill-rule:nonzero;"/>
        <path d="M102.608,103.149L109.242,114.647C108.714,114.518 108.186,114.425 107.649,114.351L101.237,103.251C101.691,103.205 102.145,103.167 102.608,103.149Z" style="fill:rgb(255,220,230);fill-rule:nonzero;"/>
        <path d="M132.666,155.21C132.416,155.59 132.156,155.97 131.897,156.341L125.485,145.24C125.689,144.75 125.865,144.24 126.032,143.72L132.666,155.21Z" style="fill:rgb(255,220,230);fill-rule:nonzero;"/>
        <path d="M106.917,103.205L114.635,116.565C114.005,116.241 113.365,115.954 112.698,115.694L105.434,103.121C105.935,103.14 106.426,103.158 106.917,103.205Z" style="fill:rgb(255,220,230);fill-rule:nonzero;"/>
        <path d="M134.778,151.458C134.564,151.902 134.342,152.338 134.11,152.773L126.846,140.191C126.948,139.496 127.013,138.792 127.05,138.078L134.778,151.458Z" style="fill:rgb(255,220,230);fill-rule:nonzero;"/>
        <path d="M111.587,103.881L124.021,125.423C122.771,123.273 121.177,121.356 119.314,119.734L109.984,103.575C110.521,103.658 111.059,103.76 111.587,103.881Z" style="fill:rgb(255,220,230);fill-rule:nonzero;"/>
        <path d="M136.52,147.067C136.353,147.586 136.177,148.104 135.992,148.605L126.661,132.455C126.17,129.935 125.262,127.563 124.02,125.423L136.52,147.067Z" style="fill:rgb(255,220,230);fill-rule:nonzero;"/>
        <path d="M137.743,141.757C137.65,142.397 137.539,143.027 137.41,143.656L114.979,104.806C115.59,105.01 116.192,105.233 116.786,105.473L137.743,141.757Z" style="fill:rgb(255,220,230);fill-rule:nonzero;"/>
        <path d="M138.095,136.847C138.095,137.042 138.095,137.236 138.086,137.431L120.714,107.328C121.464,107.745 122.187,108.18 122.9,108.662L138.03,134.864C138.076,135.513 138.095,136.18 138.095,136.847Z" style="fill:rgb(255,220,230);fill-rule:nonzero;"/>
        <path d="M136.918,127.98L128.32,113.091C132.36,117.167 135.371,122.272 136.918,127.98Z" style="fill:rgb(255,220,230);fill-rule:nonzero;"/>
    </g>
</svg>
