<?xml version="1.0" encoding="UTF-8" standalone="no"?><!DOCTYPE svg PUBLIC "-//W3C//DTD SVG 1.1//EN" "http://www.w3.org/Graphics/SVG/1.1/DTD/svg11.dtd"><svg width="100%" height="100%" viewBox="0 0 2813 2913" version="1.1" xmlns="http://www.w3.org/2000/svg" xmlns:xlink="http://www.w3.org/1999/xlink" xml:space="preserve" xmlns:serif="http://www.serif.com/" style="fill-rule:evenodd;clip-rule:evenodd;stroke-linejoin:round;stroke-miterlimit:2;"><circle cx="1428.36" cy="1333.33" r="1058.33" style="fill:#fff;"/><ellipse cx="1386.69" cy="2402.08" rx="1162.5" ry="68.75" style="fill:#3f3d56;"/><ellipse cx="1153.36" cy="2404.45" rx="870.833" ry="47.414" style="fill-opacity:0.1;"/><ellipse cx="1845.53" cy="2679.17" rx="666.163" ry="33.674" style="fill:#3f3d56;"/><rect x="440.858" y="1604.17" width="1333.33" height="791.667" style="fill:#3f3d56;"/><circle cx="870.025" cy="2008.33" r="300" style="fill:#f50057;"/><rect x="1261.69" y="1729.17" width="100" height="100" style="fill:#f50057;"/><rect x="1386.69" y="1729.17" width="100" height="100" style="fill:#f50057;fill-opacity:0.5;"/><rect x="1511.69" y="1729.17" width="100" height="100" style="fill:#f50057;fill-opacity:0.2;"/><rect x="1261.69" y="1854.17" width="100" height="100" style="fill:#2f2e41;"/><rect x="1386.69" y="1854.17" width="100" height="100" style="fill:#2f2e41;fill-opacity:0.5;"/><rect x="1511.69" y="1854.17" width="100" height="100" style="fill:#2f2e41;fill-opacity:0.2;"/><rect x="1261.69" y="1979.17" width="100" height="100" style="fill:#ff6584;"/><rect x="1386.69" y="1979.17" width="100" height="100" style="fill:#ff6584;fill-opacity:0.5;"/><rect x="1511.69" y="1979.17" width="100" height="100" style="fill:#ff6584;fill-opacity:0.2;"/><path d="M870.025,1708.33l-0,600c165.685,0 308.333,-134.314 308.333,-300c0,-165.685 -142.648,-300 -308.333,-300Z" style="fill:#3f3d56;fill-opacity:0.5;fill-rule:nonzero;"/><path d="M2059.61,1660.42c0,-0 175,79.166 112.5,170.833c-62.5,91.667 -250,266.667 -254.166,304.167c-4.167,37.5 -29.167,70.833 -29.167,70.833c-0,-0 -83.333,-87.5 -75,-95.833c8.333,-8.334 91.667,-87.5 95.833,-108.334c4.167,-20.833 129.167,-183.333 129.167,-183.333l-112.5,-100l133.333,-58.333Z" style="fill:#ffb9b9;fill-rule:nonzero;"/><path d="M2059.61,1660.42c0,-0 175,79.166 112.5,170.833c-62.5,91.667 -250,266.667 -254.166,304.167c-4.167,37.5 -29.167,70.833 -29.167,70.833c-0,-0 -83.333,-87.5 -75,-95.833c8.333,-8.334 91.667,-87.5 95.833,-108.334c4.167,-20.833 129.167,-183.333 129.167,-183.333l-112.5,-100l133.333,-58.333Z" style="fill-opacity:0.1;fill-rule:nonzero;"/><path d="M1838.78,1835.42c-0,-0 120.833,50 112.5,129.166c-8.333,79.167 145.833,304.167 145.833,304.167c0,0 16.667,54.167 12.5,70.833c-4.166,16.667 108.334,12.5 108.334,12.5l-0,-37.5c-0,0 -87.5,-150 -95.834,-191.666c-8.333,-41.667 -58.333,-204.167 -58.333,-204.167c-0,0 -16.667,-145.833 -100,-145.833c-49.144,-0 -95.514,23.185 -125,62.5Z" style="fill:#ffb9b9;fill-rule:nonzero;"/><path d="M1845.03,1458.33c-0,0 250,204.167 241.667,220.834c-8.334,16.666 -129.167,79.166 -150,83.333c-20.834,4.167 -168.242,-304.167 -168.242,-304.167l76.575,0Z" style="fill:#2f2e41;fill-rule:nonzero;"/><path d="M1845.03,1458.33c-0,0 250,204.167 241.667,220.834c-8.334,16.666 -129.167,79.166 -150,83.333c-20.834,4.167 -168.242,-304.167 -168.242,-304.167l76.575,0Z" style="fill-opacity:0.1;fill-rule:nonzero;"/><path d="M1574.19,1500c-0,-0 -25,112.5 41.666,158.333c66.667,45.834 179.167,225 191.667,225c12.5,0 191.667,-95.833 183.333,-112.5c-8.333,-16.666 -100,-162.5 -100,-162.5l-29.166,-154.166c-0,-0 -254.167,-8.334 -287.5,45.833Z" style="fill:#2f2e41;fill-rule:nonzero;"/><path d="M1845.03,1133.33l37.5,241.667l66.667,170.833c-0,0 100,104.167 41.666,112.5c-58.333,8.334 -91.666,-112.5 -91.666,-112.5l-54.167,-100l-0,-312.5Z" style="fill:#ffb9b9;fill-rule:nonzero;"/><path d="M1845.03,1133.33l37.5,241.667l66.667,170.833c-0,0 100,104.167 41.666,112.5c-58.333,8.334 -91.666,-112.5 -91.666,-112.5l-54.167,-100l-0,-312.5Z" style="fill-opacity:0.1;fill-rule:nonzero;"/><path d="M1705.44,864.583c-0,0 -0,87.5 -29.167,95.834c-29.167,8.333 116.667,120.833 116.667,120.833c-0,0 -16.667,-145.833 41.666,-183.333l-129.166,-33.334Z" style="fill:#ffb9b9;fill-rule:nonzero;"/><path d="M1705.44,864.583c-0,0 -0,87.5 -29.167,95.834c-29.167,8.333 116.667,120.833 116.667,120.833c-0,0 -16.667,-145.833 41.666,-183.333l-129.166,-33.334Z" style="fill-opacity:0.1;fill-rule:nonzero;"/><circle cx="1772.11" cy="839.583" r="95.833" style="fill:#ffb9b9;"/><path d="M1776.28,1039.58c-0,0 -87.5,-108.333 -100,-104.166c-12.5,4.166 -104.167,95.833 -112.5,125c-8.333,29.166 -25,237.5 -12.5,279.166c12.5,41.667 12.5,150 8.333,158.334c-4.166,8.333 -29.166,29.166 -4.166,29.166c25,0 112.5,-62.5 170.833,-50c58.333,12.5 137.5,-4.166 141.667,-12.5c4.166,-8.333 -4.167,-225 -0,-241.666c4.166,-16.667 -8.334,-100 -12.5,-116.667c-4.167,-16.667 -4.167,-83.333 -45.834,-100l-17.766,-1.756l-0.996,41.215l-14.571,-6.126Z" style="fill:#f50057;fill-rule:nonzero;"/><path d="M1592.94,1256.25c-0,0 8.333,129.167 70.833,183.333c62.5,54.167 195.833,145.834 204.167,162.5c8.333,16.667 87.5,104.167 104.166,66.667c4.836,-11.689 6.002,-24.578 3.342,-36.945c-4.889,-24.838 -19.831,-46.583 -41.265,-60.053l-37.077,-23.835l-183.333,-191.667l-8.333,-100l-112.5,0Z" style="fill:#ffb9b9;fill-rule:nonzero;"/><path d="M1832.53,2095.83c-0,0 -47.917,-10.416 -64.583,18.75c-16.667,29.167 16.666,108.334 16.666,108.334c0,-0 95.834,200 112.5,175c16.667,-25 -12.5,-116.667 -12.5,-116.667c0,0 41.667,-91.667 25,-95.833c-16.666,-4.167 -77.083,-39.584 -77.083,-89.584Z" style="fill:#2f2e41;fill-rule:nonzero;"/><path d="M2126.28,2335.42c-0,-0 -25,-12.5 -29.167,-0c-4.166,12.5 -29.166,75 0,83.333c29.167,8.333 316.667,16.667 308.334,0c-8.334,-16.667 -54.167,-37.5 -83.334,-45.833c-29.166,-8.334 -104.166,-70.834 -104.166,-70.834c-0,0 -41.667,54.167 -91.667,33.334Z" style="fill:#2f2e41;fill-rule:nonzero;"/><path d="M1868.65,763.524c-1.799,-6.045 -5.763,-11.22 -11.131,-14.529c0.277,-6.477 -0.517,-12.955 -2.35,-19.174c-6.123,-18.102 -20.629,-17.064 -34.315,-25.067c-5.938,-3.472 -5.571,-6.541 -8.662,-12.245c-4.05,-7.475 -10.118,-13.666 -17.511,-17.866c-8.78,-5.594 -18.049,-11.355 -28.436,-12.063c-21.829,-1.488 -38.566,19.044 -59.429,25.633c-9.196,2.904 -19.078,3.024 -28.323,5.77c-9.245,2.746 -18.468,9.302 -19.846,18.847c-0.636,4.406 0.486,8.927 -0.159,13.332c-1.282,8.756 -8.964,14.888 -14.106,22.09c-11.372,15.926 -10.072,38.424 -0.978,55.752c1.917,3.585 4.109,7.016 6.558,10.262c0.758,8.19 3.11,16.153 6.923,23.441c9.094,17.327 24.743,30.276 41.09,41.033c-1.339,-5.746 -2.15,-11.603 -2.425,-17.497c-0.23,-1.965 0.025,-3.956 0.744,-5.798c1.821,-3.806 6.631,-4.818 10.299,-6.902c7.597,-4.317 10.576,-13.87 10.795,-22.605c0.22,-8.735 -1.631,-17.484 -0.716,-26.174c0.072,-4.039 1.852,-7.864 4.896,-10.52c2.803,-1.599 6.007,-2.363 9.23,-2.2c15.565,-0.635 31.828,-0.921 45.557,-8.282c4.428,-2.941 9.187,-5.348 14.18,-7.173c11.667,-3.042 23.592,5.135 30.316,15.144c6.724,10.009 10.077,21.92 16.281,32.259c6.204,10.339 16.922,19.56 28.917,18.335c1.366,0.003 2.67,-0.577 3.583,-1.593c0.517,-0.93 0.747,-1.992 0.66,-3.052l0.67,-45.853c0.557,-7.843 -0.225,-15.724 -2.312,-23.305Z" style="fill:#2f2e41;fill-rule:nonzero;"/><path d="M1630.44,1043.75c-0,0 91.666,41.667 87.5,129.167c-4.167,87.5 25,95.833 -45.834,104.166c-70.833,8.334 -87.5,0 -91.666,8.334c-4.167,8.333 -29.167,-191.667 -12.5,-212.5c16.666,-20.834 62.5,-29.167 62.5,-29.167Z" style="fill:#f50057;fill-rule:nonzero;"/><path d="M1999.19,2587.22c-0,84.818 -50.417,114.432 -112.618,114.432c-1.441,-0 -2.881,-0.021 -4.312,-0.052c-2.881,-0.062 -5.742,-0.197 -8.562,-0.394c-56.137,-3.97 -99.744,-35.107 -99.744,-113.986c0,-81.615 104.295,-184.614 112.152,-192.253l0.01,-0.01c0.301,-0.301 0.456,-0.446 0.456,-0.446c-0,-0 112.618,107.901 112.618,192.709Z" style="fill:#f50057;fill-rule:nonzero;"/><path d="M1882.47,2688.67l41.191,-57.548l-41.294,63.87l-0.104,6.603c-2.882,-0.062 -5.742,-0.197 -8.562,-0.394l4.437,-84.849l-0.031,-0.664l0.072,-0.114l0.425,-8.022l-41.398,-64.026l41.522,58.014l0.104,1.7l3.348,-64.109l-35.438,-66.161l35.873,54.915l3.493,-132.923l0.011,-0.456l-0,0.446l-0.581,104.812l35.283,-41.553l-35.428,50.582l-0.933,57.402l32.951,-55.091l-33.085,63.538l-0.519,31.915l47.815,-76.682l-48.001,87.814l-1.151,70.981Z" style="fill:#3f3d56;fill-rule:nonzero;"/></svg>