<?xml version="1.0" encoding="UTF-8" standalone="no"?>
<!DOCTYPE svg PUBLIC "-//W3C//DTD SVG 1.1//EN" "http://www.w3.org/Graphics/SVG/1.1/DTD/svg11.dtd">
<svg width="100%" height="100%" viewBox="0 0 526 524" version="1.1" xmlns="http://www.w3.org/2000/svg" xmlns:xlink="http://www.w3.org/1999/xlink" xml:space="preserve" xmlns:serif="http://www.serif.com/" style="fill-rule:evenodd;clip-rule:evenodd;stroke-linejoin:round;stroke-miterlimit:2;">
    <g transform="matrix(0.661838,0,0,0.661838,-113.916,27.3474)">
        <circle cx="569.782" cy="354.83" r="396.15" style="fill:white;"/>
    </g>
    <g transform="matrix(0.64087,0,0,0.64087,13.5643,94.3978)">
        <circle cx="174.757" cy="6.813" r="6.813" style="fill:rgb(230,230,230);"/>
    </g>
    <g transform="matrix(0.64087,0,0,0.64087,13.5643,94.3978)">
        <circle cx="209.246" cy="6.813" r="6.813" style="fill:rgb(230,230,230);"/>
    </g>
    <g transform="matrix(0.64087,0,0,0.64087,13.5643,94.3978)">
        <circle cx="243.735" cy="6.813" r="6.813" style="fill:rgb(230,230,230);"/>
    </g>
    <g transform="matrix(0.64087,0,0,0.64087,13.5643,94.3978)">
        <circle cx="278.224" cy="6.813" r="6.813" style="fill:rgb(230,230,230);"/>
    </g>
    <g transform="matrix(0.64087,0,0,0.64087,13.5643,94.3978)">
        <circle cx="312.713" cy="6.813" r="6.813" style="fill:rgb(230,230,230);"/>
    </g>
    <g transform="matrix(0.64087,0,0,0.64087,13.5643,94.3978)">
        <circle cx="174.757" cy="41.735" r="6.813" style="fill:rgb(230,230,230);"/>
    </g>
    <g transform="matrix(0.64087,0,0,0.64087,13.5643,94.3978)">
        <circle cx="209.246" cy="41.735" r="6.813" style="fill:rgb(230,230,230);"/>
    </g>
    <g transform="matrix(0.64087,0,0,0.64087,13.5643,94.3978)">
        <circle cx="243.735" cy="41.735" r="6.813" style="fill:rgb(230,230,230);"/>
    </g>
    <g transform="matrix(0.64087,0,0,0.64087,13.5643,94.3978)">
        <circle cx="278.224" cy="41.735" r="6.813" style="fill:rgb(245,0,87);"/>
    </g>
    <g transform="matrix(0.64087,0,0,0.64087,13.5643,94.3978)">
        <circle cx="312.713" cy="41.735" r="6.813" style="fill:rgb(230,230,230);"/>
    </g>
    <g transform="matrix(0.64087,0,0,0.64087,13.5643,94.3978)">
        <circle cx="381.691" cy="41.735" r="6.813" style="fill:rgb(230,230,230);"/>
    </g>
    <g transform="matrix(0.64087,0,0,0.64087,13.5643,94.3978)">
        <circle cx="174.757" cy="76.657" r="6.813" style="fill:rgb(230,230,230);"/>
    </g>
    <g transform="matrix(0.64087,0,0,0.64087,13.5643,94.3978)">
        <circle cx="209.246" cy="76.657" r="6.813" style="fill:rgb(230,230,230);"/>
    </g>
    <g transform="matrix(0.64087,0,0,0.64087,13.5643,94.3978)">
        <circle cx="243.735" cy="76.657" r="6.813" style="fill:rgb(230,230,230);"/>
    </g>
    <g transform="matrix(0.64087,0,0,0.64087,13.5643,94.3978)">
        <circle cx="278.224" cy="76.657" r="6.813" style="fill:rgb(230,230,230);"/>
    </g>
    <g transform="matrix(0.64087,0,0,0.64087,13.5643,94.3978)">
        <circle cx="312.713" cy="76.657" r="6.813" style="fill:rgb(230,230,230);"/>
    </g>
    <g transform="matrix(0.64087,0,0,0.64087,13.5643,94.3978)">
        <circle cx="174.757" cy="111.579" r="6.813" style="fill:rgb(230,230,230);"/>
    </g>
    <g transform="matrix(0.64087,0,0,0.64087,13.5643,94.3978)">
        <circle cx="209.246" cy="111.579" r="6.813" style="fill:rgb(230,230,230);"/>
    </g>
    <g transform="matrix(0.64087,0,0,0.64087,13.5643,94.3978)">
        <circle cx="243.735" cy="111.579" r="6.813" style="fill:rgb(230,230,230);"/>
    </g>
    <g transform="matrix(0.64087,0,0,0.64087,13.5643,94.3978)">
        <circle cx="278.224" cy="111.579" r="6.813" style="fill:rgb(230,230,230);"/>
    </g>
    <g transform="matrix(0.64087,0,0,0.64087,13.5643,94.3978)">
        <circle cx="312.713" cy="111.579" r="6.813" style="fill:rgb(230,230,230);"/>
    </g>
    <g transform="matrix(0.64087,0,0,0.64087,13.5643,94.3978)">
        <circle cx="347.202" cy="111.579" r="6.813" style="fill:rgb(230,230,230);"/>
    </g>
    <g transform="matrix(0.64087,0,0,0.64087,13.5643,94.3978)">
        <circle cx="381.691" cy="111.579" r="6.813" style="fill:rgb(230,230,230);"/>
    </g>
    <g transform="matrix(0.64087,0,0,0.64087,13.5643,94.3978)">
        <circle cx="416.18" cy="111.579" r="6.813" style="fill:rgb(230,230,230);"/>
    </g>
    <g transform="matrix(0.64087,0,0,0.64087,13.5643,94.3978)">
        <circle cx="450.669" cy="111.579" r="6.813" style="fill:rgb(230,230,230);"/>
    </g>
    <g transform="matrix(0.64087,0,0,0.64087,13.5643,94.3978)">
        <circle cx="485.158" cy="111.579" r="6.813" style="fill:rgb(230,230,230);"/>
    </g>
    <g transform="matrix(0.64087,0,0,0.64087,13.5643,94.3978)">
        <circle cx="312.713" cy="146.501" r="6.813" style="fill:rgb(230,230,230);"/>
    </g>
    <g transform="matrix(0.64087,0,0,0.64087,13.5643,94.3978)">
        <circle cx="347.202" cy="146.501" r="6.813" style="fill:rgb(245,0,87);"/>
    </g>
    <g transform="matrix(0.64087,0,0,0.64087,13.5643,94.3978)">
        <circle cx="381.691" cy="146.501" r="6.813" style="fill:rgb(230,230,230);"/>
    </g>
    <g transform="matrix(0.64087,0,0,0.64087,13.5643,94.3978)">
        <circle cx="416.18" cy="146.501" r="6.813" style="fill:rgb(230,230,230);"/>
    </g>
    <g transform="matrix(0.64087,0,0,0.64087,13.5643,94.3978)">
        <circle cx="450.669" cy="146.501" r="6.813" style="fill:rgb(230,230,230);"/>
    </g>
    <g transform="matrix(0.64087,0,0,0.64087,13.5643,94.3978)">
        <circle cx="485.158" cy="146.501" r="6.813" style="fill:rgb(230,230,230);"/>
    </g>
    <g transform="matrix(0.64087,0,0,0.64087,13.5643,94.3978)">
        <circle cx="312.713" cy="181.423" r="6.813" style="fill:rgb(230,230,230);"/>
    </g>
    <g transform="matrix(0.64087,0,0,0.64087,13.5643,94.3978)">
        <circle cx="347.202" cy="181.423" r="6.813" style="fill:rgb(230,230,230);"/>
    </g>
    <g transform="matrix(0.64087,0,0,0.64087,13.5643,94.3978)">
        <circle cx="381.691" cy="181.423" r="6.813" style="fill:rgb(230,230,230);"/>
    </g>
    <g transform="matrix(0.64087,0,0,0.64087,13.5643,94.3978)">
        <circle cx="416.18" cy="181.423" r="6.813" style="fill:rgb(230,230,230);"/>
    </g>
    <g transform="matrix(0.64087,0,0,0.64087,13.5643,94.3978)">
        <circle cx="450.669" cy="181.423" r="6.813" style="fill:rgb(245,0,87);"/>
    </g>
    <g transform="matrix(0.64087,0,0,0.64087,13.5643,94.3978)">
        <circle cx="485.158" cy="181.423" r="6.813" style="fill:rgb(230,230,230);"/>
    </g>
    <g transform="matrix(0.64087,0,0,0.64087,13.5643,94.3978)">
        <circle cx="312.713" cy="216.345" r="6.813" style="fill:rgb(230,230,230);"/>
    </g>
    <g transform="matrix(0.64087,0,0,0.64087,13.5643,94.3978)">
        <circle cx="347.202" cy="216.345" r="6.813" style="fill:rgb(230,230,230);"/>
    </g>
    <g transform="matrix(0.64087,0,0,0.64087,13.5643,94.3978)">
        <circle cx="381.691" cy="216.345" r="6.813" style="fill:rgb(230,230,230);"/>
    </g>
    <g transform="matrix(0.64087,0,0,0.64087,13.5643,94.3978)">
        <circle cx="416.18" cy="216.345" r="6.813" style="fill:rgb(230,230,230);"/>
    </g>
    <g transform="matrix(0.64087,0,0,0.64087,13.5643,94.3978)">
        <circle cx="450.669" cy="216.345" r="6.813" style="fill:rgb(230,230,230);"/>
    </g>
    <g transform="matrix(0.64087,0,0,0.64087,13.5643,94.3978)">
        <circle cx="485.158" cy="216.345" r="6.813" style="fill:rgb(230,230,230);"/>
    </g>
    <g transform="matrix(0.64087,0,0,0.64087,13.5643,94.3978)">
        <circle cx="174.757" cy="251.267" r="6.813" style="fill:rgb(230,230,230);"/>
    </g>
    <g transform="matrix(0.64087,0,0,0.64087,13.5643,94.3978)">
        <circle cx="209.246" cy="251.267" r="6.813" style="fill:rgb(230,230,230);"/>
    </g>
    <g transform="matrix(0.64087,0,0,0.64087,13.5643,94.3978)">
        <circle cx="243.735" cy="251.267" r="6.813" style="fill:rgb(230,230,230);"/>
    </g>
    <g transform="matrix(0.64087,0,0,0.64087,13.5643,94.3978)">
        <circle cx="278.224" cy="251.267" r="6.813" style="fill:rgb(230,230,230);"/>
    </g>
    <g transform="matrix(0.64087,0,0,0.64087,13.5643,94.3978)">
        <circle cx="312.713" cy="251.267" r="6.813" style="fill:rgb(230,230,230);"/>
    </g>
    <g transform="matrix(0.64087,0,0,0.64087,13.5643,94.3978)">
        <circle cx="347.202" cy="251.267" r="6.813" style="fill:rgb(230,230,230);"/>
    </g>
    <g transform="matrix(0.64087,0,0,0.64087,13.5643,94.3978)">
        <circle cx="381.691" cy="251.267" r="6.813" style="fill:rgb(230,230,230);"/>
    </g>
    <g transform="matrix(0.64087,0,0,0.64087,13.5643,94.3978)">
        <circle cx="416.18" cy="251.267" r="6.813" style="fill:rgb(230,230,230);"/>
    </g>
    <g transform="matrix(0.64087,0,0,0.64087,13.5643,94.3978)">
        <circle cx="450.669" cy="251.267" r="6.813" style="fill:rgb(230,230,230);"/>
    </g>
    <g transform="matrix(0.64087,0,0,0.64087,13.5643,94.3978)">
        <circle cx="485.158" cy="251.267" r="6.813" style="fill:rgb(230,230,230);"/>
    </g>
    <g transform="matrix(0.64087,0,0,0.64087,13.5643,94.3978)">
        <circle cx="174.753" cy="286.188" r="6.813" style="fill:rgb(230,230,230);"/>
    </g>
    <g transform="matrix(0.64087,0,0,0.64087,13.5643,94.3978)">
        <circle cx="209.246" cy="286.189" r="6.813" style="fill:rgb(230,230,230);"/>
    </g>
    <g transform="matrix(0.64087,0,0,0.64087,13.5643,94.3978)">
        <circle cx="174.753" cy="321.11" r="6.813" style="fill:rgb(230,230,230);"/>
    </g>
    <g transform="matrix(0.64087,0,0,0.64087,13.5643,94.3978)">
        <circle cx="209.246" cy="321.111" r="6.813" style="fill:rgb(230,230,230);"/>
    </g>
    <g transform="matrix(0.64087,0,0,0.64087,13.5643,94.3978)">
        <circle cx="278.224" cy="321.111" r="6.813" style="fill:rgb(230,230,230);"/>
    </g>
    <g transform="matrix(0.64087,0,0,0.64087,-124.411,-25.9657)">
        <path d="M837.295,268.197L567.294,268.197C564.553,268.193 562.297,265.938 562.294,263.197L562.294,196.221C562.297,193.479 564.553,191.224 567.294,191.221L837.295,191.221C840.037,191.224 842.292,193.479 842.295,196.221L842.295,263.197C842.292,265.938 840.037,268.193 837.295,268.197ZM567.294,193.221C565.649,193.223 564.296,194.576 564.294,196.221L564.294,263.197C564.296,264.842 565.649,266.195 567.294,266.197L837.295,266.197C838.94,266.195 840.293,264.842 840.295,263.197L840.295,196.221C840.293,194.576 838.94,193.223 837.295,193.221L567.294,193.221Z" style="fill:rgb(230,230,230);fill-rule:nonzero;"/>
    </g>
    <g transform="matrix(0.64087,0,0,0.64087,13.5643,94.3978)">
        <circle cx="387" cy="41.896" r="21" style="fill:rgb(245,0,87);"/>
    </g>
    <g transform="matrix(0.64087,0,0,0.64087,-124.411,-25.9657)">
        <path d="M650.794,215.708C648.874,215.708 647.294,217.288 647.294,219.208C647.294,221.129 648.874,222.708 650.794,222.708L743.794,222.708C745.714,222.708 747.294,221.129 747.294,219.208C747.294,217.288 745.714,215.708 743.794,215.708L650.794,215.708Z" style="fill:rgb(230,230,230);fill-rule:nonzero;"/>
    </g>
    <g transform="matrix(0.64087,0,0,0.64087,-124.411,-25.9657)">
        <path d="M650.794,236.708C648.874,236.708 647.294,238.288 647.294,240.208C647.294,242.129 648.874,243.708 650.794,243.708L815.794,243.708C817.714,243.708 819.294,242.129 819.294,240.208C819.294,238.288 817.714,236.708 815.794,236.708L650.794,236.708Z" style="fill:rgb(230,230,230);fill-rule:nonzero;"/>
    </g>
    <g transform="matrix(0.64087,0,0,0.64087,-124.411,-25.9657)">
        <path d="M490.295,404.197L220.294,404.197C217.553,404.193 215.297,401.938 215.294,399.197L215.294,332.221C215.297,329.479 217.553,327.224 220.294,327.221L490.295,327.221C493.036,327.224 495.292,329.479 495.295,332.221L495.295,399.197C495.292,401.938 493.036,404.193 490.295,404.197ZM220.294,329.221C218.649,329.223 217.296,330.576 217.294,332.221L217.294,399.197C217.296,400.842 218.649,402.195 220.294,402.197L490.295,402.197C491.94,402.195 493.293,400.842 493.295,399.197L493.295,332.221C493.293,330.576 491.94,329.223 490.295,329.221L220.294,329.221Z" style="fill:rgb(230,230,230);fill-rule:nonzero;"/>
    </g>
    <g transform="matrix(0.64087,0,0,0.64087,13.5643,94.3978)">
        <circle cx="40" cy="177.896" r="21" style="fill:rgb(245,0,87);"/>
    </g>
    <g transform="matrix(0.64087,0,0,0.64087,-124.411,-25.9657)">
        <path d="M303.794,351.709C301.874,351.709 300.294,353.288 300.294,355.209C300.294,357.129 301.874,358.709 303.794,358.709L400.794,358.709C402.714,358.709 404.294,357.129 404.294,355.209C404.294,353.288 402.714,351.709 400.794,351.709L303.794,351.709Z" style="fill:rgb(230,230,230);fill-rule:nonzero;"/>
    </g>
    <g transform="matrix(0.64087,0,0,0.64087,-124.411,-25.9657)">
        <path d="M303.794,372.709C301.874,372.709 300.294,374.288 300.294,376.209C300.294,378.129 301.874,379.709 303.794,379.709L468.794,379.709C470.714,379.709 472.294,378.129 472.294,376.209C472.294,374.288 470.714,372.709 468.794,372.709L303.794,372.709Z" style="fill:rgb(230,230,230);fill-rule:nonzero;"/>
    </g>
    <g transform="matrix(0.64087,0,0,0.64087,-124.411,-25.9657)">
        <path d="M734.295,551.197L464.294,551.197C461.553,551.193 459.297,548.938 459.294,546.197L459.294,479.221C459.297,476.479 461.553,474.224 464.294,474.221L734.295,474.221C737.036,474.224 739.292,476.479 739.295,479.221L739.295,546.197C739.292,548.938 737.036,551.193 734.295,551.197ZM464.294,476.221C462.649,476.223 461.296,477.576 461.294,479.221L461.294,546.197C461.296,547.842 462.649,549.195 464.294,549.197L734.295,549.197C735.94,549.195 737.293,547.842 737.295,546.197L737.295,479.221C737.293,477.576 735.94,476.223 734.295,476.221L464.294,476.221Z" style="fill:rgb(63,61,86);fill-rule:nonzero;"/>
    </g>
    <g transform="matrix(0.64087,0,0,0.64087,13.5643,94.3978)">
        <circle cx="284" cy="324.896" r="21" style="fill:rgb(245,0,87);"/>
    </g>
    <g transform="matrix(0.64087,0,0,0.64087,-124.411,-25.9657)">
        <path d="M547.794,498.709C545.874,498.709 544.294,500.288 544.294,502.209C544.294,504.129 545.874,505.709 547.794,505.709L636.794,505.709C638.714,505.709 640.294,504.129 640.294,502.209C640.294,500.288 638.714,498.709 636.794,498.709L547.794,498.709Z" style="fill:rgb(230,230,230);fill-rule:nonzero;"/>
    </g>
    <g transform="matrix(0.64087,0,0,0.64087,-124.411,-25.9657)">
        <path d="M547.794,519.709C545.874,519.709 544.294,521.288 544.294,523.209C544.294,525.129 545.874,526.709 547.794,526.709L712.794,526.709C714.714,526.709 716.294,525.129 716.294,523.209C716.294,521.288 714.714,519.709 712.794,519.709L547.794,519.709Z" style="fill:rgb(230,230,230);fill-rule:nonzero;"/>
    </g>
    <g transform="matrix(0.64087,0,0,0.64087,-124.411,-25.9657)">
        <path d="M879.544,534.211C867.818,569.388 819.849,532.079 819.849,532.079L832.641,398.831C851.828,383.908 872.082,396.699 872.082,396.699L879.544,534.211Z" style="fill:rgb(230,230,230);fill-rule:nonzero;"/>
    </g>
    <g transform="matrix(0.64087,0,0,0.64087,13.5643,94.3978)">
        <path d="M661.731,464.458L678.076,464.63L673.993,511.745L661.733,511.746L661.731,464.458Z" style="fill:rgb(255,184,184);fill-rule:nonzero;"/>
    </g>
    <g transform="matrix(0.64087,0,0,0.64087,-124.411,-25.9657)">
        <path d="M873.9,695.555L898.044,695.555C906.481,695.564 913.421,702.504 913.43,710.942L913.43,711.442L873.9,711.442L873.9,695.555Z" style="fill:rgb(47,46,65);fill-rule:nonzero;"/>
    </g>
    <g transform="matrix(0.64087,0,0,0.64087,13.5643,94.3978)">
        <path d="M617.421,464.458L599.327,464.457L605.159,511.745L617.419,511.746L617.421,464.458Z" style="fill:rgb(255,184,184);fill-rule:nonzero;"/>
    </g>
    <g transform="matrix(0.64087,0,0,0.64087,-124.411,-25.9657)">
        <path d="M796.309,711.441L796.309,710.941C796.309,702.5 803.255,695.555 811.696,695.555L835.84,695.556L835.84,711.443L796.309,711.441Z" style="fill:rgb(47,46,65);fill-rule:nonzero;"/>
    </g>
    <g transform="matrix(0.64087,0,0,0.64087,-124.411,-25.9657)">
        <path d="M875.922,691.396L854.509,566.574L834.669,689.787L814.569,690.904L809.209,525.818L809.613,525.728C812.936,524.984 891.15,507.805 903.971,532.38L904.036,532.505L893.335,691.958L875.922,691.396Z" style="fill:rgb(47,46,65);fill-rule:nonzero;"/>
    </g>
    <g transform="matrix(0.64087,0,0,0.64087,13.5643,94.3978)">
        <circle cx="637.934" cy="170.843" r="24.561" style="fill:rgb(255,184,184);"/>
    </g>
    <g transform="matrix(0.64087,0,0,0.64087,-124.411,-25.9657)">
        <path d="M873.862,544.737C870.983,543.94 868.908,540.634 867.333,534.332C867.061,533.245 841.561,424.62 863.126,404.94L868.097,391.132L874.899,395.667C877.306,395.69 901.92,396.313 904.024,412.09C906.083,427.534 911.689,531.003 906.054,537.439C905.831,537.726 905.49,537.898 905.127,537.909C899.416,537.909 897.683,531.572 897.276,529.553C895.918,530.115 891.874,532.181 885.227,538.828C881.11,542.945 877.882,544.918 875.215,544.918C874.758,544.92 874.303,544.859 873.862,544.737Z" style="fill:rgb(47,46,65);fill-rule:nonzero;"/>
    </g>
    <g transform="matrix(0.64087,0,0,0.64087,-124.411,-25.9657)">
        <path d="M820.561,538.828C813.913,532.18 809.868,530.114 808.513,529.553C808.106,531.572 806.372,537.909 800.661,537.909C800.298,537.898 799.958,537.726 799.734,537.439C794.1,531.004 799.705,427.534 801.764,412.09C803.868,396.313 828.482,395.69 830.889,395.667L837.692,391.132L842.662,404.94C864.226,424.619 838.727,533.246 838.456,534.332C836.88,540.634 834.805,543.94 831.927,544.737C831.486,544.859 831.031,544.92 830.574,544.918C827.907,544.918 824.678,542.945 820.561,538.828Z" style="fill:rgb(47,46,65);fill-rule:nonzero;"/>
    </g>
    <g transform="matrix(0.64087,0,0,0.64087,-124.411,-25.9657)">
        <path d="M873.506,372.685C880.084,367.953 883.992,360.327 883.992,352.224C883.992,339.342 874.116,328.428 861.298,327.145C859.037,326.918 856.602,326.952 854.727,325.668C853.062,324.527 852.165,322.549 850.634,321.233C848.67,319.713 846.158,319.08 843.708,319.487C841.288,319.904 838.942,320.675 836.746,321.774C831.3,324.202 825.51,327.191 823.032,332.614C820.885,337.312 821.833,343.105 824.872,347.281C828.066,351.413 832.727,354.166 837.888,354.967C843.02,355.733 848.261,355.261 853.173,353.59C856.414,352.57 859.615,351.181 863.011,351.067C863.16,351.062 863.309,351.06 863.458,351.06C870.792,351.06 876.827,357.095 876.827,364.429C876.827,367.852 875.512,371.148 873.156,373.631" style="fill:rgb(47,46,65);fill-rule:nonzero;"/>
    </g>
    <g transform="matrix(0.64087,0,0,0.64087,-124.411,-25.9657)">
        <path d="M739.636,518.794C745.465,518.659 750.186,513.827 750.186,507.996C750.186,507.912 750.185,507.829 750.183,507.746L764.507,483.579L753.44,473.434L738.352,497.244C732.841,497.774 728.584,502.459 728.584,507.996C728.584,513.921 733.46,518.797 739.385,518.797C739.469,518.797 739.552,518.796 739.636,518.794L739.636,518.794Z" style="fill:rgb(255,184,184);fill-rule:nonzero;"/>
    </g>
    <g transform="matrix(0.64087,0,0,0.64087,-124.411,-25.9657)">
        <path d="M905.808,545.269C908.863,543.277 910.711,539.868 910.711,536.221C910.711,534.126 910.101,532.076 908.958,530.322L908.409,502.235L893.659,499.437L893.37,527.624C890.687,529.665 889.108,532.849 889.108,536.22C889.108,542.146 893.984,547.022 899.91,547.022C902.004,547.022 904.054,546.412 905.808,545.269L905.808,545.269Z" style="fill:rgb(255,184,184);fill-rule:nonzero;"/>
    </g>
    <g transform="matrix(0.64087,0,0,0.64087,-124.411,-25.9657)">
        <path d="M743.993,479.936L743.826,479.671L743.991,479.405C765.475,444.906 810.57,401.812 811.024,401.38L811.166,401.244L816.736,401.187L822.757,416.187C820.882,419.793 770.361,490.297 763.69,494.973C762.616,495.717 761.276,495.969 760.005,495.668C758.894,495.411 757.836,494.961 756.881,494.337C750.725,490.524 744.308,480.435 743.993,479.936Z" style="fill:rgb(47,46,65);fill-rule:nonzero;"/>
    </g>
    <g transform="matrix(0.64087,0,0,0.64087,-124.411,-25.9657)">
        <path d="M890.852,519.303C889.642,518.89 888.66,517.988 888.145,516.819C884.928,509.314 898.714,414.516 899.303,410.485L899.414,409.722L904.074,412.675L904.12,412.876C904.258,413.482 917.833,473.873 914.153,514.002L914.127,514.289L913.865,514.411C913.305,514.67 901.997,519.863 894.461,519.863C893.234,519.895 892.011,519.706 890.852,519.303Z" style="fill:rgb(47,46,65);fill-rule:nonzero;"/>
    </g>
    <g transform="matrix(1,0,0,1,-507.099,-280.211)">
        <path d="M983.706,712.187L717.706,712.187C717.157,712.187 716.706,711.736 716.706,711.187C716.706,710.639 717.157,710.187 717.706,710.187L983.706,710.187C984.254,710.187 984.706,710.639 984.706,711.187C984.706,711.736 984.254,712.187 983.706,712.187Z" style="fill:rgb(63,61,86);fill-rule:nonzero;"/>
    </g>
</svg>
