<?xml version="1.0" encoding="UTF-8" standalone="no"?><!DOCTYPE svg PUBLIC "-//W3C//DTD SVG 1.1//EN" "http://www.w3.org/Graphics/SVG/1.1/DTD/svg11.dtd"><svg width="100%" height="100%" viewBox="0 0 4567 2396" version="1.1" xmlns="http://www.w3.org/2000/svg" xmlns:xlink="http://www.w3.org/1999/xlink" xml:space="preserve" xmlns:serif="http://www.serif.com/" style="fill-rule:evenodd;clip-rule:evenodd;stroke-miterlimit:10;"><g><path d="M786.566,2150.87c-672.245,-466.937 -319.147,-980.45 117.841,-1609.58c436.987,-629.127 1751.08,-703.755 2423.32,-236.822c672.238,466.932 1364.27,1041.69 927.286,1670.81c-436.987,629.127 -2796.21,642.528 -3468.45,175.595Z" style="fill:#fff;"/></g><g opacity="0.1"><ellipse cx="1997.58" cy="1508.83" rx="47.417" ry="62.083" style="fill:#3f3d56;"/><g><path d="M2035.12,1243.21c6.613,-11.545 10.038,-24.65 9.917,-37.958c-0,-34.292 -21.25,-62.083 -47.459,-62.083c-26.208,-0 -47.583,27.875 -47.583,62.166c-0.121,13.309 3.304,26.413 9.917,37.959c-13.204,23.537 -13.204,52.337 -0,75.875c-13.204,23.537 -13.204,52.337 -0,75.875c-6.625,11.541 -10.05,24.65 -9.917,37.958c0,34.25 21.25,62.083 47.417,62.083c26.166,0 47.458,-27.833 47.458,-62.083c0.133,-13.308 -3.292,-26.417 -9.917,-37.958c13.205,-23.538 13.205,-52.338 0,-75.875c13.205,-23.538 13.205,-52.338 0,-75.875l0.167,-0.084Z" style="fill:#3f3d56;fill-rule:nonzero;"/></g><ellipse cx="1997.58" cy="1129.46" rx="47.417" ry="62.083" style="fill:#3f3d56;"/><ellipse cx="1997.58" cy="1053.58" rx="47.417" ry="62.083" style="fill:#3f3d56;"/><g><path d="M1820.08,534.292c-6.5,-8.238 -12.4,-16.925 -17.666,-26l124.583,-20.459l-134.75,1c-26.063,-56.85 -27.571,-122.004 -4.167,-180l180.792,93.792l-166.667,-122.583c40.342,-70.921 115.904,-114.867 197.492,-114.867c124.642,0 227.208,102.563 227.208,227.208c0,51.534 -17.533,101.563 -49.7,141.825c10.104,12.834 18.792,26.721 25.917,41.417l-161.792,84.25l172.459,-57.875c24.6,72.658 10.8,153.042 -36.625,213.333c31.491,40.034 48.625,89.517 48.625,140.455c-0,124.62 -102.546,227.166 -227.167,227.166c-124.621,0 -227.167,-102.546 -227.167,-227.167c0,-50.937 17.134,-100.42 48.625,-140.454c-64.616,-82.137 -64.616,-198.779 0,-280.916l0,-0.125Z" style="fill:#f50057;fill-rule:nonzero;"/></g><g><path d="M2225.79,674.75c0.083,50.95 -17.059,100.463 -48.625,140.458c31.491,40.034 48.625,89.517 48.625,140.454c-0,124.621 -102.546,227.167 -227.167,227.167c-124.621,0 -227.167,-102.546 -227.167,-227.167c0,-50.937 17.134,-100.42 48.625,-140.454c-30.458,-38.666 405.709,-165.958 405.709,-140.458Z" style="fill-opacity:0.1;fill-rule:nonzero;"/></g></g><g opacity="0.1"><ellipse cx="2551.17" cy="1376.08" rx="35.458" ry="46.375" style="fill:#3f3d56;"/><g><path d="M2579.17,1177.62c4.929,-8.621 7.475,-18.404 7.375,-28.333c-0,-25.625 -15.875,-46.417 -35.417,-46.417c-19.542,0 -35.458,20.833 -35.458,46.417c-0.109,9.937 2.454,19.725 7.416,28.333c-9.875,17.592 -9.875,39.117 0,56.708c-9.875,17.592 -9.875,39.117 0,56.709c-4.962,8.608 -7.525,18.395 -7.416,28.333c-0,25.625 15.875,46.417 35.458,46.417c19.583,-0 35.417,-20.834 35.417,-46.417c0.1,-9.929 -2.446,-19.713 -7.375,-28.333c9.796,-17.613 9.796,-39.096 -0,-56.709c9.796,-17.612 9.796,-39.095 -0,-56.708Z" style="fill:#3f3d56;fill-rule:nonzero;"/></g><ellipse cx="2551.17" cy="1092.58" rx="35.458" ry="46.375" style="fill:#3f3d56;"/><ellipse cx="2551.17" cy="1035.88" rx="35.458" ry="46.375" style="fill:#3f3d56;"/><g><path d="M2418.5,647.833c-4.867,-6.145 -9.279,-12.633 -13.208,-19.416l93.125,-15.292l-100.709,0.75c-19.516,-42.475 -20.691,-91.171 -3.25,-134.542l135.125,70.125l-124.625,-91.666c30.28,-52.521 86.475,-84.988 147.096,-84.988c93.146,0 169.792,76.646 169.792,169.792c-0,38.167 -12.867,75.237 -36.513,105.196c7.542,9.6 14.038,19.979 19.375,30.958l-120.833,62.792l128.875,-43.25c18.371,54.296 8.058,114.358 -27.375,159.416c23.583,29.934 36.417,66.95 36.417,105.059c-0,93.121 -76.629,169.75 -169.75,169.75c-93.121,-0 -169.75,-76.629 -169.75,-169.75c-0,-38.109 12.833,-75.125 36.416,-105.059c-48.287,-61.379 -48.287,-148.537 0,-209.916l-0.208,0.041Z" style="fill:#f50057;fill-rule:nonzero;"/></g><g><path d="M2721.67,752.792c0.058,38.071 -12.75,75.071 -36.334,104.958c23.584,29.933 36.417,66.95 36.417,105.058c0,93.121 -76.629,169.75 -169.75,169.75c-93.121,0 -169.75,-76.629 -169.75,-169.75c0,-38.108 12.833,-75.125 36.417,-105.058c-22.834,-28.875 303,-124 303,-104.958Z" style="fill-opacity:0.1;fill-rule:nonzero;"/></g></g><g opacity="0.1"><ellipse cx="4327.42" cy="1342.17" rx="47.417" ry="62.083" style="fill:#fff;"/><g><path d="M4289.88,1076.54c-6.625,-11.546 -10.042,-24.65 -9.917,-37.959c0,-34.291 21.25,-62.083 47.459,-62.083c26.208,0 47.416,27.792 47.416,62.083c0.125,13.309 -3.291,26.413 -9.916,37.959c13.208,23.537 13.208,52.337 -0,75.875c13.208,23.537 13.208,52.337 -0,75.875c6.625,11.541 10.041,24.65 9.916,37.958c0,34.25 -21.25,62.083 -47.416,62.083c-26.167,0 -47.459,-27.833 -47.459,-62.083c-0.125,-13.308 3.292,-26.417 9.917,-37.958c-13.208,-23.538 -13.208,-52.338 0,-75.875c-13.208,-23.538 -13.208,-52.338 0,-75.875Z" style="fill:#fff;fill-rule:nonzero;"/></g><ellipse cx="4327.42" cy="962.792" rx="47.417" ry="62.083" style="fill:#3f3d56;"/><ellipse cx="4327.42" cy="886.917" rx="47.417" ry="62.083" style="fill:#3f3d56;"/><g><path d="M4504.92,367.625c6.5,-8.237 12.416,-16.925 17.666,-26l-124.583,-20.458l134.75,1c26.083,-56.85 27.583,-122.004 4.167,-180l-180.792,93.791l166.667,-122.583c-40.334,-70.921 -115.917,-114.867 -197.5,-114.867c-124.625,0 -227.209,102.563 -227.209,227.209c0,51.533 17.542,101.562 49.709,141.825c-10.084,12.833 -18.792,26.721 -25.917,41.416l161.792,84.25l-172.459,-57.875c-24.583,72.659 -10.791,153.042 36.625,213.334c-31.5,40.033 -48.625,89.516 -48.625,140.454c0,124.621 102.542,227.167 227.167,227.167c124.625,-0 227.167,-102.546 227.167,-227.167c-0,-50.938 -17.125,-100.421 -48.625,-140.454c64.625,-82.138 64.625,-198.78 -0,-280.917l-0,-0.125Z" style="fill:#fff;fill-rule:nonzero;"/></g><g><path d="M4099.21,508.083c-0.083,50.95 17.042,100.463 48.625,140.459c-31.5,40.033 -48.625,89.516 -48.625,140.454c0,124.621 102.542,227.167 227.167,227.167c124.625,-0 227.167,-102.546 227.167,-227.167c-0,-50.938 -17.125,-100.421 -48.625,-140.454c30.458,-38.667 -405.709,-165.959 -405.709,-140.459Z" style="fill-opacity:0.1;fill-rule:nonzero;"/></g></g><g opacity="0.1"><ellipse cx="3869.67" cy="1351.08" rx="35.458" ry="46.375" style="fill:#3f3d56;"/><g><path d="M3841.67,1152.62c-4.929,-8.621 -7.475,-18.404 -7.375,-28.333c-0,-25.625 15.875,-46.417 35.416,-46.417c19.542,0 35.459,20.833 35.459,46.417c0.108,9.937 -2.454,19.725 -7.417,28.333c9.875,17.592 9.875,39.117 0,56.708c9.875,17.592 9.875,39.117 0,56.709c4.963,8.608 7.525,18.395 7.417,28.333c-0,25.625 -15.875,46.417 -35.459,46.417c-19.583,-0 -35.416,-20.834 -35.416,-46.417c-0.1,-9.929 2.446,-19.713 7.375,-28.333c-9.796,-17.613 -9.796,-39.096 -0,-56.709c-9.796,-17.612 -9.796,-39.095 -0,-56.708Z" style="fill:#3f3d56;fill-rule:nonzero;"/></g><ellipse cx="3869.67" cy="1067.58" rx="35.458" ry="46.375" style="fill:#3f3d56;"/><ellipse cx="3869.67" cy="1010.88" rx="35.458" ry="46.375" style="fill:#3f3d56;"/><g><path d="M4002.33,622.833c4.875,-6.145 9.292,-12.633 13.209,-19.416l-93.125,-15.292l100.708,0.75c19.5,-42.475 20.708,-91.171 3.25,-134.542l-135.125,70.125l124.625,-91.666c-30.292,-52.521 -86.475,-84.988 -147.096,-84.988c-93.146,0 -169.791,76.646 -169.791,169.792c-0,38.167 12.866,75.237 36.512,105.196c-7.542,9.6 -14.037,19.979 -19.375,30.958l120.833,62.792l-128.625,-43.209c-18.37,54.296 -8.058,114.359 27.375,159.417c-23.583,29.933 -36.416,66.95 -36.416,105.058c-0,93.121 76.629,169.75 169.75,169.75c93.125,0 169.75,-76.629 169.75,-169.75c-0,-38.108 -12.834,-75.125 -36.417,-105.058c48.292,-61.379 48.292,-148.537 0,-209.917l-0.042,0Z" style="fill:#f50057;fill-rule:nonzero;"/></g><g><path d="M3699.17,727.792c-0.059,38.071 12.75,75.071 36.333,104.958c-23.583,29.933 -36.417,66.95 -36.417,105.058c0,93.121 76.63,169.75 169.75,169.75c93.125,0 169.75,-76.629 169.75,-169.75c0,-38.108 -12.833,-75.125 -36.416,-105.058c22.833,-28.875 -303,-124 -303,-104.958Z" style="fill-opacity:0.1;fill-rule:nonzero;"/></g></g><g opacity="0.1"><ellipse cx="256.625" cy="1342.17" rx="47.417" ry="62.083" style="fill:#fff;"/><g><path d="M294.125,1076.54c6.613,-11.546 10.037,-24.65 9.917,-37.959c-0,-34.291 -21.25,-62.083 -47.417,-62.083c-26.167,0 -47.417,27.792 -47.417,62.083c-0.133,13.305 3.275,26.409 9.875,37.959c-13.154,23.55 -13.154,52.325 0,75.875c-13.154,23.55 -13.154,52.325 0,75.875c-6.612,11.546 -10.02,24.654 -9.875,37.958c0,34.25 21.209,62.083 47.417,62.083c26.208,0 47.542,-27.75 47.542,-62c0.133,-13.308 -3.292,-26.416 -9.917,-37.958c13.204,-23.537 13.204,-52.337 0,-75.875c13.204,-23.537 13.204,-52.337 0,-75.875l-0.125,-0.083Z" style="fill:#fff;fill-rule:nonzero;"/></g><ellipse cx="256.625" cy="962.792" rx="47.417" ry="62.083" style="fill:#3f3d56;"/><ellipse cx="256.625" cy="886.917" rx="47.417" ry="62.083" style="fill:#3f3d56;"/><g><path d="M79.167,367.625c-6.484,-8.246 -12.388,-16.933 -17.667,-26l124.625,-20.458l-134.875,1.208c-26.063,-56.85 -27.571,-122.004 -4.167,-180l180.834,93.792l-166.667,-122.584c40.408,-70.645 115.804,-114.379 197.192,-114.379c124.616,0 227.166,102.546 227.166,227.167c0,51.342 -17.408,101.196 -49.358,141.379c10.104,12.833 18.792,26.721 25.917,41.417l-161.834,84.041l172.5,-57.875c24.542,72.671 10.73,153.029 -36.666,213.334c31.491,40.033 48.625,89.516 48.625,140.454c-0,124.621 -102.546,227.167 -227.167,227.167c-124.621,-0 -227.167,-102.546 -227.167,-227.167c0,-50.938 17.134,-100.421 48.625,-140.454c-64.616,-82.138 -64.616,-198.78 0,-280.917l0.084,-0.125Z" style="fill:#fff;fill-rule:nonzero;"/></g><g><path d="M484.792,508.083c0.083,50.95 -17.059,100.463 -48.625,140.459c31.491,40.033 48.625,89.516 48.625,140.454c-0,124.621 -102.546,227.167 -227.167,227.167c-124.621,-0 -227.167,-102.546 -227.167,-227.167c0,-50.938 17.134,-100.421 48.625,-140.454c-30.458,-38.667 405.709,-165.959 405.709,-140.459Z" style="fill:#fff;fill-opacity:0.1;fill-rule:nonzero;"/></g></g><g opacity="0.1"><ellipse cx="714.333" cy="1351.08" rx="35.458" ry="46.375" style="fill:#3f3d56;"/><g><path d="M742.375,1152.62c4.929,-8.621 7.475,-18.404 7.375,-28.333c0,-25.625 -15.833,-46.417 -35.417,-46.417c-19.583,0 -35.458,20.833 -35.458,46.417c-0.088,9.933 2.475,19.716 7.417,28.333c-9.875,17.592 -9.875,39.117 -0,56.708c-9.875,17.592 -9.875,39.117 -0,56.709c-4.942,8.616 -7.505,18.4 -7.417,28.333c0,25.625 15.875,46.417 35.458,46.417c19.584,-0 35.417,-20.834 35.417,-46.417c0.1,-9.929 -2.446,-19.713 -7.375,-28.333c9.796,-17.613 9.796,-39.096 0,-56.709c9.796,-17.612 9.796,-39.095 0,-56.708Z" style="fill:#3f3d56;fill-rule:nonzero;"/></g><ellipse cx="714.333" cy="1067.58" rx="35.458" ry="46.375" style="fill:#3f3d56;"/><ellipse cx="714.333" cy="1010.88" rx="35.458" ry="46.375" style="fill:#3f3d56;"/><g><path d="M581.667,622.833c-4.85,-6.154 -9.267,-12.641 -13.209,-19.416l93.125,-15.292l-100.708,0.75c-19.517,-42.475 -20.692,-91.171 -3.25,-134.542l135.125,70.125l-124.625,-91.666c30.279,-52.521 86.475,-84.988 147.096,-84.988c93.146,0 169.791,76.646 169.791,169.792c0,38.167 -12.866,75.237 -36.512,105.196c7.571,9.579 14.067,19.962 19.375,30.958l-120.833,62.792l128.875,-43.25c18.37,54.296 8.058,114.358 -27.375,159.416c23.583,29.934 36.416,66.95 36.416,105.059c0,93.121 -76.629,169.75 -169.75,169.75c-93.121,-0 -169.75,-76.629 -169.75,-169.75c0,-38.109 12.834,-75.125 36.417,-105.059c-48.288,-61.379 -48.288,-148.537 -0,-209.916l-0.208,0.041Z" style="fill:#fff;fill-rule:nonzero;"/></g><g><path d="M884.833,727.792c0.059,38.071 -12.75,75.071 -36.333,104.958c23.583,29.933 36.417,66.95 36.417,105.058c-0,93.121 -76.63,169.75 -169.75,169.75c-93.121,0 -169.75,-76.629 -169.75,-169.75c-0,-38.108 12.833,-75.125 36.416,-105.058c-22.916,-28.875 303,-124 303,-104.958Z" style="fill-opacity:0.1;fill-rule:nonzero;"/></g></g><ellipse cx="2283.33" cy="2054.71" rx="2283.33" ry="36.917" style="fill:#f50057;fill-opacity:0.1;"/><ellipse cx="2283.33" cy="2357.83" rx="2283.33" ry="36.917" style="fill:#f50057;fill-opacity:0.1;"/><ellipse cx="2283.33" cy="1422.08" rx="2283.33" ry="36.917" style="fill:#f50057;fill-opacity:0.1;"/><ellipse cx="2283.33" cy="1738.38" rx="2283.33" ry="36.917" style="fill:#f50057;fill-opacity:0.1;"/><g><path d="M3369.96,459.875c-14.875,-2.808 -30.254,-1.125 -44.166,4.833c-16.884,7.525 -36.2,7.525 -53.084,0c-19.991,-8.775 -42.862,-8.333 -62.5,1.209c-5.529,2.937 -11.695,4.483 -17.958,4.5c-25.333,-0 -46.375,-25.5 -50.75,-59.125c4.983,-3.717 9.225,-8.338 12.5,-13.625c14.833,-23.917 37.792,-39.292 63.625,-39.292c25.833,0 48.5,15.167 63.333,38.833c8.975,14.53 24.967,23.309 42.042,23.084l0.667,-0c20.375,-0.209 37.833,15.958 46.291,39.583Z" style="fill:#f50057;fill-opacity:0.1;fill-rule:nonzero;"/></g><g><path d="M3447.08,354.25l-40.916,25.917l25,-45.167c-7.042,-5.604 -15.754,-8.7 -24.75,-8.792l-0.667,0c-2.792,0.038 -5.579,-0.171 -8.333,-0.625l-14.084,8.792l5.959,-10.833c-9.842,-3.409 -18.354,-9.859 -24.292,-18.417l-25,15.75l15.667,-28.5c-14.5,-17.417 -34.084,-28.083 -55.584,-28.083c-25.833,-0 -48.791,15.333 -63.666,39.25c-8.917,14.537 -24.996,23.208 -42.042,22.666l-1.375,0c-28.5,0 -51.583,32.292 -51.583,72.125c-0,39.834 23.083,72.167 51.583,72.167c6.258,-0.042 12.417,-1.583 17.958,-4.5c19.63,-9.567 42.505,-10.025 62.5,-1.25c16.875,7.579 36.209,7.579 53.084,0c19.829,-8.575 42.437,-8.133 61.916,1.208c5.48,2.867 11.567,4.384 17.75,4.417c28.5,0 51.584,-32.333 51.584,-72.167c0.171,-15.316 -3.513,-30.437 -10.709,-43.958Z" style="fill:#f50057;fill-opacity:0.1;fill-rule:nonzero;"/></g><g><path d="M1630.25,437.333c-10.425,-1.97 -21.204,-0.795 -30.958,3.375c-11.804,5.275 -25.321,5.275 -37.125,0c-13.984,-6.141 -29.984,-5.82 -43.709,0.875c-3.862,2.013 -8.145,3.084 -12.5,3.125c-17.708,0 -32.458,-17.833 -35.541,-41.375c3.533,-2.591 6.546,-5.829 8.875,-9.541c10.375,-16.667 26.458,-27.5 44.541,-27.5c18.084,-0 33.959,10.625 44.334,27.166c6.295,10.175 17.496,16.321 29.458,16.167l0.458,0c14,-0.083 26.209,11.25 32.167,27.708Z" style="fill:#f50057;fill-opacity:0.1;fill-rule:nonzero;"/></g><g><path d="M1684.21,363.458l-28.625,18.167l17.375,-31.625c-4.912,-3.929 -11,-6.104 -17.291,-6.167l-0.5,0c-1.984,0.038 -3.963,-0.116 -5.917,-0.458l-9.708,6.167l4.166,-7.584c-6.879,-2.391 -12.833,-6.9 -17,-12.875l-17.375,11l11,-19.916c-9.35,-12.071 -23.654,-19.317 -38.916,-19.709c-18.084,0 -34.167,10.75 -44.542,27.5c-6.25,10.184 -17.517,16.255 -29.458,15.875l-0.959,0c-19.958,0 -36.125,22.584 -36.125,50.5c0,27.917 16.167,50.5 36.125,50.5c4.363,-0.033 8.65,-1.12 12.5,-3.166c13.721,-6.659 29.7,-6.963 43.667,-0.834c5.875,2.68 12.25,4.1 18.708,4.167c6.359,-0.012 12.646,-1.346 18.459,-3.917c13.875,-6.004 29.7,-5.7 43.333,0.834c3.858,2.021 8.146,3.079 12.5,3.083c19.917,0 36.083,-22.625 36.083,-50.5c0.167,-10.817 -2.412,-21.496 -7.5,-31.042Z" style="fill:#f50057;fill-opacity:0.1;fill-rule:nonzero;"/></g><g><path d="M1123.29,764.042c10.412,-1.967 21.175,-0.792 30.916,3.375c11.821,5.279 25.346,5.279 37.167,-0c13.979,-6.129 29.971,-5.825 43.708,0.833c3.85,2.05 8.138,3.138 12.5,3.167c17.709,-0 32.459,-17.875 35.5,-41.417c-3.533,-2.583 -6.529,-5.821 -8.833,-9.542c-10.417,-16.666 -26.5,-27.458 -44.542,-27.458c-18.041,0 -33.958,10.583 -44.375,27.167c-6.287,10.162 -17.47,16.304 -29.416,16.166l-0.459,0c-14.041,0.084 -26.291,11.375 -32.166,27.709Z" style="fill:#f50057;fill-opacity:0.1;fill-rule:nonzero;"/></g><g><path d="M1069.29,690.292l28.666,18.166l-17.416,-31.583c4.925,-3.942 11.025,-6.129 17.333,-6.208l0.458,-0c1.996,0.029 3.988,-0.113 5.959,-0.417l9.708,6.125l-4.167,-7.542c6.867,-2.4 12.804,-6.904 16.959,-12.875l17.375,11l-10.834,-19.958c9.354,-12.063 23.659,-19.292 38.917,-19.667c18.042,0 34.167,10.75 44.542,27.5c6.245,10.167 17.491,16.238 29.416,15.875l1,0c19.917,0 36.084,22.625 36.084,50.5c-0,27.875 -16.167,50.5 -36.084,50.5c-4.358,-0.021 -8.646,-1.091 -12.5,-3.125c-13.725,-6.696 -29.725,-7.016 -43.708,-0.875c-5.854,2.705 -12.221,4.125 -18.667,4.167c-6.37,-0.004 -12.67,-1.337 -18.5,-3.917c-13.862,-6.004 -29.671,-5.7 -43.291,0.834c-3.859,2.02 -8.146,3.079 -12.5,3.083c-19.959,0 -36.125,-22.583 -36.125,-50.5c-0.196,-10.817 2.341,-21.508 7.375,-31.083Z" style="fill:#f50057;fill-opacity:0.1;fill-rule:nonzero;"/></g><g><path d="M2767.96,2042.75c10.875,-20.167 -1.458,-44.833 -15.625,-62.792c-14.166,-17.958 -31.5,-36.666 -31.125,-59.541c0.542,-32.875 35.459,-52.334 63.334,-69.75c20.7,-12.98 39.791,-28.367 56.875,-45.834c7.146,-6.725 13.054,-14.65 17.458,-23.416c5.792,-12.834 5.625,-27.5 5.25,-41.667c-1.196,-46.917 -3.512,-93.804 -6.958,-140.667" style="fill:none;fill-rule:nonzero;stroke:#3f3d56;stroke-width:16.67px;"/></g><g><path d="M2910.21,1596.75c-0.816,-17.446 -10.491,-33.321 -25.625,-42.042l-11.5,22.709l0.375,-27.5c-4.704,-1.384 -9.583,-2.088 -14.487,-2.088c-28.138,0 -51.292,23.154 -51.292,51.292c0,28.137 23.154,51.292 51.292,51.292c28.137,-0 51.292,-23.155 51.292,-51.292c-0,-0.792 -0.017,-1.584 -0.055,-2.371Z" style="fill:#f50057;fill-rule:nonzero;"/></g><g><path d="M2818.71,1943.92c-8.779,17.062 -26.42,27.825 -45.608,27.825c-27.146,-0 -49.833,-21.55 -51.225,-48.659c-0.383,-7.104 0.754,-14.204 3.333,-20.833c7.68,-19.646 26.717,-32.65 47.813,-32.65c21.304,0 40.492,13.263 48.021,33.192l-32.042,26.083l35.25,-8.333c0.042,8.121 -1.858,16.137 -5.542,23.375Z" style="fill:#f50057;fill-rule:nonzero;"/></g><g><path d="M2793.38,1844.33c-0.804,0.038 -1.608,0.059 -2.412,0.059c-28.138,-0 -51.292,-23.154 -51.292,-51.292c-0,-22.929 15.375,-43.204 37.454,-49.392l-0.292,21.125l11.625,-23c0.8,-0.037 1.596,-0.054 2.396,-0.054c28.146,0 51.304,23.159 51.304,51.304c0,27.242 -21.696,49.98 -48.908,51.25l0.125,0Z" style="fill:#f50057;fill-rule:nonzero;"/></g><g><path d="M2917.92,1761.46c-0.884,0.046 -1.763,0.067 -2.646,0.067c-28.138,0 -51.292,-23.154 -51.292,-51.292c0,-28.137 23.154,-51.291 51.292,-51.291c8.871,-0 17.596,2.304 25.312,6.683l-9.041,25l18.458,-18.25c10.592,9.708 16.629,23.437 16.629,37.808c0,27.225 -21.679,49.955 -48.879,51.234l0.167,0.041Z" style="fill:#f50057;fill-rule:nonzero;"/></g><g><path d="M2903.29,1610.42c-11.834,1.291 -23.334,4.958 -35.25,5.708c-11.917,0.75 -25,-2.125 -32.417,-11.333c-3.487,-5.367 -6.658,-10.929 -9.5,-16.667c-3.237,-5.054 -7.675,-9.237 -12.917,-12.167c-3.687,7.221 -5.608,15.213 -5.608,23.321c0,28.138 23.154,51.292 51.292,51.292c24.091,-0 45.096,-16.975 50.15,-40.529c-1.875,0.041 -3.834,0.166 -5.75,0.375Z" style="fill-opacity:0.1;fill-rule:nonzero;"/></g><g><path d="M2917.92,1761.46c-0.809,0.038 -1.617,0.059 -2.425,0.059c-28.138,-0 -51.292,-23.154 -51.292,-51.292c0,-7.587 1.683,-15.075 4.925,-21.933c4.067,2.746 7.563,6.254 10.292,10.333c3.062,5.842 6.458,11.504 10.166,16.958c8,9.375 21.667,12.5 34.042,11.875c12.375,-0.625 24.333,-4.166 36.667,-5.208c1.708,0 3.416,-0.25 5.166,-0.292c-5.229,22.242 -24.716,38.438 -47.541,39.5Z" style="fill-opacity:0.1;fill-rule:nonzero;"/></g><g><path d="M2793.38,1844.33c-0.8,0.038 -1.6,0.055 -2.4,0.055c-28.137,-0 -51.292,-23.15 -51.292,-51.292c0,-7.225 1.53,-14.375 4.484,-20.971c4.229,2.783 7.912,6.313 10.875,10.417c3.358,5.979 7.075,11.754 11.125,17.291c8.625,9.625 23.208,13.042 36.291,12.5c13.084,-0.541 25,-3.375 37.5,-4.166c-6.358,20.608 -25.045,35.112 -46.583,36.166Z" style="fill-opacity:0.1;fill-rule:nonzero;"/></g><g><path d="M2818.71,1943.92c-8.779,17.062 -26.42,27.825 -45.608,27.825c-27.146,-0 -49.833,-21.55 -51.225,-48.659c-0.383,-7.104 0.754,-14.204 3.333,-20.833c4.225,2.775 8.017,6.158 11.25,10.042c4.875,5.916 8.084,12.5 13.75,18.208c10.459,10.292 27.417,14.542 42.459,14.917c8.704,0.025 17.4,-0.475 26.041,-1.5Z" style="fill-opacity:0.1;fill-rule:nonzero;"/></g><g><path d="M226.292,1742.75c10.875,-20.167 -1.459,-44.833 -15.625,-62.792c-14.167,-17.958 -31.5,-36.75 -31.125,-59.541c0.541,-32.875 35.458,-52.334 63.333,-69.75c20.7,-12.98 39.792,-28.367 56.875,-45.834c7.146,-6.725 13.054,-14.65 17.458,-23.416c5.792,-12.834 5.625,-27.5 5.25,-41.667c-1.221,-46.917 -3.541,-93.804 -6.958,-140.667" style="fill:none;fill-rule:nonzero;stroke:#3f3d56;stroke-width:16.67px;"/></g><g><path d="M368.542,1296.75c-0.817,-17.446 -10.492,-33.321 -25.625,-42.042l-11.5,22.709l0.375,-27.5c-4.704,-1.384 -9.584,-2.088 -14.488,-2.088c-28.137,0 -51.291,23.154 -51.291,51.292c-0,28.137 23.154,51.292 51.291,51.292c28.138,-0 51.292,-23.155 51.292,-51.292c-0,-0.792 -0.017,-1.583 -0.054,-2.371Z" style="fill:#f50057;fill-rule:nonzero;"/></g><g><path d="M277.042,1643.92c-8.78,17.062 -26.421,27.825 -45.609,27.825c-27.145,-0 -49.833,-21.55 -51.225,-48.659c-0.383,-7.104 0.754,-14.204 3.334,-20.833c7.679,-19.646 26.716,-32.65 47.812,-32.65c21.304,0 40.492,13.263 48.021,33.192l-32.042,26.083l35.25,-8.333c0.042,8.121 -1.858,16.137 -5.541,23.375Z" style="fill:#f50057;fill-rule:nonzero;"/></g><g><path d="M251.708,1544.33c-0.804,0.038 -1.608,0.059 -2.412,0.059c-28.138,-0 -51.292,-23.154 -51.292,-51.292c0,-22.929 15.375,-43.204 37.454,-49.392l-0.291,21.125l11.625,-23c0.8,-0.037 1.595,-0.054 2.396,-0.054c28.145,0 51.304,23.159 51.304,51.304c-0,27.242 -21.696,49.98 -48.909,51.25l0.125,0Z" style="fill:#f50057;fill-rule:nonzero;"/></g><g><path d="M376.25,1461.46c-0.883,0.046 -1.762,0.067 -2.646,0.067c-28.137,0 -51.292,-23.154 -51.292,-51.292c0,-28.137 23.155,-51.291 51.292,-51.291c8.871,-0 17.596,2.304 25.313,6.683l-9.042,25l18.458,-18.25c10.592,9.708 16.629,23.437 16.629,37.808c0,27.225 -21.679,49.955 -48.879,51.234l0.167,0.041Z" style="fill:#f50057;fill-rule:nonzero;"/></g><g><path d="M361.625,1310.42c-11.833,1.291 -23.333,4.958 -35.25,5.708c-11.917,0.75 -25,-2.125 -32.417,-11.333c-3.487,-5.367 -6.658,-10.929 -9.5,-16.667c-3.237,-5.054 -7.675,-9.237 -12.916,-12.167c-3.688,7.221 -5.609,15.213 -5.609,23.321c0,28.138 23.155,51.292 51.292,51.292c24.092,-0 45.096,-16.975 50.15,-40.529c-1.875,0.041 -3.833,0.166 -5.75,0.375Z" style="fill-opacity:0.1;fill-rule:nonzero;"/></g><g><path d="M376.25,1461.46c-0.808,0.038 -1.617,0.059 -2.425,0.059c-28.137,-0 -51.292,-23.154 -51.292,-51.292c0,-7.587 1.684,-15.075 4.925,-21.933c4.067,2.745 7.563,6.254 10.292,10.333c3.062,5.842 6.458,11.504 10.167,16.958c8,9.375 21.666,12.5 34.041,11.875c12.375,-0.625 24.334,-4.166 36.667,-5.208c1.708,0 3.417,-0.25 5.167,-0.292c-5.229,22.242 -24.717,38.438 -47.542,39.5Z" style="fill-opacity:0.1;fill-rule:nonzero;"/></g><g><path d="M251.708,1544.33c-0.8,0.038 -1.6,0.055 -2.4,0.055c-28.137,-0 -51.291,-23.15 -51.291,-51.292c-0,-7.225 1.529,-14.375 4.483,-20.971c4.229,2.783 7.912,6.313 10.875,10.417c3.358,5.979 7.075,11.754 11.125,17.291c8.625,9.625 23.208,13.042 36.292,12.5c13.083,-0.541 25,-3.375 37.5,-4.166c-6.359,20.608 -25.046,35.112 -46.584,36.166Z" style="fill-opacity:0.1;fill-rule:nonzero;"/></g><g><path d="M277.042,1643.92c-8.78,17.062 -26.421,27.825 -45.609,27.825c-27.145,-0 -49.833,-21.55 -51.225,-48.659c-0.383,-7.104 0.754,-14.204 3.334,-20.833c4.225,2.775 8.016,6.158 11.25,10.042c4.875,5.916 8.083,12.5 13.75,18.208c10.458,10.292 27.416,14.542 42.458,14.917c8.704,0.025 17.4,-0.475 26.042,-1.5Z" style="fill-opacity:0.1;fill-rule:nonzero;"/></g><g><path d="M1918.83,1399.54c-10.875,-20.125 1.459,-44.792 15.667,-62.75c14.208,-17.959 31.458,-36.667 31.083,-59.542c-0.5,-32.917 -35.416,-52.333 -63.333,-69.75c-20.692,-12.975 -39.771,-28.358 -56.833,-45.833c-7.179,-6.688 -13.104,-14.604 -17.5,-23.375c-5.75,-12.875 -5.584,-27.5 -5.25,-41.667c1.25,-46.917 3.571,-93.804 6.958,-140.667" style="fill:none;fill-rule:nonzero;stroke:#3f3d56;stroke-width:16.67px;"/></g><g><path d="M1776.62,953.583c0.8,-17.441 10.458,-33.316 25.583,-42.041l11.5,22.708l-0.333,-27.5c5.475,-1.592 11.175,-2.279 16.875,-2.042c27.208,1.267 48.904,24 48.904,51.238c0,28.137 -23.154,51.292 -51.291,51.292c-28.138,-0 -51.292,-23.155 -51.292,-51.292c-0,-0.788 0.016,-1.575 0.054,-2.363Z" style="fill:#f50057;fill-rule:nonzero;"/></g><g><path d="M1868.08,1300.75c8.771,17.079 26.425,27.858 45.625,27.858c28.138,0 51.292,-23.154 51.292,-51.291c0,-28.142 -23.154,-51.292 -51.292,-51.292c-21.391,0 -40.637,13.379 -48.083,33.433l32.042,26.084l-35.25,-8.334c-0.029,8.188 1.916,16.263 5.666,23.542Z" style="fill:#f50057;fill-rule:nonzero;"/></g><g><path d="M1893.42,1201.17c0.82,0.037 1.641,0.058 2.462,0.058c28.138,0 51.292,-23.154 51.292,-51.292c-0,-22.933 -15.379,-43.208 -37.463,-49.391l0.25,21.125l-11.625,-23c-28.104,-1.384 -52.366,20.604 -53.75,48.708c-0.291,5.917 0.455,11.842 2.209,17.5c6.287,20.692 25.025,35.275 46.625,36.292Z" style="fill:#f50057;fill-rule:nonzero;"/></g><g><path d="M1768.92,1118.21c0.87,0.046 1.737,0.067 2.608,0.067c28.137,0 51.292,-23.154 51.292,-51.292c-0,-28.137 -23.155,-51.291 -51.292,-51.291c-8.875,-0 -17.6,2.304 -25.317,6.683l9.084,25l-18.667,-17.875c-10.054,9.108 -16.058,21.867 -16.667,35.417c-0.25,4.746 0.188,9.504 1.292,14.125c5.354,22.162 24.887,38.212 47.667,39.166Z" style="fill:#f50057;fill-rule:nonzero;"/></g><g><path d="M1783.54,967.25c11.833,1.292 23.333,4.958 35.208,5.708c11.875,0.75 25,-2.125 32.458,-11.333c3.475,-5.367 6.634,-10.933 9.459,-16.667c3.254,-5.058 7.704,-9.237 12.958,-12.166c3.696,7.229 5.625,15.233 5.625,23.35c-0,28.137 -23.154,51.291 -51.292,51.291c-24.121,0 -45.137,-17.012 -50.166,-40.6c1.875,0.042 3.791,0.209 5.75,0.417Z" style="fill-opacity:0.1;fill-rule:nonzero;"/></g><g><path d="M1768.92,1118.21c0.787,0.038 1.57,0.054 2.358,0.054c28.162,0 51.333,-23.17 51.333,-51.333c0,-7.566 -1.675,-15.041 -4.9,-21.887c-4.079,2.745 -7.587,6.254 -10.333,10.333c-3.062,5.842 -6.458,11.504 -10.167,16.958c-7.958,9.375 -21.625,12.5 -34,11.875c-12.375,-0.625 -24.333,-4.166 -36.666,-5.208c-1.709,-0 -3.459,-0.25 -5.167,-0.292c5.217,22.25 24.712,38.45 47.542,39.5Z" style="fill-opacity:0.1;fill-rule:nonzero;"/></g><g><path d="M1893.42,1201.17c0.82,0.037 1.646,0.058 2.466,0.058c28.113,0 51.25,-23.133 51.25,-51.25c0,-7.246 -1.537,-14.408 -4.508,-21.017c-4.221,2.775 -7.896,6.305 -10.833,10.417c-3.359,5.979 -7.075,11.754 -11.125,17.292c-8.667,9.625 -23.209,13.041 -36.334,12.5c-13.125,-0.542 -25,-3.375 -37.5,-4.167c6.325,20.629 25.03,35.15 46.584,36.167Z" style="fill-opacity:0.1;fill-rule:nonzero;"/></g><g><path d="M1868.08,1300.75c8.809,16.975 26.404,27.675 45.529,27.675c28.138,0 51.292,-23.154 51.292,-51.292c0,-6.166 -1.108,-12.279 -3.279,-18.05c-4.242,2.75 -8.038,6.138 -11.25,10.042c-4.875,5.917 -8.333,12.5 -13.75,18.208c-10.5,10.292 -27.417,14.542 -42.5,14.917c-8.704,0.004 -17.396,-0.496 -26.042,-1.5Z" style="fill-opacity:0.1;fill-rule:nonzero;"/></g><circle cx="3248.88" cy="992.417" r="416.5" style="fill:#3f3d56;"/><g><path d="M3427.67,1099.83c-14.5,-14.5 -49.375,-36.375 -66.667,-44.541c-19.958,-9.584 -27.292,-9.417 -41.417,0.791c-11.75,8.334 -19.375,16.375 -32.875,13.417c-13.5,-2.958 -40.25,-23.125 -66.125,-48.917c-25.875,-25.791 -45.958,-52.375 -48.833,-66.083c-2.875,-13.708 5.042,-21.167 13.458,-32.917c10.167,-14.125 10.459,-21.458 0.792,-41.416c-8.333,-17.292 -29.958,-52.084 -44.583,-66.667c-14.625,-14.583 -17.792,-11.375 -25.792,-8.333c-8.233,3.45 -16.142,7.633 -23.625,12.5c-14.5,9.708 -22.625,17.791 -28.333,29.958c-5.709,12.167 -12.167,34.75 21.041,93.875c24.496,45.229 55.525,86.604 92.084,122.792c36.308,36.641 77.825,67.725 123.208,92.25c59.083,33.333 81.708,26.708 93.875,21.041c12.167,-5.666 20.25,-13.708 29.917,-28.333c4.875,-7.479 9.058,-15.387 12.5,-23.625c2.75,-8 6,-11.25 -8.625,-25.792Z" style="fill:#fff;fill-rule:nonzero;"/></g><g><path d="M3248.88,575.958l-0.208,0c-228.575,0 -416.667,188.092 -416.667,416.667c0,228.575 188.092,416.667 416.667,416.667c228.575,-0 416.666,-188.092 416.666,-416.667l0,-0.208c-0.112,-228.421 -188.037,-416.346 -416.458,-416.459Zm0,777.584c-198.108,-0 -361.125,-163.017 -361.125,-361.125c0,-198.109 163.017,-361.125 361.125,-361.125c198.108,-0 361.125,163.016 361.125,361.125c0,198.108 -163.017,361.125 -361.125,361.125Z" style="fill-opacity:0.1;fill-rule:nonzero;"/></g><circle cx="2292" cy="1625.04" r="416.5" style="fill:#3f3d56;"/><g><path d="M2528.88,1499.21l-124.708,126.875c-0.442,0.425 -0.696,1.013 -0.696,1.625c-0,0.613 0.254,1.2 0.696,1.625l87.5,93.042c2.804,2.825 4.379,6.646 4.379,10.625c-0,8.246 -6.758,15.038 -15.004,15.083c-3.996,-0.008 -7.834,-1.595 -10.667,-4.416l-87.042,-92.709c-0.916,-0.904 -2.416,-0.904 -3.333,0l-21.208,21.417c-17.534,17.933 -41.588,28.05 -66.667,28.042c-25.554,-0.117 -50.017,-10.517 -67.833,-28.834l-20.375,-20.833c-0.917,-0.904 -2.417,-0.904 -3.334,0l-86.833,92.5c-2.821,2.825 -6.654,4.417 -10.646,4.417c-3.991,-0 -7.825,-1.592 -10.646,-4.417c-2.837,-2.817 -4.433,-6.65 -4.433,-10.646c0,-3.996 1.596,-7.829 4.433,-10.646l87.167,-92.833c0.796,-0.933 0.796,-2.317 0,-3.25l-124.708,-126.875c-0.429,-0.433 -1.017,-0.675 -1.625,-0.675c-1.259,0 -2.292,1.033 -2.292,2.292l0,253.883c0.067,20.296 16.746,36.975 37.042,37.042l407.791,-0c20.296,-0.067 36.975,-16.746 37.042,-37.042l0,-253.667c0,-0.033 0.004,-0.066 0.004,-0.1c0,-1.258 -1.037,-2.291 -2.291,-2.291c-0.655,-0 -1.28,0.279 -1.713,0.766Z" style="fill:#fff;fill-rule:nonzero;"/></g><g><path d="M2292,1670.29c17.071,0.166 33.504,-6.605 45.5,-18.75l181.625,-184.875c-6.446,-5.342 -14.546,-8.284 -22.917,-8.334l-408.083,0c-8.375,0.029 -16.483,2.975 -22.917,8.334l181.667,184.875c11.892,12.079 28.175,18.846 45.125,18.75Z" style="fill:#fff;fill-rule:nonzero;"/></g><g><path d="M2286.75,1208.58l-0.208,0c-228.575,0 -416.667,188.092 -416.667,416.667c-0,228.575 188.092,416.667 416.667,416.667c228.575,-0 416.666,-188.092 416.666,-416.667l0,-0.208c-0.112,-228.421 -188.037,-416.346 -416.458,-416.459Zm0,777.584c-198.108,-0 -361.125,-163.017 -361.125,-361.125c-0,-198.109 163.017,-361.125 361.125,-361.125c198.108,-0 361.125,163.016 361.125,361.125c0,198.108 -163.017,361.125 -361.125,361.125Z" style="fill-opacity:0.1;fill-rule:nonzero;"/></g><circle cx="1303.54" cy="1314" r="416.5" style="fill:#3f3d56;"/><g><path d="M1303.54,1114.71l-166.042,383.084l15.5,15.5l150.583,-66.417l150.584,66.417l15.5,-15.5l-166.125,-383.084Z" style="fill:#fff;fill-rule:nonzero;"/></g><g><path d="M1303.54,897.375l-0.209,0c-228.575,0 -416.666,188.092 -416.666,416.667c-0,228.575 188.091,416.666 416.666,416.666c228.575,0 416.667,-188.091 416.667,-416.666c0,-228.496 -187.962,-416.554 -416.458,-416.667Zm-0,777.583c-198.109,0 -361.125,-163.016 -361.125,-361.125c-0,-198.108 163.016,-361.125 361.125,-361.125c198.108,0 361.125,163.017 361.125,361.125l-0,0.209c-0.021,198.091 -163.034,361.083 -361.125,361.083l-0,-0.167Z" style="fill-opacity:0.1;fill-rule:nonzero;"/></g><g><path d="M3287.21,1838.54c-3.779,-9.221 -7.654,-18.417 -11.625,-27.584c-3.27,-8.945 -8.079,-17.25 -14.208,-24.541c-2.329,-2.625 -5.162,-4.75 -8.333,-6.25c-3.488,-1.288 -7.159,-2.017 -10.875,-2.167c-5.667,-0.713 -11.388,-0.867 -17.084,-0.458c-2.208,-0.667 -4.708,-1.542 -7.166,-2.542c25.241,-6.633 43.308,-29.133 44.333,-55.208l0,-2.792c0,-32.479 -26.646,-59.237 -59.125,-59.375c-10.975,-0.021 -21.737,3.054 -31.042,8.875c-25.216,-5.721 -51.266,6.833 -62.5,30.125c-13.95,13.342 -21.662,31.954 -21.25,51.25l0,2.625c1.084,32.375 22,58.333 48.417,60.958c-2.825,1.271 -5.417,3 -7.667,5.125c-8.083,7.792 -9.416,20.167 -10.291,31.417l-0.625,8.333l-14,5c-1.025,0.367 -1.717,1.342 -1.717,2.434c0,0.837 0.408,1.625 1.092,2.108l13.375,9.542l-0,2.375c-0,0.791 -0,1.791 0.25,2.708c-2.284,2.013 -4.054,4.542 -5.167,7.375c-1.304,4.375 -1.712,8.967 -1.208,13.5l0.5,11.625c-0.067,8.75 1.129,17.462 3.541,25.875c1.75,5.167 9.334,17.625 14.792,17.708c-5.042,22.917 -6.375,71.25 -6.375,71.25c-0.625,0.625 1.125,1.209 4.167,1.709c3,23 12.791,87.5 30.166,115.875c2.734,9.25 4.921,18.658 6.542,28.166c1.621,9.509 4.958,61.292 11.5,79.5c5.583,15.5 10,53.75 11.208,64.834c-2.304,0.591 -4.091,2.429 -4.625,4.75c-3.291,9.916 -24.625,25 -24.625,25c-6.537,3.266 -12.712,7.22 -18.416,11.791c-6.709,6.042 -6.459,11.5 23.333,8.084c57.5,-6.625 67.333,-25 67.333,-25c0,-0 -0.916,-3.084 -2.291,-7.084c-1.754,-6.225 -4.292,-12.2 -7.542,-17.791c-0.833,-0.792 -1.667,0.541 -2.667,2.625c-4.337,-26.588 -5.654,-53.58 -3.916,-80.459c1.737,-26.879 1.625,-28.166 -6.584,-48.041c-1.825,-10.409 -1.825,-21.05 0,-31.459c3.292,-13.25 -13.125,-77.875 -13.125,-77.875l-9.416,-47.583c1.283,1.625 2.179,3.521 2.625,5.542l0.25,0.958l0.25,1.375c0.096,0.487 0.325,0.933 0.666,1.292c6.417,26.666 24,100.541 24,111.375c0,13.25 16.417,46.375 16.417,46.375c0,-0 6.542,54.666 18.042,76.166c8.75,16.375 8.958,40.375 8.541,50.959c-0.416,10.583 -1.958,13.625 -5.25,16.916c-2.616,3.254 -4.712,6.896 -6.208,10.792l-0.375,0.792c0,-0 -4.917,9.958 -1.625,11.625c12.521,4.912 26.071,6.616 39.417,4.958c13.346,-1.658 6.583,-8.333 6.583,-11.583c-0.137,-1.984 -0.387,-3.959 -0.75,-5.917c-1.208,-7.833 -3.458,-20.167 -3.5,-20.292c1.375,-5.333 -4.167,-20.166 -4.167,-20.166l-1.666,-46.375c3.05,-31.4 -0.875,-63.088 -11.5,-92.792c-10.625,-29.704 -8.334,-29.792 -6.542,-38.083c1.792,-8.292 -3.292,-96.084 -3.292,-96.084l-0.5,-1.25c-0.445,-6.208 -0.275,-12.45 0.5,-18.625c1.625,-19.875 -4.916,-61.291 -6.583,-62.916c-1.358,-4.45 -2.142,-9.059 -2.333,-13.709c0.375,-3.458 1.5,-13.583 3.041,-26.166c16.2,-0.555 32.359,-1.946 48.417,-4.167c1.55,0 3.042,-0.596 4.167,-1.667c0.658,-1 0.991,-2.179 0.958,-3.375c1.917,-24.958 -7.208,-49.208 -16.667,-72.291Zm-33.041,52.541c1.708,-11.875 3.541,-23.375 5.375,-31.916l0.25,0.75c3.154,8.587 5.796,17.35 7.916,26.25c-4.375,2 -8.904,3.645 -13.541,4.916Z" style="fill:url(#_Linear1);fill-rule:nonzero;"/></g><g><path d="M3126.54,2025.21c-0,0 9.833,88.459 31.125,122.834c2.737,9.137 4.921,18.433 6.541,27.833c1.621,9.4 4.917,60.583 11.459,78.583c6.541,18 11.458,67.167 11.458,67.167c0,0 22.917,26.167 31.125,4.917c-5.154,-28.075 -6.808,-56.684 -4.917,-85.167c1.892,-28.483 1.625,-27.833 -6.541,-47.5c-1.825,-10.279 -1.825,-20.804 -0,-31.083c3.25,-13.125 -13.125,-76.959 -13.125,-76.959l-13.084,-63.875l-54.041,3.25Z" style="fill:#be6f72;fill-rule:nonzero;"/></g><g><path d="M3229.71,2342.92c0,-0 -9.833,18 -67.125,24.541c-29.75,3.375 -29.958,-2 -23.25,-8c5.688,-4.52 11.83,-8.429 18.334,-11.666c6.504,-3.238 21.291,-14.709 24.541,-24.542c3.25,-9.833 14.75,-1.625 14.75,-1.625c16.375,24.542 19.667,-6.583 22.917,-3.292c3.263,5.496 5.796,11.392 7.542,17.542c1.375,3.958 2.291,7.042 2.291,7.042Z" style="fill:#ff6f61;fill-rule:nonzero;"/></g><g><path d="M3229.71,2342.92c0,-0 -9.833,18 -67.125,24.541c-29.75,3.375 -29.958,-2 -23.25,-8c4.667,2.959 14.084,4.167 33.042,-3.458c27.292,-11.167 47.083,-17.625 55.042,-20.125c1.375,3.958 2.291,7.042 2.291,7.042Z" style="fill-opacity:0.1;fill-rule:nonzero;"/></g><g><path d="M3213.33,2241.38c0,0 1.625,-27.833 -6.541,-47.5c-1.825,-10.279 -1.825,-20.804 -0,-31.083c3.25,-13.125 -13.125,-76.959 -13.125,-76.959l-13.084,-63.875l-11.333,0.667l12.958,63.208c0,0 16.375,63.834 13.125,76.959c-1.825,10.279 -1.825,20.804 0,31.083c8.334,19.667 6.542,47.5 6.542,47.5c-1.892,28.483 -0.237,57.092 4.917,85.167c-0.888,2.666 -2.538,5.016 -4.75,6.75c6.083,2.75 12.5,2.625 16.208,-6.75c-5.154,-28.075 -6.808,-56.684 -4.917,-85.167Z" style="fill-opacity:0.1;fill-rule:nonzero;"/></g><g><path d="M3202.67,1665.79c-10.925,-0.021 -21.638,3.025 -30.917,8.791c-25.142,-5.804 -51.179,6.609 -62.5,29.792c-13.892,13.137 -21.6,31.554 -21.208,50.667c-0,34.833 23.458,63.041 52.375,63.041c20.833,0 39.083,-14.833 47.458,-36.291c4.813,1.275 9.771,1.921 14.75,1.916c32.342,0 58.958,-26.616 58.958,-58.958c0,-32.342 -26.616,-58.958 -58.958,-58.958l0.042,-0Z" style="fill:#3f3d56;fill-rule:nonzero;"/></g><g><path d="M3251,2033.42l4.917,13.083c-0,-0 4.916,86.792 3.25,95c-1.667,8.208 6.583,37.5 6.583,37.5c10.588,29.321 14.504,60.642 11.458,91.667l1.625,45.833c0,0 6.542,18 3.292,21.292c-3.25,3.291 -27.958,-2.917 -27.958,-2.917c-0,0 3.291,-34.375 -8.334,-55.667c-11.625,-21.291 -18,-75.333 -18,-75.333c0,0 -16.375,-32.75 -16.375,-45.833c0,-13.084 -26.208,-119.542 -26.208,-119.542l65.75,-5.083Z" style="fill:#be6f72;fill-rule:nonzero;"/></g><g><path d="M3123.25,2031.79c0,-0 1.667,-58.959 8.333,-76.959c3.392,-8.412 5.838,-17.175 7.292,-26.125c1.454,-8.95 99.125,17.917 107.333,11.375c0,0 1.625,22.917 3.292,24.542c1.667,1.625 8.333,42.583 6.542,62.25c-1.792,19.667 -0,19.625 -0,19.625c-0,0 -67.167,9.833 -68.792,0c-1.625,-9.833 -6.542,-9.792 -6.542,-9.792c0,0 -60.708,-1.833 -57.458,-4.916Z" style="fill:#3f3d56;fill-rule:nonzero;"/></g><g opacity="0.1"><g><path d="M3177.29,2031.79c-0,-0 -41.417,-1.125 -53.917,-3.375l0,3.375c-3.25,3.25 57.333,4.916 57.333,4.916c0.825,0.075 1.609,0.396 2.25,0.917c-2.208,-5.833 -5.666,-5.833 -5.666,-5.833Z" style="fill-rule:nonzero;"/></g><g><path d="M3249.38,1964.62c-1.667,-1.625 -3.292,-24.542 -3.292,-24.542c-0.85,0.53 -1.8,0.867 -2.791,1c0.583,6.917 1.708,17.542 2.791,18.625c1.084,1.084 8.334,42.584 6.542,62.25c-1.792,19.667 0,19.625 0,19.625c0,0 -53.125,7.792 -66,2.584c0,0.708 0.375,1.5 0.5,2.333c1.625,9.833 68.792,-0 68.792,-0c-0,-0 -1.667,-0 -0,-19.625c1.666,-19.625 -4.917,-60.583 -6.542,-62.25Z" style="fill-rule:nonzero;"/></g><g><path d="M3177.29,2031.79c-0,-0 -41.417,-1.125 -53.917,-3.375l0,3.375c-3.25,3.25 57.333,4.916 57.333,4.916c0.825,0.075 1.609,0.396 2.25,0.917c-2.208,-5.833 -5.666,-5.833 -5.666,-5.833Z" style="fill:none;fill-rule:nonzero;"/></g><g><path d="M3249.38,1964.62c-1.667,-1.625 -3.292,-24.542 -3.292,-24.542c-0.85,0.53 -1.8,0.867 -2.791,1c0.583,6.917 1.708,17.542 2.791,18.625c1.084,1.084 8.334,42.584 6.542,62.25c-1.792,19.667 0,19.625 0,19.625c0,0 -53.125,7.792 -66,2.584c0,0.708 0.375,1.5 0.5,2.333c1.625,9.833 68.792,-0 68.792,-0c-0,-0 -1.667,-0 -0,-19.625c1.666,-19.625 -4.917,-60.583 -6.542,-62.25Z" style="fill:none;fill-rule:nonzero;"/></g></g><g><path d="M3195.42,1768.96c1.412,3.155 3.554,5.925 6.25,8.084c1.737,1.287 3.746,2.158 5.875,2.541c-3.667,2.125 -7.667,3.709 -11.334,5.834c-5.766,3.875 -11.329,8.05 -16.666,12.5c-5.454,4.387 -12.138,6.979 -19.125,7.416c4.983,-6.72 6.004,-15.62 2.666,-23.291c-1.5,-2.475 -2.491,-5.221 -2.916,-8.084c-0,-4.708 4.166,-8.333 8.041,-10.833c3.125,-2.125 6.334,-4.167 9.584,-6.208c2.541,-1.584 6.375,-4.917 9.583,-4.792c3.208,0.125 3.583,2.958 4.167,5.875c0.825,3.8 2.129,7.483 3.875,10.958Z" style="fill:#be6f72;fill-rule:nonzero;"/></g><g><path d="M3195.42,1768.96c1.412,3.155 3.554,5.925 6.25,8.084c1.737,1.287 3.746,2.158 5.875,2.541c-3.667,2.125 -7.667,3.709 -11.334,5.834c-5.766,3.875 -11.329,8.05 -16.666,12.5c-5.454,4.387 -12.138,6.979 -19.125,7.416c4.983,-6.72 6.004,-15.62 2.666,-23.291c-1.5,-2.475 -2.491,-5.221 -2.916,-8.084c-0,-4.708 4.166,-8.333 8.041,-10.833c3.125,-2.125 6.334,-4.167 9.584,-6.208c2.541,-1.584 6.375,-4.917 9.583,-4.792c3.208,0.125 3.583,2.958 4.167,5.875c0.825,3.8 2.129,7.483 3.875,10.958Z" style="fill-opacity:0.1;fill-rule:nonzero;"/></g><circle cx="3233.79" cy="1827.92" r="37.667" style="fill:#be6f72;"/><g><path d="M3287,2362.54c0,3.291 -6.542,11.458 -6.542,11.458c-13.3,1.633 -26.804,-0.054 -39.291,-4.917c-3.292,-1.625 1.625,-11.458 1.625,-11.458l0.375,-0.792c1.5,-3.858 3.596,-7.454 6.208,-10.666c3.25,-3.25 5.208,-16.667 5.208,-16.667c10.167,-16.667 28.209,7.208 28.209,7.208c-0,0 2.291,12.5 3.5,20.084c0.416,2.708 0.708,4.916 0.708,5.75Z" style="fill:#ff6f61;fill-rule:nonzero;"/></g><g><path d="M3287,2362.54c0,3.291 -6.542,11.458 -6.542,11.458c-13.3,1.633 -26.804,-0.054 -39.291,-4.917c-3.292,-1.625 1.625,-11.458 1.625,-11.458l0.375,-0.792c11.158,5.184 23.371,7.692 35.666,7.334l7.459,-7.459c0.416,2.792 0.708,5 0.708,5.834Z" style="fill-opacity:0.1;fill-rule:nonzero;"/></g><circle cx="3158.46" cy="1749.29" r="36.833" style="fill:#be6f72;"/><g><path d="M3128.75,1822.96c-8.083,7.709 -9.417,19.917 -10.25,31.042l-1.25,16.292c-0.45,4.387 -0.55,8.804 -0.292,13.208c0,2.708 0.667,5.458 0.917,8.333c0.25,2.875 0.333,6.5 0.375,9.792l0,24.083c-0.396,4.971 0.525,9.959 2.667,14.459c2.358,4.491 7.821,6.458 12.5,4.5c2.587,-1.996 4.412,-4.821 5.166,-8c4.063,-9.771 6.863,-20.021 8.334,-30.5c0.333,-3.625 0.375,-7.25 0.708,-10.875c0.333,-3.625 0.958,-7.417 1.5,-11.084c2.333,-15.333 3.375,-30.833 4.417,-46.291c0.291,-4.584 4.416,-22.625 -1.584,-24.625c-2.916,-0.959 -8.958,2.041 -11.75,3.041c-4.225,1.413 -8.125,3.667 -11.458,6.625Z" style="fill:#be6f72;fill-rule:nonzero;"/></g><g><path d="M3128.75,1822.96c-8.083,7.709 -9.417,19.917 -10.25,31.042l-1.25,16.292c-0.45,4.387 -0.55,8.804 -0.292,13.208c0,2.708 0.667,5.458 0.917,8.333c0.25,2.875 0.333,6.5 0.375,9.792l0,24.083c-0.396,4.971 0.525,9.959 2.667,14.459c2.358,4.491 7.821,6.458 12.5,4.5c2.587,-1.996 4.412,-4.821 5.166,-8c4.063,-9.771 6.863,-20.021 8.334,-30.5c0.333,-3.625 0.375,-7.25 0.708,-10.875c0.333,-3.625 0.958,-7.417 1.5,-11.084c2.333,-15.333 3.375,-30.833 4.417,-46.291c0.291,-4.584 4.416,-22.625 -1.584,-24.625c-2.916,-0.959 -8.958,2.041 -11.75,3.041c-4.225,1.413 -8.125,3.667 -11.458,6.625Z" style="fill-opacity:0.1;fill-rule:nonzero;"/></g><g><path d="M3205.12,1773.04c0,-0 -27.833,21.291 -44.208,26.208c-0,0 -9.709,11.083 -11.375,13.75c-1.667,2.667 -5,32.083 -8.334,38.667c-3.333,6.583 -11.458,21.291 0,36c0,-0 3.25,14.75 1.625,19.666c-1.625,4.917 -7.583,22.917 -2.166,23.75c5.416,0.834 21.833,12.25 36.541,9c14.709,-3.25 69.625,12.5 69.625,12.5c0,0 9.084,-84.375 15.667,-99.291l-14.75,-4.917c0,-0 -40.917,-24.542 -16.375,-62.208c-0.042,-0 -23.042,-4.917 -26.25,-13.125Z" style="fill:#ff6f61;fill-rule:nonzero;"/></g><g><path d="M3103.5,1871.67l33.833,23.958c0.88,0.646 2.08,0.646 2.959,0l9.166,-6.875c0.571,-0.492 0.9,-1.208 0.9,-1.958c0,-0.75 -0.329,-1.467 -0.9,-1.959l-26.041,-23.125c-0.688,-0.625 -1.667,-0.82 -2.542,-0.5l-16.708,6c-1.021,0.355 -1.713,1.321 -1.713,2.405c0,0.812 0.388,1.575 1.046,2.054Z" style="fill:#3f3d56;fill-rule:nonzero;"/></g><g><path d="M3114.88,1943.83c-2.392,-8.3 -3.583,-16.904 -3.542,-25.541l-0.5,-11.542c-0.504,-4.479 -0.091,-9.017 1.209,-13.333c2.6,-5.992 7.758,-10.509 14.041,-12.292c6.221,-1.725 12.721,-2.196 19.125,-1.375c0.863,0.004 1.713,0.233 2.459,0.667c0.654,0.604 1.116,1.387 1.333,2.25c1.913,3.733 2.188,8.1 0.75,12.041c-0.967,1.588 -2.279,2.942 -3.833,3.959c-4.542,3.25 -9.834,5.416 -14.125,8.958c-0.871,0.587 -1.542,1.433 -1.917,2.417c-0.208,0.862 -0.208,1.762 0,2.625c0.533,2.291 1.258,4.537 2.167,6.708c0.366,1.092 1.012,2.067 1.875,2.833c0.791,0.667 1.833,0.917 2.666,1.542c1.792,1.458 5.542,3.375 5.334,5.667c-0.625,8.333 -5.625,17.666 -7.584,25.916c-3.75,16.125 -17.041,-4.458 -19.458,-11.5Z" style="fill:#be6f72;fill-rule:nonzero;"/></g><g opacity="0.1"><g><path d="M3167.5,1940.08l-0.917,0c3.538,0.688 7.171,0.688 10.709,0l1.041,0c-3.591,-0.525 -7.241,-0.525 -10.833,0Z" style="fill-rule:nonzero;"/></g><g><path d="M3253.46,1850.83c-5.875,13.209 -14.541,84.75 -16.083,98.959c5.75,1.5 9.542,2.583 9.542,2.583c-0,0 9,-84.167 15.583,-99.083l-9.042,-2.459Z" style="fill-rule:nonzero;"/></g></g><g><path d="M3235.08,1829.08c0.621,3.321 2.559,6.255 5.375,8.125c3.479,2.917 6.671,6.15 9.542,9.667c4.117,5.792 7.308,12.188 9.458,18.958c3.125,8.48 5.759,17.134 7.875,25.917c-20.833,9.667 -44.5,9.208 -66.666,15.583c-9.542,2.517 -18.2,7.638 -25,14.792c-6.859,7.275 -10.221,17.179 -9.209,27.125c0.034,0.575 0.205,1.133 0.5,1.625c0.734,0.829 1.817,1.258 2.917,1.167c5.538,-0.009 10.917,-1.854 15.292,-5.25c4.325,-3.38 8.25,-7.238 11.708,-11.5c2.146,-2.796 5.033,-4.934 8.333,-6.167c12.042,-3.667 25,-3.458 37.5,-3.667c18.696,-0.366 37.355,-1.841 55.875,-4.416c0.175,0.02 0.355,0.033 0.534,0.033c2.466,0 4.5,-2.033 4.5,-4.5c-0,-0.179 -0.013,-0.358 -0.034,-0.533c1.834,-24.584 -7.291,-48.584 -16.666,-71.375c-3.75,-9.138 -7.613,-18.238 -11.584,-27.292c-3.27,-8.846 -8.066,-17.054 -14.166,-24.25c-2.317,-2.617 -5.154,-4.717 -8.334,-6.167c-3.583,-1.291 -7.358,-1.996 -11.166,-2.083c-6.063,-0.817 -12.2,-0.929 -18.292,-0.333c-0.971,3.066 -1.558,6.245 -1.75,9.458c0.333,11.25 5.25,21.792 10.083,31.958c0.625,1.542 2.417,1.625 3.375,3.125Z" style="fill:#be6f72;fill-rule:nonzero;"/></g><g><path d="M3168.38,1850.17c-2.817,4.825 -4.258,10.329 -4.167,15.916c0.009,2.209 0.363,4.4 1.042,6.5c2.304,5.963 7.2,10.567 13.292,12.5" style="fill:none;fill-rule:nonzero;stroke:#000;stroke-opacity:0.1;stroke-width:4.17px;"/></g><g><path d="M3189.58,1713.29c-2.054,-0.009 -4.091,0.316 -6.041,0.958c-5.459,-8.333 -18.292,-14.083 -33.334,-14.083c-19.916,-0 -36.041,10.291 -36.041,22.958c-0,12.667 16.125,22.917 36.041,22.917c7.459,0.079 14.842,-1.484 21.625,-4.584c3.271,6.767 10.155,11.084 17.667,11.084c10.767,-0 19.625,-8.859 19.625,-19.625c0,-10.767 -8.858,-19.625 -19.625,-19.625l0.083,-0Z" style="fill:#3f3d56;fill-rule:nonzero;"/></g><g><path d="M3191.21,1747.67c-7.525,-0 -14.416,-4.338 -17.666,-11.125c-6.784,3.1 -14.167,4.662 -21.625,4.583c-19.875,-0 -36,-10.25 -36,-22.917c-0.063,-0.762 -0.063,-1.529 -0,-2.291c-1.188,2.22 -1.817,4.691 -1.834,7.208c0,12.5 16.125,22.917 36.042,22.917c7.458,0.079 14.842,-1.484 21.625,-4.584c3.267,6.775 10.154,11.1 17.675,11.1c9.396,0 17.538,-6.746 19.283,-15.975c-3.229,6.725 -10.037,11.038 -17.5,11.084Z" style="fill-opacity:0.1;fill-rule:nonzero;"/></g><g><path d="M3109.29,1714.04c11.321,-23.184 37.358,-35.596 62.5,-29.792c9.3,-5.742 20.021,-8.788 30.954,-8.788c30.483,0 56.187,23.659 58.712,54.038l0,-4.917c-0.07,-32.271 -26.645,-58.787 -58.916,-58.787c-10.934,-0 -21.654,3.041 -30.959,8.787c-25.141,-5.804 -51.179,6.609 -62.5,29.792c-13.891,13.137 -21.6,31.554 -21.208,50.667l0,4.916c0.817,-17.52 8.517,-34.029 21.417,-45.916Z" style="fill-opacity:0.1;fill-rule:nonzero;"/></g><g><path d="M3484.96,1726.54c10.875,-20.125 -1.458,-44.834 -15.666,-62.792c-14.209,-17.958 -31.459,-36.625 -31.084,-59.542c0.5,-32.875 35.417,-52.291 63.334,-69.75c20.696,-12.971 39.775,-28.354 56.833,-45.833c7.167,-6.696 13.092,-14.612 17.5,-23.375c5.75,-12.875 5.583,-27.5 5.25,-41.667c-1.221,-46.946 -3.542,-93.833 -6.958,-140.666" style="fill:none;fill-rule:nonzero;stroke:#3f3d56;stroke-width:16.67px;"/></g><g><path d="M3627.17,1280.42c-0.809,-17.429 -10.467,-33.288 -25.584,-42l-11.5,22.708l0.334,-27.5c-5.467,-1.633 -11.175,-2.321 -16.875,-2.042c-27.209,1.271 -48.9,24 -48.9,51.238c-0,28.137 23.15,51.292 51.291,51.292c28.138,-0 51.292,-23.155 51.292,-51.292c0,-0.804 -0.021,-1.604 -0.058,-2.404Z" style="fill:#f50057;fill-rule:nonzero;"/></g><g><path d="M3535.71,1627.62c-8.775,17.067 -26.425,27.838 -45.616,27.838c-28.138,-0 -51.292,-23.155 -51.292,-51.292c0,-28.138 23.154,-51.292 51.292,-51.292c21.383,0 40.621,13.371 48.075,33.413l-32.042,26.083l35.25,-8.333c0.033,8.2 -1.908,16.291 -5.667,23.583Z" style="fill:#f50057;fill-rule:nonzero;"/></g><g><path d="M3510.38,1528c-0.821,0.038 -1.642,0.058 -2.462,0.058c-28.138,0 -51.292,-23.154 -51.292,-51.291c-0,-22.934 15.379,-43.209 37.462,-49.392l-0.25,21.125l11.625,-22.958c28.109,-1.288 52.309,20.766 53.625,48.875c0.038,0.808 0.059,1.621 0.059,2.429c-0,27.225 -21.696,49.941 -48.892,51.196l0.125,-0.042Z" style="fill:#f50057;fill-rule:nonzero;"/></g><g><path d="M3634.88,1445.17c-0.871,0.045 -1.737,0.066 -2.608,0.066c-28.138,0 -51.292,-23.154 -51.292,-51.291c0,-28.138 23.154,-51.292 51.292,-51.292c8.875,-0 17.6,2.304 25.316,6.683l-9.083,25l18.667,-17.916c10.041,9.116 16.041,21.87 16.666,35.416c0.25,4.746 -0.183,9.504 -1.291,14.125c-5.354,22.171 -24.879,38.234 -47.667,39.209Z" style="fill:#f50057;fill-rule:nonzero;"/></g><g><path d="M3620.29,1294.08c-11.834,1.334 -23.375,5 -35.25,5.75c-11.875,0.75 -25,-2.125 -32.459,-11.375c-3.483,-5.362 -6.641,-10.925 -9.458,-16.666c-3.25,-5.046 -7.683,-9.225 -12.917,-12.167c-3.695,7.229 -5.625,15.233 -5.625,23.35c0,28.138 23.155,51.292 51.292,51.292c24.121,-0 45.138,-17.013 50.167,-40.6c-1.917,0.083 -3.834,0.208 -5.75,0.416Z" style="fill-opacity:0.1;fill-rule:nonzero;"/></g><g><path d="M3634.88,1445.17c-0.787,0.037 -1.571,0.054 -2.358,0.054c-28.163,-0 -51.334,-23.171 -51.334,-51.333c0,-7.567 1.675,-15.042 4.9,-21.888c4.08,2.729 7.588,6.225 10.334,10.292c3.046,5.85 6.441,11.512 10.166,16.958c7.959,9.417 21.625,12.5 34,11.917c12.375,-0.584 24.334,-4.167 36.667,-5.209c1.708,0 3.458,-0.291 5.167,-0.333c-5.213,22.258 -24.704,38.471 -47.542,39.542Z" style="fill-opacity:0.1;fill-rule:nonzero;"/></g><g><path d="M3510.38,1528c-0.833,0.042 -1.671,0.063 -2.504,0.063c-28.117,-0.001 -51.25,-23.138 -51.25,-51.25c-0,-7.28 1.55,-14.471 4.546,-21.105c4.204,2.796 7.875,6.325 10.833,10.417c4.167,5.625 6.458,12.125 11.125,17.292c8.667,9.666 23.208,13.041 36.333,12.75c13.125,-0.292 25,-3.417 37.5,-4.375c-6.32,20.637 -25.025,35.175 -46.583,36.208Z" style="fill-opacity:0.1;fill-rule:nonzero;"/></g><g><path d="M3535.71,1627.62c-8.916,16.679 -26.358,27.133 -45.27,27.133c-28.163,0 -51.334,-23.17 -51.334,-51.333c0,-5.954 1.038,-11.867 3.063,-17.467c4.233,2.763 8.025,6.146 11.25,10.042c4.916,5.958 8.125,12.5 13.75,18.25c10.5,10.292 27.416,14.5 42.5,14.917c8.704,-0.009 17.4,-0.525 26.041,-1.542Z" style="fill-opacity:0.1;fill-rule:nonzero;"/></g><g><path d="M4147.46,2359.88c10.875,-20.125 -1.458,-44.833 -15.666,-62.792c-14.209,-17.958 -31.459,-36.625 -31.084,-59.541c0.5,-32.875 35.417,-52.292 63.334,-69.75c20.708,-12.971 39.791,-28.354 56.833,-45.834c7.167,-6.695 13.083,-14.612 17.5,-23.375c5.75,-12.875 5.583,-27.5 5.25,-41.666c-1.208,-46.946 -3.5,-93.834 -6.958,-140.667" style="fill:none;fill-rule:nonzero;stroke:#3f3d56;stroke-width:16.67px;"/></g><g><path d="M4289.67,1913.75c-0.792,-17.429 -10.459,-33.287 -25.584,-42l-11.5,22.708l0.334,-27.5c-5.417,-1.608 -11.042,-2.3 -16.667,-2.041c-27.208,1.27 -48.917,24 -48.917,51.237c0,28.138 23.167,51.292 51.292,51.292c28.167,-0 51.292,-23.154 51.292,-51.292c-0,-0.804 -0,-1.604 -0.042,-2.404l-0.208,-0Z" style="fill:#f50057;fill-rule:nonzero;"/></g><g><path d="M4198.21,2260.96c-8.791,17.067 -26.416,27.838 -45.625,27.838c-28.125,-0 -51.291,-23.154 -51.291,-51.292c-0,-28.137 23.166,-51.292 51.291,-51.292c21.375,0 40.625,13.371 48.084,33.413l-32.042,26.083l35.25,-8.333c0.042,8.2 -1.917,16.292 -5.667,23.583Z" style="fill:#f50057;fill-rule:nonzero;"/></g><g><path d="M4172.88,2161.33c-0.833,0.038 -1.625,0.059 -2.458,0.059c-28.125,-0 -51.292,-23.155 -51.292,-51.292c0,-22.933 15.375,-43.208 37.458,-49.392l-0.25,21.125l11.625,-22.958c28.125,-1.288 52.292,20.767 53.625,48.875c0.042,0.808 0.042,1.621 0.042,2.429c0,27.225 -21.667,49.942 -48.875,51.196l0.125,-0.042Z" style="fill:#f50057;fill-rule:nonzero;"/></g><g><path d="M4297.38,2078.5c-0.875,0.046 -1.75,0.067 -2.625,0.067c-28.125,-0 -51.292,-23.155 -51.292,-51.292c0,-28.137 23.167,-51.292 51.292,-51.292c8.875,0 17.625,2.304 25.333,6.684l-9.083,25l18.667,-17.917c10.041,9.117 16.041,21.871 16.666,35.417c0.25,4.745 -0.166,9.504 -1.291,14.125c-5.334,22.17 -24.875,38.233 -47.667,39.208Z" style="fill:#f50057;fill-rule:nonzero;"/></g><g><path d="M4282.79,1927.42c-11.834,1.333 -23.375,5 -35.25,5.75c-11.875,0.75 -25,-2.125 -32.459,-11.375c-3.5,-5.363 -6.625,-10.925 -9.458,-16.667c-3.25,-5.046 -7.667,-9.225 -12.917,-12.167c-3.708,7.229 -5.625,15.234 -5.625,23.35c0,28.138 23.167,51.292 51.292,51.292c24.125,0 45.125,-17.013 50.167,-40.6c-1.917,0.083 -3.834,0.208 -5.75,0.417Z" style="fill-opacity:0.1;fill-rule:nonzero;"/></g><g><path d="M4297.38,2078.5c-0.792,0.038 -1.583,0.054 -2.375,0.054c-28.125,0 -51.333,-23.171 -51.333,-51.333c-0,-7.567 1.708,-15.042 4.916,-21.888c4.084,2.73 7.584,6.225 10.334,10.292c3.041,5.85 6.458,11.513 10.166,16.958c7.959,9.417 21.625,12.5 34,11.917c12.375,-0.583 24.334,-4.167 36.667,-5.208c1.708,-0 3.458,-0.292 5.167,-0.334c-5.209,22.259 -24.709,38.471 -47.542,39.542Z" style="fill-opacity:0.1;fill-rule:nonzero;"/></g><g><path d="M4172.88,2161.33c-0.833,0.042 -1.667,0.063 -2.5,0.063c-28.125,-0 -51.25,-23.138 -51.25,-51.25c0,-7.279 1.542,-14.471 4.542,-21.104c4.208,2.796 7.875,6.325 10.833,10.416c4.167,5.625 6.458,12.125 11.125,17.292c8.667,9.667 23.208,13.042 36.333,12.75c13.125,-0.292 25,-3.417 37.5,-4.375c-6.333,20.637 -25.041,35.175 -46.583,36.208Z" style="fill-opacity:0.1;fill-rule:nonzero;"/></g><g><path d="M4198.21,2260.96c-8.916,16.68 -26.375,27.134 -45.291,27.134c-28.125,-0 -51.334,-23.171 -51.334,-51.334c0,-5.954 1.042,-11.866 3.084,-17.466c4.25,2.762 8.041,6.146 11.25,10.041c4.916,5.959 8.333,12.5 13.75,18.25c10.5,10.292 27.416,14.5 42.5,14.917c8.708,-0.008 17.416,-0.525 26.041,-1.542Z" style="fill-opacity:0.1;fill-rule:nonzero;"/></g><g><path d="M1991.67,1772c0.108,-12.95 -5.946,-25.212 -16.292,-33c-0.129,-23.229 -17.129,-43.183 -40.042,-47c-3.5,-16.692 -15.671,-30.296 -31.875,-35.625c-1.933,-0.604 -3.912,-1.067 -5.916,-1.375l-7.042,0c-22.767,0.525 -42.021,17.554 -45.333,40.083c-14.625,-3.375 -28,1 -30.459,10.25c-0.616,2.459 -0.471,5.046 0.417,7.417c2.5,7.167 10.625,14.042 21.5,17.417l1.417,0.416l2.125,0.542l0.458,0c-2.321,4.938 -3.517,10.333 -3.5,15.792c-0.071,13.637 7.525,26.212 19.625,32.5l-0.958,0.583c-1.354,1.233 -2.434,2.738 -3.167,4.417c-2.629,4.65 -4.688,9.604 -6.125,14.75c-1.042,4.416 -1.208,9 -2.5,13.375c-2.417,8.041 -8.583,14.833 -9.292,23.208c-0.333,3.75 0.292,8.333 -2.375,10.75c-0.654,0.571 -1.366,1.071 -2.125,1.5c-1.846,1.304 -3.416,2.963 -4.625,4.875c-0.8,1.733 -1.9,3.317 -3.25,4.667c-2.416,1.791 -6.375,1.625 -7.541,4.416c-1.167,2.792 1.875,6.084 1.166,9.125c-0.708,3.042 -3.291,3.625 -5.166,5.334c-2.18,2.346 -3.717,5.216 -4.459,8.333c-7.975,1.521 -16.233,-0.587 -22.5,-5.75c1.063,2.692 1.846,5.483 2.334,8.333c-3.625,-2.766 -7.738,-4.829 -12.125,-6.083c-4.934,-2.246 -9.338,-5.512 -12.917,-9.583l6.917,-0.959l-30.542,-46.625l-9.042,-1.875l8.084,15.542c-1.367,0.625 -2.38,1.833 -2.75,3.292c-0.43,1.729 -0.53,3.525 -0.292,5.291c0.417,4.209 1.112,8.384 2.083,12.5l2.334,10.917c0.208,1 0.458,2.042 0.75,3.042c-3.046,-0.15 -6.1,0.187 -9.042,1c-6.058,-2.254 -12.367,-3.75 -18.792,-4.459c-1.375,-0.279 -2.791,-0.279 -4.166,0c-1.559,0.738 -2.913,1.838 -3.959,3.209c-5.262,6.104 -9.933,12.687 -13.958,19.666c-16.667,28.584 -38.375,53.542 -58.917,79.375c-14.166,5.75 -28.458,11.209 -42.75,16.667l-30.75,11.75c-5.996,2.721 -12.5,4.142 -19.083,4.167c-2.917,-0 -6.542,-0.625 -8.333,1.875c-0.805,1.3 -1.434,2.7 -1.875,4.166l-3.167,0.334c-1.458,-5.004 -3.975,-9.638 -7.375,-13.584c-1.521,0.263 -2.821,1.263 -3.458,2.667c-0.75,1.375 -1.209,2.875 -2.084,4.167c-1.625,2.416 -4.5,3.583 -6.541,5.625c-2.042,2.041 -3.334,5.208 -5.584,7.291c-3.066,2.271 -6.671,3.705 -10.458,4.167c-5.708,1.333 -11.217,3.421 -16.375,6.208c-1.888,1.184 -3.917,2.121 -6.042,2.792c-2.346,0.458 -4.75,0.542 -7.125,0.25l-16.25,-1.208c-1.458,-0.184 -2.937,-0.113 -4.375,0.208c-3.337,1.358 -5.433,4.738 -5.166,8.333c0.425,3.567 2.291,6.805 5.166,8.959c2.813,2.075 5.934,3.691 9.25,4.791c14.063,5.475 28.559,9.767 43.334,12.834l-0,3.291c10.337,5.213 21.758,7.925 33.333,7.917c0.858,0.058 1.717,-0.1 2.5,-0.458c1.062,-0.796 1.804,-1.95 2.083,-3.25c3.454,-10.334 5.638,-21.054 6.5,-31.917c2.034,-0.137 4.025,-0.646 5.875,-1.5c5.584,-1.542 11.167,2.292 16.959,2.917c7.125,0.791 13.708,-3.375 20.458,-5.917l2.917,-0.958c-1.921,2.471 -4.196,4.646 -6.75,6.458c-2.792,2 -5.917,3.5 -8.625,5.583c-2.292,2.075 -4.746,3.971 -7.334,5.667c-1.825,0.846 -3.704,1.567 -5.625,2.167c-2.841,1.054 -5.541,2.454 -8.041,4.166c-2.217,1.321 -4.088,3.15 -5.459,5.334c-1.387,2.266 -1.562,5.083 -0.458,7.5c1.167,1.966 3.125,3.333 5.375,3.75c2.196,0.333 4.429,0.333 6.625,-0c8.833,-0.667 17.625,-1.459 26.417,-2.25c3.716,-0.234 7.408,-0.767 11.041,-1.584c1.917,-0.458 3.834,-1.083 5.75,-1.625c3.288,-0.829 6.654,-1.333 10.042,-1.5c0.983,-0.075 1.971,0.021 2.917,0.292c2.041,0.667 3.5,2.75 5.583,3.167c1.412,0.179 2.846,-0.009 4.167,-0.542c6.42,-1.383 12.97,-2.083 19.541,-2.083c2.875,-0 6.25,-0.709 7.584,-3.375c1.333,-2.667 -1.084,-6.959 -2.167,-10.5c-0.554,-2.267 -0.863,-4.584 -0.917,-6.917c-0.504,-5.737 -2.146,-11.321 -4.833,-16.417c-1.45,-2.375 -2.663,-4.887 -3.625,-7.5c12.6,-4.787 24.654,-10.904 35.958,-18.25c6.192,-4.483 13.134,-7.829 20.5,-9.875c8.7,-1.037 17.521,-0.008 25.75,3c20.034,5.805 39.742,12.675 59.042,20.584c9.208,3.791 18.375,7.791 27.875,10.666c2.771,3.717 6.121,6.967 9.917,9.625c6.562,3.692 13.933,5.709 21.458,5.875c10.042,0.917 20.125,1.292 30.208,1.125c7.717,0.334 15.413,-1.091 22.5,-4.166c1.692,-0.846 3.271,-1.896 4.709,-3.125c5.504,0.466 10.941,-1.534 14.833,-5.459c5.462,-4.679 9.396,-10.895 11.292,-17.833c2.458,-9.5 0.583,-20.833 6.416,-28.417c1.542,-2.083 3.584,-3.75 5.125,-5.833c1.867,-2.854 2.8,-6.217 2.667,-9.625c0.067,-0.133 0.154,-0.258 0.25,-0.375c1.279,-3.062 2.121,-6.287 2.5,-9.583c0.717,-2.592 1.621,-5.125 2.708,-7.584c2.963,-7.35 5.55,-14.845 7.75,-22.458c1.504,-5.062 2.7,-10.208 3.584,-15.417c0.625,-4.166 1,-8.333 1.333,-12.5c0.442,-6.566 1.717,-13.045 3.792,-19.291c5.216,-14.863 8.166,-30.425 8.75,-46.167l-0,-0.917c15.829,-1.816 27.8,-15.57 27.416,-31.5c0,-4.637 -0.979,-9.225 -2.875,-13.458c3.688,-6.383 5.613,-13.629 5.584,-21Zm-149.084,181.125c0.459,1.625 1,3.208 1.542,4.792c-2.458,-2.375 -4.833,-4.834 -7.292,-7.25c0.959,0.333 1.959,0.625 2.875,1c0.963,0.391 1.884,0.883 2.75,1.458l0.125,0Zm-11.791,-8c-14.417,-12.5 -31.084,-22.208 -45.834,-34.333c8.042,3.958 15.875,8.583 23.625,13c9.196,5.25 18.513,10.291 27.959,15.125c-1.55,2.421 -3.546,4.525 -5.875,6.208l0.125,0Zm6.125,-31.5l0.708,-0.708l-0,4.958l-3.875,-1.333c1.071,-0.909 2.087,-1.884 3.042,-2.917l0.125,0Zm-126.792,33.75c5.912,-6.696 11.058,-14.033 15.333,-21.875c5.709,9.958 15,17.167 22.875,25.542c-12.708,-1.625 -25.458,-3 -38.208,-3.667Z" style="fill:url(#_Linear2);fill-rule:nonzero;"/></g><path d="M1730.62,1826.04l9.083,1.833l30.959,45.792l-13.625,1.833l-26.417,-49.458Z" style="fill:#2f2e41;fill-rule:nonzero;"/><g><path d="M1510.38,2011.79c2.463,8.079 5.5,15.975 9.083,23.625c10.259,-2.167 20.354,-5.05 30.209,-8.625c-1.942,-2.892 -4.042,-5.671 -6.292,-8.334c-2.446,-2.662 -5.338,-4.875 -8.542,-6.541c-3.416,-0.771 -6.958,-0.771 -10.375,-0c-4.666,-0.125 -9.375,-0.042 -14.083,-0.125Z" style="fill:#fbbebe;fill-rule:nonzero;"/></g><g><path d="M1534.88,2024c-4.983,-2.233 -8.758,-6.525 -10.333,-11.75c-1.588,-5.192 -4.275,-9.979 -7.875,-14.042c-1.542,0.213 -2.867,1.205 -3.5,2.625c-0.75,1.334 -1.209,2.834 -2.042,4.167c-1.667,2.375 -4.583,3.542 -6.667,5.542c-2.083,2 -3.333,5.125 -5.583,7.166c-3.092,2.28 -6.725,3.717 -10.542,4.167c-5.8,1.308 -11.4,3.367 -16.666,6.125c-1.929,1.154 -3.984,2.075 -6.125,2.75c-2.375,0.354 -4.792,0.354 -7.167,0l-16.417,-1.167c-1.379,-0.225 -2.787,-0.225 -4.166,0c-3.438,1.242 -5.6,4.7 -5.209,8.334c0.392,3.55 2.292,6.771 5.209,8.833c2.85,2.05 6,3.65 9.333,4.75c14.292,5.383 29.012,9.563 44,12.5l-0,3.25c10.437,5.125 21.912,7.788 33.542,7.792c0.854,0.05 1.708,-0.092 2.5,-0.417c1.062,-0.796 1.804,-1.95 2.083,-3.25c3.95,-11.508 6.262,-23.517 6.875,-35.667c0.267,-3.087 0.029,-6.2 -0.708,-9.208c-0.917,-2.958 2.166,-1.708 -0.667,-2.875" style="fill:#2f2e41;fill-rule:nonzero;"/></g><g><path d="M1849.71,1962.12c-48.666,2.917 -96.75,-11.333 -145.5,-12.833c-6.05,-0.4 -12.129,-0.021 -18.083,1.125c-6.2,1.683 -12.208,4.012 -17.917,6.958c-26.125,12.167 -53.166,22.25 -80.166,32.292l-31.042,11.541c-6.038,2.725 -12.583,4.146 -19.208,4.167c-2.959,0 -6.584,-0.625 -8.334,1.833c-5.041,7.5 -2.666,18.459 0.667,26.875c1.083,2.709 2.917,5.667 5.833,5.959c2.046,-0.138 4.05,-0.646 5.917,-1.5c5.625,-1.5 11.25,2.291 17.083,2.916c7.167,0.75 13.834,-3.333 20.625,-5.833c11.25,-4.167 23.5,-4.167 35.334,-6c19.791,-3.292 38.166,-12.5 55.333,-22.958c6.242,-4.45 13.225,-7.75 20.625,-9.75c8.767,-1.034 17.65,-0.021 25.958,2.958c20.192,5.696 40.067,12.458 59.542,20.25c10.125,4.408 20.504,8.204 31.083,11.375c23.088,6.042 47.504,4.579 69.709,-4.167c7.791,-3.083 16.25,-8.333 16.666,-16.916c0.292,-4.792 -3.458,-9 -5.916,-13.125c-1.584,-2.625 -3.209,-5.25 -4.917,-7.792c-8.333,-12.083 -18.5,-28.25 -33.292,-27.375Z" style="fill:#2f2e41;fill-rule:nonzero;"/></g><g><path d="M1849.71,1962.12c-48.666,2.917 -96.75,-11.333 -145.5,-12.833c-6.05,-0.4 -12.129,-0.021 -18.083,1.125c-6.2,1.683 -12.208,4.012 -17.917,6.958c-26.125,12.167 -53.166,22.25 -80.166,32.292l-31.042,11.541c-6.038,2.725 -12.583,4.146 -19.208,4.167c-2.959,0 -6.584,-0.625 -8.334,1.833c-5.041,7.5 -2.666,18.459 0.667,26.875c1.083,2.709 2.917,5.667 5.833,5.959c2.046,-0.138 4.05,-0.646 5.917,-1.5c5.625,-1.5 11.25,2.291 17.083,2.916c7.167,0.75 13.834,-3.333 20.625,-5.833c11.25,-4.167 23.5,-4.167 35.334,-6c19.791,-3.292 38.166,-12.5 55.333,-22.958c6.242,-4.45 13.225,-7.75 20.625,-9.75c8.767,-1.034 17.65,-0.021 25.958,2.958c20.192,5.696 40.067,12.458 59.542,20.25c10.125,4.408 20.504,8.204 31.083,11.375c23.088,6.042 47.504,4.579 69.709,-4.167c7.791,-3.083 16.25,-8.333 16.666,-16.916c0.292,-4.792 -3.458,-9 -5.916,-13.125c-1.584,-2.625 -3.209,-5.25 -4.917,-7.792c-8.333,-12.083 -18.5,-28.25 -33.292,-27.375Z" style="fill-opacity:0.1;fill-rule:nonzero;"/></g><g><path d="M1603.83,2014.04c7.613,2.583 15.292,4.971 23.042,7.166c4.167,-7.125 12.5,-12.083 14.292,-20.25c0.104,-0.354 0.104,-0.729 -0,-1.083c-0.204,-0.346 -0.509,-0.621 -0.875,-0.792c-5.571,-3.058 -11.742,-4.866 -18.084,-5.291c-5,-0.292 -7.291,4.916 -9.541,8.583c-0.875,1.625 -6.792,12.458 -8.834,11.667Z" style="fill:#fbbebe;fill-rule:nonzero;"/></g><g><path d="M1614.5,2008.96c-4.604,-0.779 -8.671,-3.458 -11.208,-7.375c-1.042,-1.875 -2.209,-4.416 -4.375,-4.166c-2.167,0.25 -2.875,2.5 -3.334,4.458c-1.441,7.383 -3.55,14.621 -6.291,21.625c-2.75,7.042 -7.413,13.175 -13.459,17.708c-2.833,1.959 -5.958,3.417 -8.75,5.5c-2.312,2.046 -4.775,3.913 -7.375,5.584c-1.837,0.825 -3.733,1.52 -5.666,2.083c-2.846,1.071 -5.559,2.471 -8.084,4.167c-2.245,1.291 -4.15,3.104 -5.541,5.291c-1.4,2.221 -1.554,5.013 -0.417,7.375c1.179,1.938 3.142,3.275 5.375,3.667c2.225,0.333 4.483,0.333 6.708,0c8.875,-0.625 17.75,-1.417 26.625,-2.208c3.742,-0.242 7.459,-0.759 11.125,-1.542l5.792,-1.583c3.308,-0.875 6.704,-1.38 10.125,-1.5c0.996,-0.092 2,0.008 2.958,0.291c2.042,0.667 3.5,2.709 5.625,3.125c1.413,0.138 2.838,-0.05 4.167,-0.541c6.475,-1.388 13.083,-2.071 19.708,-2.042c2.917,-0 6.334,-0.75 7.667,-3.333c1.667,-3.25 -1.083,-6.875 -2.208,-10.375c-0.538,-2.225 -0.846,-4.505 -0.917,-6.792c-0.496,-5.667 -2.158,-11.171 -4.875,-16.167c-2.25,-4.166 -5.333,-8.75 -3.75,-13.166c0.788,-1.405 1.296,-2.946 1.5,-4.542c-0.625,-7.167 -17.042,-4.625 -21.125,-5.542Z" style="fill:#2f2e41;fill-rule:nonzero;"/></g><g><path d="M1776.75,1884.04c-8.633,-3.784 -15.558,-10.65 -19.417,-19.25c-0.791,-1.834 -1.458,-3.792 -2.25,-5.625c-2.541,-6.209 -6.512,-11.734 -11.583,-16.125c-1.083,-1.146 -2.592,-1.796 -4.167,-1.792c-1.575,0.475 -2.771,1.771 -3.125,3.375c-0.466,1.696 -0.579,3.467 -0.333,5.208c0.425,4.096 1.121,8.163 2.083,12.167l2.375,10.75c0.317,1.646 0.804,3.25 1.459,4.792c1.016,1.8 2.358,3.4 3.958,4.708c2.167,2 4.375,3.917 6.583,5.833c1.275,1.113 2.675,2.075 4.167,2.875c2.329,1.109 4.817,1.842 7.375,2.167c9.942,1.296 19.429,4.954 27.667,10.667c8.237,5.712 -0,-7.209 -0,-8c-0.105,-2.096 -0.83,-4.109 -2.084,-5.792c-3.816,-2.779 -8.129,-4.804 -12.708,-5.958Z" style="fill:#fbbebe;fill-rule:nonzero;"/></g><g><path d="M1776.75,1884.04c-8.633,-3.784 -15.558,-10.65 -19.417,-19.25c-0.791,-1.834 -1.458,-3.792 -2.25,-5.625c-2.541,-6.209 -6.512,-11.734 -11.583,-16.125c-1.083,-1.146 -2.592,-1.796 -4.167,-1.792c-1.575,0.475 -2.771,1.771 -3.125,3.375c-0.466,1.696 -0.579,3.467 -0.333,5.208c0.425,4.096 1.121,8.163 2.083,12.167l2.375,10.75c0.317,1.646 0.804,3.25 1.459,4.792c1.016,1.8 2.358,3.4 3.958,4.708c2.167,2 4.375,3.917 6.583,5.833c1.275,1.113 2.675,2.075 4.167,2.875c2.329,1.109 4.817,1.842 7.375,2.167c9.942,1.296 19.429,4.954 27.667,10.667c8.237,5.712 -0,-7.209 -0,-8c-0.105,-2.096 -0.83,-4.109 -2.084,-5.792c-3.816,-2.779 -8.129,-4.804 -12.708,-5.958Z" style="fill-opacity:0.1;fill-rule:nonzero;"/></g><ellipse cx="1875.83" cy="1789.88" rx="11.833" ry="11.917" style="fill:#2f2e41;"/><g><path d="M1868.5,1782.71c-3.167,-0.758 -6.508,-0.283 -9.333,1.334c-1.367,1.216 -2.459,2.708 -3.209,4.375c-2.65,4.558 -4.72,9.429 -6.166,14.5c-1.042,4.166 -1.209,8.875 -2.542,13.166c-2.417,7.917 -8.625,14.625 -9.333,22.875c-0.334,3.709 0.291,8.042 -2.417,10.542c-0.663,0.575 -1.375,1.088 -2.125,1.542c-1.875,1.25 -3.467,2.883 -4.667,4.791c-0.816,1.7 -1.929,3.238 -3.291,4.542c-2.417,1.792 -6.417,1.625 -7.584,4.167c-1.166,2.541 1.875,6 1.167,9c-0.708,3 -3.333,3.583 -5.208,5.25c-2.209,2.333 -3.763,5.208 -4.5,8.333c-8.009,1.542 -16.309,-0.517 -22.667,-5.625c2.75,8.35 3.95,17.133 3.542,25.917c0.416,2.837 -0.334,5.725 -2.084,8c9.4,0.7 18.709,2.316 27.792,4.833c3.933,1.313 8.192,1.313 12.125,0c2.108,-1.129 3.996,-2.625 5.583,-4.417c5,-5.083 10.25,-10.625 11.459,-17.666c0.3,-3.979 0.371,-7.971 0.208,-11.959c0.475,-4.945 1.496,-9.821 3.042,-14.541c2.637,-9.796 4.408,-19.809 5.291,-29.917c0.542,-6.25 5.959,-11.25 8.792,-16.667c5.333,-10.541 10.833,-21.5 11.208,-33.333c0.167,-3.833 -1.166,-8.625 -5.083,-9.042Z" style="fill:#2f2e41;fill-rule:nonzero;"/></g><g><path d="M1868.5,1782.71c-3.167,-0.758 -6.508,-0.283 -9.333,1.334c-1.367,1.216 -2.459,2.708 -3.209,4.375c-2.65,4.558 -4.72,9.429 -6.166,14.5c-1.042,4.166 -1.209,8.875 -2.542,13.166c-2.417,7.917 -8.625,14.625 -9.333,22.875c-0.334,3.709 0.291,8.042 -2.417,10.542c-0.663,0.575 -1.375,1.088 -2.125,1.542c-1.875,1.25 -3.467,2.883 -4.667,4.791c-0.816,1.7 -1.929,3.238 -3.291,4.542c-2.417,1.792 -6.417,1.625 -7.584,4.167c-1.166,2.541 1.875,6 1.167,9c-0.708,3 -3.333,3.583 -5.208,5.25c-2.209,2.333 -3.763,5.208 -4.5,8.333c-8.009,1.542 -16.309,-0.517 -22.667,-5.625c2.75,8.35 3.95,17.133 3.542,25.917c0.416,2.837 -0.334,5.725 -2.084,8c9.4,0.7 18.709,2.316 27.792,4.833c3.933,1.313 8.192,1.313 12.125,0c2.108,-1.129 3.996,-2.625 5.583,-4.417c5,-5.083 10.25,-10.625 11.459,-17.666c0.3,-3.979 0.371,-7.971 0.208,-11.959c0.475,-4.945 1.496,-9.821 3.042,-14.541c2.637,-9.796 4.408,-19.809 5.291,-29.917c0.542,-6.25 5.959,-11.25 8.792,-16.667c5.333,-10.541 10.833,-21.5 11.208,-33.333c0.167,-3.833 -1.166,-8.625 -5.083,-9.042Z" style="fill-opacity:0.1;fill-rule:nonzero;"/></g><g><path d="M1857.42,1972.38c-10.125,-4.833 -17.542,-13.792 -25.75,-21.5c-15.625,-14.708 -34.75,-25 -51.209,-38.875c-10.916,-9.125 -20.833,-19.75 -32.625,-27.417c-10.562,-6.695 -22.525,-10.875 -34.958,-12.208c-1.371,-0.317 -2.796,-0.317 -4.167,0c-1.575,0.671 -2.941,1.75 -3.958,3.125c-5.313,5.996 -10.042,12.483 -14.125,19.375c-20.833,35.417 -50.458,65.167 -75,98.083c-0.563,0.684 -0.975,1.479 -1.208,2.334c-0.104,1.275 0.221,2.55 0.916,3.625l5,9.75c2.792,5.5 7.292,11.875 13.292,10.791c2.7,-0.783 5.121,-2.329 6.958,-4.458l22.417,-21.458l23.5,-22.459c13.75,-13.125 27.75,-26.583 36.75,-43.416c7,12.166 19.458,20.125 27.958,31.25c3.25,4.166 5.917,8.875 8.834,13.375c4.625,7.166 9.916,13.916 15.166,20.833l26.959,34.375c3.416,4.854 7.646,9.083 12.5,12.5c6.646,3.617 14.058,5.604 21.625,5.792c10.125,0.904 20.291,1.262 30.458,1.083c7.783,0.313 15.542,-1.108 22.708,-4.167c7.279,-3.2 12.08,-10.341 12.292,-18.291c-0.417,-4.038 -1.742,-7.925 -3.875,-11.375c-9.75,-17.375 -22.333,-32.042 -40.458,-40.667Z" style="fill:#2f2e41;fill-rule:nonzero;"/></g><ellipse cx="1883.12" cy="1798.12" rx="9.125" ry="9.167" style="fill:#e8e8f0;"/><g><path d="M1881.12,1791.25c2.033,4.092 2.396,8.817 1,13.167c-1.437,4.275 -3.412,8.346 -5.875,12.125c-2.117,3.891 -4.675,7.525 -7.625,10.833c14.083,0.667 27.708,-4.833 40.083,-11.5c10,-5.375 19.959,-12 25.292,-22.042c-3.217,0.767 -6.612,0.13 -9.333,-1.75c-2.688,-1.85 -5.088,-4.079 -7.125,-6.625l-7.042,-7.916c-1.596,-1.742 -2.996,-3.654 -4.167,-5.709c-1.545,-2.808 -2.2,-6.021 -1.875,-9.208c-2.808,2.929 -5.937,5.529 -9.333,7.75c-5.042,3.292 -10.583,5.667 -15.667,8.917c-1.75,1.166 -5.75,3 -4.708,5.333c1.042,2.333 4.958,4.125 6.375,6.625Z" style="fill:#fbbebe;fill-rule:nonzero;"/></g><g><path d="M1881.12,1791.25c2.033,4.092 2.396,8.817 1,13.167c-1.437,4.275 -3.412,8.346 -5.875,12.125c-2.117,3.891 -4.675,7.525 -7.625,10.833c14.083,0.667 27.708,-4.833 40.083,-11.5c10,-5.375 19.959,-12 25.292,-22.042c-3.217,0.767 -6.612,0.13 -9.333,-1.75c-2.688,-1.85 -5.088,-4.079 -7.125,-6.625l-7.042,-7.916c-1.596,-1.742 -2.996,-3.654 -4.167,-5.709c-1.545,-2.808 -2.2,-6.021 -1.875,-9.208c-2.808,2.929 -5.937,5.529 -9.333,7.75c-5.042,3.292 -10.583,5.667 -15.667,8.917c-1.75,1.166 -5.75,3 -4.708,5.333c1.042,2.333 4.958,4.125 6.375,6.625Z" style="fill-opacity:0.1;fill-rule:nonzero;"/></g><g><path d="M1881.29,1792.62c-2.917,4.108 -2.917,9.642 -0,13.75c0.416,0.5 1.916,3.625 2.541,3.667c0.617,-0.05 1.192,-0.354 1.584,-0.834c3.204,-3.341 6.183,-6.891 8.916,-10.625c2.792,-3.725 6.804,-6.35 11.334,-7.416c5.612,-0.213 11.129,1.508 15.625,4.875c2.091,0.954 3.929,2.379 5.375,4.166c1.004,1.838 1.604,3.871 1.75,5.959c1.362,12.575 1.891,25.229 1.583,37.875c0.237,9.133 -0.358,18.266 -1.792,27.291c-0.916,4.625 -2.25,9.167 -2.875,13.875c-0.487,4.146 -0.683,8.325 -0.583,12.5l0,17.417c-0.113,3.196 0.112,6.392 0.667,9.542c0.833,3.791 2.625,7.333 3.833,11.041c1.246,4.259 2.096,8.625 2.542,13.042l2.375,18c0.75,5.667 1.333,11.875 -2.125,16.667c-1.542,2.041 -3.584,3.708 -5.167,5.75c-5.875,7.666 -4.167,18.625 -6.458,28c-1.93,6.862 -5.917,12.971 -11.417,17.5c-3.971,3.929 -9.483,5.896 -15.042,5.375c-7.333,-1.375 -11.708,-9 -13.708,-16.209c-2,-7.208 -2.708,-15.041 -7.042,-21.125c-3.975,-4.604 -8.679,-8.529 -13.916,-11.625c-5.3,-3.141 -9.196,-8.2 -10.875,-14.125c-0.459,-2.625 -0,-5.333 -0.459,-8c-0.796,-6.825 -5.262,-12.7 -11.625,-15.291c-3.75,-1.459 -8.333,-2 -10.5,-5.417c5.363,-3.358 9.275,-8.608 10.959,-14.708c1.658,-6.059 2.554,-12.304 2.666,-18.584l1.25,-20.833c0.584,-9.375 0.834,-18.625 4.959,-27.042c1.833,-3.75 4.166,-7.291 6.041,-11c2.542,-5.212 4.7,-10.6 6.459,-16.125c3,-8.583 6,-17.166 8.666,-25.833c1.042,-4.208 2.638,-8.258 4.75,-12.042c2.25,-3.916 5.5,-8.625 9.709,-9.458Z" style="fill:#e8e8f0;fill-rule:nonzero;"/></g><g><path d="M1834.83,1928.62l5.542,0l1.167,-8.333c0.15,-1.671 0.545,-3.317 1.166,-4.875c0.917,-1.654 1.992,-3.221 3.209,-4.667c5.416,-7.708 5.041,-17.917 6.375,-27.292c2.416,-12.387 6.508,-24.387 12.166,-35.666l10.75,-23.959c0.98,-1.958 1.759,-4.012 2.334,-6.125c0.45,-2.333 0.675,-4.704 0.666,-7.083c0,-3.708 1.167,-17.208 1.292,-20.833c0,-1.375 -3.042,-0.625 -3.667,-1.834c-1.333,-2.666 -3.166,4.542 -5.708,6.125c-2.387,1.821 -4.125,4.363 -4.958,7.25c-2.334,6 -3.75,12.5 -5.917,18.459c-1.883,6.216 -5.342,11.845 -10.042,16.333c-2.208,1.917 -4.75,3.458 -6.833,5.542c-6.667,6.583 -7.333,17.041 -7.542,26.458c-0.166,5.75 -1.25,60.5 0,60.5Z" style="fill:#2f2e41;fill-rule:nonzero;"/></g><g><path d="M1914.58,1782.67c-5.216,2.729 -8.871,7.741 -9.875,13.541c-0.95,5.746 -2.633,11.346 -5,16.667c-6.75,11.75 -23.958,15.167 -28.75,27.875c-1.204,4.275 -1.85,8.688 -1.916,13.125c-0.834,9.125 -3.834,17.917 -4.75,27c-0.459,7.071 -0.292,14.167 0.5,21.208l6.041,71.75c1.159,10.555 0.55,21.23 -1.791,31.584c6.191,0.883 12.508,-0.167 18.083,-3c5.625,-2.584 10.792,-6.125 16.25,-9.125c9.333,-5.167 19.667,-8.792 27.875,-15.667c1.471,-1.171 2.738,-2.579 3.75,-4.167c1.254,-3.012 2.096,-6.179 2.5,-9.416c0.708,-2.538 1.617,-5.017 2.708,-7.417c3.009,-7.242 5.621,-14.642 7.834,-22.167c1.504,-4.979 2.7,-10.041 3.583,-15.166c0.667,-4.167 1.042,-8.334 1.375,-12.5c0.433,-6.463 1.725,-12.838 3.833,-18.959c5.229,-14.629 8.192,-29.975 8.792,-45.5c0.162,-2.233 0.008,-4.479 -0.458,-6.666c-0.917,-2.68 -2.146,-5.238 -3.667,-7.625c-2.5,-4.709 -4.167,-9.875 -6.333,-14.667c-5.909,-10.554 -14.38,-19.45 -24.625,-25.875c-4.834,-3.292 -10.5,-6.792 -15.959,-4.833Z" style="fill:#2f2e41;fill-rule:nonzero;"/></g><g><path d="M1788.71,1899.75c-4.275,-2.246 -8.15,-5.187 -11.458,-8.708c-1.5,-1.75 -2.75,-3.709 -4.167,-5.459c-3.862,-4.158 -8.887,-7.058 -14.416,-8.333c-5.471,-1.204 -11.067,-1.75 -16.667,-1.625c-3.758,-0.254 -7.533,0.2 -11.125,1.333c-3.638,1.217 -6.417,4.205 -7.375,7.917c-0.308,4.604 1.833,9.042 5.625,11.667c3.254,2.671 7.096,4.525 11.208,5.416c3.35,0.596 6.729,1 10.125,1.209c19.917,2.083 37.709,12.916 55.167,22.791c15.333,8.721 30.971,16.834 46.917,24.334c0.616,-4.767 0.883,-9.571 0.791,-14.375c0,-3.584 -0.291,-9.084 -3.666,-11.209c-4.8,-2.008 -9.8,-3.504 -14.917,-4.458c-10.283,-3.358 -20.321,-7.425 -30.042,-12.167c-5.5,-2.375 -10.791,-5.291 -16,-8.333Z" style="fill:#fbbebe;fill-rule:nonzero;"/></g><ellipse cx="1875.83" cy="1751.46" rx="35.5" ry="35.708" style="fill:#fbbebe;"/><g><path d="M1924.71,1823.12c-2.833,3.979 -5.145,8.304 -6.875,12.875c-4.166,9 -11.25,16.667 -14.708,26.208c-3.458,9.542 -3.5,21.792 -10.625,29.584c-1.425,1.191 -2.504,2.745 -3.125,4.5c-0.029,1.091 -0.142,2.175 -0.333,3.25c-1.042,2.833 -5.667,2.958 -6.542,5.875c-0.25,0.833 0,1.75 -0.417,2.583c-0.708,1.875 -3.208,2.167 -4.833,3.292c-3.458,2.333 -2.75,7.75 -5.208,11.125c-2.179,2.554 -5.575,3.75 -8.875,3.125c-3.234,-0.659 -6.342,-1.825 -9.209,-3.459c-1.029,-0.562 -2.162,-0.916 -3.333,-1.041c-1.383,0.05 -2.721,0.512 -3.833,1.333c-6.375,4.696 -9.984,12.3 -9.584,20.208c0.48,7.809 2.342,15.471 5.5,22.625c0.35,1.238 0.963,2.392 1.792,3.375c2.533,1.988 6.033,2.25 8.833,0.667c2.717,-1.617 5.613,-2.917 8.625,-3.875c5.5,-1 10.875,2.792 16.459,2.458c4.066,-0.6 7.896,-2.283 11.083,-4.875c5.608,-3.346 10.642,-7.566 14.917,-12.5c2.416,-3.208 4.166,-6.833 6.333,-10.25c2.758,-4.154 5.746,-8.145 8.958,-11.958l20.5,-25c2.038,-2.375 3.875,-4.913 5.5,-7.583c1.821,-3.65 3.221,-7.492 4.167,-11.459c2.192,-6.604 3.592,-13.441 4.167,-20.375c0.125,-5.733 -0.375,-11.462 -1.5,-17.083c-0.621,-5.6 -2.025,-11.083 -4.167,-16.292c-4.458,-9.416 -15.292,-17.083 -23.667,-7.333Z" style="fill:#2f2e41;fill-rule:nonzero;"/></g><g><path d="M1996.04,1776.54c0.062,-12.829 -6.055,-24.938 -16.417,-32.5c-0.346,-23.125 -17.512,-42.809 -40.375,-46.292c-4.304,-21.471 -23.329,-37.062 -45.225,-37.062c-22.821,-0 -42.383,16.937 -45.65,39.52c-14.75,-3.333 -28.25,1 -30.708,10.084c-2.459,9.083 7.958,20.833 23.5,25c4.904,1.375 10.008,1.879 15.083,1.5c7.313,10.775 18.854,17.97 31.75,19.791c3.85,17.492 17.3,31.363 34.667,35.75c2.375,5.692 6.041,10.759 10.708,14.792l0,3.458c0,16.479 13.563,30.042 30.042,30.042c16.479,-0 30.041,-13.563 30.041,-30.042c0.005,-4.583 -0.979,-9.116 -2.875,-13.291c3.667,-6.292 5.554,-13.467 5.459,-20.75Z" style="fill:#f86d70;fill-rule:nonzero;"/></g><g><path d="M1827.67,1712.21c2.458,-9.083 15.958,-13.416 30.708,-10.083c3.596,-22.483 23.067,-39.258 45.833,-39.5l3.042,0c-4.242,-1.292 -8.65,-1.95 -13.083,-1.958c-22.767,0.241 -42.238,17.016 -45.834,39.5c-14.75,-3.334 -28.25,1 -30.708,10.083c-2.458,9.083 7.958,20.833 23.5,25c2.913,0.808 5.9,1.325 8.917,1.542c-14.875,-4.459 -24.834,-15.292 -22.375,-24.584Z" style="fill-opacity:0.1;fill-rule:nonzero;"/></g><g><path d="M1943.21,1812.33c-0.062,-1.137 -0.062,-2.279 0,-3.416c-4.691,-4.013 -8.362,-9.084 -10.708,-14.792c-17.392,-4.367 -30.858,-18.271 -34.667,-35.792c-12.908,-1.783 -24.47,-8.966 -31.791,-19.75c-2.959,0.246 -5.934,0.163 -8.875,-0.25c7.366,9.909 18.4,16.467 30.625,18.209c3.85,17.491 17.3,31.362 34.666,35.75c2.375,5.691 6.042,10.758 10.709,14.791l-0,3.459c-0.28,16.7 13.175,30.7 29.875,31.083c-12.038,-4.671 -19.963,-16.379 -19.834,-29.292Z" style="fill-opacity:0.1;fill-rule:nonzero;"/></g><g><path d="M1883.29,1752.95c2.399,-1.822 6.323,-0.7 8.758,2.505c2.434,3.204 2.463,7.286 0.064,9.108c-2.399,1.822 -6.323,0.7 -8.758,-2.505c-2.434,-3.205 -2.462,-7.286 -0.064,-9.108Z" style="fill:#fbbebe;"/></g><defs><linearGradient id="_Linear1" x1="0" y1="0" x2="1" y2="0" gradientUnits="userSpaceOnUse" gradientTransform="matrix(4.39138e-14,-717.167,717.167,4.39138e-14,3196.13,2374.79)"><stop offset="0" style="stop-color:#808080;stop-opacity:0.25"/><stop offset="0.54" style="stop-color:#808080;stop-opacity:0.12"/><stop offset="1" style="stop-color:#808080;stop-opacity:0.1"/></linearGradient><linearGradient id="_Linear2" x1="0" y1="0" x2="1" y2="0" gradientUnits="userSpaceOnUse" gradientTransform="matrix(2.59883e-12,-42442.1,42442.1,2.59883e-12,260038,279314)"><stop offset="0" style="stop-color:#808080;stop-opacity:0.25"/><stop offset="0.54" style="stop-color:#808080;stop-opacity:0.12"/><stop offset="1" style="stop-color:#808080;stop-opacity:0.1"/></linearGradient></defs></svg>