<?xml version="1.0" encoding="UTF-8" standalone="no"?>
<!DOCTYPE svg PUBLIC "-//W3C//DTD SVG 1.1//EN" "http://www.w3.org/Graphics/SVG/1.1/DTD/svg11.dtd">
<svg width="100%" height="100%" viewBox="0 0 810 678" version="1.1" xmlns="http://www.w3.org/2000/svg" xmlns:xlink="http://www.w3.org/1999/xlink" xml:space="preserve" xmlns:serif="http://www.serif.com/" style="fill-rule:evenodd;clip-rule:evenodd;stroke-linejoin:round;stroke-miterlimit:2;">
    <path d="M653.438,661.145L108,166.079L193.292,0L793,657.079L653.438,661.145Z" style="fill:rgb(242,242,242);fill-rule:nonzero;"/>
    <circle cx="405" cy="107.079" r="33" style="fill:rgb(242,242,242);"/>
    <circle cx="550" cy="175.079" r="11" style="fill:rgb(63,61,86);"/>
    <circle cx="550" cy="262.079" r="11" style="fill:rgb(63,61,86);"/>
    <circle cx="660" cy="284.079" r="11" style="fill:rgb(63,61,86);"/>
    <ellipse cx="405" cy="657.079" rx="405" ry="20" style="fill:rgb(242,242,242);"/>
    <g transform="matrix(1,0,0,1,-195,-111.46)">
        <path d="M836.916,443.695C832.322,436.119 816.277,436.314 816.277,436.314C801.668,458.02 766.551,434.963 766.551,434.963C740.469,446.632 724.555,409.446 724.555,409.446C689.46,404.199 694.882,367.34 694.882,367.34C677.421,363.834 682.32,332.266 682.32,332.266C682.32,332.266 692.009,324.32 687.241,318.507C684.21,314.811 684.022,304.205 684.287,296.964C661.502,290.035 637.815,286.522 614,286.54C480.899,286.54 373,394.439 373,527.54C373,660.64 480.899,768.54 614,768.54C747.101,768.54 855,660.64 855,527.54C855.029,498.624 849.842,469.939 839.688,442.865C838.451,444.261 837.492,444.645 836.916,443.695Z" style="fill:rgb(63,61,86);fill-rule:nonzero;"/>
    </g>
    <g transform="matrix(1,0,0,1,-195,-111.46)">
        <path d="M836.916,443.695C832.322,436.119 816.277,436.314 816.277,436.314C801.668,458.02 766.551,434.963 766.551,434.963C740.469,446.632 724.555,409.446 724.555,409.446C689.46,404.199 694.882,367.34 694.882,367.34C677.421,363.834 682.32,332.266 682.32,332.266C682.32,332.266 692.009,324.32 687.241,318.507C684.21,314.811 684.022,304.205 684.287,296.964C661.502,290.035 637.815,286.522 614,286.54C480.899,286.54 373,394.439 373,527.54C373,660.64 480.899,768.54 614,768.54C747.101,768.54 855,660.64 855,527.54C855.029,498.624 849.842,469.939 839.688,442.865C838.451,444.261 837.492,444.645 836.916,443.695Z" style="fill-opacity:0.1;fill-rule:nonzero;"/>
    </g>
    <g transform="matrix(1,0,0,1,-195,-111.46)">
        <path d="M822.633,442.744C818.265,435.538 803.005,435.724 803.005,435.724C789.111,456.367 755.713,434.439 755.713,434.439C730.907,445.537 715.772,410.171 715.772,410.171C682.395,405.18 687.552,370.126 687.552,370.126C670.946,366.792 675.605,336.769 675.605,336.769C675.605,336.769 684.82,329.212 680.285,323.683C677.402,320.168 677.224,310.081 677.475,303.195C655.806,296.605 633.279,293.264 610.629,293.281C484.044,293.281 381.427,395.898 381.427,522.484C381.427,649.069 484.044,751.686 610.629,751.686C737.215,751.686 839.832,649.069 839.832,522.484C839.86,494.984 834.926,467.703 825.269,441.954C824.093,443.282 823.181,443.647 822.633,442.744Z" style="fill:rgb(63,61,86);fill-rule:nonzero;"/>
    </g>
    <path d="M277.434,449.785L282.49,458.212L292.601,475.065L295.972,486.862L289.231,496.974L297.657,517.198L301.028,528.995L294.287,535.736L307.769,545.848" style="fill-opacity:0.1;fill-rule:nonzero;"/>
    <path d="M525.175,375.631L525.175,389.114L516.748,411.023L511.692,422.82L520.119,437.988L523.49,448.1L536.972,453.156L542.028,461.583L542.028,481.806" style="fill-opacity:0.1;fill-rule:nonzero;"/>
    <g transform="matrix(1,0,0,1,-195,-111.46)">
        <path d="M806.126,500.574L792.643,509.001C792.643,509.001 785.902,512.372 785.902,514.057L785.902,527.54" style="fill-opacity:0.1;fill-rule:nonzero;"/>
    </g>
    <path d="M550.455,341.925L553.825,358.778L550.455,370.576" style="fill-opacity:0.1;fill-rule:nonzero;"/>
    <path d="M563.937,493.604L553.825,508.771L542.028,518.883L542.028,525.624L548.769,534.051L548.769,544.163L543.713,554.275" style="fill-opacity:0.1;fill-rule:nonzero;"/>
    <path d="M467.874,207.1L451.021,207.1L437.538,218.897L415.629,230.694L405.517,239.121L405.517,242.492L383.608,254.289L376.867,266.086" style="fill-opacity:0.1;fill-rule:nonzero;"/>
    <g transform="matrix(1,0,0,1,-195,-111.46)">
        <path d="M480.86,347.211L465.692,377.547L460.636,389.344L448.839,404.512C448.839,404.512 440.413,419.679 438.727,421.365C437.042,423.05 425.245,426.421 425.245,426.421L442.098,443.274" style="fill-opacity:0.1;fill-rule:nonzero;"/>
    </g>
    <path d="M218.448,352.037L215.077,373.946L218.448,387.429L218.448,411.023L208.336,454.841L218.448,466.638L230.245,481.806" style="fill-opacity:0.1;fill-rule:nonzero;"/>
    <path d="M243.727,362.149L253.839,367.205L260.58,389.114L274.063,385.743L280.804,397.541" style="fill-opacity:0.1;fill-rule:nonzero;"/>
    <path d="M429.112,581.24L456.077,577.869L467.874,566.072L484.727,566.072" style="fill-opacity:0.1;fill-rule:nonzero;"/>
    <path d="M265.636,545.848L275.748,557.645L292.601,562.701L304.399,566.072L307.769,584.61" style="fill-opacity:0.1;fill-rule:nonzero;"/>
    <path d="M464.503,488.548L476.301,480.121L481.357,466.638L491.469,464.953L496.524,448.1" style="fill-opacity:0.1;fill-rule:nonzero;"/>
    <g transform="matrix(1,0,0,1,406.617,-102.951)">
        <circle cx="204" cy="234.079" r="18" style="fill:rgb(63,61,86);"/>
    </g>
    <g transform="matrix(1,0,0,1,406.617,-102.951)">
        <circle cx="204" cy="234.079" r="18" style="fill-opacity:0.1;"/>
    </g>
    <g transform="matrix(1,0,0,1,424.617,-14.6604)">
        <circle cx="204" cy="234.079" r="16.215" style="fill:rgb(63,61,86);"/>
    </g>
    <g transform="matrix(1,0,0,1,305.896,-177.083)">
        <path d="M398.285,336.373C398.285,336.373 394.154,333.744 390.21,336.373C388.986,337.202 388.131,338.474 387.826,339.921C387.291,342.269 387.862,344.737 389.373,346.612L398.294,357.882C398.917,358.681 399.947,359.057 400.938,358.845L400.997,358.832C401.709,358.656 402.318,358.194 402.678,357.555L408.883,346.659C410.03,344.676 410.501,342.371 410.223,340.096C410.092,337.524 408.291,335.322 405.797,334.683C403.302,334.045 402.229,333.181 398.285,336.373Z" style="fill-opacity:0.1;fill-rule:nonzero;"/>
    </g>
    <g transform="matrix(1,0,0,1,422.617,-112.951)">
        <circle cx="188" cy="244.079" r="18" style="fill:rgb(63,61,86);"/>
    </g>
    <g transform="matrix(1,0,0,1,422.617,-112.951)">
        <circle cx="188" cy="244.079" r="18" style="fill-opacity:0.1;"/>
    </g>
    <g transform="matrix(1,0,0,1,327.137,-114.736)">
        <circle cx="188" cy="244.079" r="16.215" style="fill:rgb(63,61,86);"/>
    </g>
    <g transform="matrix(1,0,0,1,47.3707,54.5343)">
        <path d="M382.285,346.373C382.285,346.373 378.154,343.744 374.21,346.373C372.986,347.202 372.131,348.474 371.826,349.921C371.291,352.269 371.862,354.737 373.373,356.612L382.294,367.882C382.917,368.681 383.947,369.057 384.938,368.845L384.997,368.832C385.709,368.656 386.318,368.194 386.678,367.555L392.883,356.659C394.03,354.676 394.501,352.371 394.223,350.096C394.092,347.524 392.291,345.322 389.797,344.683C387.302,344.045 386.229,343.181 382.285,346.373Z" style="fill-opacity:0.1;fill-rule:nonzero;"/>
    </g>
    <g transform="matrix(1,0,0,1,344.385,-136.703)">
        <path d="M369.274,310.538C368.836,309.815 367.304,309.833 367.304,309.833C365.91,311.905 362.559,309.704 362.559,309.704C360.07,310.818 358.551,307.269 358.551,307.269C355.202,306.768 355.719,303.251 355.719,303.251C354.053,302.916 354.52,299.903 354.52,299.903C354.52,299.903 355.445,299.145 354.99,298.59C354.718,297.941 354.621,297.233 354.708,296.534C352.538,295.874 350.283,295.538 348.015,295.538C335.406,295.538 325.03,305.914 325.03,318.523C325.03,331.133 335.406,341.508 348.015,341.508C360.624,341.508 371,331.133 371,318.523C371,315.769 370.505,313.038 369.539,310.459C369.421,310.592 369.329,310.628 369.274,310.538Z" style="fill:rgb(63,61,86);fill-rule:nonzero;"/>
    </g>
    <g transform="matrix(1,0,0,1,345.51,-135.578)">
        <path d="M369.274,310.538C368.836,309.815 367.304,309.833 367.304,309.833C365.91,311.905 362.559,309.704 362.559,309.704C360.07,310.818 358.551,307.269 358.551,307.269C355.202,306.768 355.719,303.251 355.719,303.251C354.053,302.916 354.52,299.903 354.52,299.903C354.52,299.903 355.445,299.145 354.99,298.59C354.718,297.941 354.621,297.233 354.708,296.534C352.538,295.874 350.283,295.538 348.015,295.538C335.406,295.538 325.03,305.914 325.03,318.523C325.03,331.133 335.406,341.508 348.015,341.508C360.624,341.508 371,331.133 371,318.523C371,315.769 370.505,313.038 369.539,310.459C369.421,310.592 369.329,310.628 369.274,310.538Z" style="fill-opacity:0.1;fill-rule:nonzero;"/>
    </g>
    <g transform="matrix(1,0,0,1,345.833,-136.221)">
        <path d="M367.911,310.447C367.494,309.759 366.038,309.777 366.038,309.777C364.712,311.747 361.524,309.654 361.524,309.654C359.157,310.714 357.713,307.338 357.713,307.338C354.527,306.862 355.019,303.517 355.019,303.517C353.435,303.199 353.879,300.333 353.879,300.333C353.879,300.333 354.759,299.612 354.326,299.084C354.068,298.467 353.975,297.793 354.058,297.129C351.994,296.501 349.849,296.182 347.693,296.182C335.701,296.182 325.833,306.05 325.833,318.042C325.833,330.034 335.701,339.902 347.693,339.902C359.685,339.902 369.552,330.034 369.552,318.042C369.552,315.422 369.082,312.824 368.163,310.372C368.05,310.498 367.963,310.533 367.911,310.447Z" style="fill:rgb(63,61,86);fill-rule:nonzero;"/>
    </g>
    <path d="M139.49,210.296L139.972,211.1L140.937,212.708L141.259,213.834L140.615,214.799L141.42,216.729L141.741,217.855L141.098,218.499L142.385,219.464" style="fill-opacity:0.1;fill-rule:nonzero;"/>
    <path d="M163.133,203.219L163.133,204.506L162.329,206.597L161.846,207.722L162.65,209.17L162.972,210.135L164.259,210.617L164.741,211.422L164.741,213.352" style="fill-opacity:0.1;fill-rule:nonzero;"/>
    <g transform="matrix(1,0,0,1,-195,-111.46)">
        <path d="M366.336,315.966L365.049,316.77C365.049,316.77 364.406,317.092 364.406,317.253L364.406,318.54" style="fill-opacity:0.1;fill-rule:nonzero;"/>
    </g>
    <path d="M165.545,200.002L165.867,201.61L165.545,202.736" style="fill-opacity:0.1;fill-rule:nonzero;"/>
    <path d="M166.832,214.478L165.867,215.925L164.741,216.89L164.741,217.534L165.385,218.338L165.385,219.303L164.902,220.268" style="fill-opacity:0.1;fill-rule:nonzero;"/>
    <path d="M157.664,187.135L156.056,187.135L154.769,188.261L152.678,189.387L151.713,190.191L151.713,190.513L149.622,191.638L148.979,192.764" style="fill-opacity:0.1;fill-rule:nonzero;"/>
    <g transform="matrix(1,0,0,1,-195,-111.46)">
        <path d="M335.294,301.33L333.846,304.225L333.364,305.351L332.238,306.798C332.238,306.798 331.434,308.246 331.273,308.407C330.862,308.612 330.431,308.773 329.986,308.889L331.594,310.498" style="fill-opacity:0.1;fill-rule:nonzero;"/>
    </g>
    <path d="M133.86,200.967L133.538,203.058L133.86,204.345L133.86,206.597L132.895,210.778L133.86,211.904L134.986,213.352" style="fill-opacity:0.1;fill-rule:nonzero;"/>
    <path d="M136.273,201.932L137.238,202.415L137.881,204.506L139.168,204.184L139.811,205.31" style="fill-opacity:0.1;fill-rule:nonzero;"/>
    <path d="M153.965,222.841L156.538,222.52L157.664,221.394L159.273,221.394" style="fill-opacity:0.1;fill-rule:nonzero;"/>
    <path d="M138.364,219.464L139.329,220.59L140.937,221.072L142.063,221.394L142.385,223.163" style="fill-opacity:0.1;fill-rule:nonzero;"/>
</svg>
