<?xml version="1.0" encoding="UTF-8" standalone="no"?>
<!DOCTYPE svg PUBLIC "-//W3C//DTD SVG 1.1//EN" "http://www.w3.org/Graphics/SVG/1.1/DTD/svg11.dtd">
<svg width="100%" height="100%" viewBox="0 0 930 819" version="1.1" xmlns="http://www.w3.org/2000/svg" xmlns:xlink="http://www.w3.org/1999/xlink" xml:space="preserve" xmlns:serif="http://www.serif.com/" style="fill-rule:evenodd;clip-rule:evenodd;stroke-linejoin:round;stroke-miterlimit:2;">
    <g transform="matrix(-0.999998,0.00187842,-0.00187842,-0.999998,1066.33,650.226)">
        <g transform="matrix(-0.892632,-0.00167674,0.00167674,-0.892632,1011.46,578.444)">
            <circle cx="397" cy="273.146" r="130" style="fill:rgb(245,0,87);"/>
        </g>
        <g transform="matrix(-0.892632,-0.00167674,0.00167674,-0.892632,1125.52,668.776)">
            <path d="M541.961,482.104C469.727,482.104 410.961,423.337 410.961,351.103C410.961,278.869 469.727,220.103 541.961,220.103C614.194,220.103 672.961,278.869 672.961,351.103C672.961,423.337 614.194,482.104 541.961,482.104ZM541.961,222.103C541.961,222.103 541.961,222.103 541.961,222.103C471.193,222.103 412.96,280.336 412.96,351.103C412.96,421.871 471.193,480.104 541.961,480.104C612.728,480.104 670.961,421.871 670.961,351.103C670.961,351.103 670.961,351.103 670.961,351.103C670.881,280.366 612.698,222.183 541.961,222.103L541.961,222.103Z" style="fill:rgb(63,61,86);fill-rule:nonzero;"/>
        </g>
        <g transform="matrix(-0.892632,-0.00167674,0.00167674,-0.892632,1125.52,668.776)">
            <path d="M938.961,541.958L127.961,541.958L127.961,100.957L938.961,100.957L938.961,541.958ZM129.961,539.958L936.961,539.958L936.961,102.957L129.961,102.957L129.961,539.958Z" style="fill:rgb(63,61,86);fill-rule:nonzero;"/>
        </g>
        <g transform="matrix(-0.892632,-0.00167674,0.00167674,-0.892632,1011.46,578.444)">
            <rect x="27" y="35" width="178" height="18" style="fill:rgb(242,242,242);"/>
        </g>
        <g transform="matrix(-0.892632,-0.00167674,0.00167674,-0.892632,1011.46,578.444)">
            <rect x="294" y="35" width="178" height="18" style="fill:rgb(242,242,242);"/>
        </g>
        <g transform="matrix(-0.892632,-0.00167674,0.00167674,-0.892632,1011.46,578.444)">
            <rect x="561" y="35" width="178" height="18" style="fill:rgb(242,242,242);"/>
        </g>
        <g transform="matrix(-0.892632,-0.00167674,0.00167674,-0.892632,1125.52,668.776)">
            <path d="M344.961,145.957L164.961,145.957L164.961,125.957L344.961,125.957L344.961,145.957ZM166.961,143.957L342.961,143.957L342.961,127.957L166.961,127.957L166.961,143.957Z" style="fill:rgb(63,61,86);fill-rule:nonzero;"/>
        </g>
        <g transform="matrix(-0.892632,-0.00167674,0.00167674,-0.892632,1125.52,668.776)">
            <path d="M611.961,145.957L431.961,145.957L431.961,125.957L611.961,125.957L611.961,145.957ZM433.961,143.957L609.961,143.957L609.961,127.957L433.961,127.957L433.961,143.957Z" style="fill:rgb(63,61,86);fill-rule:nonzero;"/>
        </g>
        <g transform="matrix(-0.892632,-0.00167674,0.00167674,-0.892632,1125.52,668.776)">
            <path d="M878.961,145.957L698.961,145.957L698.961,125.957L878.961,125.957L878.961,145.957ZM700.961,143.957L876.961,143.957L876.961,127.957L700.961,127.957L700.961,143.957Z" style="fill:rgb(63,61,86);fill-rule:nonzero;"/>
        </g>
        <g transform="matrix(-0.892632,-0.00167674,0.00167674,-0.892632,1011.46,578.444)">
            <rect x="116.474" y="682.738" width="827.604" height="2.554" style="fill:rgb(47,46,65);"/>
        </g>
        <g transform="matrix(-0.892632,-0.00167674,0.00167674,-0.892632,1011.46,578.444)">
            <path d="M393.5,483.5L456.5,361.5L473.5,371.5L401.5,488.5L393.5,483.5Z" style="fill:rgb(63,61,86);fill-rule:nonzero;"/>
        </g>
        <g transform="matrix(-0.892632,-0.00167674,0.00167674,-0.892632,1125.52,668.776)">
            <path d="M484.961,610.957C484.961,610.957 496.573,620.081 497.891,600.56C498.23,594.295 501.188,588.452 506.037,584.47C511.295,580.269 518.861,577.396 527.961,582.957C536.061,587.907 537.884,595.085 537.438,601.483C536.631,610.778 531.305,619.106 523.205,623.737C514.178,629.095 499.928,633.128 484.961,619.957C484.961,619.957 475.961,609.957 484.961,610.957Z" style="fill:rgb(245,0,87);fill-rule:nonzero;"/>
        </g>
        <g transform="matrix(-0.892632,-0.00167674,0.00167674,-0.892632,1011.46,578.444)">
            <circle cx="468.397" cy="196.775" r="24.266" style="fill:rgb(255,184,184);"/>
        </g>
        <g transform="matrix(-0.892632,-0.00167674,0.00167674,-0.892632,1125.52,668.776)">
            <path d="M583.586,309.227C583.586,309.227 589.972,342.433 587.418,348.819C584.863,355.205 623.178,346.265 623.178,346.265C623.178,346.265 615.515,313.059 616.793,305.395C618.07,297.732 583.586,309.227 583.586,309.227Z" style="fill:rgb(255,184,184);fill-rule:nonzero;"/>
        </g>
        <g transform="matrix(-0.892632,-0.00167674,0.00167674,-0.892632,1011.46,578.444)">
            <path d="M413.479,323.215L416.033,357.698L428.71,411.854L432.636,426.666L439.022,403.677L432.636,351.313L430.467,327.738L413.479,323.215Z" style="fill:rgb(255,184,184);fill-rule:nonzero;"/>
        </g>
        <g transform="matrix(-0.892632,-0.00167674,0.00167674,-0.892632,1125.52,668.776)">
            <path d="M675.542,419.063L675.542,454.824C675.542,454.824 671.711,500.802 664.048,512.297C656.385,523.791 653.83,466.319 653.83,466.319L659.835,424.172L675.542,419.063Z" style="fill:rgb(255,184,184);fill-rule:nonzero;"/>
        </g>
        <g transform="matrix(-0.892632,-0.00167674,0.00167674,-0.892632,1125.52,668.776)">
            <path d="M561.874,530.177C561.874,530.177 555.488,537.84 560.597,615.747C565.706,693.654 558.043,749.85 574.646,749.85C574.646,749.85 569.537,766.453 583.586,767.73C597.635,769.007 604.021,770.284 605.298,766.453C606.575,762.621 609.13,744.741 605.298,744.741C605.298,744.741 605.298,749.85 607.852,729.415C610.407,708.98 610.407,611.916 616.793,599.144L637.227,646.399C637.227,646.399 637.227,668.111 641.059,678.328C644.89,688.546 651.276,747.295 651.276,747.295L649.999,756.236C649.999,756.236 680.651,761.344 681.928,756.236C683.205,751.127 683.205,743.464 681.928,740.91C680.651,738.355 680.651,738.355 683.205,733.247C685.76,728.138 685.76,724.306 684.482,720.475C683.205,716.643 683.205,633.628 683.205,633.628C683.205,633.628 680.651,532.731 665.325,527.623C649.999,522.514 561.874,530.177 561.874,530.177Z" style="fill:rgb(47,46,65);fill-rule:nonzero;"/>
        </g>
        <g transform="matrix(-0.892632,-0.00167674,0.00167674,-0.892632,1125.52,668.776)">
            <path d="M578.478,757.513L568.26,775.393C568.26,775.393 552.296,769.646 555.489,784.333C582.948,786.249 602.105,783.695 602.105,783.695C602.105,783.695 608.491,786.249 609.768,782.418C611.045,778.586 606.575,765.176 602.744,765.176C598.912,765.176 578.478,757.513 578.478,757.513Z" style="fill:rgb(47,46,65);fill-rule:nonzero;"/>
        </g>
        <g transform="matrix(-0.892632,-0.00167674,0.00167674,-0.892632,1125.52,668.776)">
            <path d="M652.553,752.404C652.553,752.404 642.336,775.393 646.167,776.67C649.999,777.947 684.482,783.056 687.037,784.333C689.591,785.61 702.363,786.888 703.64,779.225C704.917,771.562 697.254,769.007 697.254,769.007C697.254,769.007 683.205,766.453 679.374,753.681C675.542,740.91 652.553,752.404 652.553,752.404Z" style="fill:rgb(47,46,65);fill-rule:nonzero;"/>
        </g>
        <g transform="matrix(-0.892632,-0.00167674,0.00167674,-0.892632,1125.52,668.776)">
            <path d="M625.733,342.433C625.733,342.433 591.249,336.048 583.586,342.433C575.923,348.819 543.994,361.591 543.994,367.977C543.994,374.363 560.597,436.944 560.597,436.944C560.597,436.944 551.657,531.454 560.597,534.008C569.537,536.563 584.863,528.9 602.744,537.84C620.624,546.78 671.711,530.177 671.711,530.177C671.711,530.177 652.553,448.438 657.662,433.112C662.771,417.786 666.602,365.422 666.602,365.422C666.602,365.422 644.89,342.433 625.733,342.433Z" style="fill:rgb(137,133,168);fill-rule:nonzero;"/>
        </g>
        <g transform="matrix(-0.892632,-0.00167674,0.00167674,-0.892632,1125.52,668.776)">
            <path d="M552.934,364.145L543.994,366.7C543.994,366.7 524.836,426.726 532.499,429.281C540.162,431.835 561.874,436.944 564.429,436.944C566.983,436.944 552.934,364.145 552.934,364.145Z" style="fill:rgb(137,133,168);fill-rule:nonzero;"/>
        </g>
        <g transform="matrix(-0.892632,-0.00167674,0.00167674,-0.892632,1125.52,668.776)">
            <path d="M646.167,357.759L666.602,365.422C666.602,365.422 693.423,415.232 687.037,421.618C680.651,428.004 652.553,434.389 652.553,434.389L646.167,357.759Z" style="fill:rgb(137,133,168);fill-rule:nonzero;"/>
        </g>
        <g transform="matrix(-0.892632,-0.00167674,0.00167674,-0.892632,1125.52,668.776)">
            <path d="M595.621,267.76C593.603,267.395 591.528,267.486 589.551,268.028C587.968,268.729 586.51,269.685 585.237,270.858C582.926,272.7 580.458,274.335 577.861,275.745C575.791,276.868 573.567,277.908 572.122,279.768C571.439,280.708 570.893,281.74 570.502,282.834C568.013,289.19 567.344,296.115 568.57,302.83C568.708,303.784 568.995,304.71 569.421,305.575C570.748,308.021 573.68,308.985 576.15,310.267C580.839,312.701 584.393,316.8 588.239,320.422C589.668,321.848 591.273,323.085 593.016,324.103C598.503,327.094 605.209,326.119 611.368,325.061C613.18,325.057 614.669,323.565 614.669,321.753C614.669,321.743 614.669,321.732 614.669,321.722L619.53,299.856C620.411,296.616 620.831,293.269 620.776,289.912C620.437,284.604 617.563,277.251 613.668,273.481C609.129,269.087 601.554,268.388 595.621,267.76Z" style="fill:rgb(47,46,65);fill-rule:nonzero;"/>
        </g>
        <g transform="matrix(-0.892632,-0.00167674,0.00167674,-0.892632,1011.46,578.444)">
            <ellipse cx="368" cy="681" rx="35" ry="2" style="fill:rgb(245,0,87);"/>
        </g>
        <g transform="matrix(-0.892632,-0.00167674,0.00167674,-0.892632,1011.46,578.444)">
            <ellipse cx="360" cy="685" rx="35" ry="2" style="fill:rgb(245,0,87);"/>
        </g>
        <g transform="matrix(-0.892632,-0.00167674,0.00167674,-0.892632,1011.46,578.444)">
            <ellipse cx="325" cy="673" rx="19" ry="1.086" style="fill:rgb(245,0,87);"/>
        </g>
        <g transform="matrix(-0.892632,-0.00167674,0.00167674,-0.892632,1011.46,578.444)">
            <ellipse cx="393" cy="697" rx="19" ry="1.086" style="fill:rgb(245,0,87);"/>
        </g>
        <g transform="matrix(0.94295,0.332933,-0.332933,0.94295,150.337,-247.059)">
            <path d="M422.79,72.67C454.31,44.58 503.79,38.86 548.79,41.1C690.23,48.1 817.9,116.41 928.34,193.64C968.34,221.64 1007.68,251.73 1033.63,290.24C1086.46,368.62 1070.79,477.24 997.33,541.77C972.33,563.77 942.04,580.58 910.93,595.51C855.63,622.06 795.93,643.37 733.19,649.43C688.43,653.76 643.11,650.24 598.61,644.21C474.29,627.35 352.26,590.06 250,526.27C205.14,498.27 162.85,463.51 144.36,418.27C125.87,373.03 137.71,315.65 183.51,288.86C202.51,277.78 225.11,272.78 247.29,268.08C279.93,261.16 313.1,254.34 342.56,240.28C373,225.74 409,197.65 403,165.51C396.5,131 391.31,100.72 422.79,72.67Z" style="fill:rgb(28,224,109);fill-opacity:0.1;fill-rule:nonzero;"/>
        </g>
    </g>
</svg>
