<?xml version="1.0" encoding="UTF-8" standalone="no"?>
<!DOCTYPE svg PUBLIC "-//W3C//DTD SVG 1.1//EN" "http://www.w3.org/Graphics/SVG/1.1/DTD/svg11.dtd">
<svg width="100%" height="100%" viewBox="0 0 1600 540" version="1.1" xmlns="http://www.w3.org/2000/svg" xmlns:xlink="http://www.w3.org/1999/xlink" xml:space="preserve" xmlns:serif="http://www.serif.com/" style="fill-rule:evenodd;clip-rule:evenodd;stroke-linecap:round;stroke-linejoin:round;stroke-miterlimit:1.5;">
    <g transform="matrix(1,0,0,1,2.931,-40.5735)">
        <g transform="matrix(1,0,0,1,-573.799,13.5222)">
            <g opacity="0.5">
                <g id="XMLID_350_">
                    <g id="XMLID_351_">
                        <g transform="matrix(0.7067,0.7075,-0.7075,0.7067,745.108,-869.297)">
                            <g id="XMLID_360_">
                                <rect id="XMLID_361_" x="1420.42" y="454.996" width="1.147" height="18.031" style="fill:white;"/>
                            </g>
                        </g>
                        <g transform="matrix(0.7063,0.708,-0.708,0.7063,749.657,-878.73)">
                            <g id="XMLID_358_">
                                <rect id="XMLID_359_" x="1433.17" y="454.997" width="1.146" height="18.03" style="fill:white;"/>
                            </g>
                        </g>
                        <g transform="matrix(0.7071,0.7071,-0.7071,0.7071,751.775,-886.921)">
                            <g id="XMLID_356_">
                                <rect id="XMLID_357_" x="1445.92" y="454.996" width="1.148" height="18.031" style="fill:white;"/>
                            </g>
                        </g>
                        <g transform="matrix(0.7063,0.708,-0.708,0.7063,757.148,-896.784)">
                            <g id="XMLID_354_">
                                <rect id="XMLID_355_" x="1458.67" y="454.996" width="1.146" height="18.031" style="fill:white;"/>
                            </g>
                        </g>
                        <g transform="matrix(0.7063,0.708,-0.708,0.7063,760.893,-905.81)">
                            <g id="XMLID_352_">
                                <rect id="XMLID_353_" x="1471.42" y="454.996" width="1.146" height="18.031" style="fill:white;"/>
                            </g>
                        </g>
                    </g>
                </g>
                <g id="XMLID_81_">
                    <g id="XMLID_82_">
                        <g transform="matrix(0.7071,0.7071,-0.7071,0.7071,736.741,-882.585)">
                            <g id="XMLID_91_">
                                <rect id="XMLID_92_" x="1433.17" y="439.017" width="1.146" height="18.031" style="fill:rgb(39,35,97);"/>
                            </g>
                        </g>
                        <g transform="matrix(0.7071,0.7071,-0.7071,0.7071,740.475,-891.601)">
                            <g id="XMLID_89_">
                                <rect id="XMLID_90_" x="1445.92" y="439.017" width="1.146" height="18.031" style="fill:rgb(39,35,97);"/>
                            </g>
                        </g>
                        <g transform="matrix(0.7071,0.7071,-0.7071,0.7071,744.21,-900.616)">
                            <g id="XMLID_87_">
                                <rect id="XMLID_88_" x="1458.67" y="439.017" width="1.146" height="18.031" style="fill:rgb(39,35,97);"/>
                            </g>
                        </g>
                        <g transform="matrix(0.7071,0.7071,-0.7071,0.7071,747.944,-909.632)">
                            <g id="XMLID_85_">
                                <rect id="XMLID_86_" x="1471.42" y="439.017" width="1.146" height="18.031" style="fill:rgb(39,35,97);"/>
                            </g>
                        </g>
                        <g transform="matrix(0.7071,0.7071,-0.7071,0.7071,751.678,-918.648)">
                            <g id="XMLID_83_">
                                <rect id="XMLID_84_" x="1484.17" y="439.017" width="1.146" height="18.031" style="fill:rgb(39,35,97);"/>
                            </g>
                        </g>
                    </g>
                </g>
                <g id="XMLID_784_">
                    <g id="XMLID_785_">
                        <g transform="matrix(0.7071,0.7071,-0.7071,0.7071,415.677,-716.297)">
                            <g id="XMLID_794_">
                                <rect id="XMLID_795_" x="1071.91" y="134.602" width="1.146" height="18.031" style="fill:white;"/>
                            </g>
                        </g>
                        <g transform="matrix(0.7071,0.7071,-0.7071,0.7071,419.411,-725.313)">
                            <g id="XMLID_792_">
                                <rect id="XMLID_793_" x="1084.66" y="134.602" width="1.146" height="18.031" style="fill:white;"/>
                            </g>
                        </g>
                        <g transform="matrix(0.7071,0.7071,-0.7071,0.7071,423.146,-734.328)">
                            <g id="XMLID_790_">
                                <rect id="XMLID_791_" x="1097.41" y="134.602" width="1.146" height="18.031" style="fill:white;"/>
                            </g>
                        </g>
                        <g transform="matrix(0.7071,0.7071,-0.7071,0.7071,426.88,-743.344)">
                            <g id="XMLID_788_">
                                <rect id="XMLID_789_" x="1110.16" y="134.602" width="1.146" height="18.031" style="fill:white;"/>
                            </g>
                        </g>
                        <g transform="matrix(0.7071,0.7071,-0.7071,0.7071,430.614,-752.359)">
                            <g id="XMLID_786_">
                                <rect id="XMLID_787_" x="1122.91" y="134.602" width="1.146" height="18.031" style="fill:white;"/>
                            </g>
                        </g>
                    </g>
                </g>
                <g id="XMLID_310_">
                    <g>
                        <g id="XMLID_337_">
                        </g>
                        <g id="XMLID_324_">
                        </g>
                        <g id="XMLID_311_">
                        </g>
                    </g>
                </g>
                <g id="XMLID_19_">
                    <g>
                        <g id="XMLID_46_">
                        </g>
                        <g id="XMLID_33_">
                        </g>
                        <g id="XMLID_20_">
                        </g>
                    </g>
                </g>
            </g>
        </g>
        <g transform="matrix(1,0,0,1,-2.931,40.5735)">
            <path d="M0,414.829C0,414.829 353.309,135.039 535.187,138.802C717.065,142.564 913.798,376.738 1091.27,376.738C1268.74,376.738 1600,138.802 1600,138.802" style="fill:none;stroke:rgb(39,35,97);stroke-width:1px;"/>
        </g>
        <g transform="matrix(-0.910261,0.239151,-0.194428,-0.740036,1567.16,300.615)">
            <path d="M4.535,-175.044C4.535,-175.044 308.473,247.352 490.351,251.115C537.909,252.098 592.349,245.007 649.885,234.835C812.386,206.104 999.584,152.797 1126.18,187.428C1299.42,234.818 1595,608.093 1595,608.093" style="fill:none;stroke:rgb(39,35,97);stroke-width:1.17px;"/>
        </g>
    </g>
</svg>
