<?xml version="1.0" encoding="UTF-8" standalone="no"?><!DOCTYPE svg PUBLIC "-//W3C//DTD SVG 1.1//EN" "http://www.w3.org/Graphics/SVG/1.1/DTD/svg11.dtd"><svg width="100%" height="100%" viewBox="0 0 1292 492" version="1.1" xmlns="http://www.w3.org/2000/svg" xmlns:xlink="http://www.w3.org/1999/xlink" xml:space="preserve" xmlns:serif="http://www.serif.com/" style="fill-rule:evenodd;clip-rule:evenodd;stroke-linejoin:round;stroke-miterlimit:2;"><g><path d="M120.141,180.409l102.746,194.502l53.137,-0l56.726,-109.502l-92.271,-175.203l-73.66,-0l-46.678,90.203Z" style="fill:url(#_Linear1);fill-rule:nonzero;"/><path d="M131.356,401.461l51.312,-98.833l-65.163,-117.124l-111.753,215.957l125.604,-0Z" style="fill:url(#_Radial2);fill-rule:nonzero;"/><path d="M120.141,180.41l63.523,120.252l-13.79,26.562l-63.497,-120.216l13.764,-26.598Z" style="fill:#c72467;fill-rule:nonzero;"/></g><g><g id="logo-center"><g id="title"><g id="path119335"><path d="M522.697,323.886l37.962,-0l-56.943,-161.658l-37.962,0l56.943,161.658Z" style="fill:#fff;fill-rule:nonzero;"/><path d="M446.773,323.886l-37.963,-0l56.944,-161.658l37.962,0l-56.943,161.658Z" style="fill:#fff;fill-rule:nonzero;"/><path d="M503.716,162.228l-37.962,0l18.981,53.886l18.981,-53.886Z" style="fill:#fff;fill-rule:nonzero;"/></g><g id="path119337"><path d="M607.643,323.873l-34.799,-0l0,-127.879c0,-23.669 19.258,-42.927 42.927,-42.927c8.922,0 17.483,2.716 24.755,7.855l-20.081,28.421c-0.953,-0.674 -2.538,-1.477 -4.674,-1.477c-4.481,0 -8.128,3.647 -8.128,8.128l-0,127.879Z" style="fill:#fff;fill-rule:nonzero;"/><rect x="572.844" y="213.304" width="56.276" height="28.472" style="fill:#fff;"/></g><g id="path119339"><path d="M700.878,246.895c1.878,0 3.741,0.233 5.533,0.692l8.632,-33.711c-4.61,-1.18 -9.376,-1.78 -14.165,-1.78c-31.388,0 -56.925,25.537 -56.925,56.925l34.799,0c-0,-12.2 9.926,-22.126 22.126,-22.126Z" style="fill:#fff;fill-rule:nonzero;"/><rect x="643.953" y="212.549" width="34.799" height="111.329" style="fill:#fff;"/><path d="M678.752,267.07l-0,-52.447c-20.43,8.651 -34.799,28.903 -34.799,52.447" style="fill:#fff;fill-rule:nonzero;"/></g><g id="path119341"><rect x="730.235" y="231.628" width="96.654" height="34.799" style="fill:#fff;"/><rect x="730.235" y="162.228" width="109.308" height="34.799" style="fill:#fff;"/><rect x="730.235" y="162.228" width="37.962" height="161.658" style="fill:#fff;"/></g><g id="path119343"><rect x="855.243" y="212.71" width="34.799" height="111.329" style="fill:#fff;"/><circle cx="872.643" cy="178.956" r="19.546" style="fill:#fff;"/></g><g id="path119345"><path d="M967.133,210.146c-31.388,-0 -56.925,25.536 -56.925,56.924l-0,56.808l34.799,-0l-0,-56.808c-0,-12.2 9.926,-22.126 22.126,-22.126c12.2,0 22.126,9.926 22.126,22.126l-0,56.808l34.798,-0l0,-56.808c0,-31.388 -25.536,-56.924 -56.924,-56.924Z" style="fill:#fff;fill-rule:nonzero;"/></g><g id="path119347"><rect x="1044.26" y="212.71" width="34.799" height="111.329" style="fill:#fff;"/><circle cx="1061.65" cy="178.956" r="19.546" style="fill:#fff;"/></g><g id="path119349"><rect x="1100.16" y="213.411" width="60.561" height="28.472" style="fill:#fff;"/><path d="M1143.09,326.473c-23.671,0 -42.927,-19.257 -42.927,-42.927l0,-109.808l34.799,-0l-0,109.808c-0,4.482 3.645,8.129 8.128,8.129c2.135,-0 3.719,-0.802 4.671,-1.476l20.087,28.416c-7.272,5.141 -15.833,7.858 -24.758,7.858Z" style="fill:#fff;fill-rule:nonzero;"/><rect x="1100.16" y="213.411" width="34.799" height="28.472" style="fill:#fff;"/></g><g id="path119351"><path d="M1196.18,368.978l36.379,-0l53.359,-156.484l-36.379,0l-53.359,156.484Z" style="fill:#fff;fill-rule:nonzero;"/><path d="M1173.61,212.494l36.379,0l37.962,111.329l-36.379,0l-37.962,-111.329Z" style="fill:#fff;fill-rule:nonzero;"/><path d="M1211.57,323.823l36.379,0l-18.19,-53.343l-18.189,53.343Z" style="fill:#fff;fill-rule:nonzero;"/></g><rect x="436.684" y="266.875" width="51.65" height="34.799" style="fill:#fff;"/><rect x="461.557" y="196.829" width="51.65" height="34.799" style="fill:#fff;"/></g></g></g><defs><linearGradient id="_Linear1" x1="0" y1="0" x2="1" y2="0" gradientUnits="userSpaceOnUse" gradientTransform="matrix(-106.634,-283.073,283.073,-106.634,282.06,370.546)"><stop offset="0" style="stop-color:#c42467;stop-opacity:1"/><stop offset="1" style="stop-color:#ff2467;stop-opacity:1"/></linearGradient><radialGradient id="_Radial2" cx="0" cy="0" r="1" gradientUnits="userSpaceOnUse" gradientTransform="matrix(-152.045,239.098,-236.841,-150.609,167.848,205.191)"><stop offset="0" style="stop-color:#c42467;stop-opacity:1"/><stop offset="1" style="stop-color:#ff2467;stop-opacity:1"/></radialGradient></defs></svg>