<?xml version="1.0" encoding="UTF-8" standalone="no"?><!DOCTYPE svg PUBLIC "-//W3C//DTD SVG 1.1//EN" "http://www.w3.org/Graphics/SVG/1.1/DTD/svg11.dtd"><svg width="100%" height="100%" viewBox="0 0 1292 492" version="1.1" xmlns="http://www.w3.org/2000/svg" xmlns:xlink="http://www.w3.org/1999/xlink" xml:space="preserve" xmlns:serif="http://www.serif.com/" style="fill-rule:evenodd;clip-rule:evenodd;stroke-linejoin:round;stroke-miterlimit:2;"><g><path d="M217.778,192.76l83.35,157.784l43.105,-0l46.018,-88.83l-74.852,-142.129l-59.755,-0l-37.866,73.175Z" style="fill:url(#_Linear1);fill-rule:nonzero;"/><path d="M226.875,372.082l41.626,-80.176l-52.861,-95.013l-90.657,175.189l101.892,-0Z" style="fill:url(#_Radial2);fill-rule:nonzero;"/><path d="M217.778,192.76l51.531,97.552l-11.187,21.547l-51.51,-97.521l11.166,-21.578Z" style="fill:#c72467;fill-rule:nonzero;"/></g><g><g id="logo-center"><g id="title"><g id="path119335"><path d="M544.34,309.151l30.796,0l-46.194,-131.14l-30.796,-0l46.194,131.14Z" style="fill:#fff;fill-rule:nonzero;"/><path d="M482.749,309.151l-30.796,0l46.193,-131.14l30.796,-0l-46.193,131.14Z" style="fill:#fff;fill-rule:nonzero;"/><path d="M528.942,178.011l-30.796,-0l15.398,43.713l15.398,-43.713Z" style="fill:#fff;fill-rule:nonzero;"/></g><g id="path119337"><path d="M613.25,309.141l-28.23,-0l0,-103.738c0,-19.201 15.623,-34.823 34.824,-34.823c7.237,-0 14.182,2.203 20.082,6.372l-16.291,23.055c-0.773,-0.546 -2.058,-1.198 -3.791,-1.198c-3.636,0 -6.594,2.959 -6.594,6.594l-0,103.738Z" style="fill:#fff;fill-rule:nonzero;"/><rect x="585.02" y="219.445" width="45.652" height="23.097" style="fill:#fff;"/></g><g id="path119339"><path d="M688.884,246.695c1.524,-0 3.035,0.189 4.489,0.561l7.002,-27.347c-3.739,-0.958 -7.606,-1.444 -11.491,-1.444c-25.462,0 -46.178,20.716 -46.178,46.179l28.229,-0c0,-9.897 8.053,-17.949 17.949,-17.949Z" style="fill:#fff;fill-rule:nonzero;"/><rect x="642.706" y="218.832" width="28.229" height="90.312" style="fill:#fff;"/><path d="M670.935,263.061l0,-42.547c-16.573,7.019 -28.229,23.447 -28.229,42.547" style="fill:#fff;fill-rule:nonzero;"/></g><g id="path119341"><rect x="712.699" y="234.31" width="78.408" height="28.229" style="fill:#fff;"/><rect x="712.699" y="178.011" width="88.673" height="28.229" style="fill:#fff;"/><rect x="712.699" y="178.011" width="30.796" height="131.14" style="fill:#fff;"/></g><g id="path119343"><rect x="814.109" y="218.963" width="28.229" height="90.312" style="fill:#fff;"/><circle cx="828.224" cy="191.581" r="15.856" style="fill:#fff;"/></g><g id="path119345"><path d="M904.876,216.883c-25.463,-0 -46.179,20.716 -46.179,46.178l0,46.084l28.23,-0l-0,-46.084c-0,-9.897 8.052,-17.949 17.949,-17.949c9.897,0 17.949,8.052 17.949,17.949l0,46.084l28.23,-0l-0,-46.084c-0,-25.462 -20.716,-46.178 -46.179,-46.178Z" style="fill:#fff;fill-rule:nonzero;"/></g><g id="path119347"><rect x="967.44" y="218.963" width="28.229" height="90.312" style="fill:#fff;"/><circle cx="981.555" cy="191.581" r="15.856" style="fill:#fff;"/></g><g id="path119349"><rect x="1012.79" y="219.532" width="49.128" height="23.097" style="fill:#fff;"/><path d="M1047.61,311.25c-19.202,0 -34.823,-15.622 -34.823,-34.823l-0,-89.079l28.229,-0l0,89.079c0,3.635 2.957,6.594 6.594,6.594c1.732,-0 3.017,-0.651 3.789,-1.197l16.295,23.052c-5.899,4.17 -12.844,6.374 -20.084,6.374Z" style="fill:#fff;fill-rule:nonzero;"/><rect x="1012.79" y="219.532" width="28.229" height="23.097" style="fill:#fff;"/></g><g id="path119351"><path d="M1090.68,345.731l29.511,-0l43.286,-126.943l-29.511,0l-43.286,126.943Z" style="fill:#fff;fill-rule:nonzero;"/><path d="M1072.38,218.788l29.512,0l30.796,90.312l-29.512,0l-30.796,-90.312Z" style="fill:#fff;fill-rule:nonzero;"/><path d="M1103.17,309.1l29.512,0l-14.756,-43.272l-14.756,43.272Z" style="fill:#fff;fill-rule:nonzero;"/></g><rect x="474.565" y="262.903" width="41.899" height="28.229" style="fill:#fff;"/><rect x="494.742" y="206.08" width="41.899" height="28.229" style="fill:#fff;"/></g></g></g><defs><linearGradient id="_Linear1" x1="0" y1="0" x2="1" y2="0" gradientUnits="userSpaceOnUse" gradientTransform="matrix(-86.5039,-229.635,229.635,-86.5039,349.13,347.003)"><stop offset="0" style="stop-color:#c42467;stop-opacity:1"/><stop offset="1" style="stop-color:#ff2467;stop-opacity:1"/></linearGradient><radialGradient id="_Radial2" cx="0" cy="0" r="1" gradientUnits="userSpaceOnUse" gradientTransform="matrix(-123.342,193.962,-192.131,-122.178,256.479,212.863)"><stop offset="0" style="stop-color:#c42467;stop-opacity:1"/><stop offset="1" style="stop-color:#ff2467;stop-opacity:1"/></radialGradient></defs></svg>