<?xml version="1.0" encoding="UTF-8" standalone="no"?>
<!DOCTYPE svg PUBLIC "-//W3C//DTD SVG 1.1//EN" "http://www.w3.org/Graphics/SVG/1.1/DTD/svg11.dtd">
<svg width="100%" height="100%" viewBox="0 0 799 668" version="1.1" xmlns="http://www.w3.org/2000/svg" xmlns:xlink="http://www.w3.org/1999/xlink" xml:space="preserve" xmlns:serif="http://www.serif.com/" style="fill-rule:evenodd;clip-rule:evenodd;stroke-linejoin:round;stroke-miterlimit:2;">
    <g transform="matrix(-0.599002,0,0,-0.594565,741.416,649.939)">
        <clipPath id="_clip1">
            <rect x="-38.506" y="-33.111" width="1276.26" height="1130.54"/>
        </clipPath>
        <g clip-path="url(#_clip1)">
            <path d="M944.74,-33.111C1236.7,-33.111 1237.75,204.414 1237.75,496.372C1237.75,788.329 867.954,1097.42 575.996,1097.42C284.039,1097.42 -35.657,1067.97 -35.657,776.017C-35.657,484.06 652.782,-33.111 944.74,-33.111Z" style="fill:white;"/>
        </g>
    </g>
    <g transform="matrix(1,0,0,1,-200.5,-116.462)">
        <path d="M849.5,746.62L364.5,746.62L364.719,695.198C365.272,565.083 469.127,457.869 599.225,455.656C600.63,455.632 602.038,455.62 603.448,455.62L603.449,455.62C632.723,455.598 661.765,460.816 689.201,471.026C781.255,505.308 843.042,592.409 847.152,690.554L849.5,746.62Z" style="fill:rgb(245,0,87);fill-rule:nonzero;"/>
    </g>
    <rect x="0" y="630.158" width="799" height="2" style="fill:rgb(47,46,65);"/>
    <path d="M398.287,400.165L419.657,415.708L441.028,598.33L491.54,598.33L474.055,390.451L404.115,363.252L398.287,400.165Z" style="fill:rgb(47,46,65);fill-rule:nonzero;"/>
    <g transform="matrix(1,0,0,1,-200.5,-116.462)">
        <path d="M509.418,458.344C509.418,458.344 503.59,524.399 526.903,526.341C550.217,528.284 639.585,506.914 639.585,506.914L682.326,658.451L746.438,625.424C746.438,625.424 707.583,454.458 684.269,444.744C660.956,435.03 583.244,415.603 583.244,415.603L526.904,425.316L509.418,458.344Z" style="fill:rgb(47,46,65);fill-rule:nonzero;"/>
    </g>
    <g transform="matrix(1,0,0,1,-200.5,-116.462)">
        <path d="M649.299,710.906C649.299,710.906 637.642,755.59 645.413,759.476C650.088,761.811 654.628,764.406 659.013,767.247L659.013,759.476C659.013,759.476 668.727,769.19 668.727,776.961C668.727,784.732 721.182,786.675 721.182,776.961C721.182,767.247 719.239,755.59 709.525,749.762C699.811,743.934 688.155,710.906 688.155,710.906L649.299,710.906Z" style="fill:rgb(47,46,65);fill-rule:nonzero;"/>
    </g>
    <path d="M505.14,514.79L509.025,551.703L522.625,575.016L555.652,538.103L530.396,497.305L505.14,514.79Z" style="fill:rgb(47,46,65);fill-rule:nonzero;"/>
    <g transform="matrix(1,0,0,1,-200.5,-116.462)">
        <path d="M736.724,668.165C736.724,668.165 743.878,643.705 750.987,646.221C758.095,648.737 785.294,673.993 785.294,673.993L804.722,685.65C804.722,685.65 843.578,689.535 831.921,701.192C820.264,712.849 777.523,728.391 758.095,720.62C738.667,712.849 734.782,710.906 734.782,710.906L728.953,714.792L705.64,708.963L709.525,668.165C709.525,668.165 715.354,685.65 736.724,668.165Z" style="fill:rgb(47,46,65);fill-rule:nonzero;"/>
    </g>
    <circle cx="374.973" cy="54.349" r="44.684" style="fill:rgb(159,97,106);"/>
    <g transform="matrix(1,0,0,1,-200.5,-116.462)">
        <path d="M547.303,197.039C547.303,197.039 551.188,237.838 539.532,237.838C527.875,237.838 541.474,288.35 572.559,288.35C603.644,288.35 615.3,228.124 615.3,228.124C615.3,228.124 593.93,220.352 597.815,195.096C601.701,169.84 547.303,197.039 547.303,197.039Z" style="fill:rgb(159,97,106);fill-rule:nonzero;"/>
    </g>
    <g transform="matrix(1,0,0,1,-200.5,-116.462)">
        <path d="M544.207,234.725L527.875,241.723L483.55,260.476C479.89,262.024 477.669,265.822 478.114,269.77L494.848,418.517C494.848,418.517 477.362,455.43 504.561,457.372L508.447,470.972L539.532,434.059L656.099,430.173L658.042,241.723L604.706,220.647C604.706,220.647 597.452,260.755 544.207,234.725Z" style="fill:rgb(63,61,86);fill-rule:nonzero;"/>
    </g>
    <g transform="matrix(1,0,0,1,-200.5,-116.462)">
        <path d="M489.991,266.008L482.811,263.957C482.282,263.806 481.735,263.729 481.185,263.729C478.288,263.729 475.796,265.856 475.34,268.716L456.288,388.223C454.802,397.072 456.225,406.168 460.343,414.14C466.229,425.286 478.455,435.395 503.59,423.374L521.075,297.093L489.991,266.008Z" style="fill:rgb(63,61,86);fill-rule:nonzero;"/>
    </g>
    <g transform="matrix(1,0,0,1,-200.5,-116.462)">
        <path d="M635.7,238.809L659.013,242.695L723.125,332.063L728.953,347.605L765.866,335.948C765.866,335.948 763.924,353.433 783.351,351.491C783.351,351.491 760.038,415.603 711.468,396.175C662.899,376.747 647.356,318.463 647.356,318.463L635.7,238.809Z" style="fill:rgb(63,61,86);fill-rule:nonzero;"/>
    </g>
    <path d="M462.399,161.203L374.973,126.232L371.088,137.889L411.886,172.859L462.399,161.203Z" style="fill:rgb(204,204,204);fill-rule:nonzero;"/>
    <g transform="matrix(1,0,0,1,-200.5,-116.462)">
        <path d="M548.57,173.66C550.22,173.219 550.462,171.028 550.518,169.321C550.814,160.179 556.319,150.797 565.071,148.136C568.429,147.215 571.945,147.021 575.384,147.568C580.292,148.222 585.032,149.803 589.35,152.228C591.63,153.509 593.865,155.053 596.451,155.444C598.158,155.703 605.551,157.852 607.252,158.155C610.99,158.82 614.464,162.164 618.051,160.92C621.483,159.729 622.242,155.286 622.325,151.654C622.514,143.381 616.234,131.93 610.702,125.776C606.504,121.105 600.183,118.949 594.004,117.828C586.786,116.668 579.471,116.223 572.166,116.5C562.277,116.676 552.114,117.439 543.198,121.718C534.281,125.997 526.791,134.512 526.364,144.393C526.275,146.451 526.487,148.518 526.314,150.571C525.892,155.579 523.232,160.103 521.985,164.971C520.182,172.192 521.52,179.848 525.665,186.029C528.974,190.899 542.207,195.32 542.016,201.205C544.408,198.727 538.768,196.232 541.159,193.754C543.36,192.074 544.094,189.059 542.912,186.555L540.372,176.649C539.907,174.835 539.45,172.871 540.152,171.135C542.875,164.407 545.818,174.395 548.57,173.66Z" style="fill:rgb(47,46,65);fill-rule:nonzero;"/>
    </g>
    <path d="M371.088,137.889L334.175,281.655L477.941,332.168L561.481,262.227L613.936,104.862L528.453,167.031L371.088,137.889Z" style="fill:rgb(242,242,242);fill-rule:nonzero;"/>
    <g transform="matrix(0.255154,-0.9669,0.9669,0.255154,2.65912,725.906)">
        <rect x="647.356" y="216.987" width="1.942" height="144.669" style="fill:rgb(230,230,230);"/>
    </g>
    <g transform="matrix(0.255154,-0.9669,0.9669,0.255154,-9.62744,729.384)">
        <rect x="643.471" y="226.701" width="1.942" height="144.669" style="fill:rgb(230,230,230);"/>
    </g>
    <g transform="matrix(0.255154,-0.9669,0.9669,0.255154,-20.4669,734.741)">
        <rect x="641.528" y="236.415" width="1.942" height="144.669" style="fill:rgb(230,230,230);"/>
    </g>
    <g transform="matrix(0.255154,-0.9669,0.9669,0.255154,-31.3064,740.098)">
        <rect x="639.585" y="246.129" width="1.942" height="144.669" style="fill:rgb(230,230,230);"/>
    </g>
    <g transform="matrix(0.255154,-0.9669,0.9669,0.255154,-42.1459,745.455)">
        <rect x="637.642" y="255.843" width="1.942" height="144.669" style="fill:rgb(230,230,230);"/>
    </g>
    <g transform="matrix(0.255154,-0.9669,0.9669,0.255154,-52.9854,750.812)">
        <rect x="635.7" y="265.557" width="1.942" height="144.669" style="fill:rgb(230,230,230);"/>
    </g>
    <g transform="matrix(0.255154,-0.9669,0.9669,0.255154,-63.8248,756.169)">
        <rect x="633.757" y="275.27" width="1.942" height="144.669" style="fill:rgb(230,230,230);"/>
    </g>
    <g transform="matrix(0.255154,-0.9669,0.9669,0.255154,-74.6643,761.526)">
        <rect x="631.814" y="284.984" width="1.942" height="144.669" style="fill:rgb(230,230,230);"/>
    </g>
    <g transform="matrix(0.255154,-0.9669,0.9669,0.255154,-85.5038,766.883)">
        <rect x="629.871" y="294.698" width="1.942" height="144.669" style="fill:rgb(230,230,230);"/>
    </g>
    <g transform="matrix(1,0,0,1,-200.5,-116.462)">
        <path d="M512.35,360.104C512.35,360.104 556.045,334.006 575.473,351.491C594.901,368.976 519.132,394.232 519.132,394.232L512.35,360.104Z" style="fill:rgb(159,97,106);fill-rule:nonzero;"/>
    </g>
    <g transform="matrix(1,0,0,1,-200.5,-116.462)">
        <path d="M464.734,372.861L521.075,351.491C521.075,351.491 511.361,388.404 530.789,390.346L503.59,423.374C503.59,423.374 449.192,423.374 464.734,372.861Z" style="fill:rgb(63,61,86);fill-rule:nonzero;"/>
    </g>
    <path d="M412.494,255.602L487.255,280.799L469.562,319.365L394.801,294.169L412.494,255.602Z" style="fill:rgb(230,230,230);fill-rule:nonzero;"/>
    <path d="M544.967,173.831L601.308,131.089L585.766,183.545L527.482,226.286L544.967,173.831Z" style="fill:rgb(204,204,204);fill-rule:nonzero;"/>
    <g transform="matrix(0.796707,-0.604365,0.604365,0.796707,-254.725,403.942)">
        <rect x="711.079" y="339.834" width="70.719" height="1.943" style="fill:rgb(230,230,230);"/>
    </g>
    <g transform="matrix(0.796707,-0.604365,0.604365,0.796707,-268.431,405.939)">
        <rect x="707.194" y="361.204" width="70.718" height="1.943" style="fill:rgb(230,230,230);"/>
    </g>
    <g transform="matrix(1,0,0,1,-200.5,-116.462)">
        <path d="M777.523,353.433C777.523,353.433 826.093,324.292 795.008,312.635C763.924,300.978 763.923,345.662 763.923,345.662C763.923,345.662 761.981,355.376 777.523,353.433Z" style="fill:rgb(159,97,106);fill-rule:nonzero;"/>
    </g>
    <path d="M292.405,171.888L290.462,247.657L320.575,239.063L296.29,239.885L292.405,171.888Z" style="fill-opacity:0.1;fill-rule:nonzero;"/>
    <g transform="matrix(1,0,0,1,-200.5,-116.462)">
        <path d="M280.909,712.354C286.982,734.804 307.784,748.708 307.784,748.708C307.784,748.708 318.739,726.213 312.666,703.763C306.593,681.313 285.791,667.409 285.791,667.409C285.791,667.409 274.835,689.904 280.909,712.354Z" style="fill:rgb(137,133,168);fill-rule:nonzero;"/>
    </g>
    <g transform="matrix(1,0,0,1,-200.5,-116.462)">
        <path d="M289.833,707.53C306.498,723.752 308.533,748.69 308.533,748.69C308.533,748.69 283.549,747.326 266.885,731.103C250.22,714.881 248.184,689.943 248.184,689.943C248.184,689.943 273.168,691.307 289.833,707.53Z" style="fill:rgb(63,61,86);fill-rule:nonzero;"/>
    </g>
    <rect x="626" y="379.158" width="30" height="30" style="fill:rgb(242,242,242);"/>
    <rect x="506" y="39.158" width="30" height="30" style="fill:rgb(242,242,242);"/>
    <circle cx="159" cy="328.158" r="15" style="fill:rgb(242,242,242);"/>
</svg>
