<?xml version="1.0" encoding="UTF-8" standalone="no"?>
<!DOCTYPE svg PUBLIC "-//W3C//DTD SVG 1.1//EN" "http://www.w3.org/Graphics/SVG/1.1/DTD/svg11.dtd">
<svg width="100%" height="100%" viewBox="0 0 701 615" version="1.1" xmlns="http://www.w3.org/2000/svg" xmlns:xlink="http://www.w3.org/1999/xlink" xml:space="preserve" xmlns:serif="http://www.serif.com/" style="fill-rule:evenodd;clip-rule:evenodd;stroke-linejoin:round;stroke-miterlimit:2;">
    <g transform="matrix(0.548259,0,0,0.544197,21.2056,18.019)">
        <clipPath id="_clip1">
            <rect x="-38.506" y="-33.111" width="1276.26" height="1130.54"/>
        </clipPath>
        <g clip-path="url(#_clip1)">
            <path d="M944.74,-33.111C1236.7,-33.111 1237.75,204.414 1237.75,496.372C1237.75,788.329 867.954,1097.42 575.996,1097.42C284.039,1097.42 -35.657,1067.97 -35.657,776.017C-35.657,484.06 652.782,-33.111 944.74,-33.111Z" style="fill:white;"/>
        </g>
    </g>
    <g transform="matrix(0.675719,0,0,0.675719,-29.5259,3.54351)">
        <path d="M634.899,256.958C634.689,280.799 632.943,304.603 629.67,328.22C629.556,329.049 629.431,329.878 629.316,330.708L406.04,329.46C405.384,328.636 404.739,327.803 404.114,326.959C402.029,324.168 400.076,321.297 398.282,318.327C389.662,304.018 385.715,287.266 389.67,275.708L389.741,275.528C390.594,272.997 391.94,270.66 393.699,268.65C402.716,258.5 420.947,260.192 437.491,268.385C422.652,252.142 410.836,231.645 409.939,213.35C409.058,195.505 418.389,182.757 428.51,171.923C428.842,171.565 429.174,171.217 429.506,170.869C429.667,170.69 429.838,170.52 429.999,170.341C437.895,162.085 447.101,153.947 460.426,154.931C475.04,156.013 491.242,168.254 502.603,182.517C513.963,196.771 521.512,212.963 529.164,228.766C536.826,244.559 545.116,260.756 557.411,274.255C540.758,253.192 527.332,229.226 522.372,205.918C517.412,182.61 521.777,160.224 536.619,149.247C541.124,146.017 546.338,143.913 551.823,143.112C552.464,143.005 553.114,142.919 553.775,142.843C567.514,141.279 583.918,146.031 597.874,157.389C613.245,169.895 623.901,188.435 629.203,206.035C634.505,223.635 635.07,240.578 634.899,256.958Z" style="fill:rgb(242,242,242);fill-rule:nonzero;"/>
    </g>
    <g transform="matrix(0.675719,0,0,0.675719,-29.5259,3.54351)">
        <path d="M488.818,329.923L484.549,329.899C483.193,329.051 481.831,328.214 480.463,327.386C479.616,326.851 478.759,326.336 477.901,325.812C463.739,317.162 449.489,308.866 435.15,300.922C420.824,292.972 406.426,285.388 391.956,278.171C391.168,277.827 390.733,276.962 390.927,276.125C390.943,276.071 390.967,276.021 390.999,275.975C391.2,275.596 391.651,275.439 392.31,275.762C394.085,276.652 395.87,277.542 397.644,278.452C412.154,285.794 426.601,293.501 440.986,301.575C455.361,309.645 469.654,318.072 483.866,326.855C484.164,327.037 484.464,327.228 484.762,327.41C486.118,328.247 487.463,329.085 488.818,329.923Z" style="fill:white;fill-rule:nonzero;"/>
    </g>
    <g transform="matrix(0.675719,0,0,0.675719,-29.5259,3.54351)">
        <path d="M543.868,330.23L541.228,330.215C540.632,329.382 540.047,328.549 539.451,327.715C525.461,308.097 511.474,288.478 497.49,268.86C474.589,236.742 451.695,204.623 428.807,172.505C428.672,172.332 428.571,172.134 428.51,171.923C428.314,171.212 428.837,170.795 429.506,170.869C430.077,170.95 430.586,171.274 430.901,171.756C443.741,189.768 456.577,207.774 469.41,225.772C492.192,257.73 514.97,289.685 537.746,321.636C539.194,323.664 540.643,325.702 542.092,327.73C542.687,328.564 543.282,329.397 543.868,330.23Z" style="fill:white;fill-rule:nonzero;"/>
    </g>
    <g transform="matrix(0.675719,0,0,0.675719,-29.5259,3.54351)">
        <path d="M602.684,314.899C602.55,319.348 602.255,323.726 601.87,328.064C601.796,328.894 601.721,329.723 601.647,330.553L598.877,330.537C598.961,329.708 599.046,328.878 599.12,328.049C599.706,321.782 600.121,315.444 600.177,308.934C600.251,290.886 598.492,272.877 594.928,255.184C591.139,236.134 585.699,217.449 578.669,199.343C571.291,180.246 562.396,161.77 552.068,144.093C551.873,143.805 551.787,143.457 551.823,143.112C551.938,142.322 552.989,142.088 553.775,142.843C553.93,142.991 554.064,143.16 554.172,143.345C555.45,145.542 556.704,147.746 557.935,149.956C567.882,167.731 576.396,186.271 583.396,205.399C590.063,223.565 595.135,242.278 598.553,261.325C601.755,278.995 603.139,296.946 602.684,314.899Z" style="fill:white;fill-rule:nonzero;"/>
    </g>
    <g transform="matrix(0.675719,0,0,0.675719,-29.5259,3.54351)">
        <path d="M791.578,328.857L184.578,328.857C179.796,328.861 175.862,332.795 175.858,337.577L175.858,748.897C175.862,753.679 179.796,757.613 184.578,757.617L791.578,757.617C794.128,757.617 796.554,756.498 798.208,754.557C798.277,754.482 798.341,754.402 798.398,754.317C798.919,753.681 799.34,752.969 799.648,752.207C800.087,751.159 800.311,750.033 800.308,748.897L800.308,337.577C800.303,332.792 796.363,328.857 791.578,328.857ZM797.818,748.897C797.819,750.113 797.46,751.303 796.788,752.317C796.19,753.209 795.379,753.938 794.428,754.437C793.547,754.892 792.569,755.129 791.578,755.127L184.578,755.127C181.162,755.123 178.352,752.313 178.348,748.897L178.348,337.577C178.352,334.161 181.162,331.351 184.578,331.347L791.578,331.347C794.997,331.347 797.813,334.157 797.818,337.577L797.818,748.897Z" style="fill:rgb(63,61,86);fill-rule:nonzero;"/>
    </g>
    <g transform="matrix(0.675719,0,0,0.675719,89.3047,99.7544)">
        <rect x="1.243" y="221.423" width="621.957" height="2.493" style="fill:rgb(63,61,86);"/>
    </g>
    <g transform="matrix(0.675719,0,0,0.675719,89.3047,99.7544)">
        <circle cx="22.432" cy="205.17" r="7.478" style="fill:rgb(63,61,86);"/>
    </g>
    <g transform="matrix(0.675719,0,0,0.675719,89.3047,99.7544)">
        <circle cx="43.932" cy="205.17" r="7.478" style="fill:rgb(63,61,86);"/>
    </g>
    <g transform="matrix(0.675719,0,0,0.675719,89.3047,99.7544)">
        <circle cx="65.433" cy="205.17" r="7.478" style="fill:rgb(63,61,86);"/>
    </g>
    <g transform="matrix(0.675719,0,0,0.675719,-29.5259,3.54351)">
        <path d="M644.177,421.509L332.177,421.509C325.046,421.509 319.177,415.64 319.177,408.509C319.177,401.377 325.046,395.509 332.177,395.509L644.177,395.509C651.309,395.509 657.177,401.377 657.177,408.509C657.177,415.64 651.309,421.509 644.177,421.509ZM332.177,397.509C326.143,397.509 321.177,402.474 321.177,408.509C321.177,414.543 326.143,419.509 332.177,419.509L644.177,419.509C650.212,419.509 655.177,414.543 655.177,408.509C655.177,402.474 650.212,397.509 644.177,397.509L332.177,397.509Z" style="fill:rgb(63,61,86);fill-rule:nonzero;"/>
    </g>
    <g transform="matrix(0.675719,0,0,0.675719,-29.5259,3.54351)">
        <path d="M358.083,574.127L238.083,574.127C228.761,574.116 221.093,566.449 221.083,557.127L221.083,501.127C221.093,491.805 228.761,484.137 238.083,484.127L358.083,484.127C367.405,484.137 375.072,491.805 375.083,501.127L375.083,557.127C375.072,566.449 367.405,574.116 358.083,574.127Z" style="fill:rgb(245,0,87);fill-rule:nonzero;"/>
    </g>
    <g transform="matrix(0.675719,0,0,0.675719,-29.5259,3.54351)">
        <path d="M548.083,574.127L428.083,574.127C418.761,574.116 411.093,566.449 411.083,557.127L411.083,501.127C411.093,491.805 418.761,484.137 428.083,484.127L548.083,484.127C557.405,484.137 565.073,491.805 565.083,501.127L565.083,557.127C565.073,566.449 557.405,574.116 548.083,574.127Z" style="fill:rgb(245,0,87);fill-rule:nonzero;"/>
    </g>
    <g transform="matrix(0.675719,0,0,0.675719,-29.5259,3.54351)">
        <path d="M738.083,574.127L618.083,574.127C608.761,574.116 601.093,566.449 601.083,557.127L601.083,501.127C601.093,491.805 608.761,484.137 618.083,484.127L738.083,484.127C747.405,484.137 755.073,491.805 755.083,501.127L755.083,557.127C755.073,566.449 747.405,574.116 738.083,574.127Z" style="fill:rgb(245,0,87);fill-rule:nonzero;"/>
    </g>
    <g transform="matrix(0.675719,0,0,0.675719,-29.5259,3.54351)">
        <path d="M358.083,692.127L238.083,692.127C228.761,692.116 221.093,684.449 221.083,675.127L221.083,619.127C221.093,609.805 228.761,602.137 238.083,602.127L358.083,602.127C367.405,602.137 375.072,609.805 375.083,619.127L375.083,675.127C375.072,684.449 367.405,692.116 358.083,692.127Z" style="fill:rgb(245,0,87);fill-rule:nonzero;"/>
    </g>
    <g transform="matrix(0.675719,0,0,0.675719,-29.5259,3.54351)">
        <path d="M548.083,692.127L428.083,692.127C418.761,692.116 411.093,684.449 411.083,675.127L411.083,619.127C411.093,609.805 418.761,602.137 428.083,602.127L548.083,602.127C557.405,602.137 565.073,609.805 565.083,619.127L565.083,675.127C565.073,684.449 557.405,692.116 548.083,692.127Z" style="fill:rgb(245,0,87);fill-rule:nonzero;"/>
    </g>
    <g transform="matrix(0.675719,0,0,0.675719,-29.5259,3.54351)">
        <path d="M738.083,692.127L618.083,692.127C608.761,692.116 601.093,684.449 601.083,675.127L601.083,619.127C601.093,609.805 608.761,602.137 618.083,602.127L738.083,602.127C747.405,602.137 755.073,609.805 755.083,619.127L755.083,675.127C755.073,684.449 747.405,692.116 738.083,692.127Z" style="fill:rgb(245,0,87);fill-rule:nonzero;"/>
    </g>
    <g transform="matrix(0.675719,0,0,0.675719,89.3047,99.7544)">
        <circle cx="697.115" cy="248.744" r="33" style="fill:rgb(47,46,65);"/>
    </g>
    <g transform="matrix(0.675719,0,0,0.675719,-29.5259,3.54351)">
        <path d="M790.301,562.796C789.49,561.253 789.065,559.537 789.065,557.794C789.065,553.127 792.106,548.97 796.554,547.556L838.37,459.097L857.498,472.51L810.379,555.245C810.588,556.09 810.693,556.958 810.693,557.829C810.693,563.754 805.817,568.63 799.892,568.63C795.862,568.63 792.154,566.374 790.301,562.796L790.301,562.796Z" style="fill:rgb(255,184,184);fill-rule:nonzero;"/>
    </g>
    <g transform="matrix(0.675719,0,0,0.675719,-29.5259,3.54351)">
        <path d="M826.133,470.841C825.73,469.501 825.932,468.049 826.685,466.869L839.686,446.487C841.836,441.679 846.632,438.569 851.899,438.569C859.238,438.569 865.276,444.607 865.276,451.946C865.276,453.802 864.89,455.638 864.142,457.336L857.593,480.69C857.012,482.762 855.108,484.205 852.955,484.205C852.278,484.205 851.608,484.062 850.989,483.786L828.78,473.855C827.502,473.284 826.534,472.183 826.133,470.841Z" style="fill:rgb(245,0,87);fill-rule:nonzero;"/>
    </g>
    <g transform="matrix(0.675719,0,0,0.675719,-29.5259,3.54351)">
        <path d="M931.348,571.566C926.498,570.439 923.035,566.081 923.035,561.102C923.035,559.647 923.331,558.208 923.903,556.871L884.301,467.399L906.956,461.693L938.76,551.436C942.375,553.276 944.66,557.004 944.66,561.061C944.66,566.986 939.785,571.862 933.859,571.862C933.014,571.862 932.171,571.762 931.348,571.566L931.348,571.566Z" style="fill:rgb(255,184,184);fill-rule:nonzero;"/>
    </g>
    <g transform="matrix(0.675719,0,0,0.675719,89.3047,99.7544)">
        <path d="M766.285,591.358L754.765,595.553L733.105,553.115L750.107,546.924L766.285,591.358Z" style="fill:rgb(255,184,184);fill-rule:nonzero;"/>
    </g>
    <g transform="matrix(0.634942,-0.231182,0.231182,0.634942,-163.49,248.35)">
        <path d="M923.479,735.693L947.123,735.693L947.123,750.58L908.592,750.58C908.592,750.58 908.592,750.58 908.592,750.58C908.592,742.413 915.312,735.693 923.479,735.693Z" style="fill:rgb(47,46,65);fill-rule:nonzero;"/>
    </g>
    <g transform="matrix(0.675719,0,0,0.675719,-29.5259,3.54351)">
        <path d="M910.695,706.898L866.808,630.096C865.945,628.585 865.965,626.72 866.859,625.228L886.622,592.291C887.491,590.841 889.062,589.951 890.752,589.951C892.777,589.951 894.595,591.228 895.283,593.132L932.646,696.6C933.494,698.922 932.416,701.539 930.178,702.59L916.939,708.861C916.3,709.163 915.602,709.32 914.895,709.32C913.164,709.322 911.559,708.397 910.695,706.898Z" style="fill:rgb(47,46,65);fill-rule:nonzero;"/>
    </g>
    <g transform="matrix(0.675719,0,0,0.675719,89.3047,99.7544)">
        <circle cx="694.111" cy="260.239" r="24.561" style="fill:rgb(255,184,184);"/>
    </g>
    <g transform="matrix(0.675719,0,0,0.675719,-29.5259,3.54351)">
        <path d="M835.034,513.874C815.691,470.985 835.191,447.015 844.472,438.7C847.145,436.303 850.612,434.977 854.202,434.979L888.802,434.979C896.798,434.979 903.378,441.559 903.378,449.555C903.378,451.818 902.851,454.05 901.839,456.073L878.71,502.332L835.222,514.292L835.034,513.874Z" style="fill:rgb(245,0,87);fill-rule:nonzero;"/>
    </g>
    <g transform="matrix(0.675719,0,0,0.675719,-29.5259,3.54351)">
        <path d="M885.651,483.434C884.373,482.862 883.406,481.76 883.005,480.419L876.081,457.256C875.252,455.482 874.822,453.548 874.822,451.59C874.822,444.251 880.861,438.212 888.199,438.212C893.352,438.212 898.066,441.19 900.279,445.843L913.67,466.066C914.192,466.854 914.47,467.779 914.47,468.725C914.47,470.591 913.386,472.296 911.695,473.087L889.662,483.401C888.394,483.995 886.928,484.007 885.651,483.434Z" style="fill:rgb(245,0,87);fill-rule:nonzero;"/>
    </g>
    <g transform="matrix(0.675719,0,0,0.675719,89.3047,99.7544)">
        <path d="M687.147,602.955L674.887,602.954L669.055,555.666L687.149,555.667L687.147,602.955Z" style="fill:rgb(255,184,184);fill-rule:nonzero;"/>
    </g>
    <g transform="matrix(0.675719,0,0,0.675719,89.3047,99.7544)">
        <path d="M666.13,599.451L689.774,599.451L689.774,614.338L651.243,614.338C651.243,614.338 651.243,614.338 651.243,614.338C651.243,606.172 657.963,599.451 666.13,599.451Z" style="fill:rgb(47,46,65);fill-rule:nonzero;"/>
    </g>
    <g transform="matrix(0.675719,0,0,0.675719,-29.5259,3.54351)">
        <path d="M857.81,727.286L838.182,725.021C835.763,724.742 833.917,722.67 833.917,720.235C833.917,720.023 833.931,719.812 833.959,719.601L851.477,587.702C851.538,587.242 851.513,586.775 851.404,586.325L833.796,513.68C833.46,512.325 833.735,510.888 834.55,509.754C837.281,505.99 846.636,497.217 874.464,497.051L874.495,497.051C876.384,497.051 878.107,498.159 878.892,499.878L882.604,508.044C882.88,508.65 883.313,509.172 883.857,509.556C888.966,513.173 913.719,533.474 899.185,578.045C884.9,621.852 866.597,706.9 863.073,723.504C862.612,725.72 860.639,727.321 858.376,727.318C858.187,727.318 857.998,727.307 857.81,727.286Z" style="fill:rgb(47,46,65);fill-rule:nonzero;"/>
    </g>
    <g transform="matrix(0.675719,0,0,0.675719,-29.5259,3.54351)">
        <path d="M895.777,387.173C890.165,391.041 883.502,393.1 876.686,393.073C879.117,394.759 881.886,395.898 884.8,396.411C875.737,398.355 866.37,398.408 857.286,396.566C855.266,396.242 853.318,395.573 851.526,394.587C849.721,393.579 848.427,391.849 847.971,389.833C847.367,386.384 850.054,383.251 852.847,381.14C861.499,374.697 872.607,372.477 883.071,375.1C886.447,375.973 889.83,377.447 892.023,380.159C894.216,382.87 894.865,387.05 892.776,389.842L895.777,387.173Z" style="fill:rgb(47,46,65);fill-rule:nonzero;"/>
    </g>
    <g transform="matrix(0.675719,0,0,0.675719,-29.5259,3.54351)">
        <path d="M879.378,370.088C876.572,369.154 873.685,368.174 871.462,366.225C869.239,364.275 867.827,361.086 868.827,358.303C869.79,355.621 872.723,354.055 875.564,353.844C878.406,353.633 881.202,354.513 883.915,355.382C882.688,353.527 881.421,349.933 880.311,346.141C877.779,337.489 888.331,329.588 897.322,330.24C897.587,330.259 897.843,330.287 898.091,330.323C907.157,331.646 911.86,335.104 918.192,341.726C926.113,350.01 930.255,361.187 933.03,372.308C935.804,383.428 937.433,394.872 941.334,405.649C945.236,416.426 951.817,426.785 961.88,432.271C973.099,438.184 986.732,437.344 997.14,430.098C997.356,431.565 997.464,433.046 997.464,434.529C997.464,451.229 983.722,464.971 967.022,464.971C965.396,464.971 963.773,464.841 962.168,464.582C949.176,462.483 938.769,452.019 933.21,440.091C927.651,428.162 926.133,414.81 924.738,401.724C923.344,388.637 921.931,375.29 916.553,363.278C914.377,358.417 911.173,353.469 905.446,352.694C902.382,352.194 899.34,353.824 898.059,356.652C895.542,362.746 904.156,367.907 901.948,373.714C900.974,376.005 898.745,377.527 896.256,377.601C892.093,377.875 888.672,375.488 885.45,373.185C878.859,368.472 879.378,370.088 879.378,370.088Z" style="fill:rgb(47,46,65);fill-rule:nonzero;"/>
    </g>
    <g transform="matrix(0.675719,0,0,0.675719,-29.5259,3.54351)">
        <path d="M1023.14,757.617L793.142,757.617C792.593,757.617 792.142,757.166 792.142,756.617C792.142,756.068 792.593,755.617 793.142,755.617L1023.14,755.617C1023.69,755.617 1024.14,756.068 1024.14,756.617C1024.14,757.166 1023.69,757.617 1023.14,757.617Z" style="fill:rgb(63,61,86);fill-rule:nonzero;"/>
    </g>
</svg>
