<?xml version="1.0" encoding="UTF-8" standalone="no"?>
<!DOCTYPE svg PUBLIC "-//W3C//DTD SVG 1.1//EN" "http://www.w3.org/Graphics/SVG/1.1/DTD/svg11.dtd">
<svg width="100%" height="100%" viewBox="0 0 940 828" version="1.1" xmlns="http://www.w3.org/2000/svg" xmlns:xlink="http://www.w3.org/1999/xlink" xml:space="preserve" xmlns:serif="http://www.serif.com/" style="fill-rule:evenodd;clip-rule:evenodd;stroke-linejoin:round;stroke-miterlimit:2;">
    <g transform="matrix(0.737417,0,0,0.731954,26.2937,24.2359)">
        <path d="M944.74,-33.111C1236.7,-33.111 1237.75,204.414 1237.75,496.372C1237.75,788.329 867.954,1097.42 575.996,1097.42C284.039,1097.42 -35.657,1067.97 -35.657,776.017C-35.657,484.06 652.782,-33.111 944.74,-33.111Z" style="fill:white;"/>
    </g>
    <g transform="matrix(1,0,0,1,-130.483,-36.25)">
        <path d="M601.663,863.271C601.434,862.896 596.023,853.861 594.147,835.1C592.426,817.887 593.532,788.873 608.579,748.401C637.085,671.73 602.01,609.868 601.651,609.252L603.382,608.248C603.473,608.404 612.524,624.177 617.87,649.292C624.934,682.586 622.361,717.214 610.454,749.099C581.997,825.639 603.153,861.872 603.37,862.229L601.663,863.271Z" style="fill:rgb(63,61,86);fill-rule:nonzero;"/>
    </g>
    <circle cx="460.033" cy="555.5" r="13" style="fill:rgb(245,0,87);"/>
    <circle cx="501.033" cy="603.5" r="13" style="fill:rgb(63,61,86);"/>
    <circle cx="473.033" cy="635.5" r="13" style="fill:rgb(245,0,87);"/>
    <circle cx="507.033" cy="662.5" r="13" style="fill:rgb(245,0,87);"/>
    <circle cx="463.033" cy="704.5" r="13" style="fill:rgb(63,61,86);"/>
    <g transform="matrix(1,0,0,1,-130.483,-36.25)">
        <path d="M609.517,863.75C609.517,863.75 596.517,831.75 635.517,807.75L609.517,863.75Z" style="fill:rgb(63,61,86);fill-rule:nonzero;"/>
    </g>
    <g transform="matrix(1,0,0,1,-130.483,-36.25)">
        <path d="M593.529,863.17C593.529,863.17 587.612,829.14 541.82,829.432L593.529,863.17Z" style="fill:rgb(63,61,86);fill-rule:nonzero;"/>
    </g>
    <rect x="163.033" y="457.54" width="2" height="250.92" style="fill:rgb(63,61,86);"/>
    <rect x="224.033" y="418.93" width="2" height="328.14" style="fill:rgb(63,61,86);"/>
    <rect x="285.033" y="408" width="2" height="350" style="fill:rgb(63,61,86);"/>
    <rect x="346.033" y="418.93" width="2" height="328.14" style="fill:rgb(63,61,86);"/>
    <rect x="407.033" y="457.54" width="2" height="250.92" style="fill:rgb(63,61,86);"/>
    <rect x="131.933" y="499" width="308.2" height="2" style="fill:rgb(63,61,86);"/>
    <rect x="111.033" y="582" width="350" height="2" style="fill:rgb(63,61,86);"/>
    <rect x="131.933" y="665" width="308.2" height="2" style="fill:rgb(63,61,86);"/>
    <circle cx="764.033" cy="326" r="175" style="fill:rgb(245,0,87);"/>
    <rect x="466.033" y="291.54" width="2" height="250.92" style="fill:rgb(63,61,86);"/>
    <rect x="527.033" y="252.93" width="2" height="328.14" style="fill:rgb(63,61,86);"/>
    <rect x="588.033" y="242" width="2" height="350" style="fill:rgb(63,61,86);"/>
    <rect x="649.033" y="252.93" width="2" height="328.14" style="fill:rgb(63,61,86);"/>
    <rect x="710.033" y="291.54" width="2" height="250.92" style="fill:rgb(63,61,86);"/>
    <rect x="434.933" y="333" width="308.2" height="2" style="fill:rgb(63,61,86);"/>
    <rect x="414.033" y="416" width="350" height="2" style="fill:rgb(63,61,86);"/>
    <rect x="434.933" y="499" width="308.2" height="2" style="fill:rgb(63,61,86);"/>
    <g transform="matrix(1,0,0,1,-130.483,-36.25)">
        <path d="M854.782,69.328L854.782,69.328C806.643,69.328 767.618,112.637 767.618,166.061L767.618,233.937L788.494,233.937L800.579,208.789L797.558,233.937L931.738,233.937L942.725,211.075L939.978,233.937L955.086,233.937L955.086,180.642C955.086,119.165 910.178,69.328 854.782,69.328Z" style="fill:rgb(47,46,65);fill-rule:nonzero;"/>
    </g>
    <g transform="matrix(1,0,0,1,-130.483,-36.25)">
        <path d="M812.708,191.323C812.708,191.323 839.914,254.804 803.64,267.5L839.914,387.206L901.581,383.578L917.904,343.676L914.277,283.823L908.836,243.921C908.836,243.921 870.747,252.99 874.375,185.882L812.708,191.323Z" style="fill:rgb(255,184,184);fill-rule:nonzero;"/>
    </g>
    <g transform="matrix(1,0,0,1,-130.483,-36.25)">
        <path d="M798.198,265.686C798.198,265.686 738.345,260.245 743.787,303.774C749.228,347.304 754.669,356.372 754.669,356.372L760.11,421.666L727.463,441.617L696.63,441.617C696.63,441.617 602.316,463.382 649.473,486.961C696.63,510.539 712.953,468.823 712.953,468.823C712.953,468.823 800.012,468.823 805.453,454.314C810.895,439.804 798.198,265.686 798.198,265.686Z" style="fill:rgb(255,184,184);fill-rule:nonzero;"/>
    </g>
    <g transform="matrix(1,0,0,1,-130.483,-36.25)">
        <path d="M914.277,247.549C914.277,247.549 970.502,227.598 974.13,271.127C977.757,314.657 977.757,318.284 977.757,318.284L988.639,379.951C988.639,379.951 1010.4,434.363 1010.4,450.686C1010.4,467.01 1026.73,517.794 1026.73,517.794C1026.73,517.794 1048.49,588.529 1024.91,586.715C1001.34,584.902 997.708,510.539 997.708,510.539L948.738,412.598L934.228,352.745L914.277,247.549Z" style="fill:rgb(255,184,184);fill-rule:nonzero;"/>
    </g>
    <g transform="matrix(1,0,0,1,-130.483,-36.25)">
        <path d="M807.267,258.431L792.757,258.431L790.944,334.608C790.944,334.608 767.365,367.255 796.385,396.274L803.64,443.431L936.041,437.99L945.11,389.019C945.11,389.019 963.247,349.118 937.855,312.843L914.277,238.48L901.581,238.48C901.581,238.48 930.986,346.901 868.934,349.118C818.149,350.931 807.267,258.431 807.267,258.431Z" style="fill:white;fill-rule:nonzero;"/>
    </g>
    <g transform="matrix(1,0,0,1,-130.483,-36.25)">
        <path d="M1017.89,708.83C976.994,754.836 927.195,792.078 871.507,818.3C871.487,727.54 872.557,653.82 872.557,653.82C872.557,653.82 864.857,731.72 855.077,825.63C799.207,849.216 739.161,861.33 678.517,861.25C677.437,861.25 676.357,861.25 675.277,861.23C725.177,681.93 797.967,476.43 799.977,470.76C799.992,470.721 800.005,470.681 800.017,470.64L804.407,456L806.277,449.77L808.237,443.24L810.897,434.36L928.787,430.74L932.087,438.15L943.297,463.38C944.275,463.663 945.203,464.099 946.047,464.67C967.267,478.6 994.017,584.92 1017.89,708.83Z" style="fill:rgb(47,46,65);fill-rule:nonzero;"/>
    </g>
    <g transform="matrix(1,0,0,1,-130.483,-36.25)">
        <path d="M941.483,416.225L798.198,421.666C798.198,421.666 791.659,470.637 798.198,470.637C800.012,470.637 948.738,483.333 946.924,461.568C945.11,439.804 941.483,416.225 941.483,416.225Z" style="fill:rgb(63,61,86);fill-rule:nonzero;"/>
    </g>
    <circle cx="710.257" cy="124.885" r="50.962" style="fill:rgb(255,184,184);"/>
    <g transform="matrix(1,0,0,1,-130.483,-36.25)">
        <path d="M879.562,95.975C870.81,84.706 857.902,77.568 843.492,77.568L841.781,77.568C808.786,77.568 782.039,107.425 782.039,144.255L782.039,144.255L793.094,144.255L794.88,130.665L797.498,144.255L863.069,144.255L868.562,132.757L867.189,144.255L880.088,144.255C886.108,174.149 877.459,204.043 854.142,233.937L876.116,233.937L887.103,210.942L884.356,233.937L926.244,233.937L934.485,181.048C934.485,141.438 911.471,107.85 879.562,95.975Z" style="fill:rgb(47,46,65);fill-rule:nonzero;"/>
    </g>
    <circle cx="761.122" cy="32.647" r="32.647" style="fill:rgb(47,46,65);"/>
    <circle cx="522.62" cy="416.88" r="16.414" style="fill:rgb(245,0,87);"/>
    <path d="M522.62,416.88L164.803,416.88L164.803,272.44L462.437,272.44L522.62,416.88Z" style="fill:rgb(239,239,239);fill-rule:nonzero;"/>
    <g transform="matrix(1,0,0,1,-130.483,-36.25)">
        <path d="M654.738,454.224L251.517,454.224L251.517,276.957L581.616,276.957L581.895,277.634L654.738,454.224ZM253.705,452.035L651.468,452.035L580.151,279.145L253.705,279.145L253.705,452.035Z" style="fill:rgb(63,61,86);fill-rule:nonzero;"/>
    </g>
    <rect x="223.892" y="295.419" width="178.361" height="16.414" style="fill:rgb(63,61,86);"/>
    <rect x="223.892" y="329.34" width="178.361" height="16.414" style="fill:rgb(63,61,86);"/>
    <rect x="223.892" y="363.262" width="178.361" height="16.414" style="fill:rgb(63,61,86);"/>
    <g transform="matrix(1,0,0,1,-130.483,-36.25)">
        <path d="M142.483,622.596C135.9,622.596 130.483,617.179 130.483,610.596C130.483,604.013 135.9,598.596 142.483,598.596C149.066,598.596 154.483,604.013 154.483,610.596C154.476,617.176 149.063,622.589 142.483,622.596ZM142.483,600.596C136.997,600.596 132.483,605.11 132.483,610.596C132.483,616.082 136.997,620.596 142.483,620.596C147.969,620.596 152.483,616.082 152.483,610.596C152.477,605.113 147.967,600.602 142.483,600.596Z" style="fill:rgb(47,46,65);fill-rule:nonzero;"/>
    </g>
    <g transform="matrix(1,0,0,1,-130.483,-36.25)">
        <path d="M564.311,170.886L544.57,170.886L544.57,151.145L564.311,151.145L564.311,170.886ZM546.088,169.367L562.792,169.367L562.792,152.663L546.088,152.663L546.088,169.367Z" style="fill:rgb(63,61,86);fill-rule:nonzero;"/>
    </g>
    <g transform="matrix(1,0,0,1,-130.483,-36.25)">
        <path d="M190.955,174.966L177.49,160.53L191.926,147.065L205.391,161.501L190.955,174.966ZM179.636,160.605L191.03,172.82L203.245,161.426L191.851,149.211L179.636,160.605Z" style="fill:rgb(47,46,65);fill-rule:nonzero;"/>
    </g>
</svg>
