<?xml version="1.0" encoding="UTF-8" standalone="no"?>
<!DOCTYPE svg PUBLIC "-//W3C//DTD SVG 1.1//EN" "http://www.w3.org/Graphics/SVG/1.1/DTD/svg11.dtd">
<svg width="100%" height="100%" viewBox="0 0 930 819" version="1.1" xmlns="http://www.w3.org/2000/svg" xmlns:xlink="http://www.w3.org/1999/xlink" xml:space="preserve" xmlns:serif="http://www.serif.com/" style="fill-rule:evenodd;clip-rule:evenodd;stroke-linejoin:round;stroke-miterlimit:2;">
    <g transform="matrix(-0.999998,0.00187842,-0.00187842,-0.999998,1066.33,650.226)">
        <path d="M422.79,72.67C454.31,44.58 503.79,38.86 548.79,41.1C690.23,48.1 817.9,116.41 928.34,193.64C968.34,221.64 1007.68,251.73 1033.63,290.24C1086.46,368.62 1070.79,477.24 997.33,541.77C972.33,563.77 942.04,580.58 910.93,595.51C855.63,622.06 795.93,643.37 733.19,649.43C688.43,653.76 643.11,650.24 598.61,644.21C474.29,627.35 352.26,590.06 250,526.27C205.14,498.27 162.85,463.51 144.36,418.27C125.87,373.03 137.71,315.65 183.51,288.86C202.51,277.78 225.11,272.78 247.29,268.08C279.93,261.16 313.1,254.34 342.56,240.28C373,225.74 409,197.65 403,165.51C396.5,131 391.31,100.72 422.79,72.67Z" style="fill:rgb(28,0,87);fill-opacity:0.1;fill-rule:nonzero;"/>
    </g>
    <g transform="matrix(1.30063,0,0,1.30063,-73.4437,221.791)">
        <ellipse cx="485.487" cy="334.93" rx="56" ry="9.333" style="fill:rgb(242,242,242);"/>
    </g>
    <g transform="matrix(1.30063,0,0,1.30063,-328.367,-90.4056)">
        <path d="M676.639,570.765C684.377,551.789 688.321,531.479 688.248,510.986C688.23,490.486 684.349,470.171 676.81,451.107C672.565,440.421 667.128,430.247 660.601,420.78C659.689,419.457 661.847,418.21 662.752,419.522C674.51,436.711 682.771,456.046 687.064,476.423C691.395,496.69 691.89,517.589 688.521,538.038C686.628,549.489 683.448,560.689 679.041,571.427C678.44,572.889 676.028,572.249 676.639,570.765Z" style="fill:rgb(204,204,204);fill-rule:nonzero;"/>
    </g>
    <g transform="matrix(1.30063,0,0,1.30063,-328.367,-90.4056)">
        <path d="M686.981,479.762C690.378,476.081 691.304,470.956 691.278,466.101C691.246,460.335 689.828,454.69 689.557,448.94C689.314,443.796 690.094,438.592 693.1,434.292C695.687,430.59 699.767,427.741 704.45,428.003C714.438,428.563 719.088,440.05 720.529,448.438C724.529,470.844 711.832,493.12 690.515,501.096C689.015,501.667 688.367,499.26 689.852,498.693C708.613,491.548 720.407,472.647 718.581,452.656C718.274,447.848 717.015,443.148 714.878,438.83C712.962,435.207 709.981,431.609 705.796,430.681C701.673,429.767 697.806,432.054 695.422,435.309C692.417,439.412 691.791,444.372 692.069,449.334C692.663,459.94 696.956,472.623 688.742,481.524C687.652,482.705 685.894,480.94 686.981,479.762L686.981,479.762Z" style="fill:rgb(204,204,204);fill-rule:nonzero;"/>
    </g>
    <g transform="matrix(1.30063,0,0,1.30063,-328.367,-90.4056)">
        <path d="M685.039,525.382C676.592,519.87 675.749,509.089 674.684,500.01C674.081,494.87 673.207,489.406 670.053,485.143C667.458,481.637 663.061,478.625 658.506,479.44C654.49,480.159 651.775,483.475 650.298,487.08C648.746,491.259 648.148,495.732 648.547,500.172C649.166,510.282 653.124,519.906 659.796,527.527C663.069,531.403 666.925,534.746 671.226,537.435C675.638,540.084 680.564,541.762 685.675,542.359C687.248,542.545 687.267,545.039 685.675,544.85C680.826,544.313 676.119,542.877 671.795,540.618C667.578,538.317 663.745,535.373 660.433,531.894C652.865,524.325 647.948,514.505 646.421,503.911C645.658,499.085 645.829,494.157 646.924,489.396C647.988,485.248 650.114,481.088 653.783,478.684C657.797,476.212 662.899,476.282 666.842,478.863C671.316,481.586 674.135,486.114 675.564,491.061C677.318,497.132 677.195,503.523 678.489,509.678C679.575,514.846 681.698,520.23 686.296,523.23C687.634,524.103 686.387,526.261 685.039,525.382L685.039,525.382Z" style="fill:rgb(204,204,204);fill-rule:nonzero;"/>
    </g>
    <g transform="matrix(1.30063,0,0,1.30063,-328.367,-90.4056)">
        <path d="M605.504,381.336C605.504,358.296 624.463,339.336 647.504,339.336C670.544,339.336 689.504,358.296 689.504,381.336C689.504,404.377 670.544,423.336 647.504,423.336C624.473,423.31 605.53,404.367 605.504,381.336ZM607.504,381.336C607.504,403.28 625.561,421.336 647.504,421.336C669.447,421.336 687.504,403.28 687.504,381.336C687.504,359.393 669.447,341.336 647.504,341.336C625.57,341.361 607.529,359.402 607.504,381.336Z" style="fill:rgb(63,61,86);fill-rule:nonzero;"/>
    </g>
    <g transform="matrix(1.30063,0,0,1.30063,-328.367,-90.4056)">
        <path d="M623.504,369.834L618.504,368.834C618.504,368.834 622.704,373.534 623.504,373.834C623.579,374.833 623.579,375.835 623.504,376.834C633.104,418.034 668.504,399.834 668.504,399.834C655.604,400.134 654.504,394.834 654.504,394.834C662.004,393.734 663.504,388.834 663.504,388.834C662.118,389.565 660.383,389.132 659.504,387.834C667.604,385.734 666.504,377.834 666.504,377.834C665.06,378.876 663.373,379.531 661.604,379.734C662.504,378.634 670.104,369.534 665.504,364.834C665.504,364.834 659.904,374.834 645.204,375.734L644.204,375.534C644.374,374.814 644.441,374.073 644.404,373.334C644.404,367.574 639.664,362.834 633.904,362.834C626.904,362.834 625.404,366.834 625.404,366.834L620.404,363.834C620.504,363.834 621.004,368.834 623.504,369.834Z" style="fill:rgb(245,0,87);fill-rule:nonzero;"/>
    </g>
    <g transform="matrix(1.30063,0,0,1.30063,-73.4437,221.791)">
        <ellipse cx="665.487" cy="355.93" rx="42" ry="7" style="fill:rgb(242,242,242);"/>
    </g>
    <g transform="matrix(1.30063,0,0,1.30063,-328.367,-90.4056)">
        <path d="M862.626,588.794C856.531,573.846 853.42,557.848 853.469,541.705C853.483,525.555 856.538,509.551 862.476,494.532C865.823,486.116 870.108,478.104 875.25,470.648C876.347,469.054 873.748,467.553 872.659,469.134C863.361,482.736 856.821,498.03 853.409,514.149C849.969,530.204 849.56,546.761 852.202,562.966C853.696,572.098 856.223,581.03 859.733,589.592C860.457,591.353 863.36,590.582 862.626,588.794L862.626,588.794Z" style="fill:rgb(204,204,204);fill-rule:nonzero;"/>
    </g>
    <g transform="matrix(1.30063,0,0,1.30063,-328.367,-90.4056)">
        <path d="M854.32,516.642C848.194,509.926 852.356,499.501 852.467,491.599C852.675,487.591 851.533,483.627 849.223,480.345C847.066,477.482 843.784,475.355 840.081,475.588C831.984,476.097 828.142,485.201 826.95,492.068C823.69,510.063 833.888,527.979 851.025,534.364C852.829,535.056 853.61,532.157 851.822,531.472C837.25,525.897 828.089,511.213 829.487,495.674C829.718,491.883 830.716,488.179 832.421,484.785C833.905,482.032 836.215,479.241 839.461,478.663C842.681,478.09 845.559,480.13 847.243,482.724C849.388,486.027 849.657,489.883 849.367,493.722C848.734,502.096 845.809,511.757 852.198,518.763C853.502,520.193 855.619,518.066 854.32,516.642L854.32,516.642Z" style="fill:rgb(204,204,204);fill-rule:nonzero;"/>
    </g>
    <g transform="matrix(1.30063,0,0,1.30063,-328.367,-90.4056)">
        <path d="M855.75,553.507C862.17,549.268 863.259,541.336 864.043,534.296C864.501,530.186 864.991,525.758 867.301,522.21C869.136,519.391 872.392,516.846 875.933,517.198C883.007,517.901 884.11,527.54 883.823,532.992C883.373,540.88 880.307,548.398 875.112,554.351C869.814,560.434 863.142,564.983 854.987,565.965C853.094,566.193 853.071,569.196 854.987,568.965C871.273,567.004 884.233,552.394 886.477,536.465C887.455,529.518 887.017,520.163 880.57,515.786C877.42,513.769 873.394,513.674 870.152,515.54C866.588,517.609 863.943,520.961 862.758,524.908C861.138,529.784 861.245,534.983 860.276,539.986C859.475,544.117 857.901,548.497 854.236,550.917C852.632,551.976 854.133,554.575 855.75,553.507L855.75,553.507Z" style="fill:rgb(204,204,204);fill-rule:nonzero;"/>
    </g>
    <g transform="matrix(1.30063,0,0,1.30063,-328.367,-90.4056)">
        <path d="M882.47,470.67C859.429,470.67 840.47,451.71 840.47,428.67C840.47,405.629 859.429,386.67 882.47,386.67C905.51,386.67 924.47,405.629 924.47,428.67C924.444,451.7 905.5,470.644 882.47,470.67ZM882.47,388.67C860.526,388.67 842.47,406.726 842.47,428.67C842.47,450.613 860.526,468.67 882.47,468.67C904.413,468.67 922.47,450.613 922.47,428.67C922.445,406.736 904.404,388.695 882.47,388.67Z" style="fill:rgb(63,61,86);fill-rule:nonzero;"/>
    </g>
    <g transform="matrix(1.30063,0,0,1.30063,-328.367,-90.4056)">
        <path d="M909.926,428.835C909.923,413.774 897.53,401.383 882.47,401.383C867.408,401.383 855.014,413.778 855.014,428.84C855.014,442.289 864.896,453.857 878.18,455.959L878.18,436.774L871.207,436.774L871.207,428.835L878.18,428.835L878.18,422.784C878.18,415.904 882.28,412.101 888.551,412.101C890.61,412.13 892.664,412.309 894.698,412.638L894.698,419.395L891.234,419.395C887.825,419.395 886.759,421.511 886.759,423.685L886.759,428.836L894.373,428.836L893.157,436.775L886.759,436.775L886.759,455.961C900.044,453.857 909.926,442.286 909.926,428.835L909.926,428.835Z" style="fill:rgb(245,0,87);"/>
    </g>
    <g transform="matrix(1.30063,0,0,1.30063,-73.4437,221.791)">
        <ellipse cx="160.487" cy="355.93" rx="42" ry="7" style="fill:rgb(242,242,242);"/>
    </g>
    <g transform="matrix(1.30063,0,0,1.30063,-328.367,-90.4056)">
        <path d="M355.241,592.592C361.444,577.323 364.591,560.985 364.504,544.505C364.477,528.085 361.36,511.817 355.317,496.55C351.908,487.951 347.547,479.761 342.314,472.134C341.226,470.554 338.625,472.053 339.724,473.648C348.844,486.974 355.266,501.958 358.63,517.752C362.044,533.537 362.435,549.828 359.781,565.758C358.276,574.686 355.783,583.418 352.348,591.794C351.615,593.579 354.516,594.356 355.241,592.592L355.241,592.592Z" style="fill:rgb(204,204,204);fill-rule:nonzero;"/>
    </g>
    <g transform="matrix(1.30063,0,0,1.30063,-328.367,-90.4056)">
        <path d="M362.775,521.763C368.191,515.825 366.95,507.543 365.992,500.268C365.463,496.255 364.994,491.919 366.511,488.057C367.654,485.147 370.026,482.264 373.242,481.669C376.485,481.069 379.365,483.135 381.2,485.626C383.248,488.627 384.579,492.057 385.093,495.653C388.033,512.117 378.773,528.5 363.151,534.471C361.367,535.156 362.142,538.057 363.949,537.364C371.407,534.515 377.809,529.435 382.279,522.819C387.086,515.577 389.265,506.899 388.448,498.244C387.77,491.091 385.045,481.701 377.447,479.072C369.662,476.379 363.576,484.2 362.698,491.11C362.016,496.485 363.446,501.755 363.817,507.091C364.12,511.44 363.727,516.272 360.654,519.642C359.355,521.066 361.471,523.193 362.775,521.763Z" style="fill:rgb(204,204,204);fill-rule:nonzero;"/>
    </g>
    <g transform="matrix(1.30063,0,0,1.30063,-328.367,-90.4056)">
        <path d="M360.738,553.917C353.488,549.13 354.551,538.556 353.056,531.129C352.227,527.015 350.538,523.02 347.275,520.251C344.389,517.802 340.477,516.383 336.748,517.644C329.351,520.146 327.769,529.43 328.161,536.197C328.687,544.801 332.058,552.991 337.74,559.472C343.611,566.212 351.016,570.885 359.987,571.965C361.899,572.195 361.883,569.193 359.987,568.965C345.114,567.174 333.429,553.247 331.419,538.867C330.834,535.293 330.963,531.638 331.798,528.114C332.566,525.237 334.067,522.184 336.87,520.819C340.087,519.253 343.631,520.779 345.99,523.144C348.866,526.027 349.913,529.988 350.508,533.906C351.724,541.923 351.64,551.499 359.224,556.507C360.839,557.574 362.344,554.977 360.738,553.917L360.738,553.917Z" style="fill:rgb(204,204,204);fill-rule:nonzero;"/>
    </g>
    <g transform="matrix(1.30063,0,0,1.30063,-328.367,-90.4056)">
        <path d="M337.258,472.918C314.218,472.918 295.258,453.958 295.258,430.918C295.258,407.877 314.218,388.918 337.258,388.918C360.299,388.918 379.258,407.877 379.258,430.918C379.232,453.948 360.289,472.892 337.258,472.918ZM337.258,390.918C315.315,390.918 297.258,408.974 297.258,430.918C297.258,452.861 315.315,470.918 337.258,470.918C359.202,470.918 377.258,452.861 377.258,430.918C377.234,408.984 359.192,390.942 337.258,390.918Z" style="fill:rgb(63,61,86);fill-rule:nonzero;"/>
    </g>
    <g transform="matrix(1.30063,0,0,1.30063,-328.367,-90.4056)">
        <path d="M348.698,410.14C354.483,410.158 359.239,414.913 359.256,420.699L359.256,441.814C359.239,447.599 354.483,452.355 348.698,452.372L327.583,452.372C321.797,452.355 317.042,447.599 317.025,441.814L317.025,420.699C317.042,414.913 321.797,410.158 327.583,410.141L348.698,410.141M348.698,405.918L327.583,405.918C319.483,405.941 312.825,412.599 312.802,420.699L312.802,441.814C312.825,449.913 319.483,456.571 327.583,456.595L348.698,456.595C356.798,456.571 363.455,449.914 363.479,441.814L363.479,420.699C363.455,412.599 356.798,405.941 348.698,405.918L348.698,405.918Z" style="fill:rgb(245,0,87);fill-rule:nonzero;"/>
    </g>
    <g transform="matrix(1.30063,0,0,1.30063,-328.367,-90.4056)">
        <path d="M351.865,420.699C350.134,420.695 348.711,419.27 348.711,417.538C348.711,415.805 350.138,414.378 351.872,414.378C353.606,414.378 355.032,415.805 355.032,417.538C355.032,419.27 353.61,420.695 351.879,420.699L351.865,420.699Z" style="fill:rgb(245,0,87);fill-rule:nonzero;"/>
    </g>
    <g transform="matrix(1.30063,0,0,1.30063,-328.367,-90.4056)">
        <path d="M338.14,422.81C342.774,422.81 346.587,426.623 346.587,431.256C346.587,435.89 342.774,439.703 338.14,439.703C333.507,439.703 329.694,435.89 329.694,431.256C329.694,431.256 329.694,431.256 329.694,431.256C329.694,426.623 333.507,422.81 338.14,422.81C338.14,422.81 338.14,422.81 338.14,422.81M338.14,418.587C338.14,418.587 338.14,418.587 338.14,418.587C331.19,418.587 325.471,424.306 325.471,431.256C325.471,438.207 331.19,443.926 338.14,443.926C345.091,443.926 350.81,438.207 350.81,431.256C350.81,431.256 350.81,431.256 350.81,431.256C350.81,424.306 345.091,418.587 338.14,418.587L338.14,418.587Z" style="fill:rgb(245,0,87);fill-rule:nonzero;"/>
    </g>
    <g transform="matrix(1.30063,0,0,1.30063,-73.4437,221.791)">
        <path d="M381.243,406.999L392.963,403.402L384.667,356.484L367.369,361.792L381.243,406.999Z" style="fill:rgb(255,184,184);fill-rule:nonzero;"/>
    </g>
    <g transform="matrix(1.30063,0,0,1.30063,-73.4437,221.791)">
        <path d="M281.245,407.269L293.504,407.268L299.337,359.98L281.242,359.981L281.245,407.269Z" style="fill:rgb(255,184,184);fill-rule:nonzero;"/>
    </g>
    <g transform="matrix(1.30063,0,0,1.30063,-328.367,-90.4056)">
        <path d="M476.365,510.226C474.382,508.488 473.243,505.974 473.243,503.337C473.243,500.554 474.51,497.918 476.683,496.181L486.188,376.486L505.519,381.316L490.042,498.074C491.117,499.619 491.694,501.457 491.694,503.339C491.694,508.392 487.536,512.551 482.482,512.551C480.228,512.551 478.051,511.723 476.365,510.226Z" style="fill:rgb(255,184,184);fill-rule:nonzero;"/>
    </g>
    <g transform="matrix(1.30063,0,0,1.30063,-73.4437,221.791)">
        <circle cx="319.076" cy="65.466" r="24.561" style="fill:rgb(255,184,184);"/>
    </g>
    <g transform="matrix(1.30063,0,0,1.30063,-328.367,-90.4056)">
        <path d="M493.719,372.805C488.177,365.196 488.007,354.718 493.976,347.44C497.872,342.691 504.389,338.891 515.269,338.891C544.269,338.891 555.269,361.891 555.269,361.891C555.269,361.891 567.269,383.891 560.269,403.891C553.269,423.891 553.269,425.891 553.269,425.891L507.269,421.891C507.269,421.891 515.029,402.059 493.719,372.805Z" style="fill:rgb(204,204,204);fill-rule:nonzero;"/>
    </g>
    <g transform="matrix(1.30063,0,0,1.30063,-328.367,-90.4056)">
        <path d="M479.534,392.713L489.444,360.292C491.431,353.793 497.472,349.323 504.268,349.323C506.741,349.323 509.177,349.914 511.374,351.047C518.597,354.788 521.72,363.603 518.462,371.057L505.864,399.748L479.534,392.713Z" style="fill:rgb(204,204,204);fill-rule:nonzero;"/>
    </g>
    <g transform="matrix(1.30063,0,0,1.30063,-328.367,-90.4056)">
        <path d="M552.269,420.891L591.269,622.891L570.269,628.891L519.269,495.891L496.269,631.891L474.269,634.891C474.269,634.891 464.619,454.946 507.269,421.891L552.269,420.891Z" style="fill:rgb(47,46,65);fill-rule:nonzero;"/>
    </g>
    <g transform="matrix(1.30063,0,0,1.30063,-328.367,-90.4056)">
        <path d="M557.365,435.55C550.674,435.553 544.671,431.312 542.44,425.003L531.178,393.669L548.662,385.36L558.259,414.656L607.152,412.286C607.413,411.871 607.703,411.474 608.02,411.099C610.108,408.648 613.172,407.234 616.393,407.234C619.114,407.234 621.74,408.243 623.761,410.066C628.006,413.982 628.534,420.586 624.964,425.127C622.878,427.722 619.722,429.233 616.392,429.233C613.778,429.233 611.248,428.302 609.258,426.606C608.984,426.372 608.723,426.123 608.476,425.861L560.484,435.246C559.456,435.448 558.412,435.549 557.365,435.55Z" style="fill:rgb(255,184,184);fill-rule:nonzero;"/>
    </g>
    <g transform="matrix(1.30063,0,0,1.30063,-328.367,-90.4056)">
        <path d="M524.872,364.795C524.801,364.194 524.766,363.589 524.766,362.984C524.766,354.48 531.763,347.483 540.267,347.483C540.589,347.483 540.912,347.493 541.234,347.513C549.352,348.034 555.755,354.85 555.769,362.985L555.769,394.32L528.833,398.464L524.872,364.795Z" style="fill:rgb(204,204,204);fill-rule:nonzero;"/>
    </g>
    <g transform="matrix(1.30063,0,0,1.30063,-328.367,-90.4056)">
        <path d="M520.477,330.285C516.791,330.269 513.947,326.388 514.113,322.705C514.278,319.022 516.751,315.782 519.731,313.612C522.711,311.442 526.206,310.12 529.529,308.525C532.852,306.929 536.147,304.939 538.198,301.877C540.712,297.812 541.094,292.769 539.222,288.372C537.313,284.036 534.033,280.443 529.889,278.148C517.188,270.713 500.704,274.33 492.281,286.398L488.073,297.856C483.786,303.012 483.105,310.67 485.741,316.836C488.377,323.002 493.989,327.642 500.322,329.847C506.747,331.912 513.627,332.118 520.163,330.442" style="fill:rgb(47,46,65);fill-rule:nonzero;"/>
    </g>
    <g transform="matrix(1.30063,0,0,1.30063,-328.367,-90.4056)">
        <path d="M498.031,292.125C496.222,289.225 493.086,287.381 489.845,286.299C487.219,285.422 484.468,284.975 481.699,284.975C468.114,284.975 456.751,295.737 456.013,309.302C455.669,315.616 457.646,321.791 458.808,328.007C459.97,334.223 460.201,341.089 456.774,346.403C454.163,350.451 449.81,353 445.513,355.176C441.931,356.989 438.058,358.692 434.06,358.33C430.062,357.969 426.043,354.802 426.149,350.789C424.811,353.666 423.907,356.727 423.468,359.869C423.186,363.025 423.964,366.431 426.244,368.631C429.557,371.83 434.806,371.596 439.359,370.906C449.216,369.412 459.198,366.61 466.985,360.385C474.772,354.161 479.94,343.911 477.889,334.154C477.032,330.079 475.019,326.358 473.392,322.525C471.765,318.691 470.495,314.498 471.242,310.401C472.137,306.13 474.884,302.471 478.735,300.419C482.583,298.418 486.989,297.75 491.258,298.52C494.057,298.979 497.552,299.692 499.212,297.392C500.108,295.908 500.072,294.032 499.118,292.584C498.16,291.178 496.941,289.969 495.526,289.024" style="fill:rgb(47,46,65);fill-rule:nonzero;"/>
    </g>
    <g transform="matrix(1.30063,0,0,1.30063,-73.4437,221.791)">
        <circle cx="541.388" cy="6.467" r="6.467" style="fill:rgb(242,242,242);"/>
    </g>
    <g transform="matrix(1.30063,0,0,1.30063,-73.4437,221.791)">
        <circle cx="541.388" cy="32.24" r="6.467" style="fill:rgb(242,242,242);"/>
    </g>
    <g transform="matrix(1.30063,0,0,1.30063,-73.4437,221.791)">
        <circle cx="541.388" cy="58.013" r="6.467" style="fill:rgb(242,242,242);"/>
    </g>
    <g transform="matrix(1.30063,0,0,1.30063,-73.4437,221.791)">
        <circle cx="541.388" cy="83.787" r="6.467" style="fill:rgb(242,242,242);"/>
    </g>
    <g transform="matrix(1.30063,0,0,1.30063,-73.4437,221.791)">
        <circle cx="568.388" cy="6.467" r="6.467" style="fill:rgb(242,242,242);"/>
    </g>
    <g transform="matrix(1.30063,0,0,1.30063,-73.4437,221.791)">
        <circle cx="568.388" cy="32.24" r="6.467" style="fill:rgb(242,242,242);"/>
    </g>
    <g transform="matrix(1.30063,0,0,1.30063,-73.4437,221.791)">
        <circle cx="568.388" cy="58.013" r="6.467" style="fill:rgb(242,242,242);"/>
    </g>
    <g transform="matrix(1.30063,0,0,1.30063,-73.4437,221.791)">
        <circle cx="568.388" cy="83.787" r="6.467" style="fill:rgb(242,242,242);"/>
    </g>
    <g transform="matrix(1.30063,0,0,1.30063,-73.4437,221.791)">
        <circle cx="595.388" cy="6.467" r="6.467" style="fill:rgb(242,242,242);"/>
    </g>
    <g transform="matrix(1.30063,0,0,1.30063,-73.4437,221.791)">
        <circle cx="595.388" cy="32.24" r="6.467" style="fill:rgb(242,242,242);"/>
    </g>
    <g transform="matrix(1.30063,0,0,1.30063,-73.4437,221.791)">
        <circle cx="595.388" cy="58.013" r="6.467" style="fill:rgb(242,242,242);"/>
    </g>
    <g transform="matrix(1.30063,0,0,1.30063,-73.4437,221.791)">
        <circle cx="595.388" cy="83.787" r="6.467" style="fill:rgb(242,242,242);"/>
    </g>
    <g transform="matrix(1.30063,0,0,1.30063,-73.4437,221.791)">
        <circle cx="622.388" cy="6.467" r="6.467" style="fill:rgb(242,242,242);"/>
    </g>
    <g transform="matrix(1.30063,0,0,1.30063,-73.4437,221.791)">
        <circle cx="622.388" cy="32.24" r="6.467" style="fill:rgb(242,242,242);"/>
    </g>
    <g transform="matrix(1.30063,0,0,1.30063,-73.4437,221.791)">
        <circle cx="622.388" cy="58.013" r="6.467" style="fill:rgb(242,242,242);"/>
    </g>
    <g transform="matrix(1.30063,0,0,1.30063,-73.4437,221.791)">
        <circle cx="622.388" cy="83.787" r="6.467" style="fill:rgb(242,242,242);"/>
    </g>
    <g transform="matrix(1.30063,0,0,1.30063,-73.4437,221.791)">
        <circle cx="649.388" cy="6.467" r="6.467" style="fill:rgb(242,242,242);"/>
    </g>
    <g transform="matrix(1.30063,0,0,1.30063,-73.4437,221.791)">
        <circle cx="649.388" cy="32.24" r="6.467" style="fill:rgb(242,242,242);"/>
    </g>
    <g transform="matrix(1.30063,0,0,1.30063,-73.4437,221.791)">
        <circle cx="649.388" cy="58.013" r="6.467" style="fill:rgb(242,242,242);"/>
    </g>
    <g transform="matrix(1.30063,0,0,1.30063,-73.4437,221.791)">
        <circle cx="649.388" cy="83.787" r="6.467" style="fill:rgb(242,242,242);"/>
    </g>
    <g transform="matrix(1.30063,0,0,1.30063,-73.4437,221.791)">
        <circle cx="676.388" cy="6.467" r="6.467" style="fill:rgb(242,242,242);"/>
    </g>
    <g transform="matrix(1.30063,0,0,1.30063,-73.4437,221.791)">
        <circle cx="676.388" cy="32.24" r="6.467" style="fill:rgb(242,242,242);"/>
    </g>
    <g transform="matrix(1.30063,0,0,1.30063,-73.4437,221.791)">
        <circle cx="676.388" cy="58.013" r="6.467" style="fill:rgb(242,242,242);"/>
    </g>
    <g transform="matrix(1.30063,0,0,1.30063,-73.4437,221.791)">
        <circle cx="676.388" cy="83.787" r="6.467" style="fill:rgb(242,242,242);"/>
    </g>
</svg>
