<?xml version="1.0" encoding="UTF-8" standalone="no"?>
<!DOCTYPE svg PUBLIC "-//W3C//DTD SVG 1.1//EN" "http://www.w3.org/Graphics/SVG/1.1/DTD/svg11.dtd">
<svg width="100%" height="100%" viewBox="0 0 930 819" version="1.1" xmlns="http://www.w3.org/2000/svg" xmlns:xlink="http://www.w3.org/1999/xlink" xml:space="preserve" xmlns:serif="http://www.serif.com/" style="fill-rule:evenodd;clip-rule:evenodd;stroke-linejoin:round;stroke-miterlimit:2;">
    <g transform="matrix(1.09319,0,0,1.09319,-64.1919,-67.0993)">
        <path d="M241.939,88.352C415.903,88.352 799.135,261.862 799.135,435.826C799.135,609.789 415.903,791.117 241.939,791.117C67.976,791.117 89.323,623.59 89.323,449.627C89.323,275.663 67.976,88.352 241.939,88.352Z" style="fill:rgb(255,77,95);fill-opacity:0.16;"/>
    </g>
    <g transform="matrix(0.736384,0,0,0.736384,28.0175,80.0321)">
        <path d="M1010.56,482.85C1002.44,506.784 992.348,530 980.38,552.26C979.72,553.48 979.05,554.7 978.38,555.92L978.38,309C979.05,306.96 979.72,304.93 980.38,302.89C1007.29,220.31 1027.28,143.85 1020.67,114.69C1022.61,122.03 1070.48,307.39 1010.56,482.85Z" style="fill:rgb(25,33,31);fill-opacity:0.54;fill-rule:nonzero;"/>
    </g>
    <g transform="matrix(0.736384,0,0,0.736384,28.0175,80.0321)">
        <path d="M974.38,234.31L342.83,234.31C342.829,234.31 342.829,234.31 342.828,234.31C339.538,234.31 336.83,237.018 336.83,240.308C336.83,240.309 336.83,240.309 336.83,240.31L336.83,590.31C336.83,590.311 336.83,590.311 336.83,590.312C336.83,593.602 339.538,596.31 342.828,596.31C342.829,596.31 342.829,596.31 342.83,596.31L974.38,596.31C974.381,596.31 974.381,596.31 974.382,596.31C977.672,596.31 980.38,593.602 980.38,590.312C980.38,590.311 980.38,590.311 980.38,590.31L980.38,240.31C980.38,240.309 980.38,240.309 980.38,240.308C980.38,237.018 977.672,234.31 974.382,234.31C974.381,234.31 974.381,234.31 974.38,234.31ZM978.38,590.31C978.38,590.31 978.38,590.311 978.38,590.311C978.38,592.505 976.575,594.31 974.381,594.31C974.381,594.31 974.38,594.31 974.38,594.31L342.83,594.31C342.83,594.31 342.829,594.31 342.829,594.31C340.635,594.31 338.83,592.505 338.83,590.311C338.83,590.311 338.83,590.31 338.83,590.31L338.83,240.31C338.83,240.31 338.83,240.309 338.83,240.309C338.83,238.115 340.635,236.31 342.829,236.31C342.829,236.31 342.83,236.31 342.83,236.31L974.38,236.31C974.38,236.31 974.381,236.31 974.381,236.31C976.575,236.31 978.38,238.115 978.38,240.309C978.38,240.309 978.38,240.31 978.38,240.31L978.38,590.31Z" style="fill:rgb(25,33,31);fill-rule:nonzero;"/>
    </g>
    <g transform="matrix(0.736384,0,0,0.736384,101.619,164.488)">
        <rect x="298.89" y="119.62" width="2" height="362" style="fill:rgb(25,33,31);"/>
    </g>
    <g transform="matrix(0.736384,0,0,0.736384,28.0175,80.0321)">
        <path d="M350.641,265.508C350.641,265.508 350.641,265.508 350.641,265.508C350.641,255.274 359.062,246.854 369.296,246.854C379.529,246.854 387.95,255.274 387.95,265.508C387.95,275.741 379.529,284.162 369.296,284.162C369.296,284.162 369.296,284.162 369.296,284.162C359.067,284.151 350.653,275.737 350.641,265.508Z" style="fill:rgb(245,0,87);fill-rule:nonzero;"/>
    </g>
    <g transform="matrix(0.736384,0,0,0.736384,28.0175,80.0321)">
        <path d="M350.641,338.508C350.641,338.508 350.641,338.508 350.641,338.508C350.641,328.274 359.062,319.854 369.296,319.854C379.529,319.854 387.95,328.274 387.95,338.508C387.95,348.741 379.529,357.162 369.296,357.162C369.296,357.162 369.296,357.162 369.296,357.162C359.067,357.151 350.653,348.737 350.641,338.508Z" style="fill:rgb(245,0,87);fill-rule:nonzero;"/>
    </g>
    <g transform="matrix(0.736384,0,0,0.736384,28.0175,80.0321)">
        <path d="M350.641,411.508C350.641,411.508 350.641,411.508 350.641,411.508C350.641,401.274 359.062,392.854 369.296,392.854C379.529,392.854 387.95,401.274 387.95,411.508C387.95,421.741 379.529,430.162 369.296,430.162C369.296,430.162 369.296,430.162 369.296,430.162C359.067,430.151 350.653,421.737 350.641,411.508Z" style="fill:rgb(245,0,87);fill-rule:nonzero;"/>
    </g>
    <g transform="matrix(0.736384,0,0,0.736384,28.0175,80.0321)">
        <path d="M361.935,263.668L367.456,263.668L367.456,258.147C367.456,258.146 367.456,258.144 367.456,258.143C367.456,257.134 368.286,256.303 369.296,256.303C370.305,256.303 371.136,257.134 371.136,258.143C371.136,258.144 371.136,258.146 371.136,258.147L371.136,263.668L376.656,263.668C377.666,263.668 378.496,264.498 378.496,265.508C378.496,266.517 377.666,267.348 376.656,267.348L371.136,267.348L371.136,272.868C371.133,273.876 370.304,274.704 369.296,274.704C368.288,274.704 367.458,273.876 367.456,272.868L367.456,267.348L361.935,267.348C360.926,267.348 360.095,266.517 360.095,265.508C360.095,264.498 360.926,263.668 361.935,263.668C361.935,263.668 361.935,263.668 361.935,263.668Z" style="fill:white;fill-rule:nonzero;"/>
    </g>
    <g transform="matrix(0.736384,0,0,0.736384,28.0175,80.0321)">
        <path d="M365.806,343.706L381.423,343.706C381.443,343.706 381.462,343.704 381.481,343.701L374.095,330.907C374.003,330.745 373.831,330.644 373.645,330.644C373.459,330.644 373.287,330.745 373.195,330.907L368.238,339.493L368,339.904L365.806,343.706Z" style="fill:white;fill-rule:nonzero;"/>
    </g>
    <g transform="matrix(0.736384,0,0,0.736384,101.619,164.488)">
        <path d="M265.856,229.016L271.188,229.016L268.57,225.214L268.288,224.803L268.05,225.214L265.856,229.016Z" style="fill-opacity:0.2;fill-rule:nonzero;"/>
    </g>
    <g transform="matrix(0.736384,0,0,0.736384,28.0175,80.0321)">
        <path d="M357.11,343.706L370.618,343.706L368,339.904L367.812,339.63L364.401,334.675C364.27,334.511 364.071,334.415 363.861,334.415C363.68,334.415 363.506,334.486 363.376,334.614C363.359,334.633 363.342,334.653 363.327,334.675L357.11,343.706Z" style="fill:white;fill-rule:nonzero;"/>
    </g>
    <g transform="matrix(0.736384,0,0,0.736384,101.619,164.488)">
        <circle cx="267.341" cy="216.934" r="2.314" style="fill:white;"/>
    </g>
    <g transform="matrix(0.56958,-0.466734,0.466734,0.56958,-49.8861,414.215)">
        <rect x="436.771" y="373.998" width="290.485" height="1.837" style="fill:rgb(25,33,31);"/>
    </g>
    <g transform="matrix(0.468301,-0.568292,0.568292,0.468301,-29.2772,511.418)">
        <rect x="581.096" y="229.841" width="1.837" height="291.069" style="fill:rgb(25,33,31);"/>
    </g>
    <g transform="matrix(0.736384,0,0,0.736384,28.0175,80.0321)">
        <path d="M691.032,279.588L472.415,279.588C468.89,279.592 465.99,282.492 465.986,286.018L465.986,463.299C465.99,466.825 468.89,469.725 472.415,469.729L691.032,469.729C694.558,469.725 697.458,466.825 697.462,463.299L697.462,286.018C697.458,282.492 694.558,279.592 691.032,279.588L691.032,279.588ZM472.415,467.892C469.897,467.889 467.826,465.818 467.823,463.299L467.823,286.018C467.826,283.5 469.897,281.428 472.415,281.425L691.032,281.425C693.55,281.428 695.622,283.5 695.625,286.018L695.625,463.299C695.622,465.818 693.55,467.889 691.032,467.892L472.415,467.892Z" style="fill:rgb(25,33,31);fill-rule:nonzero;"/>
    </g>
    <g transform="matrix(0.736384,0,0,0.736384,28.0175,80.0321)">
        <path d="M733.164,379.455C731.283,379.496 729.784,381.533 729.815,384.006C729.845,386.422 731.327,388.371 733.164,388.411L910.11,388.411C911.99,388.451 913.539,386.479 913.57,384.006C913.601,381.533 912.102,379.496 910.221,379.455C910.184,379.454 910.147,379.454 910.11,379.455L733.164,379.455Z" style="fill:rgb(25,33,31);fill-rule:nonzero;"/>
    </g>
    <g id="bfc1215b-6465-4563-8feb-7e589d2c97b6" transform="matrix(0.736384,0,0,0.736384,28.0175,80.0321)">
        <path d="M733.164,353.512C731.283,353.552 729.784,355.59 729.815,358.063C729.845,360.479 731.327,362.427 733.164,362.467L829.079,362.467C830.96,362.508 832.509,360.536 832.54,358.063C832.571,355.59 831.072,353.552 829.191,353.512C829.154,353.511 829.117,353.511 829.079,353.512L733.164,353.512Z" style="fill:rgb(245,0,87);fill-rule:nonzero;"/>
    </g>
    <g transform="matrix(0.736384,0,0,0.736384,28.0175,80.0321)">
        <path d="M733.164,406.634C731.283,406.675 729.784,408.712 729.815,411.185C729.845,413.601 731.327,415.55 733.164,415.59L910.11,415.59C911.99,415.63 913.539,413.658 913.57,411.185C913.601,408.712 912.102,406.675 910.221,406.634C910.184,406.633 910.147,406.633 910.11,406.634L733.164,406.634Z" style="fill:rgb(25,33,31);fill-rule:nonzero;"/>
    </g>
    <g transform="matrix(0.736384,0,0,0.736384,28.0175,80.0321)">
        <path d="M733.164,433.375C731.283,433.416 729.784,435.453 729.815,437.926C729.845,440.342 731.327,442.291 733.164,442.33L910.11,442.33C911.99,442.371 913.539,440.399 913.57,437.926C913.601,435.453 912.102,433.416 910.221,433.375C910.184,433.374 910.147,433.374 910.11,433.375L733.164,433.375Z" style="fill:rgb(25,33,31);fill-rule:nonzero;"/>
    </g>
    <g transform="matrix(0.736384,0,0,0.736384,28.0175,80.0321)">
        <path d="M733.164,460.554C731.283,460.595 729.784,462.632 729.815,465.105C729.845,467.521 731.327,469.47 733.164,469.509L910.11,469.509C911.99,469.55 913.539,467.578 913.57,465.105C913.601,462.632 912.102,460.595 910.221,460.554C910.184,460.553 910.147,460.553 910.11,460.554L733.164,460.554Z" style="fill:rgb(25,33,31);fill-rule:nonzero;"/>
    </g>
    <g transform="matrix(0.736384,0,0,0.736384,28.0175,80.0321)">
        <path d="M466.421,488.156C464.541,488.197 463.041,490.234 463.072,492.707C463.102,495.123 464.584,497.072 466.421,497.111L911.367,497.111C913.247,497.152 914.797,495.18 914.828,492.707C914.859,490.234 913.359,488.197 911.479,488.156C911.441,488.155 911.404,488.155 911.367,488.156L466.421,488.156Z" style="fill:rgb(25,33,31);fill-rule:nonzero;"/>
    </g>
    <g transform="matrix(0.736384,0,0,0.736384,28.0175,80.0321)">
        <path d="M466.421,515.335C464.541,515.376 463.041,517.413 463.072,519.886C463.102,522.302 464.584,524.251 466.421,524.29L911.367,524.29C913.247,524.331 914.797,522.359 914.828,519.886C914.859,517.413 913.359,515.376 911.479,515.335C911.441,515.334 911.404,515.334 911.367,515.335L466.421,515.335Z" style="fill:rgb(25,33,31);fill-rule:nonzero;"/>
    </g>
    <g transform="matrix(0.736384,0,0,0.736384,28.0175,80.0321)">
        <path d="M466.421,542.076C464.541,542.116 463.041,544.154 463.072,546.627C463.102,549.043 464.584,550.992 466.421,551.031L911.367,551.031C913.247,551.072 914.797,549.1 914.828,546.627C914.859,544.154 913.359,542.116 911.479,542.076C911.441,542.075 911.404,542.075 911.367,542.076L466.421,542.076Z" style="fill-opacity:0.52;fill-rule:nonzero;"/>
    </g>
    <g transform="matrix(0.977773,0,0,0.977773,-57.9007,-62.3494)">
        <path d="M279.498,746.22L252.603,745.375L213.95,584.31L148.021,742.09L117.912,741.144C146.536,618.281 175.335,493.154 197.111,458.435L257.578,475.939L279.498,746.22Z" style="fill:rgb(47,46,65);fill-rule:nonzero;"/>
    </g>
    <g transform="matrix(0.977773,0,0,0.977773,-57.9007,-62.3494)">
        <path d="M162.725,779.514L160.859,779.663C158.976,779.814 157.084,779.521 155.335,778.81L119.11,774.517C114.408,772.605 111.317,768.011 111.317,762.934C111.317,761.284 111.644,759.649 112.278,758.125L120.118,739.31L145.498,739.31L171.716,760.573C173.113,762.594 173.861,764.994 173.861,767.451C173.861,773.726 168.98,779.013 162.725,779.514Z" style="fill:rgb(47,46,65);fill-rule:nonzero;"/>
    </g>
    <g transform="matrix(0.977773,0,0,0.977773,-57.9007,-62.3494)">
        <path d="M295.725,779.514L293.859,779.663C291.976,779.814 290.084,779.521 288.335,778.81L252.11,774.517C247.408,772.605 244.317,768.011 244.317,762.934C244.317,761.284 244.644,759.649 245.278,758.125L253.118,739.31L278.498,739.31L304.716,760.573C306.113,762.594 306.861,764.994 306.861,767.451C306.861,773.726 301.98,779.013 295.725,779.514Z" style="fill:rgb(47,46,65);fill-rule:nonzero;"/>
    </g>
    <g transform="matrix(0.977773,0,0,0.977773,-57.9007,-62.3494)">
        <path d="M274.841,435.568L227.314,404.241L249.283,390.938L280.393,410.191L330.997,417.753L338.69,410.126C340.929,407.906 343.957,406.659 347.109,406.659C351.189,406.659 354.997,408.747 357.191,412.186C358.416,414.107 359.067,416.339 359.067,418.617C359.067,424.154 355.223,429.001 349.832,430.261L342.24,432.037L274.841,435.568Z" style="fill:rgb(160,97,106);fill-rule:nonzero;"/>
    </g>
    <g transform="matrix(0.977773,0,0,0.977773,-57.9007,-62.3494)">
        <path d="M227.557,412.826C222.249,401.843 213.011,392.836 200.459,385.494L225.129,360.758C237,367.451 247.417,378.16 257.099,390.901L227.557,412.826Z" style="fill:rgb(230,230,230);fill-rule:nonzero;"/>
    </g>
    <g transform="matrix(0.977773,0,0,0.977773,39.8277,49.7914)">
        <circle cx="126.63" cy="192.102" r="27.482" style="fill:rgb(160,97,106);"/>
    </g>
    <g transform="matrix(0.977773,0,0,0.977773,-57.9007,-62.3494)">
        <path d="M240.472,362.865L205.465,354.113C208.591,345.178 207.422,331.758 205.465,317.514L240.472,317.514C235.375,334.138 233.923,350.083 240.472,362.865Z" style="fill:rgb(160,97,106);fill-rule:nonzero;"/>
    </g>
    <g transform="matrix(0.977773,0,0,0.977773,-57.9007,-62.3494)">
        <path d="M259.567,482.208L193.928,467.187C186.988,418.817 185.511,368.333 206.26,350.93L238.881,354.908L263.47,386.447C265.37,388.884 267,391.519 268.331,394.308C273.618,405.382 272.617,418.332 266.543,428.995C257.312,445.199 254.492,462.827 259.567,482.208Z" style="fill:rgb(230,230,230);fill-rule:nonzero;"/>
    </g>
    <g transform="matrix(0.977773,0,0,0.977773,-57.9007,-62.3494)">
        <path d="M196.144,450.462L206.85,394.556L227.562,409.743L221.71,445.858L254.011,485.253L264.005,489.433C268.444,491.29 271.349,495.653 271.349,500.465C271.349,502.913 270.598,505.303 269.197,507.31C266.962,510.511 263.295,512.423 259.391,512.423C255.545,512.423 251.926,510.568 249.682,507.445L245.131,501.115L196.144,450.462Z" style="fill:rgb(160,97,106);fill-rule:nonzero;"/>
    </g>
    <g transform="matrix(0.977773,0,0,0.977773,-57.9007,-62.3494)">
        <path d="M236.623,383.471C232.125,394.809 231.74,407.705 234.824,421.916L199.918,420.479C196.817,407.209 197.658,392.293 200.493,376.543L236.623,383.471Z" style="fill:rgb(230,230,230);fill-rule:nonzero;"/>
    </g>
    <g transform="matrix(0.977773,0,0,0.977773,-57.9007,-62.3494)">
        <path d="M238.483,276.539C238.483,276.539 205.863,258.24 189.95,291.656C174.037,325.073 178.811,354.511 178.811,354.511L209.045,353.715L216.206,346.554L221.775,352.919L221.86,352.782C229.886,339.491 234.49,324.412 235.256,308.904C235.509,304.662 236.971,300.766 240.87,298.817C252.009,293.248 254.396,293.248 254.396,293.248C254.396,293.248 260.761,278.131 238.483,276.539Z" style="fill:rgb(47,46,65);fill-rule:nonzero;"/>
    </g>
    <g transform="matrix(0.736384,0,0,0.736384,28.0175,80.0321)">
        <path d="M376.796,403.508L361.903,403.508C360.902,403.486 360.021,404.191 359.823,405.172C359.804,405.282 359.795,405.394 359.795,405.506C359.795,406.604 360.698,407.508 361.796,407.508L366.227,407.508C366.813,407.508 367.296,407.99 367.296,408.577L367.296,417.401C367.273,418.402 367.978,419.283 368.96,419.48C369.07,419.499 369.182,419.509 369.294,419.509C370.392,419.509 371.295,418.606 371.296,417.508L371.296,408.577C371.296,407.99 371.778,407.508 372.365,407.508L376.689,407.508C377.689,407.53 378.571,406.825 378.768,405.844C378.787,405.733 378.796,405.621 378.796,405.509C378.796,404.412 377.893,403.508 376.796,403.508Z" style="fill:white;fill-rule:nonzero;"/>
    </g>
    <g transform="matrix(0.736384,0,0,0.736384,101.619,164.488)">
        <circle cx="276.846" cy="302.818" r="2" style="fill:white;"/>
    </g>
</svg>
