<?xml version="1.0" encoding="utf-8"?>
<!-- Generator: Adobe Illustrator 16.0.0, SVG Export Plug-In . SVG Version: 6.00 Build 0)  -->
<!DOCTYPE svg PUBLIC "-//W3C//DTD SVG 1.1//EN" "http://www.w3.org/Graphics/SVG/1.1/DTD/svg11.dtd">
<svg version="1.1" id="Layer_1" xmlns="http://www.w3.org/2000/svg" xmlns:xlink="http://www.w3.org/1999/xlink" x="0px" y="0px"
	 width="512px" height="170.95px" viewBox="0 170.09 512 170.95" enable-background="new 0 170.09 512 170.95" xml:space="preserve"
	>
<path fill="#FFFFFF" d="M493.8,180.15H17.83C7.96,180.15,0,188.11,0,197.97v115.67c0,10.24,7.96,18.2,17.83,18.2H493.8
	c9.86,0,17.83-7.96,17.83-17.82V197.97C511.62,188.11,503.66,180.15,493.8,180.15z M493.8,328.44H17.83
	c-7.96,0-14.41-6.45-14.41-14.41V197.97c0-7.96,6.45-14.41,14.41-14.41H493.8c7.96,0,14.41,6.45,14.41,14.41v115.67
	C508.21,321.99,501.76,328.44,493.8,328.44L493.8,328.44z"/>
<path fill="#FFFFFF" d="M114.16,255.24c0-12.14,9.86-18.2,10.62-18.58c-5.69-8.34-14.79-9.48-17.83-9.48
	c-7.59-0.76-14.79,4.55-18.58,4.55c-3.79,0-9.86-4.55-15.93-4.17c-7.96,0-15.55,4.93-19.72,12.14c-8.72,14.79-2.28,36.79,6.07,48.92
	c4.17,6.07,9.1,12.52,15.17,12.14c6.07-0.38,8.34-3.79,15.93-3.79c7.21,0,9.48,3.79,15.93,3.79c6.45,0,10.62-6.07,14.79-11.76
	c4.93-6.83,6.83-13.27,6.83-13.65C127.05,274.58,114.54,269.65,114.16,255.24L114.16,255.24z M102.02,219.21
	c3.41-4.17,5.69-9.86,4.93-15.55c-4.93,0.38-10.62,3.41-14.41,7.21c-3.03,3.41-5.69,9.48-4.93,14.79
	C93.3,226.42,98.61,223.38,102.02,219.21L102.02,219.21z"/>
<g>
	<path fill="#FFFFFF" d="M178.63,224.17c-0.26,2.73-1.27,4.86-3.02,6.39s-4.1,2.29-7.01,2.29c-2.04,0-3.83-0.48-5.39-1.45
		s-2.75-2.34-3.59-4.12s-1.28-3.85-1.32-6.21v-2.39c0-2.41,0.43-4.54,1.28-6.38s2.08-3.26,3.68-4.25s3.45-1.49,5.55-1.49
		c2.82,0,5.1,0.76,6.82,2.29s2.72,3.69,3.01,6.5h-4.43c-0.21-1.84-0.75-3.17-1.61-3.98s-2.12-1.22-3.79-1.22
		c-1.93,0-3.42,0.71-4.46,2.12s-1.57,3.49-1.59,6.22v2.27c0,2.77,0.5,4.88,1.49,6.33s2.44,2.18,4.35,2.18
		c1.75,0,3.06-0.39,3.94-1.18s1.44-2.09,1.67-3.92H178.63z"/>
	<path fill="#FFFFFF" d="M181.39,222.81c0-1.86,0.37-3.54,1.11-5.04s1.78-2.64,3.11-3.45s2.87-1.2,4.61-1.2
		c2.57,0,4.65,0.83,6.25,2.48s2.46,3.84,2.59,6.57l0.02,1c0,1.88-0.36,3.55-1.08,5.03s-1.75,2.62-3.09,3.43s-2.89,1.21-4.65,1.21
		c-2.68,0-4.83-0.89-6.44-2.68s-2.42-4.17-2.42-7.15V222.81z M185.66,223.18c0,1.96,0.4,3.49,1.21,4.6s1.93,1.66,3.38,1.66
		s2.56-0.56,3.37-1.69s1.2-2.77,1.2-4.94c0-1.92-0.41-3.45-1.24-4.57s-1.95-1.69-3.37-1.69c-1.39,0-2.5,0.55-3.32,1.66
		S185.66,220.98,185.66,223.18z"/>
	<path fill="#FFFFFF" d="M206.7,213.48l0.12,1.99c1.34-1.56,3.16-2.34,5.48-2.34c2.54,0,4.28,0.97,5.22,2.92
		c1.38-1.95,3.33-2.92,5.84-2.92c2.1,0,3.66,0.58,4.68,1.74s1.55,2.87,1.57,5.13v12.5h-4.27v-12.38c0-1.21-0.26-2.09-0.79-2.65
		s-1.4-0.84-2.62-0.84c-0.97,0-1.77,0.26-2.38,0.78s-1.05,1.2-1.29,2.05l0.02,13.04h-4.27v-12.52c-0.06-2.24-1.2-3.36-3.43-3.36
		c-1.71,0-2.92,0.7-3.64,2.09v13.78h-4.27v-19.02H206.7z"/>
	<path fill="#FFFFFF" d="M234.02,208.52c0-0.66,0.21-1.21,0.62-1.65s1.01-0.66,1.78-0.66s1.37,0.22,1.79,0.66s0.63,0.99,0.63,1.65
		c0,0.65-0.21,1.19-0.63,1.62s-1.02,0.65-1.79,0.65s-1.37-0.22-1.78-0.65S234.02,209.17,234.02,208.52z M238.55,232.5h-4.27v-19.02
		h4.27V232.5z"/>
	<path fill="#FFFFFF" d="M247.17,213.48l0.12,2.2c1.41-1.7,3.25-2.55,5.54-2.55c3.96,0,5.98,2.27,6.05,6.8v12.57h-4.27v-12.32
		c0-1.21-0.26-2.1-0.78-2.68s-1.37-0.87-2.56-0.87c-1.72,0-3.01,0.78-3.85,2.34v13.54h-4.27v-19.02H247.17z"/>
	<path fill="#FFFFFF" d="M262.48,222.85c0-2.95,0.69-5.31,2.08-7.08s3.23-2.65,5.53-2.65c2.17,0,3.87,0.76,5.12,2.27l0.19-1.92h3.85
		v18.44c0,2.5-0.78,4.46-2.33,5.91s-3.65,2.16-6.28,2.16c-1.39,0-2.76-0.29-4.09-0.87s-2.34-1.34-3.03-2.28l2.02-2.57
		c1.31,1.56,2.93,2.34,4.85,2.34c1.42,0,2.54-0.38,3.36-1.15s1.23-1.9,1.23-3.38v-1.28c-1.23,1.37-2.87,2.06-4.92,2.06
		c-2.23,0-4.05-0.88-5.46-2.65S262.48,225.98,262.48,222.85z M266.73,223.22c0,1.91,0.39,3.41,1.17,4.51s1.86,1.64,3.24,1.64
		c1.72,0,3-0.74,3.83-2.21v-8.37c-0.81-1.44-2.07-2.16-3.8-2.16c-1.41,0-2.5,0.56-3.28,1.67S266.73,221.05,266.73,223.22z"/>
	<path fill="#FFFFFF" d="M303.26,227.33c0-0.76-0.31-1.34-0.94-1.74s-1.67-0.75-3.12-1.05s-2.67-0.69-3.64-1.16
		c-2.13-1.03-3.2-2.53-3.2-4.48c0-1.64,0.69-3.01,2.07-4.11s3.14-1.65,5.27-1.65c2.27,0,4.11,0.56,5.51,1.69s2.1,2.58,2.1,4.38
		h-4.27c0-0.82-0.3-1.5-0.91-2.05s-1.42-0.82-2.43-0.82c-0.94,0-1.7,0.22-2.29,0.65s-0.89,1.01-0.89,1.74
		c0,0.66,0.28,1.17,0.83,1.53s1.66,0.73,3.34,1.1s2.99,0.81,3.95,1.32s1.66,1.12,2.13,1.84s0.69,1.58,0.69,2.6
		c0,1.71-0.71,3.1-2.13,4.16s-3.28,1.59-5.57,1.59c-1.56,0-2.95-0.28-4.17-0.84s-2.17-1.34-2.85-2.32s-1.02-2.04-1.02-3.18h4.15
		c0.06,1.01,0.44,1.78,1.14,2.33s1.63,0.82,2.79,0.82c1.13,0,1.98-0.21,2.57-0.64S303.26,228.02,303.26,227.33z"/>
	<path fill="#FFFFFF" d="M310.38,222.81c0-1.86,0.37-3.54,1.11-5.04s1.78-2.64,3.11-3.45s2.87-1.2,4.61-1.2
		c2.57,0,4.65,0.83,6.25,2.48s2.46,3.84,2.59,6.57l0.02,1c0,1.88-0.36,3.55-1.08,5.03s-1.75,2.62-3.09,3.43s-2.89,1.21-4.65,1.21
		c-2.68,0-4.83-0.89-6.44-2.68s-2.42-4.17-2.42-7.15V222.81z M314.65,223.18c0,1.96,0.4,3.49,1.21,4.6s1.93,1.66,3.38,1.66
		s2.56-0.56,3.37-1.69s1.2-2.77,1.2-4.94c0-1.92-0.41-3.45-1.24-4.57s-1.95-1.69-3.37-1.69c-1.39,0-2.5,0.55-3.32,1.66
		S314.65,220.98,314.65,223.18z"/>
	<path fill="#FFFFFF" d="M330.88,222.81c0-1.86,0.37-3.54,1.11-5.04s1.78-2.64,3.11-3.45s2.87-1.2,4.61-1.2
		c2.57,0,4.65,0.83,6.25,2.48s2.46,3.84,2.59,6.57l0.02,1c0,1.88-0.36,3.55-1.08,5.03s-1.75,2.62-3.09,3.43s-2.89,1.21-4.65,1.21
		c-2.68,0-4.83-0.89-6.44-2.68s-2.42-4.17-2.42-7.15V222.81z M335.15,223.18c0,1.96,0.4,3.49,1.21,4.6s1.93,1.66,3.38,1.66
		s2.56-0.56,3.37-1.69s1.2-2.77,1.2-4.94c0-1.92-0.41-3.45-1.24-4.57s-1.95-1.69-3.37-1.69c-1.39,0-2.5,0.55-3.32,1.66
		S335.15,220.98,335.15,223.18z"/>
	<path fill="#FFFFFF" d="M356.13,213.48l0.12,2.2c1.41-1.7,3.25-2.55,5.54-2.55c3.96,0,5.98,2.27,6.05,6.8v12.57h-4.27v-12.32
		c0-1.21-0.26-2.1-0.78-2.68s-1.37-0.87-2.56-0.87c-1.72,0-3.01,0.78-3.85,2.34v13.54h-4.27v-19.02H356.13z"/>
	<path fill="#FFFFFF" d="M386.51,208.86v4.62h3.36v3.16h-3.36v10.62c0,0.73,0.14,1.25,0.43,1.57s0.8,0.48,1.54,0.48
		c0.49,0,0.99-0.06,1.49-0.18v3.3c-0.97,0.27-1.91,0.4-2.81,0.4c-3.28,0-4.92-1.81-4.92-5.43v-10.78h-3.13v-3.16h3.13v-4.62H386.51z
		"/>
	<path fill="#FFFFFF" d="M391.8,222.81c0-1.86,0.37-3.54,1.11-5.04s1.78-2.64,3.11-3.45s2.87-1.2,4.61-1.2
		c2.57,0,4.65,0.83,6.25,2.48s2.46,3.84,2.59,6.57l0.02,1c0,1.88-0.36,3.55-1.08,5.03s-1.75,2.62-3.09,3.43s-2.89,1.21-4.65,1.21
		c-2.68,0-4.83-0.89-6.44-2.68s-2.42-4.17-2.42-7.15V222.81z M396.07,223.18c0,1.96,0.4,3.49,1.21,4.6s1.93,1.66,3.38,1.66
		s2.56-0.56,3.37-1.69s1.2-2.77,1.2-4.94c0-1.92-0.41-3.45-1.24-4.57s-1.95-1.69-3.37-1.69c-1.39,0-2.5,0.55-3.32,1.66
		S396.07,220.98,396.07,223.18z"/>
	<path fill="#FFFFFF" d="M427.41,208.86v4.62h3.36v3.16h-3.36v10.62c0,0.73,0.14,1.25,0.43,1.57s0.8,0.48,1.54,0.48
		c0.49,0,0.99-0.06,1.49-0.18v3.3c-0.97,0.27-1.91,0.4-2.81,0.4c-3.28,0-4.92-1.81-4.92-5.43v-10.78h-3.13v-3.16h3.13v-4.62H427.41z
		"/>
	<path fill="#FFFFFF" d="M438.24,215.55c1.39-1.62,3.16-2.43,5.29-2.43c4.05,0,6.11,2.31,6.17,6.94v12.43h-4.27v-12.27
		c0-1.31-0.28-2.24-0.85-2.79s-1.4-0.82-2.5-0.82c-1.71,0-2.99,0.76-3.83,2.29v13.59h-4.27v-27h4.27V215.55z"/>
	<path fill="#FFFFFF" d="M462.39,232.85c-2.71,0-4.9-0.85-6.58-2.56s-2.52-3.98-2.52-6.81v-0.53c0-1.9,0.37-3.59,1.1-5.09
		s1.76-2.66,3.08-3.49s2.8-1.25,4.43-1.25c2.59,0,4.59,0.83,6,2.48s2.12,3.99,2.12,7.01v1.72H457.6c0.13,1.57,0.65,2.81,1.57,3.73
		s2.08,1.37,3.47,1.37c1.96,0,3.55-0.79,4.78-2.37l2.3,2.2c-0.76,1.14-1.78,2.02-3.05,2.65S463.98,232.85,462.39,232.85z
		 M461.88,216.56c-1.17,0-2.12,0.41-2.84,1.23s-1.18,1.96-1.38,3.43h8.14v-0.32c-0.09-1.43-0.47-2.51-1.14-3.24
		S463.07,216.56,461.88,216.56z"/>
</g>
<g>
	<path fill="#FFFFFF" d="M191.71,288.85h-19.83l-4.15,11.92h-9.25l19.34-51.19h7.98l19.37,51.19h-9.28L191.71,288.85z
		 M174.38,281.68h14.84l-7.42-21.23L174.38,281.68z"/>
	<path fill="#FFFFFF" d="M241.77,282.13c0,5.88-1.34,10.58-4.01,14.08s-6.26,5.26-10.76,5.26c-4.17,0-7.51-1.37-10.02-4.11v18.04
		h-8.54v-52.66h7.88l0.35,3.87c2.51-3.05,5.92-4.57,10.23-4.57c4.64,0,8.28,1.73,10.92,5.19s3.96,8.26,3.96,14.4V282.13z
		 M233.26,281.4c0-3.8-0.76-6.81-2.27-9.04s-3.67-3.34-6.49-3.34c-3.49,0-6,1.44-7.52,4.32v16.88c1.55,2.95,4.08,4.43,7.59,4.43
		c2.72,0,4.85-1.1,6.38-3.29C232.5,289.17,233.26,285.85,233.26,281.4z"/>
	<path fill="#FFFFFF" d="M282.31,282.13c0,5.88-1.34,10.58-4.01,14.08s-6.26,5.26-10.76,5.26c-4.17,0-7.51-1.37-10.02-4.11v18.04
		h-8.54v-52.66h7.88l0.35,3.87c2.51-3.05,5.92-4.57,10.23-4.57c4.64,0,8.28,1.73,10.92,5.19s3.96,8.26,3.96,14.4V282.13z
		 M273.8,281.4c0-3.8-0.76-6.81-2.27-9.04s-3.67-3.34-6.49-3.34c-3.49,0-6,1.44-7.52,4.32v16.88c1.55,2.95,4.08,4.43,7.59,4.43
		c2.72,0,4.85-1.1,6.38-3.29S273.8,285.85,273.8,281.4z"/>
	<path fill="#FFFFFF" d="M335.04,287.58c0-2.25-0.79-3.98-2.37-5.2s-4.44-2.45-8.56-3.69s-7.41-2.63-9.84-4.15
		c-4.66-2.93-7-6.75-7-11.46c0-4.13,1.68-7.52,5.04-10.2s7.73-4.01,13.1-4.01c3.56,0,6.74,0.66,9.53,1.97
		c2.79,1.31,4.98,3.18,6.57,5.61s2.39,5.12,2.39,8.07h-8.86c0-2.65-0.84-4.72-2.51-6.22s-4.07-2.25-7.19-2.25
		c-2.91,0-5.16,0.62-6.77,1.86c-1.61,1.24-2.41,2.96-2.41,5.18c0,1.87,0.87,3.43,2.6,4.67c1.73,1.25,4.59,2.46,8.58,3.64
		c3.98,1.18,7.18,2.52,9.6,4.04s4.18,3.25,5.31,5.2s1.69,4.25,1.69,6.87c0,4.27-1.63,7.66-4.9,10.18s-7.71,3.78-13.31,3.78
		c-3.7,0-7.11-0.69-10.21-2.06s-5.52-3.26-7.24-5.68s-2.58-5.23-2.58-8.44h8.89c0,2.91,0.96,5.16,2.88,6.75s4.68,2.39,8.26,2.39
		c3.09,0,5.42-0.63,6.98-1.88S335.04,289.65,335.04,287.58z"/>
	<path fill="#FFFFFF" d="M361.62,253.48v9.25h6.71v6.33h-6.71v21.23c0,1.45,0.29,2.5,0.86,3.15s1.6,0.97,3.08,0.97
		c0.98,0,1.98-0.12,2.99-0.35v6.61c-1.95,0.54-3.82,0.81-5.63,0.81c-6.56,0-9.84-3.62-9.84-10.86v-21.55h-6.26v-6.33h6.26v-9.25
		H361.62z"/>
	<path fill="#FFFFFF" d="M372.2,281.4c0-3.73,0.74-7.08,2.21-10.07s3.55-5.29,6.22-6.89s5.74-2.41,9.21-2.41
		c5.13,0,9.3,1.65,12.5,4.96s4.93,7.69,5.19,13.15l0.04,2c0,3.75-0.72,7.1-2.16,10.05s-3.5,5.24-6.19,6.86s-5.78,2.43-9.3,2.43
		c-5.37,0-9.66-1.79-12.88-5.36s-4.83-8.34-4.83-14.29V281.4z M380.74,282.13c0,3.91,0.81,6.98,2.43,9.19s3.87,3.32,6.75,3.32
		s5.13-1.13,6.73-3.38s2.41-5.54,2.41-9.88c0-3.84-0.83-6.89-2.48-9.14s-3.9-3.38-6.73-3.38c-2.79,0-5,1.11-6.64,3.32
		S380.74,277.73,380.74,282.13z"/>
	<path fill="#FFFFFF" d="M434.71,270.53c-1.13-0.19-2.29-0.28-3.48-0.28c-3.91,0-6.55,1.5-7.91,4.5v26.02h-8.54v-38.04h8.16
		l0.21,4.25c2.06-3.3,4.92-4.96,8.58-4.96c1.22,0,2.23,0.16,3.02,0.49L434.71,270.53z"/>
	<path fill="#FFFFFF" d="M456.19,301.47c-5.41,0-9.8-1.71-13.17-5.12s-5.04-7.95-5.04-13.62v-1.05c0-3.8,0.73-7.19,2.2-10.18
		s3.52-5.31,6.17-6.98s5.6-2.5,8.86-2.5c5.18,0,9.18,1.65,12.01,4.96s4.24,7.98,4.24,14.03v3.45h-24.86
		c0.26,3.14,1.31,5.63,3.15,7.45s4.15,2.74,6.94,2.74c3.91,0,7.1-1.58,9.56-4.75l4.61,4.39c-1.52,2.27-3.56,4.04-6.1,5.29
		S459.35,301.47,456.19,301.47z M455.17,268.88c-2.34,0-4.24,0.82-5.68,2.46s-2.36,3.93-2.76,6.86h16.28v-0.63
		c-0.19-2.86-0.95-5.02-2.29-6.49S457.54,268.88,455.17,268.88z"/>
</g>
</svg>
