<?xml version="1.0" encoding="utf-8"?>
<!-- Generator: Adobe Illustrator 16.0.0, SVG Export Plug-In . SVG Version: 6.00 Build 0)  -->
<!DOCTYPE svg PUBLIC "-//W3C//DTD SVG 1.1//EN" "http://www.w3.org/Graphics/SVG/1.1/DTD/svg11.dtd">
<svg version="1.1" id="Layer_1" xmlns="http://www.w3.org/2000/svg" xmlns:xlink="http://www.w3.org/1999/xlink" x="0px" y="0px"
	 width="512px" height="512px" viewBox="0 0 512 512" enable-background="new 0 0 512 512" xml:space="preserve">
<path fill="#FFFFFF" d="M493.8,180.15H17.83C7.96,180.15,0,188.11,0,197.97v115.67c0,10.24,7.96,18.2,17.83,18.2H493.8
	c9.86,0,17.83-7.96,17.83-17.82V197.97C511.62,188.11,503.66,180.15,493.8,180.15z M493.8,328.44H17.83
	c-7.96,0-14.41-6.45-14.41-14.41V197.97c0-7.96,6.45-14.41,14.41-14.41H493.8c7.96,0,14.41,6.45,14.41,14.41v115.67
	C508.21,321.99,501.76,328.44,493.8,328.44L493.8,328.44z"/>
<path fill="#FFFFFF" d="M114.16,255.24c0-12.14,9.86-18.2,10.62-18.58c-5.69-8.34-14.79-9.48-17.83-9.48
	c-7.59-0.76-14.79,4.55-18.58,4.55c-3.79,0-9.86-4.55-15.93-4.17c-7.96,0-15.55,4.93-19.72,12.14c-8.72,14.79-2.28,36.79,6.07,48.92
	c4.17,6.07,9.1,12.52,15.17,12.14c6.07-0.38,8.34-3.79,15.93-3.79c7.21,0,9.48,3.79,15.93,3.79c6.45,0,10.62-6.07,14.79-11.76
	c4.93-6.83,6.83-13.27,6.83-13.65C127.05,274.58,114.54,269.65,114.16,255.24L114.16,255.24z M102.02,219.21
	c3.41-4.17,5.69-9.86,4.93-15.55c-4.93,0.38-10.62,3.41-14.41,7.21c-3.03,3.41-5.69,9.48-4.93,14.79
	C93.3,226.42,98.61,223.38,102.02,219.21L102.02,219.21z"/>
<g>
	<path fill="#FFFFFF" d="M178.3,224.38c-0.32,2.71-1.32,4.8-3,6.27s-3.92,2.21-6.71,2.21c-3.02,0-5.45-1.08-7.27-3.25
		s-2.73-5.07-2.73-8.7v-2.46c0-2.38,0.42-4.47,1.27-6.28s2.05-3.19,3.61-4.16s3.36-1.45,5.41-1.45c2.72,0,4.9,0.76,6.54,2.28
		s2.6,3.62,2.87,6.3h-3.39c-0.29-2.04-0.93-3.53-1.91-4.44c-0.98-0.92-2.35-1.38-4.1-1.38c-2.16,0-3.85,0.8-5.07,2.39
		c-1.22,1.6-1.84,3.86-1.84,6.81V221c0,2.78,0.58,4.99,1.74,6.63s2.78,2.46,4.87,2.46c1.88,0,3.31-0.42,4.32-1.27s1.67-2.33,2-4.44
		H178.3z"/>
	<path fill="#FFFFFF" d="M181.53,222.81c0-1.86,0.37-3.54,1.1-5.03s1.75-2.64,3.06-3.45s2.8-1.21,4.47-1.21
		c2.59,0,4.68,0.9,6.28,2.69s2.4,4.18,2.4,7.15v0.23c0,1.85-0.35,3.51-1.06,4.98s-1.72,2.62-3.04,3.44s-2.83,1.23-4.54,1.23
		c-2.58,0-4.67-0.9-6.27-2.69s-2.4-4.17-2.4-7.12V222.81z M184.8,223.2c0,2.11,0.49,3.8,1.47,5.08s2.29,1.92,3.93,1.92
		c1.65,0,2.96-0.65,3.94-1.94s1.46-3.11,1.46-5.44c0-2.09-0.5-3.78-1.49-5.07s-2.31-1.94-3.95-1.94c-1.61,0-2.9,0.64-3.88,1.92
		S184.8,220.82,184.8,223.2z"/>
	<path fill="#FFFFFF" d="M205.98,213.48l0.09,2.11c1.39-1.64,3.28-2.46,5.64-2.46c2.66,0,4.47,1.02,5.43,3.06
		c0.63-0.91,1.46-1.65,2.47-2.21s2.21-0.84,3.59-0.84c4.17,0,6.29,2.21,6.36,6.63v12.74h-3.25v-12.55c0-1.36-0.31-2.38-0.93-3.05
		s-1.66-1.01-3.13-1.01c-1.21,0-2.21,0.36-3.01,1.08s-1.26,1.69-1.39,2.91v12.62h-3.27v-12.46c0-2.77-1.35-4.15-4.06-4.15
		c-2.13,0-3.59,0.91-4.38,2.72v13.89h-3.25v-19.02H205.98z"/>
	<path fill="#FFFFFF" d="M234.49,208.44c0-0.53,0.16-0.97,0.48-1.34s0.8-0.54,1.43-0.54s1.11,0.18,1.44,0.54s0.49,0.81,0.49,1.34
		s-0.16,0.97-0.49,1.32s-0.81,0.53-1.44,0.53s-1.11-0.18-1.43-0.53S234.49,208.96,234.49,208.44z M238.01,232.5h-3.25v-19.02h3.25
		V232.5z"/>
	<path fill="#FFFFFF" d="M246.29,213.48l0.11,2.39c1.45-1.83,3.35-2.74,5.7-2.74c4.02,0,6.05,2.27,6.08,6.8v12.57h-3.25v-12.59
		c-0.01-1.37-0.33-2.38-0.94-3.04s-1.57-0.98-2.87-0.98c-1.05,0-1.98,0.28-2.78,0.84s-1.42,1.3-1.86,2.21v13.55h-3.25v-19.02H246.29
		z"/>
	<path fill="#FFFFFF" d="M262.3,222.83c0-2.96,0.69-5.32,2.06-7.08s3.19-2.63,5.45-2.63c2.32,0,4.13,0.82,5.43,2.46l0.16-2.11h2.97
		v18.56c0,2.46-0.73,4.4-2.19,5.82s-3.42,2.13-5.88,2.13c-1.37,0-2.71-0.29-4.03-0.88s-2.31-1.39-3.01-2.41l1.69-1.95
		c1.39,1.72,3.1,2.58,5.12,2.58c1.58,0,2.82-0.45,3.7-1.34s1.33-2.14,1.33-3.76v-1.63c-1.3,1.5-3.08,2.25-5.33,2.25
		c-2.23,0-4.03-0.9-5.41-2.69S262.3,225.93,262.3,222.83z M265.57,223.2c0,2.14,0.44,3.83,1.32,5.05s2.11,1.84,3.69,1.84
		c2.05,0,3.56-0.93,4.52-2.79v-8.68c-1-1.82-2.49-2.72-4.48-2.72c-1.58,0-2.82,0.62-3.71,1.85S265.57,220.79,265.57,223.2z"/>
	<path fill="#FFFFFF" d="M303.26,227.46c0-0.88-0.33-1.56-0.99-2.05s-1.82-0.91-3.46-1.26s-2.95-0.77-3.92-1.27
		s-1.68-1.08-2.14-1.76s-0.69-1.49-0.69-2.43c0-1.56,0.66-2.88,1.98-3.96s3-1.62,5.05-1.62c2.16,0,3.91,0.56,5.25,1.67
		s2.01,2.54,2.01,4.27h-3.27c0-0.89-0.38-1.66-1.13-2.3s-1.71-0.97-2.86-0.97c-1.18,0-2.11,0.26-2.78,0.77s-1,1.19-1,2.02
		c0,0.79,0.31,1.38,0.93,1.78s1.74,0.78,3.37,1.14s2.94,0.8,3.95,1.3s1.75,1.11,2.24,1.82s0.73,1.57,0.73,2.59
		c0,1.7-0.68,3.06-2.04,4.09s-3.12,1.54-5.29,1.54c-1.52,0-2.87-0.27-4.04-0.81s-2.09-1.29-2.75-2.26s-0.99-2.01-0.99-3.14h3.25
		c0.06,1.09,0.5,1.95,1.31,2.59s1.89,0.96,3.23,0.96c1.23,0,2.22-0.25,2.96-0.75S303.26,228.29,303.26,227.46z"/>
	<path fill="#FFFFFF" d="M309.89,222.81c0-1.86,0.37-3.54,1.1-5.03s1.75-2.64,3.06-3.45s2.8-1.21,4.47-1.21
		c2.59,0,4.68,0.9,6.28,2.69s2.4,4.18,2.4,7.15v0.23c0,1.85-0.35,3.51-1.06,4.98s-1.72,2.62-3.04,3.44s-2.83,1.23-4.54,1.23
		c-2.58,0-4.67-0.9-6.27-2.69s-2.4-4.17-2.4-7.12V222.81z M313.16,223.2c0,2.11,0.49,3.8,1.47,5.08s2.29,1.92,3.93,1.92
		c1.65,0,2.96-0.65,3.94-1.94s1.46-3.11,1.46-5.44c0-2.09-0.5-3.78-1.49-5.07s-2.31-1.94-3.95-1.94c-1.61,0-2.9,0.64-3.88,1.92
		S313.16,220.82,313.16,223.2z"/>
	<path fill="#FFFFFF" d="M330.42,222.81c0-1.86,0.37-3.54,1.1-5.03s1.75-2.64,3.06-3.45s2.8-1.21,4.47-1.21
		c2.59,0,4.68,0.9,6.28,2.69s2.4,4.18,2.4,7.15v0.23c0,1.85-0.35,3.51-1.06,4.98s-1.72,2.62-3.04,3.44s-2.83,1.23-4.54,1.23
		c-2.58,0-4.67-0.9-6.27-2.69s-2.4-4.17-2.4-7.12V222.81z M333.69,223.2c0,2.11,0.49,3.8,1.47,5.08s2.29,1.92,3.93,1.92
		c1.65,0,2.96-0.65,3.94-1.94s1.46-3.11,1.46-5.44c0-2.09-0.5-3.78-1.49-5.07s-2.31-1.94-3.95-1.94c-1.61,0-2.9,0.64-3.88,1.92
		S333.69,220.82,333.69,223.2z"/>
	<path fill="#FFFFFF" d="M354.89,213.48l0.11,2.39c1.45-1.83,3.35-2.74,5.7-2.74c4.02,0,6.05,2.27,6.08,6.8v12.57h-3.25v-12.59
		c-0.01-1.37-0.33-2.38-0.94-3.04s-1.57-0.98-2.87-0.98c-1.05,0-1.98,0.28-2.78,0.84s-1.42,1.3-1.86,2.21v13.55h-3.25v-19.02H354.89
		z"/>
	<path fill="#FFFFFF" d="M385,208.88v4.61h3.55v2.51H385v11.81c0,0.76,0.16,1.33,0.47,1.72s0.86,0.57,1.62,0.57
		c0.38,0,0.89-0.07,1.55-0.21v2.62c-0.86,0.23-1.69,0.35-2.5,0.35c-1.45,0-2.55-0.44-3.29-1.32s-1.11-2.13-1.11-3.74v-11.79h-3.46
		v-2.51h3.46v-4.61H385z"/>
	<path fill="#FFFFFF" d="M391.13,222.81c0-1.86,0.37-3.54,1.1-5.03s1.75-2.64,3.06-3.45s2.8-1.21,4.47-1.21
		c2.59,0,4.68,0.9,6.28,2.69s2.4,4.18,2.4,7.15v0.23c0,1.85-0.35,3.51-1.06,4.98s-1.72,2.62-3.04,3.44s-2.83,1.23-4.54,1.23
		c-2.58,0-4.67-0.9-6.27-2.69s-2.4-4.17-2.4-7.12V222.81z M394.4,223.2c0,2.11,0.49,3.8,1.47,5.08s2.29,1.92,3.93,1.92
		c1.65,0,2.96-0.65,3.94-1.94s1.46-3.11,1.46-5.44c0-2.09-0.5-3.78-1.49-5.07s-2.31-1.94-3.95-1.94c-1.61,0-2.9,0.64-3.88,1.92
		S394.4,220.82,394.4,223.2z"/>
	<path fill="#FFFFFF" d="M425.85,208.88v4.61h3.55v2.51h-3.55v11.81c0,0.76,0.16,1.33,0.47,1.72s0.86,0.57,1.62,0.57
		c0.38,0,0.89-0.07,1.55-0.21v2.62c-0.86,0.23-1.69,0.35-2.5,0.35c-1.45,0-2.55-0.44-3.29-1.32s-1.11-2.13-1.11-3.74v-11.79h-3.46
		v-2.51h3.46v-4.61H425.85z"/>
	<path fill="#FFFFFF" d="M436.45,215.78c1.44-1.77,3.32-2.65,5.63-2.65c4.02,0,6.05,2.27,6.08,6.8v12.57h-3.25v-12.59
		c-0.01-1.37-0.33-2.38-0.94-3.04s-1.57-0.98-2.87-0.98c-1.05,0-1.98,0.28-2.78,0.84s-1.42,1.3-1.86,2.21v13.55h-3.25v-27h3.25
		V215.78z"/>
	<path fill="#FFFFFF" d="M460.92,232.85c-2.58,0-4.68-0.85-6.29-2.54s-2.43-3.96-2.43-6.79v-0.6c0-1.89,0.36-3.57,1.08-5.05
		s1.73-2.64,3.02-3.48s2.7-1.26,4.21-1.26c2.47,0,4.39,0.81,5.77,2.44s2.06,3.96,2.06,7v1.35h-12.88c0.05,1.88,0.59,3.39,1.64,4.54
		s2.38,1.73,4,1.73c1.15,0,2.12-0.23,2.92-0.7s1.49-1.09,2.09-1.86l1.99,1.55C466.5,231.63,464.11,232.85,460.92,232.85z
		 M460.51,215.8c-1.31,0-2.41,0.48-3.3,1.43s-1.44,2.29-1.65,4.02h9.53V221c-0.09-1.65-0.54-2.93-1.34-3.84
		S461.87,215.8,460.51,215.8z"/>
</g>
<g>
	<path fill="#FFFFFF" d="M191.71,288.85h-19.83l-4.15,11.92h-9.25l19.34-51.19h7.98l19.37,51.19h-9.28L191.71,288.85z
		 M174.38,281.68h14.84l-7.42-21.23L174.38,281.68z"/>
	<path fill="#FFFFFF" d="M241.77,282.13c0,5.88-1.34,10.58-4.01,14.08s-6.26,5.26-10.76,5.26c-4.17,0-7.51-1.37-10.02-4.11v18.04
		h-8.54v-52.66h7.88l0.35,3.87c2.51-3.05,5.92-4.57,10.23-4.57c4.64,0,8.28,1.73,10.92,5.19s3.96,8.26,3.96,14.4V282.13z
		 M233.26,281.4c0-3.8-0.76-6.81-2.27-9.04s-3.67-3.34-6.49-3.34c-3.49,0-6,1.44-7.52,4.32v16.88c1.55,2.95,4.08,4.43,7.59,4.43
		c2.72,0,4.85-1.1,6.38-3.29C232.5,289.17,233.26,285.85,233.26,281.4z"/>
	<path fill="#FFFFFF" d="M282.31,282.13c0,5.88-1.34,10.58-4.01,14.08s-6.26,5.26-10.76,5.26c-4.17,0-7.51-1.37-10.02-4.11v18.04
		h-8.54v-52.66h7.88l0.35,3.87c2.51-3.05,5.92-4.57,10.23-4.57c4.64,0,8.28,1.73,10.92,5.19s3.96,8.26,3.96,14.4V282.13z
		 M273.8,281.4c0-3.8-0.76-6.81-2.27-9.04s-3.67-3.34-6.49-3.34c-3.49,0-6,1.44-7.52,4.32v16.88c1.55,2.95,4.08,4.43,7.59,4.43
		c2.72,0,4.85-1.1,6.38-3.29S273.8,285.85,273.8,281.4z"/>
	<path fill="#FFFFFF" d="M335.04,287.58c0-2.25-0.79-3.98-2.37-5.2s-4.44-2.45-8.56-3.69s-7.41-2.63-9.84-4.15
		c-4.66-2.93-7-6.75-7-11.46c0-4.13,1.68-7.52,5.04-10.2s7.73-4.01,13.1-4.01c3.56,0,6.74,0.66,9.53,1.97
		c2.79,1.31,4.98,3.18,6.57,5.61s2.39,5.12,2.39,8.07h-8.86c0-2.65-0.84-4.72-2.51-6.22s-4.07-2.25-7.19-2.25
		c-2.91,0-5.16,0.62-6.77,1.86c-1.61,1.24-2.41,2.96-2.41,5.18c0,1.87,0.87,3.43,2.6,4.67c1.73,1.25,4.59,2.46,8.58,3.64
		c3.98,1.18,7.18,2.52,9.6,4.04s4.18,3.25,5.31,5.2s1.69,4.25,1.69,6.87c0,4.27-1.63,7.66-4.9,10.18s-7.71,3.78-13.31,3.78
		c-3.7,0-7.11-0.69-10.21-2.06s-5.52-3.26-7.24-5.68s-2.58-5.23-2.58-8.44h8.89c0,2.91,0.96,5.16,2.88,6.75s4.68,2.39,8.26,2.39
		c3.09,0,5.42-0.63,6.98-1.88S335.04,289.65,335.04,287.58z"/>
	<path fill="#FFFFFF" d="M361.62,253.48v9.25h6.71v6.33h-6.71v21.23c0,1.45,0.29,2.5,0.86,3.15s1.6,0.97,3.08,0.97
		c0.98,0,1.98-0.12,2.99-0.35v6.61c-1.95,0.54-3.82,0.81-5.63,0.81c-6.56,0-9.84-3.62-9.84-10.86v-21.55h-6.26v-6.33h6.26v-9.25
		H361.62z"/>
	<path fill="#FFFFFF" d="M372.2,281.4c0-3.73,0.74-7.08,2.21-10.07s3.55-5.29,6.22-6.89s5.74-2.41,9.21-2.41
		c5.13,0,9.3,1.65,12.5,4.96s4.93,7.69,5.19,13.15l0.04,2c0,3.75-0.72,7.1-2.16,10.05s-3.5,5.24-6.19,6.86s-5.78,2.43-9.3,2.43
		c-5.37,0-9.66-1.79-12.88-5.36s-4.83-8.34-4.83-14.29V281.4z M380.74,282.13c0,3.91,0.81,6.98,2.43,9.19s3.87,3.32,6.75,3.32
		s5.13-1.13,6.73-3.38s2.41-5.54,2.41-9.88c0-3.84-0.83-6.89-2.48-9.14s-3.9-3.38-6.73-3.38c-2.79,0-5,1.11-6.64,3.32
		S380.74,277.73,380.74,282.13z"/>
	<path fill="#FFFFFF" d="M434.71,270.53c-1.13-0.19-2.29-0.28-3.48-0.28c-3.91,0-6.55,1.5-7.91,4.5v26.02h-8.54v-38.04h8.16
		l0.21,4.25c2.06-3.3,4.92-4.96,8.58-4.96c1.22,0,2.23,0.16,3.02,0.49L434.71,270.53z"/>
	<path fill="#FFFFFF" d="M456.19,301.47c-5.41,0-9.8-1.71-13.17-5.12s-5.04-7.95-5.04-13.62v-1.05c0-3.8,0.73-7.19,2.2-10.18
		s3.52-5.31,6.17-6.98s5.6-2.5,8.86-2.5c5.18,0,9.18,1.65,12.01,4.96s4.24,7.98,4.24,14.03v3.45h-24.86
		c0.26,3.14,1.31,5.63,3.15,7.45s4.15,2.74,6.94,2.74c3.91,0,7.1-1.58,9.56-4.75l4.61,4.39c-1.52,2.27-3.56,4.04-6.1,5.29
		S459.35,301.47,456.19,301.47z M455.17,268.88c-2.34,0-4.24,0.82-5.68,2.46s-2.36,3.93-2.76,6.86h16.28v-0.63
		c-0.19-2.86-0.95-5.02-2.29-6.49S457.54,268.88,455.17,268.88z"/>
</g>
</svg>
