<?xml version="1.0" encoding="utf-8"?>
<!-- Generator: Adobe Illustrator 16.0.0, SVG Export Plug-In . SVG Version: 6.00 Build 0)  -->
<!DOCTYPE svg PUBLIC "-//W3C//DTD SVG 1.1//EN" "http://www.w3.org/Graphics/SVG/1.1/DTD/svg11.dtd">
<svg version="1.1" id="Layer_1" xmlns="http://www.w3.org/2000/svg" xmlns:xlink="http://www.w3.org/1999/xlink" x="0px" y="0px"
	 width="128px" height="118px" viewBox="70.5 0 128 118" enable-background="new 70.5 0 128 118" xml:space="preserve">
<g>
	<path fill="#FFFFFF" d="M133.82,5.096c-30.597,0-55.404,24.807-55.404,55.404c0,30.602,24.808,55.405,55.404,55.405
		c30.602,0,55.41-24.804,55.41-55.405C189.23,29.902,164.422,5.096,133.82,5.096z M133.82,109.929
		c-27.3,0-49.428-22.128-49.428-49.429c0-27.3,22.128-49.429,49.428-49.429c27.301,0,49.429,22.129,49.429,49.429
		C183.25,87.801,161.121,109.929,133.82,109.929z"/>
</g>
<g>
	<path fill="#FFFFFF" d="M124.52,77.161c-2.393-1.196-4.248-2.871-5.563-5.025c-1.316-2.153-1.975-4.666-1.975-7.538v-3.17
		c0-0.279,0.08-0.499,0.239-0.658c0.159-0.16,0.379-0.24,0.658-0.24h9.453c0.278,0,0.498,0.08,0.658,0.24
		c0.159,0.159,0.239,0.379,0.239,0.658v3.11c0,1.436,0.419,2.593,1.256,3.47c0.837,0.878,1.994,1.316,3.47,1.316
		c1.436,0,2.612-0.438,3.53-1.316c0.917-0.877,1.376-2.034,1.376-3.47V37.497c0-0.279,0.08-0.499,0.239-0.658
		c0.159-0.159,0.379-0.239,0.658-0.239h9.393c0.279,0,0.499,0.081,0.658,0.239c0.159,0.16,0.239,0.379,0.239,0.658v27.101
		c0,2.833-0.679,5.335-2.034,7.509c-1.356,2.174-3.251,3.858-5.683,5.055c-2.434,1.196-5.226,1.795-8.376,1.795
		C129.725,78.956,126.913,78.357,124.52,77.161z"/>
</g>
</svg>
