<?xml version="1.0" encoding="utf-8"?>
<!-- Generator: Adobe Illustrator 16.0.0, SVG Export Plug-In . SVG Version: 6.00 Build 0)  -->
<!DOCTYPE svg PUBLIC "-//W3C//DTD SVG 1.1//EN" "http://www.w3.org/Graphics/SVG/1.1/DTD/svg11.dtd">
<svg version="1.1" id="svg2" xmlns="http://www.w3.org/2000/svg" xmlns:xlink="http://www.w3.org/1999/xlink" x="0px" y="0px"
	 width="512px" height="512px" viewBox="0 0 512 512" enable-background="new 0 0 512 512" xml:space="preserve">
<path id="path16" fill="#FFFFFF" d="M492.38,184.69c8.68,0,15.85,7.17,15.85,15.85V312.6c0,8.68-7.17,15.85-15.85,15.85H19.62
	c-8.68-0.38-15.85-7.17-15.85-15.85V200.54c0-8.68,7.17-15.85,15.85-15.85H492.38 M492.38,181.67H19.62
	c-10.56,0-18.87,8.3-18.87,18.87V312.6c0,10.19,8.68,18.87,18.87,18.87h472.76c10.56,0,18.87-8.3,18.87-18.87V200.54
	C511.62,189.97,502.94,181.67,492.38,181.67z"/>
<path id="path46" fill="#FFFFFF" d="M258.45,263.17c-9.06,0-16.22,6.79-16.22,15.85c0,9.05,7.17,15.85,16.22,15.85
	c9.05,0,16.22-6.79,16.22-15.85C274.68,269.58,267.51,263.17,258.45,263.17z M258.45,288.45c-4.91,0-9.06-4.15-9.06-9.81
	c0-5.66,4.15-9.81,9.06-9.81c4.9,0,9.05,3.77,9.05,9.81C267.51,284.67,263.36,288.45,258.45,288.45z M223.36,263.17
	c-9.06,0-16.22,6.79-16.22,15.85c0,9.05,7.17,15.85,16.22,15.85s16.22-6.79,16.22-15.85C239.59,269.58,232.42,263.17,223.36,263.17z
	 M223.36,288.45c-4.9,0-9.06-4.15-9.06-9.81c0-5.66,4.15-9.81,9.06-9.81s9.06,3.77,9.06,9.81
	C232.42,284.67,228.27,288.45,223.36,288.45z M181.48,268.07v6.79h16.22c-0.38,3.77-1.89,6.41-3.77,8.3
	c-2.26,2.26-6.04,4.9-12.45,4.9c-10.19,0-17.73-7.92-17.73-18.11c0-10.19,7.92-18.11,17.73-18.11c5.28,0,9.43,2.26,12.45,4.9
	l4.9-4.9c-4.15-3.77-9.43-6.79-16.98-6.79c-13.96,0-25.28,10.94-25.28,24.52s11.7,24.52,25.28,24.52c7.55,0,13.21-2.26,17.36-6.79
	c4.53-4.53,6.04-10.56,6.04-15.85c0-1.51,0-3.02-0.38-4.15C204.5,268.07,181.48,268.07,181.48,268.07L181.48,268.07z M352.78,272.98
	c-1.51-3.4-5.28-10.19-13.96-10.19c-8.3,0-15.09,6.41-15.09,15.85c0,9.05,6.79,15.85,15.85,15.85c7.55,0,11.7-4.53,13.58-7.17
	l-5.66-3.77c-1.89,2.64-4.15,4.53-7.92,4.53c-3.4,0-6.04-1.51-7.92-4.9l21.51-8.68C353.53,274.87,352.78,272.98,352.78,272.98z
	 M330.89,278.26c0-6.04,4.91-9.43,8.3-9.43c2.64,0,5.28,1.51,6.04,3.4C345.23,272.6,330.89,278.26,330.89,278.26L330.89,278.26z
	 M313.54,293.73h7.17v-46.41h-7.17V293.73z M301.84,266.56c-1.89-1.89-4.9-3.4-8.68-3.4c-7.92,0-15.47,7.17-15.47,15.85
	c0,9.05,7.55,15.85,15.47,15.85c3.77,0,6.79-1.51,8.3-3.77h0.38v2.26c0,6.04-3.4,9.43-8.68,9.43c-4.15,0-7.17-3.02-7.92-5.66
	l-6.04,2.64c1.89,4.15,6.41,9.43,14.34,9.43c8.3,0,15.47-4.9,15.47-16.6v-28.67h-7.17V266.56L301.84,266.56z M293.54,288.45
	c-4.9,0-9.05-4.15-9.05-9.43c0-5.66,4.15-9.81,9.05-9.81c4.91,0,8.68,4.15,8.68,9.81C302.22,284.67,298.45,288.45,293.54,288.45z
	 M385.98,247.32H369v46.41h7.17V276h9.81c7.92,0,15.47-5.66,15.47-14.34C401.45,252.6,393.53,247.32,385.98,247.32L385.98,247.32z
	 M385.98,269.58h-10.19v-15.85h10.19c5.28,0,8.3,4.15,8.3,7.92C394.28,265.43,391.26,269.58,385.98,269.58z M429.75,262.79
	c-5.28,0-10.56,2.26-12.45,7.17l6.41,2.64c1.51-2.64,3.77-3.4,6.41-3.4c3.77,0,7.55,2.26,7.55,6.04v0.38
	c-1.13-0.75-4.15-1.89-7.55-1.89c-6.79,0-13.58,3.77-13.58,10.56c0,6.41,5.66,10.19,11.7,10.19c4.91,0,7.55-2.26,9.06-4.53h0.38
	v3.77h6.79v-18.11C444.09,267.7,437.67,262.79,429.75,262.79L429.75,262.79z M428.99,288.45c-2.26,0-5.66-1.13-5.66-3.77
	c0-3.77,4.15-4.91,7.55-4.91c3.02,0,4.53,0.76,6.41,1.51C436.54,285.43,432.77,288.45,428.99,288.45z M468.99,263.92l-7.92,20.37
	h-0.38l-8.3-20.37h-7.55l12.45,28.3l-7.17,15.85h7.55l19.24-44.14H468.99L468.99,263.92z M405.22,293.73h7.17v-46.41h-7.17V293.73z"
	/>
<g id="g48">
	<path id="path64" fill="#41D0FF" d="M40.37,209.97c-1.13,1.13-1.89,3.02-1.89,5.28v82.63c0,2.26,0.75,4.15,1.89,5.28l0.38,0.38
		l46.79-46.41V256L40.37,209.97z"/>
</g>
<g id="g66">
	<path id="path78" fill="#FCC903" d="M103,272.6l-15.47-15.47V256L103,240.53l0.38,0.38l18.49,10.56c5.28,3.02,5.28,7.92,0,10.94
		L103,272.6C103.38,272.22,103,272.6,103,272.6z"/>
</g>
<g id="g80">
	<path id="path88" fill="#F43B45" d="M103.38,272.22l-15.85-15.85l-47.16,46.79c1.89,1.89,4.53,1.89,7.92,0.38L103.38,272.22"/>
</g>
<g id="g90">
	<path id="path104" fill="#5CF076" d="M103.38,240.53l-55.09-30.94c-3.4-1.89-6.04-1.51-7.92,0.38l47.16,46.41L103.38,240.53z"/>
</g>
<g>
	<path fill="#FFFFFF" d="M179.51,225.98c-0.32,2.71-1.32,4.8-3,6.27s-3.92,2.21-6.71,2.21c-3.02,0-5.45-1.08-7.27-3.25
		s-2.73-5.07-2.73-8.7v-2.46c0-2.38,0.42-4.47,1.27-6.28s2.05-3.19,3.61-4.16s3.36-1.45,5.41-1.45c2.72,0,4.9,0.76,6.54,2.28
		s2.6,3.62,2.87,6.3h-3.39c-0.29-2.04-0.93-3.53-1.91-4.44c-0.98-0.92-2.35-1.38-4.1-1.38c-2.16,0-3.85,0.8-5.07,2.39
		c-1.22,1.6-1.84,3.86-1.84,6.81v2.48c0,2.78,0.58,4.99,1.74,6.63s2.78,2.46,4.87,2.46c1.88,0,3.31-0.42,4.32-1.27s1.67-2.33,2-4.44
		H179.51z"/>
	<path fill="#FFFFFF" d="M182.74,224.41c0-1.86,0.37-3.54,1.1-5.03s1.75-2.64,3.06-3.45s2.8-1.21,4.47-1.21
		c2.59,0,4.68,0.9,6.28,2.69s2.4,4.18,2.4,7.15v0.23c0,1.85-0.35,3.51-1.06,4.98s-1.72,2.62-3.04,3.44s-2.83,1.23-4.54,1.23
		c-2.58,0-4.67-0.9-6.27-2.69s-2.4-4.17-2.4-7.12V224.41z M186.01,224.8c0,2.11,0.49,3.8,1.47,5.08s2.29,1.92,3.93,1.92
		c1.65,0,2.96-0.65,3.94-1.94s1.46-3.11,1.46-5.44c0-2.09-0.5-3.78-1.49-5.07s-2.31-1.94-3.95-1.94c-1.61,0-2.9,0.64-3.88,1.92
		S186.01,222.42,186.01,224.8z"/>
	<path fill="#FFFFFF" d="M207.2,215.08l0.09,2.11c1.39-1.64,3.28-2.46,5.64-2.46c2.66,0,4.47,1.02,5.43,3.06
		c0.63-0.91,1.46-1.65,2.47-2.21s2.21-0.84,3.59-0.84c4.17,0,6.29,2.21,6.36,6.63v12.74h-3.25v-12.55c0-1.36-0.31-2.38-0.93-3.05
		s-1.66-1.01-3.13-1.01c-1.21,0-2.21,0.36-3.01,1.08s-1.26,1.69-1.39,2.91v12.62h-3.27v-12.46c0-2.77-1.35-4.15-4.06-4.15
		c-2.13,0-3.59,0.91-4.38,2.72v13.89h-3.25v-19.02H207.2z"/>
	<path fill="#FFFFFF" d="M235.71,210.03c0-0.53,0.16-0.97,0.48-1.34s0.8-0.54,1.43-0.54s1.11,0.18,1.44,0.54s0.49,0.81,0.49,1.34
		s-0.16,0.97-0.49,1.32s-0.81,0.53-1.44,0.53s-1.11-0.18-1.43-0.53S235.71,210.56,235.71,210.03z M239.22,234.1h-3.25v-19.02h3.25
		V234.1z"/>
	<path fill="#FFFFFF" d="M247.5,215.08l0.11,2.39c1.45-1.83,3.35-2.74,5.7-2.74c4.02,0,6.05,2.27,6.08,6.8v12.57h-3.25v-12.59
		c-0.01-1.37-0.33-2.38-0.94-3.04s-1.57-0.98-2.87-0.98c-1.05,0-1.98,0.28-2.78,0.84s-1.42,1.3-1.86,2.21v13.55h-3.25v-19.02H247.5z
		"/>
	<path fill="#FFFFFF" d="M263.52,224.43c0-2.96,0.69-5.32,2.06-7.08s3.19-2.63,5.45-2.63c2.32,0,4.13,0.82,5.43,2.46l0.16-2.11h2.97
		v18.56c0,2.46-0.73,4.4-2.19,5.82s-3.42,2.13-5.88,2.13c-1.37,0-2.71-0.29-4.03-0.88s-2.31-1.39-3.01-2.41l1.69-1.95
		c1.39,1.72,3.1,2.58,5.12,2.58c1.58,0,2.82-0.45,3.7-1.34s1.33-2.14,1.33-3.76v-1.63c-1.3,1.5-3.08,2.25-5.33,2.25
		c-2.23,0-4.03-0.9-5.41-2.69S263.52,227.52,263.52,224.43z M266.79,224.8c0,2.14,0.44,3.83,1.32,5.05s2.11,1.84,3.69,1.84
		c2.05,0,3.56-0.93,4.52-2.79v-8.68c-1-1.82-2.49-2.72-4.48-2.72c-1.58,0-2.82,0.62-3.71,1.85S266.79,222.39,266.79,224.8z"/>
	<path fill="#FFFFFF" d="M304.47,229.05c0-0.88-0.33-1.56-0.99-2.05s-1.82-0.91-3.46-1.26s-2.95-0.77-3.92-1.27
		s-1.68-1.08-2.14-1.76s-0.69-1.49-0.69-2.43c0-1.56,0.66-2.88,1.98-3.96s3-1.62,5.05-1.62c2.16,0,3.91,0.56,5.25,1.67
		s2.01,2.54,2.01,4.27h-3.27c0-0.89-0.38-1.66-1.13-2.3s-1.71-0.97-2.86-0.97c-1.18,0-2.11,0.26-2.78,0.77s-1,1.19-1,2.02
		c0,0.79,0.31,1.38,0.93,1.78s1.74,0.78,3.37,1.14s2.94,0.8,3.95,1.3s1.75,1.11,2.24,1.82s0.73,1.57,0.73,2.59
		c0,1.7-0.68,3.06-2.04,4.09s-3.12,1.54-5.29,1.54c-1.52,0-2.87-0.27-4.04-0.81s-2.09-1.29-2.75-2.26s-0.99-2.01-0.99-3.14h3.25
		c0.06,1.09,0.5,1.95,1.31,2.59s1.89,0.96,3.23,0.96c1.23,0,2.22-0.25,2.96-0.75S304.47,229.89,304.47,229.05z"/>
	<path fill="#FFFFFF" d="M311.1,224.41c0-1.86,0.37-3.54,1.1-5.03s1.75-2.64,3.06-3.45s2.8-1.21,4.47-1.21
		c2.59,0,4.68,0.9,6.28,2.69s2.4,4.18,2.4,7.15v0.23c0,1.85-0.35,3.51-1.06,4.98s-1.72,2.62-3.04,3.44s-2.83,1.23-4.54,1.23
		c-2.58,0-4.67-0.9-6.27-2.69s-2.4-4.17-2.4-7.12V224.41z M314.37,224.8c0,2.11,0.49,3.8,1.47,5.08s2.29,1.92,3.93,1.92
		c1.65,0,2.96-0.65,3.94-1.94s1.46-3.11,1.46-5.44c0-2.09-0.5-3.78-1.49-5.07s-2.31-1.94-3.95-1.94c-1.61,0-2.9,0.64-3.88,1.92
		S314.37,222.42,314.37,224.8z"/>
	<path fill="#FFFFFF" d="M331.63,224.41c0-1.86,0.37-3.54,1.1-5.03s1.75-2.64,3.06-3.45s2.8-1.21,4.47-1.21
		c2.59,0,4.68,0.9,6.28,2.69s2.4,4.18,2.4,7.15v0.23c0,1.85-0.35,3.51-1.06,4.98s-1.72,2.62-3.04,3.44s-2.83,1.23-4.54,1.23
		c-2.58,0-4.67-0.9-6.27-2.69s-2.4-4.17-2.4-7.12V224.41z M334.9,224.8c0,2.11,0.49,3.8,1.47,5.08s2.29,1.92,3.93,1.92
		c1.65,0,2.96-0.65,3.94-1.94s1.46-3.11,1.46-5.44c0-2.09-0.5-3.78-1.49-5.07s-2.31-1.94-3.95-1.94c-1.61,0-2.9,0.64-3.88,1.92
		S334.9,222.42,334.9,224.8z"/>
	<path fill="#FFFFFF" d="M356.1,215.08l0.11,2.39c1.45-1.83,3.35-2.74,5.7-2.74c4.02,0,6.05,2.27,6.08,6.8v12.57h-3.25v-12.59
		c-0.01-1.37-0.33-2.38-0.94-3.04s-1.57-0.98-2.87-0.98c-1.05,0-1.98,0.28-2.78,0.84s-1.42,1.3-1.86,2.21v13.55h-3.25v-19.02H356.1z
		"/>
	<path fill="#FFFFFF" d="M386.21,210.47v4.61h3.55v2.51h-3.55v11.81c0,0.76,0.16,1.33,0.47,1.72s0.86,0.57,1.62,0.57
		c0.38,0,0.89-0.07,1.55-0.21v2.62c-0.86,0.23-1.69,0.35-2.5,0.35c-1.45,0-2.55-0.44-3.29-1.32s-1.11-2.13-1.11-3.74v-11.79h-3.46
		v-2.51h3.46v-4.61H386.21z"/>
	<path fill="#FFFFFF" d="M392.35,224.41c0-1.86,0.37-3.54,1.1-5.03s1.75-2.64,3.06-3.45s2.8-1.21,4.47-1.21
		c2.59,0,4.68,0.9,6.28,2.69s2.4,4.18,2.4,7.15v0.23c0,1.85-0.35,3.51-1.06,4.98s-1.72,2.62-3.04,3.44s-2.83,1.23-4.54,1.23
		c-2.58,0-4.67-0.9-6.27-2.69s-2.4-4.17-2.4-7.12V224.41z M395.62,224.8c0,2.11,0.49,3.8,1.47,5.08s2.29,1.92,3.93,1.92
		c1.65,0,2.96-0.65,3.94-1.94s1.46-3.11,1.46-5.44c0-2.09-0.5-3.78-1.49-5.07s-2.31-1.94-3.95-1.94c-1.61,0-2.9,0.64-3.88,1.92
		S395.62,222.42,395.62,224.8z"/>
	<path fill="#FFFFFF" d="M427.06,210.47v4.61h3.55v2.51h-3.55v11.81c0,0.76,0.16,1.33,0.47,1.72s0.86,0.57,1.62,0.57
		c0.38,0,0.89-0.07,1.55-0.21v2.62c-0.86,0.23-1.69,0.35-2.5,0.35c-1.45,0-2.55-0.44-3.29-1.32s-1.11-2.13-1.11-3.74v-11.79h-3.46
		v-2.51h3.46v-4.61H427.06z"/>
	<path fill="#FFFFFF" d="M437.66,217.38c1.44-1.77,3.32-2.65,5.63-2.65c4.02,0,6.05,2.27,6.08,6.8v12.57h-3.25v-12.59
		c-0.01-1.37-0.33-2.38-0.94-3.04s-1.57-0.98-2.87-0.98c-1.05,0-1.98,0.28-2.78,0.84s-1.42,1.3-1.86,2.21v13.55h-3.25v-27h3.25
		V217.38z"/>
	<path fill="#FFFFFF" d="M462.13,234.45c-2.58,0-4.68-0.85-6.29-2.54s-2.43-3.96-2.43-6.79v-0.6c0-1.89,0.36-3.57,1.08-5.05
		s1.73-2.64,3.02-3.48s2.7-1.26,4.21-1.26c2.47,0,4.39,0.81,5.77,2.44s2.06,3.96,2.06,7v1.35h-12.88c0.05,1.88,0.59,3.39,1.64,4.54
		s2.38,1.73,4,1.73c1.15,0,2.12-0.23,2.92-0.7s1.49-1.09,2.09-1.86l1.99,1.55C467.71,233.23,465.32,234.45,462.13,234.45z
		 M461.73,217.4c-1.31,0-2.41,0.48-3.3,1.43s-1.44,2.29-1.65,4.02h9.53v-0.25c-0.09-1.65-0.54-2.93-1.34-3.84
		S463.09,217.4,461.73,217.4z"/>
</g>
</svg>
