<?xml version="1.0" encoding="utf-8"?>
<!-- Generator: Adobe Illustrator 16.0.0, SVG Export Plug-In . SVG Version: 6.00 Build 0)  -->
<!DOCTYPE svg PUBLIC "-//W3C//DTD SVG 1.1//EN" "http://www.w3.org/Graphics/SVG/1.1/DTD/svg11.dtd">
<svg version="1.1" id="svg2" xmlns="http://www.w3.org/2000/svg" xmlns:xlink="http://www.w3.org/1999/xlink" x="0px" y="0px"
	 width="512px" height="158px" viewBox="0 177.5 512 158" enable-background="new 0 177.5 512 158" xml:space="preserve">
<path id="path16" fill="#FFFFFF" d="M492.38,184.69c8.68,0,15.85,7.17,15.85,15.85V312.6c0,8.68-7.17,15.85-15.85,15.85H19.62
	c-8.68-0.38-15.85-7.17-15.85-15.85V200.54c0-8.68,7.17-15.85,15.85-15.85H492.38 M492.38,181.67H19.62
	c-10.56,0-18.87,8.3-18.87,18.87V312.6c0,10.19,8.68,18.87,18.87,18.87h472.76c10.56,0,18.87-8.3,18.87-18.87V200.54
	C511.62,189.97,502.94,181.67,492.38,181.67z"/>
<path id="path46" fill="#FFFFFF" d="M258.45,263.17c-9.06,0-16.22,6.79-16.22,15.85c0,9.05,7.17,15.85,16.22,15.85
	c9.05,0,16.22-6.79,16.22-15.85C274.68,269.58,267.51,263.17,258.45,263.17z M258.45,288.45c-4.91,0-9.06-4.15-9.06-9.81
	c0-5.66,4.15-9.81,9.06-9.81c4.9,0,9.05,3.77,9.05,9.81C267.51,284.67,263.36,288.45,258.45,288.45z M223.36,263.17
	c-9.06,0-16.22,6.79-16.22,15.85c0,9.05,7.17,15.85,16.22,15.85s16.22-6.79,16.22-15.85C239.59,269.58,232.42,263.17,223.36,263.17z
	 M223.36,288.45c-4.9,0-9.06-4.15-9.06-9.81c0-5.66,4.15-9.81,9.06-9.81s9.06,3.77,9.06,9.81
	C232.42,284.67,228.27,288.45,223.36,288.45z M181.48,268.07v6.79h16.22c-0.38,3.77-1.89,6.41-3.77,8.3
	c-2.26,2.26-6.04,4.9-12.45,4.9c-10.19,0-17.73-7.92-17.73-18.11c0-10.19,7.92-18.11,17.73-18.11c5.28,0,9.43,2.26,12.45,4.9
	l4.9-4.9c-4.15-3.77-9.43-6.79-16.98-6.79c-13.96,0-25.28,10.94-25.28,24.52s11.7,24.52,25.28,24.52c7.55,0,13.21-2.26,17.36-6.79
	c4.53-4.53,6.04-10.56,6.04-15.85c0-1.51,0-3.02-0.38-4.15C204.5,268.07,181.48,268.07,181.48,268.07L181.48,268.07z M352.78,272.98
	c-1.51-3.4-5.28-10.19-13.96-10.19c-8.3,0-15.09,6.41-15.09,15.85c0,9.05,6.79,15.85,15.85,15.85c7.55,0,11.7-4.53,13.58-7.17
	l-5.66-3.77c-1.89,2.64-4.15,4.53-7.92,4.53c-3.4,0-6.04-1.51-7.92-4.9l21.51-8.68C353.53,274.87,352.78,272.98,352.78,272.98z
	 M330.89,278.26c0-6.04,4.91-9.43,8.3-9.43c2.64,0,5.28,1.51,6.04,3.4C345.23,272.6,330.89,278.26,330.89,278.26L330.89,278.26z
	 M313.54,293.73h7.17v-46.41h-7.17V293.73z M301.84,266.56c-1.89-1.89-4.9-3.4-8.68-3.4c-7.92,0-15.47,7.17-15.47,15.85
	c0,9.05,7.55,15.85,15.47,15.85c3.77,0,6.79-1.51,8.3-3.77h0.38v2.26c0,6.04-3.4,9.43-8.68,9.43c-4.15,0-7.17-3.02-7.92-5.66
	l-6.04,2.64c1.89,4.15,6.41,9.43,14.34,9.43c8.3,0,15.47-4.9,15.47-16.6v-28.67h-7.17V266.56L301.84,266.56z M293.54,288.45
	c-4.9,0-9.05-4.15-9.05-9.43c0-5.66,4.15-9.81,9.05-9.81c4.91,0,8.68,4.15,8.68,9.81C302.22,284.67,298.45,288.45,293.54,288.45z
	 M385.98,247.32H369v46.41h7.17V276h9.81c7.92,0,15.47-5.66,15.47-14.34C401.45,252.6,393.53,247.32,385.98,247.32L385.98,247.32z
	 M385.98,269.58h-10.19v-15.85h10.19c5.28,0,8.3,4.15,8.3,7.92C394.28,265.43,391.26,269.58,385.98,269.58z M429.75,262.79
	c-5.28,0-10.56,2.26-12.45,7.17l6.41,2.64c1.51-2.64,3.77-3.4,6.41-3.4c3.77,0,7.55,2.26,7.55,6.04v0.38
	c-1.13-0.75-4.15-1.89-7.55-1.89c-6.79,0-13.58,3.77-13.58,10.56c0,6.41,5.66,10.19,11.7,10.19c4.91,0,7.55-2.26,9.06-4.53h0.38
	v3.77h6.79v-18.11C444.09,267.7,437.67,262.79,429.75,262.79L429.75,262.79z M428.99,288.45c-2.26,0-5.66-1.13-5.66-3.77
	c0-3.77,4.15-4.91,7.55-4.91c3.02,0,4.53,0.76,6.41,1.51C436.54,285.43,432.77,288.45,428.99,288.45z M468.99,263.92l-7.92,20.37
	h-0.38l-8.3-20.37h-7.55l12.45,28.3l-7.17,15.85h7.55l19.24-44.14H468.99L468.99,263.92z M405.22,293.73h7.17v-46.41h-7.17V293.73z"
	/>
<g id="g48">
	<path id="path64" fill="#41D0FF" d="M40.37,209.97c-1.13,1.13-1.89,3.02-1.89,5.28v82.63c0,2.26,0.75,4.15,1.89,5.28l0.38,0.38
		l46.79-46.41V256L40.37,209.97z"/>
</g>
<g id="g66">
	<path id="path78" fill="#FCC903" d="M103,272.6l-15.47-15.47V256L103,240.53l0.38,0.38l18.49,10.56c5.28,3.02,5.28,7.92,0,10.94
		L103,272.6C103.38,272.22,103,272.6,103,272.6z"/>
</g>
<g id="g80">
	<path id="path88" fill="#F43B45" d="M103.38,272.22l-15.85-15.85l-47.16,46.79c1.89,1.89,4.53,1.89,7.92,0.38L103.38,272.22"/>
</g>
<g id="g90">
	<path id="path104" fill="#5CF076" d="M103.38,240.53l-55.09-30.94c-3.4-1.89-6.04-1.51-7.92,0.38l47.16,46.41L103.38,240.53z"/>
</g>
<g>
	<path fill="#FFFFFF" d="M179.84,225.77c-0.26,2.73-1.27,4.86-3.02,6.39s-4.1,2.29-7.01,2.29c-2.04,0-3.83-0.48-5.39-1.45
		s-2.75-2.34-3.59-4.12s-1.28-3.85-1.32-6.21v-2.39c0-2.41,0.43-4.54,1.28-6.38s2.08-3.26,3.68-4.25s3.45-1.49,5.55-1.49
		c2.82,0,5.1,0.76,6.82,2.29s2.72,3.69,3.01,6.5h-4.43c-0.21-1.84-0.75-3.17-1.61-3.98s-2.12-1.22-3.79-1.22
		c-1.93,0-3.42,0.71-4.46,2.12s-1.57,3.49-1.59,6.22v2.27c0,2.77,0.5,4.88,1.49,6.33s2.44,2.18,4.35,2.18
		c1.75,0,3.06-0.39,3.94-1.18s1.44-2.09,1.67-3.92H179.84z"/>
	<path fill="#FFFFFF" d="M182.6,224.41c0-1.86,0.37-3.54,1.11-5.04s1.78-2.64,3.11-3.45s2.87-1.2,4.61-1.2
		c2.57,0,4.65,0.83,6.25,2.48s2.46,3.84,2.59,6.57l0.02,1c0,1.88-0.36,3.55-1.08,5.03s-1.75,2.62-3.09,3.43s-2.89,1.21-4.65,1.21
		c-2.68,0-4.83-0.89-6.44-2.68s-2.42-4.17-2.42-7.15V224.41z M186.88,224.78c0,1.96,0.4,3.49,1.21,4.6s1.93,1.66,3.38,1.66
		s2.56-0.56,3.37-1.69s1.2-2.77,1.2-4.94c0-1.92-0.41-3.45-1.24-4.57s-1.95-1.69-3.37-1.69c-1.39,0-2.5,0.55-3.32,1.66
		S186.88,222.58,186.88,224.78z"/>
	<path fill="#FFFFFF" d="M207.92,215.08l0.12,1.99c1.34-1.56,3.16-2.34,5.48-2.34c2.54,0,4.28,0.97,5.22,2.92
		c1.38-1.95,3.33-2.92,5.84-2.92c2.1,0,3.66,0.58,4.68,1.74s1.55,2.87,1.57,5.13v12.5h-4.27v-12.38c0-1.21-0.26-2.09-0.79-2.65
		s-1.4-0.84-2.62-0.84c-0.97,0-1.77,0.26-2.38,0.78s-1.05,1.2-1.29,2.05l0.02,13.04h-4.27v-12.52c-0.06-2.24-1.2-3.36-3.43-3.36
		c-1.71,0-2.92,0.7-3.64,2.09v13.78h-4.27v-19.02H207.92z"/>
	<path fill="#FFFFFF" d="M235.23,210.12c0-0.66,0.21-1.21,0.62-1.65s1.01-0.66,1.78-0.66s1.37,0.22,1.79,0.66s0.63,0.99,0.63,1.65
		c0,0.65-0.21,1.19-0.63,1.62s-1.02,0.65-1.79,0.65s-1.37-0.22-1.78-0.65S235.23,210.77,235.23,210.12z M239.77,234.1h-4.27v-19.02
		h4.27V234.1z"/>
	<path fill="#FFFFFF" d="M248.38,215.08l0.12,2.2c1.41-1.7,3.25-2.55,5.54-2.55c3.96,0,5.98,2.27,6.05,6.8v12.57h-4.27v-12.32
		c0-1.21-0.26-2.1-0.78-2.68s-1.37-0.87-2.56-0.87c-1.72,0-3.01,0.78-3.85,2.34v13.54h-4.27v-19.02H248.38z"/>
	<path fill="#FFFFFF" d="M263.69,224.45c0-2.95,0.69-5.31,2.08-7.08s3.23-2.65,5.53-2.65c2.17,0,3.87,0.76,5.12,2.27l0.19-1.92h3.85
		v18.44c0,2.5-0.78,4.46-2.33,5.91s-3.65,2.16-6.28,2.16c-1.39,0-2.76-0.29-4.09-0.87s-2.34-1.34-3.03-2.28l2.02-2.57
		c1.31,1.56,2.93,2.34,4.85,2.34c1.42,0,2.54-0.38,3.36-1.15s1.23-1.9,1.23-3.38v-1.28c-1.23,1.37-2.87,2.06-4.92,2.06
		c-2.23,0-4.05-0.88-5.46-2.65S263.69,227.58,263.69,224.45z M267.95,224.82c0,1.91,0.39,3.41,1.17,4.51s1.86,1.64,3.24,1.64
		c1.72,0,3-0.74,3.83-2.21v-8.37c-0.81-1.44-2.07-2.16-3.8-2.16c-1.41,0-2.5,0.56-3.28,1.67S267.95,222.65,267.95,224.82z"/>
	<path fill="#FFFFFF" d="M304.47,228.93c0-0.76-0.31-1.34-0.94-1.74s-1.67-0.75-3.12-1.05s-2.67-0.69-3.64-1.16
		c-2.13-1.03-3.2-2.53-3.2-4.48c0-1.64,0.69-3.01,2.07-4.11s3.14-1.65,5.27-1.65c2.27,0,4.11,0.56,5.51,1.69s2.1,2.58,2.1,4.38
		h-4.27c0-0.82-0.3-1.5-0.91-2.05s-1.42-0.82-2.43-0.82c-0.94,0-1.7,0.22-2.29,0.65s-0.89,1.01-0.89,1.74
		c0,0.66,0.28,1.17,0.83,1.53s1.66,0.73,3.34,1.1s2.99,0.81,3.95,1.32s1.66,1.12,2.13,1.84s0.69,1.58,0.69,2.6
		c0,1.71-0.71,3.1-2.13,4.16s-3.28,1.59-5.57,1.59c-1.56,0-2.95-0.28-4.17-0.84s-2.17-1.34-2.85-2.32s-1.02-2.04-1.02-3.18h4.15
		c0.06,1.01,0.44,1.78,1.14,2.33s1.63,0.82,2.79,0.82c1.13,0,1.98-0.21,2.57-0.64S304.47,229.62,304.47,228.93z"/>
	<path fill="#FFFFFF" d="M311.59,224.41c0-1.86,0.37-3.54,1.11-5.04s1.78-2.64,3.11-3.45s2.87-1.2,4.61-1.2
		c2.57,0,4.65,0.83,6.25,2.48s2.46,3.84,2.59,6.57l0.02,1c0,1.88-0.36,3.55-1.08,5.03s-1.75,2.62-3.09,3.43s-2.89,1.21-4.65,1.21
		c-2.68,0-4.83-0.89-6.44-2.68s-2.42-4.17-2.42-7.15V224.41z M315.86,224.78c0,1.96,0.4,3.49,1.21,4.6s1.93,1.66,3.38,1.66
		s2.56-0.56,3.37-1.69s1.2-2.77,1.2-4.94c0-1.92-0.41-3.45-1.24-4.57s-1.95-1.69-3.37-1.69c-1.39,0-2.5,0.55-3.32,1.66
		S315.86,222.58,315.86,224.78z"/>
	<path fill="#FFFFFF" d="M332.09,224.41c0-1.86,0.37-3.54,1.11-5.04s1.78-2.64,3.11-3.45s2.87-1.2,4.61-1.2
		c2.57,0,4.65,0.83,6.25,2.48s2.46,3.84,2.59,6.57l0.02,1c0,1.88-0.36,3.55-1.08,5.03s-1.75,2.62-3.09,3.43s-2.89,1.21-4.65,1.21
		c-2.68,0-4.83-0.89-6.44-2.68s-2.42-4.17-2.42-7.15V224.41z M336.36,224.78c0,1.96,0.4,3.49,1.21,4.6s1.93,1.66,3.38,1.66
		s2.56-0.56,3.37-1.69s1.2-2.77,1.2-4.94c0-1.92-0.41-3.45-1.24-4.57s-1.95-1.69-3.37-1.69c-1.39,0-2.5,0.55-3.32,1.66
		S336.36,222.58,336.36,224.78z"/>
	<path fill="#FFFFFF" d="M357.35,215.08l0.12,2.2c1.41-1.7,3.25-2.55,5.54-2.55c3.96,0,5.98,2.27,6.05,6.8v12.57h-4.27v-12.32
		c0-1.21-0.26-2.1-0.78-2.68s-1.37-0.87-2.56-0.87c-1.72,0-3.01,0.78-3.85,2.34v13.54h-4.27v-19.02H357.35z"/>
	<path fill="#FFFFFF" d="M387.72,210.46v4.62h3.36v3.16h-3.36v10.62c0,0.73,0.14,1.25,0.43,1.57s0.8,0.48,1.54,0.48
		c0.49,0,0.99-0.06,1.49-0.18v3.3c-0.97,0.27-1.91,0.4-2.81,0.4c-3.28,0-4.92-1.81-4.92-5.43v-10.78h-3.13v-3.16h3.13v-4.62H387.72z
		"/>
	<path fill="#FFFFFF" d="M393.01,224.41c0-1.86,0.37-3.54,1.11-5.04s1.78-2.64,3.11-3.45s2.87-1.2,4.61-1.2
		c2.57,0,4.65,0.83,6.25,2.48s2.46,3.84,2.59,6.57l0.02,1c0,1.88-0.36,3.55-1.08,5.03s-1.75,2.62-3.09,3.43s-2.89,1.21-4.65,1.21
		c-2.68,0-4.83-0.89-6.44-2.68s-2.42-4.17-2.42-7.15V224.41z M397.29,224.78c0,1.96,0.4,3.49,1.21,4.6s1.93,1.66,3.38,1.66
		s2.56-0.56,3.37-1.69s1.2-2.77,1.2-4.94c0-1.92-0.41-3.45-1.24-4.57s-1.95-1.69-3.37-1.69c-1.39,0-2.5,0.55-3.32,1.66
		S397.29,222.58,397.29,224.78z"/>
	<path fill="#FFFFFF" d="M428.63,210.46v4.62h3.36v3.16h-3.36v10.62c0,0.73,0.14,1.25,0.43,1.57s0.8,0.48,1.54,0.48
		c0.49,0,0.99-0.06,1.49-0.18v3.3c-0.97,0.27-1.91,0.4-2.81,0.4c-3.28,0-4.92-1.81-4.92-5.43v-10.78h-3.13v-3.16h3.13v-4.62H428.63z
		"/>
	<path fill="#FFFFFF" d="M439.46,217.15c1.39-1.62,3.16-2.43,5.29-2.43c4.05,0,6.11,2.31,6.17,6.94v12.43h-4.27v-12.27
		c0-1.31-0.28-2.24-0.85-2.79s-1.4-0.82-2.5-0.82c-1.71,0-2.99,0.76-3.83,2.29v13.59h-4.27v-27h4.27V217.15z"/>
	<path fill="#FFFFFF" d="M463.61,234.45c-2.71,0-4.9-0.85-6.58-2.56s-2.52-3.98-2.52-6.81v-0.53c0-1.9,0.37-3.59,1.1-5.09
		s1.76-2.66,3.08-3.49s2.8-1.25,4.43-1.25c2.59,0,4.59,0.83,6,2.48s2.12,3.99,2.12,7.01v1.72h-12.43c0.13,1.57,0.65,2.81,1.57,3.73
		s2.08,1.37,3.47,1.37c1.96,0,3.55-0.79,4.78-2.37l2.3,2.2c-0.76,1.14-1.78,2.02-3.05,2.65S465.19,234.45,463.61,234.45z
		 M463.1,218.15c-1.17,0-2.12,0.41-2.84,1.23s-1.18,1.96-1.38,3.43h8.14v-0.32c-0.09-1.43-0.47-2.51-1.14-3.24
		S464.28,218.15,463.1,218.15z"/>
</g>
</svg>
