<?xml version="1.0" encoding="utf-8"?>
<!-- Generator: Adobe Illustrator 16.0.0, SVG Export Plug-In . SVG Version: 6.00 Build 0)  -->
<!DOCTYPE svg PUBLIC "-//W3C//DTD SVG 1.1//EN" "http://www.w3.org/Graphics/SVG/1.1/DTD/svg11.dtd">
<svg version="1.1" id="Layer_1" xmlns="http://www.w3.org/2000/svg" xmlns:xlink="http://www.w3.org/1999/xlink" x="0px" y="0px"
	 width="1600px" height="540px" viewBox="0 0 1600 540" enable-background="new 0 0 1600 540" xml:space="preserve">
<g>
	<g opacity="0.5">
		<path opacity="0.2" fill="#2B4F5B" d="M1523.533,460.518h-115.016c0,31.761,25.747,57.508,57.508,57.508
			C1497.785,518.025,1523.533,492.278,1523.533,460.518z"/>
		<g>
			<path fill="#E86048" d="M837.477,203.431c-3.539-3.763-6.225-8.339-7.746-13.417L837.477,203.431z"/>
			<path fill="#E86048" d="M845.334,209.629c-0.76-0.436-1.5-0.899-2.223-1.381l-14.705-25.471c-0.064-0.806-0.092-1.63-0.092-2.455
				v-0.177L845.334,209.629z"/>
			<path fill="#E86048" d="M851.125,212.251c-0.611-0.213-1.223-0.436-1.816-0.686l-20.689-35.829
				c0.094-0.649,0.195-1.288,0.324-1.918L851.125,212.251z"/>
			<path fill="#E86048" d="M856.146,213.538c-0.537-0.092-1.074-0.203-1.602-0.323l-24.738-42.834
				c0.156-0.528,0.332-1.057,0.518-1.565l9.572,16.565c1.018,4.521,3.398,8.534,6.68,11.582L856.146,213.538z"/>
			<path fill="#E86048" d="M832.188,164.618l7.338,12.702c-0.102,0.714-0.168,1.436-0.186,2.168l-7.82-13.546
				C831.732,165.497,831.955,165.053,832.188,164.618z"/>
			<path fill="#E86048" d="M860.715,214.03c-0.5-0.02-0.99-0.047-1.482-0.094l-7.801-13.518c0.629,0.343,1.287,0.648,1.963,0.927
				L860.715,214.03z"/>
			<path fill="#E86048" d="M834.383,161.014l6.449,11.164c-0.203,0.501-0.381,1.02-0.537,1.538l-6.672-11.563
				C833.863,161.764,834.123,161.393,834.383,161.014z"/>
			<path fill="#E86048" d="M864.93,213.928c-0.443,0.046-0.898,0.074-1.361,0.093l-6.67-11.554c0.527,0.13,1.064,0.231,1.602,0.314
				L864.93,213.928z"/>
			<path fill="#E86048" d="M836.857,157.882l5.957,10.322c-0.25,0.397-0.492,0.806-0.723,1.223l-6.088-10.554
				C836.283,158.539,836.57,158.206,836.857,157.882z"/>
			<path fill="#E86048" d="M868.887,213.362c-0.426,0.093-0.852,0.176-1.287,0.241l-6.098-10.554c0.186,0.01,0.371,0.01,0.557,0.01
				c0.297,0,0.584-0.01,0.871-0.019L868.887,213.362z"/>
			<path fill="#E86048" d="M839.57,155.167l5.682,9.84c-0.297,0.324-0.584,0.649-0.854,0.991l-5.754-9.97
				C838.951,155.723,839.256,155.436,839.57,155.167z"/>
			<path fill="#E86048" d="M872.602,212.38c-0.398,0.13-0.805,0.26-1.213,0.371l-5.754-9.97c0.426-0.073,0.854-0.148,1.279-0.25
				L872.602,212.38z"/>
			<path fill="#E86048" d="M842.49,152.832l5.549,9.6c-0.332,0.24-0.646,0.509-0.963,0.796l-5.578-9.663
				C841.822,153.313,842.156,153.063,842.49,152.832z"/>
			<path fill="#E86048" d="M876.086,211.018c-0.369,0.167-0.75,0.334-1.131,0.492l-5.578-9.655c0.4-0.139,0.789-0.277,1.168-0.444
				L876.086,211.018z"/>
			<path fill="#E86048" d="M845.631,150.841l5.504,9.533c-0.361,0.195-0.723,0.408-1.066,0.63l-5.502-9.543
				C844.918,151.248,845.27,151.044,845.631,150.841z"/>
			<path fill="#E86048" d="M879.375,209.286c-0.352,0.213-0.713,0.416-1.074,0.611l-5.504-9.524
				c0.361-0.204,0.723-0.408,1.074-0.621L879.375,209.286z"/>
			<path fill="#E86048" d="M848.967,149.21l5.578,9.654c-0.398,0.129-0.789,0.278-1.178,0.435l-5.531-9.579
				C848.207,149.543,848.586,149.376,848.967,149.21z"/>
			<path fill="#E86048" d="M882.451,207.21c-0.324,0.25-0.666,0.491-1,0.732l-5.541-9.599c0.334-0.251,0.648-0.51,0.963-0.788
				L882.451,207.21z"/>
			<path fill="#E86048" d="M852.523,147.949l5.746,9.961c-0.436,0.063-0.863,0.147-1.279,0.25l-5.68-9.831
				C851.719,148.19,852.117,148.061,852.523,147.949z"/>
			<path fill="#E86048" d="M885.324,204.765c-0.307,0.287-0.621,0.574-0.936,0.852l-5.672-9.83c0.297-0.315,0.584-0.639,0.861-0.973
				L885.324,204.765z"/>
			<path fill="#E86048" d="M856.295,147.069l6.068,10.525c-0.102-0.01-0.203-0.01-0.305-0.01c-0.371,0-0.74,0.01-1.104,0.028
				l-5.947-10.294C855.434,147.227,855.859,147.144,856.295,147.069z"/>
			<path fill="#E86048" d="M887.965,201.938c-0.279,0.333-0.566,0.667-0.854,0.991l-5.939-10.293
				c0.252-0.39,0.502-0.798,0.725-1.205L887.965,201.938z"/>
			<path fill="#E86048" d="M860.316,146.624l6.635,11.498c-0.529-0.129-1.057-0.222-1.594-0.296l-6.412-11.1
				C859.398,146.68,859.854,146.644,860.316,146.624z"/>
			<path fill="#E86048" d="M890.373,198.686c-0.25,0.381-0.51,0.761-0.77,1.131l-6.41-11.1c0.203-0.491,0.379-1,0.547-1.52
				L890.373,198.686z"/>
			<path fill="#E86048" d="M864.625,146.68l7.717,13.36c-0.629-0.324-1.268-0.611-1.936-0.87l-7.264-12.573
				C863.643,146.615,864.135,146.634,864.625,146.68z"/>
			<path fill="#E86048" d="M892.486,194.934c-0.213,0.445-0.436,0.88-0.668,1.315l-7.264-12.582
				c0.102-0.695,0.166-1.398,0.203-2.112L892.486,194.934z"/>
			<path fill="#E86048" d="M869.295,147.356l12.434,21.542c-1.25-2.149-2.844-4.067-4.707-5.689l-9.33-16.158
				C868.229,147.134,868.766,147.235,869.295,147.356z"/>
			<path fill="#E86048" d="M894.229,190.542c-0.168,0.519-0.344,1.037-0.529,1.538l-9.33-16.149
				c-0.49-2.521-1.398-4.893-2.641-7.032L894.229,190.542z"/>
			<path fill="#E86048" d="M895.451,185.233c-0.094,0.639-0.205,1.269-0.334,1.899l-22.432-38.85
				c0.611,0.204,1.215,0.426,1.807,0.666L895.451,185.233z"/>
			<path fill="#E86048" d="M895.803,180.322c0,0.194,0,0.39-0.01,0.584l-17.371-30.103c0.75,0.416,1.473,0.852,2.186,1.333
				l15.131,26.203C895.785,178.988,895.803,179.655,895.803,180.322z"/>
			<path fill="#E86048" d="M894.625,171.455l-8.598-14.889C890.066,160.643,893.078,165.748,894.625,171.455z"/>
		</g>
		<g>
			<path fill="#2B4F5B" d="M79.77,159.955c-3.539-3.762-6.227-8.339-7.746-13.416L79.77,159.955z"/>
			<path fill="#2B4F5B" d="M87.626,166.153c-0.76-0.435-1.501-0.898-2.224-1.38l-14.704-25.471
				c-0.065-0.806-0.093-1.631-0.093-2.456v-0.176L87.626,166.153z"/>
			<path fill="#2B4F5B" d="M93.417,168.775c-0.611-0.213-1.223-0.436-1.816-0.686L70.912,132.26
				c0.093-0.648,0.195-1.288,0.324-1.917L93.417,168.775z"/>
			<path fill="#2B4F5B" d="M98.439,170.063c-0.537-0.093-1.075-0.204-1.603-0.324l-24.739-42.833
				c0.158-0.528,0.334-1.057,0.519-1.566l9.571,16.566c1.019,4.521,3.4,8.533,6.68,11.582L98.439,170.063z"/>
			<path fill="#2B4F5B" d="M74.479,121.142l7.338,12.703c-0.102,0.713-0.167,1.436-0.185,2.168l-7.82-13.546
				C74.025,122.022,74.248,121.578,74.479,121.142z"/>
			<path fill="#2B4F5B" d="M103.007,170.554c-0.5-0.019-0.991-0.047-1.482-0.093l-7.801-13.518c0.63,0.343,1.288,0.648,1.964,0.926
				L103.007,170.554z"/>
			<path fill="#2B4F5B" d="M76.675,117.538l6.449,11.165c-0.204,0.5-0.38,1.019-0.538,1.538l-6.671-11.563
				C76.156,118.289,76.416,117.917,76.675,117.538z"/>
			<path fill="#2B4F5B" d="M107.223,170.452c-0.444,0.047-0.899,0.075-1.362,0.093l-6.671-11.554
				c0.528,0.13,1.065,0.231,1.603,0.315L107.223,170.452z"/>
			<path fill="#2B4F5B" d="M79.149,114.406l5.958,10.322c-0.25,0.398-0.491,0.806-0.723,1.223l-6.087-10.554
				C78.574,115.064,78.862,114.73,79.149,114.406z"/>
			<path fill="#2B4F5B" d="M111.179,169.887c-0.426,0.093-0.853,0.176-1.288,0.24l-6.097-10.553
				c0.186,0.009,0.371,0.009,0.556,0.009c0.297,0,0.584-0.009,0.871-0.018L111.179,169.887z"/>
			<path fill="#2B4F5B" d="M81.863,111.691l5.68,9.84c-0.296,0.325-0.584,0.649-0.852,0.991l-5.754-9.969
				C81.242,112.248,81.548,111.96,81.863,111.691z"/>
			<path fill="#2B4F5B" d="M114.894,168.905c-0.398,0.13-0.806,0.26-1.213,0.371l-5.754-9.97c0.426-0.074,0.853-0.148,1.279-0.25
				L114.894,168.905z"/>
			<path fill="#2B4F5B" d="M84.782,109.357l5.55,9.599c-0.333,0.241-0.648,0.51-0.964,0.797l-5.578-9.664
				C84.115,109.838,84.448,109.588,84.782,109.357z"/>
			<path fill="#2B4F5B" d="M118.378,167.542c-0.371,0.167-0.75,0.334-1.13,0.491l-5.578-9.654c0.398-0.139,0.787-0.278,1.167-0.444
				L118.378,167.542z"/>
			<path fill="#2B4F5B" d="M87.923,107.364l5.504,9.534c-0.361,0.195-0.723,0.408-1.066,0.63l-5.503-9.543
				C87.209,107.772,87.562,107.569,87.923,107.364z"/>
			<path fill="#2B4F5B" d="M121.667,165.81c-0.352,0.214-0.713,0.417-1.075,0.611l-5.504-9.524c0.361-0.204,0.723-0.407,1.075-0.62
				L121.667,165.81z"/>
			<path fill="#2B4F5B" d="M91.258,105.734l5.578,9.654c-0.399,0.13-0.788,0.278-1.177,0.436l-5.531-9.58
				C90.499,106.067,90.878,105.9,91.258,105.734z"/>
			<path fill="#2B4F5B" d="M124.743,163.735c-0.324,0.25-0.667,0.491-1,0.731l-5.541-9.598c0.333-0.251,0.648-0.511,0.963-0.788
				L124.743,163.735z"/>
			<path fill="#2B4F5B" d="M94.816,104.474l5.745,9.96c-0.435,0.065-0.861,0.148-1.278,0.25l-5.68-9.831
				C94.01,104.715,94.409,104.585,94.816,104.474z"/>
			<path fill="#2B4F5B" d="M127.616,161.289c-0.306,0.288-0.621,0.574-0.936,0.853l-5.67-9.83c0.296-0.315,0.583-0.64,0.861-0.974
				L127.616,161.289z"/>
			<path fill="#2B4F5B" d="M98.587,103.594l6.069,10.525c-0.102-0.009-0.204-0.009-0.306-0.009c-0.37,0-0.741,0.009-1.103,0.028
				L97.3,103.844C97.726,103.751,98.152,103.668,98.587,103.594z"/>
			<path fill="#2B4F5B" d="M130.256,158.463c-0.278,0.333-0.565,0.666-0.853,0.991l-5.939-10.294c0.25-0.39,0.5-0.797,0.723-1.205
				L130.256,158.463z"/>
			<path fill="#2B4F5B" d="M102.608,103.149l6.634,11.498c-0.528-0.129-1.056-0.222-1.593-0.296l-6.412-11.1
				C101.691,103.205,102.145,103.167,102.608,103.149z"/>
			<path fill="#2B4F5B" d="M132.666,155.21c-0.25,0.38-0.51,0.76-0.769,1.131l-6.412-11.101c0.204-0.49,0.38-1,0.547-1.52
				L132.666,155.21z"/>
			<path fill="#2B4F5B" d="M106.917,103.205l7.718,13.36c-0.63-0.324-1.27-0.611-1.937-0.871l-7.264-12.573
				C105.935,103.14,106.426,103.158,106.917,103.205z"/>
			<path fill="#2B4F5B" d="M134.778,151.458c-0.214,0.444-0.436,0.88-0.668,1.315l-7.264-12.582
				c0.102-0.695,0.167-1.399,0.204-2.113L134.778,151.458z"/>
			<path fill="#2B4F5B" d="M111.587,103.881l12.434,21.542c-1.25-2.15-2.844-4.067-4.707-5.689l-9.33-16.159
				C110.521,103.658,111.059,103.76,111.587,103.881z"/>
			<path fill="#2B4F5B" d="M136.52,147.067c-0.167,0.519-0.343,1.037-0.528,1.538l-9.331-16.15c-0.491-2.52-1.399-4.892-2.641-7.032
				L136.52,147.067z"/>
			<path fill="#2B4F5B" d="M137.743,141.757c-0.093,0.64-0.204,1.27-0.333,1.899l-22.431-38.85c0.611,0.204,1.213,0.427,1.807,0.667
				L137.743,141.757z"/>
			<path fill="#2B4F5B" d="M138.095,136.847c0,0.195,0,0.389-0.009,0.584l-17.372-30.103c0.75,0.417,1.473,0.852,2.186,1.334
				l15.13,26.202C138.076,135.513,138.095,136.18,138.095,136.847z"/>
			<path fill="#2B4F5B" d="M136.918,127.98l-8.598-14.889C132.36,117.167,135.371,122.272,136.918,127.98z"/>
		</g>
		<g id="XMLID_350_">
			<g id="XMLID_351_">
				<g id="XMLID_360_">
					
						<rect id="XMLID_361_" x="1420.422" y="454.996" transform="matrix(0.7067 0.7075 -0.7075 0.7067 745.1084 -869.2969)" fill="#FFFFFF" width="1.147" height="18.031"/>
				</g>
				<g id="XMLID_358_">
					
						<rect id="XMLID_359_" x="1433.172" y="454.997" transform="matrix(0.7063 0.708 -0.708 0.7063 749.6573 -878.7302)" fill="#FFFFFF" width="1.146" height="18.03"/>
				</g>
				<g id="XMLID_356_">
					
						<rect id="XMLID_357_" x="1445.922" y="454.996" transform="matrix(0.7071 0.7071 -0.7071 0.7071 751.7747 -886.9214)" fill="#FFFFFF" width="1.148" height="18.031"/>
				</g>
				<g id="XMLID_354_">
					
						<rect id="XMLID_355_" x="1458.672" y="454.996" transform="matrix(0.7063 0.708 -0.708 0.7063 757.1479 -896.7836)" fill="#FFFFFF" width="1.146" height="18.031"/>
				</g>
				<g id="XMLID_352_">
					
						<rect id="XMLID_353_" x="1471.422" y="454.996" transform="matrix(0.7063 0.708 -0.708 0.7063 760.8932 -905.8101)" fill="#FFFFFF" width="1.146" height="18.031"/>
				</g>
			</g>
		</g>
		<g id="XMLID_81_">
			<g id="XMLID_82_">
				<g id="XMLID_91_">
					
						<rect id="XMLID_92_" x="1433.172" y="439.017" transform="matrix(0.7071 0.7071 -0.7071 0.7071 736.7408 -882.5852)" fill="#272361" width="1.146" height="18.031"/>
				</g>
				<g id="XMLID_89_">
					
						<rect id="XMLID_90_" x="1445.922" y="439.017" transform="matrix(0.7071 0.7071 -0.7071 0.7071 740.4752 -891.6008)" fill="#272361" width="1.146" height="18.031"/>
				</g>
				<g id="XMLID_87_">
					
						<rect id="XMLID_88_" x="1458.672" y="439.017" transform="matrix(0.7071 0.7071 -0.7071 0.7071 744.2097 -900.6165)" fill="#272361" width="1.146" height="18.031"/>
				</g>
				<g id="XMLID_85_">
					
						<rect id="XMLID_86_" x="1471.422" y="439.017" transform="matrix(0.7071 0.7071 -0.7071 0.7071 747.9441 -909.6321)" fill="#272361" width="1.146" height="18.031"/>
				</g>
				<g id="XMLID_83_">
					
						<rect id="XMLID_84_" x="1484.172" y="439.017" transform="matrix(0.7071 0.7071 -0.7071 0.7071 751.6785 -918.6477)" fill="#272361" width="1.146" height="18.031"/>
				</g>
			</g>
		</g>
		<g id="XMLID_784_">
			<g id="XMLID_785_">
				<g id="XMLID_794_">
					
						<rect id="XMLID_795_" x="1071.912" y="134.602" transform="matrix(0.7071 0.7071 -0.7071 0.7071 415.6768 -716.297)" fill="#272361" width="1.146" height="18.031"/>
				</g>
				<g id="XMLID_792_">
					
						<rect id="XMLID_793_" x="1084.662" y="134.602" transform="matrix(0.7071 0.7071 -0.7071 0.7071 419.4111 -725.3126)" fill="#272361" width="1.146" height="18.031"/>
				</g>
				<g id="XMLID_790_">
					
						<rect id="XMLID_791_" x="1097.412" y="134.602" transform="matrix(0.7071 0.7071 -0.7071 0.7071 423.1455 -734.3282)" fill="#272361" width="1.146" height="18.031"/>
				</g>
				<g id="XMLID_788_">
					
						<rect id="XMLID_789_" x="1110.162" y="134.602" transform="matrix(0.7071 0.7071 -0.7071 0.7071 426.8799 -743.3439)" fill="#272361" width="1.146" height="18.031"/>
				</g>
				<g id="XMLID_786_">
					
						<rect id="XMLID_787_" x="1122.912" y="134.602" transform="matrix(0.7071 0.7071 -0.7071 0.7071 430.6143 -752.3594)" fill="#272361" width="1.146" height="18.031"/>
				</g>
			</g>
		</g>
		<g id="XMLID_310_">
			<g id="XMLID_337_">
				<path id="XMLID_338_" fill="#272361" d="M1296.947,297.89c0-0.592,0.476-1.067,1.064-1.067l0,0c0.591,0,1.07,0.476,1.07,1.067
					l0,0c0,0.588-0.479,1.066-1.07,1.066l0,0C1297.423,298.956,1296.947,298.478,1296.947,297.89z M1285.974,297.89
					c0-0.592,0.476-1.067,1.067-1.067l0,0c0.588,0,1.066,0.476,1.066,1.067l0,0c0,0.588-0.479,1.066-1.066,1.066l0,0
					C1286.449,298.956,1285.974,298.478,1285.974,297.89z M1275,297.89c0-0.592,0.476-1.067,1.066-1.067l0,0
					c0.588,0,1.066,0.476,1.066,1.067l0,0c0,0.588-0.479,1.066-1.066,1.066l0,0C1275.476,298.956,1275,298.478,1275,297.89z
					 M1264.025,297.89c0-0.592,0.476-1.067,1.067-1.067l0,0c0.589,0,1.066,0.476,1.066,1.067l0,0c0,0.588-0.478,1.066-1.066,1.066
					l0,0C1264.501,298.956,1264.025,298.478,1264.025,297.89z M1253.051,297.89c0-0.592,0.477-1.067,1.068-1.067l0,0
					c0.587,0,1.063,0.476,1.063,1.067l0,0c0,0.588-0.476,1.066-1.063,1.066l0,0C1253.527,298.956,1253.051,298.478,1253.051,297.89z
					 M1242.077,297.89c0-0.592,0.476-1.067,1.067-1.067l0,0c0.588,0,1.067,0.476,1.067,1.067l0,0c0,0.588-0.479,1.066-1.067,1.066
					l0,0C1242.553,298.956,1242.077,298.478,1242.077,297.89z M1231.104,297.89c0-0.592,0.476-1.067,1.066-1.067l0,0
					c0.589,0,1.067,0.476,1.067,1.067l0,0c0,0.588-0.479,1.066-1.067,1.066l0,0C1231.579,298.956,1231.104,298.478,1231.104,297.89z
					 M1220.126,297.89c0-0.592,0.479-1.067,1.07-1.067l0,0c0.589,0,1.067,0.476,1.067,1.067l0,0c0,0.588-0.479,1.066-1.067,1.066
					l0,0C1220.604,298.956,1220.126,298.478,1220.126,297.89z M1209.154,297.89c0-0.592,0.477-1.067,1.068-1.067l0,0
					c0.588,0,1.066,0.476,1.066,1.067l0,0c0,0.588-0.479,1.066-1.066,1.066l0,0C1209.631,298.956,1209.154,298.478,1209.154,297.89z
					 M1198.181,297.89c0-0.592,0.476-1.067,1.067-1.067l0,0c0.588,0,1.067,0.476,1.067,1.067l0,0c0,0.588-0.479,1.066-1.067,1.066
					l0,0C1198.656,298.956,1198.181,298.478,1198.181,297.89z M1187.207,297.89c0-0.592,0.476-1.067,1.066-1.067l0,0
					c0.589,0,1.067,0.476,1.067,1.067l0,0c0,0.588-0.479,1.066-1.067,1.066l0,0C1187.683,298.956,1187.207,298.478,1187.207,297.89z
					"/>
			</g>
			<g id="XMLID_324_">
				<path id="XMLID_325_" fill="#272361" d="M1296.947,310.57c0-0.588,0.476-1.066,1.064-1.066l0,0c0.591,0,1.07,0.479,1.07,1.066
					l0,0c0,0.589-0.479,1.067-1.07,1.067l0,0C1297.423,311.638,1296.947,311.159,1296.947,310.57z M1285.974,310.57
					c0-0.588,0.476-1.066,1.067-1.066l0,0c0.588,0,1.066,0.479,1.066,1.066l0,0c0,0.589-0.479,1.067-1.066,1.067l0,0
					C1286.449,311.638,1285.974,311.159,1285.974,310.57z M1275,310.57c0-0.588,0.476-1.066,1.066-1.066l0,0
					c0.588,0,1.066,0.479,1.066,1.066l0,0c0,0.589-0.479,1.067-1.066,1.067l0,0C1275.476,311.638,1275,311.159,1275,310.57z
					 M1264.025,310.57c0-0.588,0.476-1.066,1.067-1.066l0,0c0.589,0,1.066,0.479,1.066,1.066l0,0c0,0.589-0.478,1.067-1.066,1.067
					l0,0C1264.501,311.638,1264.025,311.159,1264.025,310.57z M1253.051,310.57c0-0.588,0.477-1.066,1.068-1.066l0,0
					c0.587,0,1.063,0.479,1.063,1.066l0,0c0,0.589-0.476,1.067-1.063,1.067l0,0C1253.527,311.638,1253.051,311.159,1253.051,310.57z
					 M1242.077,310.57c0-0.588,0.476-1.066,1.067-1.066l0,0c0.588,0,1.067,0.479,1.067,1.066l0,0c0,0.589-0.479,1.067-1.067,1.067
					l0,0C1242.553,311.638,1242.077,311.159,1242.077,310.57z M1231.104,310.57c0-0.588,0.476-1.066,1.066-1.066l0,0
					c0.589,0,1.067,0.479,1.067,1.066l0,0c0,0.589-0.479,1.067-1.067,1.067l0,0C1231.579,311.638,1231.104,311.159,1231.104,310.57z
					 M1220.126,310.57c0-0.588,0.479-1.066,1.07-1.066l0,0c0.589,0,1.067,0.479,1.067,1.066l0,0c0,0.589-0.479,1.067-1.067,1.067
					l0,0C1220.604,311.638,1220.126,311.159,1220.126,310.57z M1209.154,310.57c0-0.588,0.477-1.066,1.068-1.066l0,0
					c0.588,0,1.066,0.479,1.066,1.066l0,0c0,0.589-0.479,1.067-1.066,1.067l0,0C1209.631,311.638,1209.154,311.159,1209.154,310.57z
					 M1198.181,310.57c0-0.588,0.476-1.066,1.067-1.066l0,0c0.588,0,1.067,0.479,1.067,1.066l0,0c0,0.589-0.479,1.067-1.067,1.067
					l0,0C1198.656,311.638,1198.181,311.159,1198.181,310.57z M1187.207,310.57c0-0.588,0.476-1.066,1.066-1.066l0,0
					c0.589,0,1.067,0.479,1.067,1.066l0,0c0,0.589-0.479,1.067-1.067,1.067l0,0C1187.683,311.638,1187.207,311.159,1187.207,310.57z
					"/>
			</g>
			<g id="XMLID_311_">
				<path id="XMLID_312_" fill="#272361" d="M1296.947,323.255c0-0.592,0.476-1.067,1.064-1.067l0,0c0.591,0,1.07,0.476,1.07,1.067
					l0,0c0,0.588-0.479,1.063-1.07,1.063l0,0C1297.423,324.318,1296.947,323.843,1296.947,323.255z M1285.974,323.255
					c0-0.592,0.476-1.067,1.067-1.067l0,0c0.588,0,1.066,0.476,1.066,1.067l0,0c0,0.588-0.479,1.063-1.066,1.063l0,0
					C1286.449,324.318,1285.974,323.843,1285.974,323.255z M1275,323.255c0-0.592,0.476-1.067,1.066-1.067l0,0
					c0.588,0,1.066,0.476,1.066,1.067l0,0c0,0.588-0.479,1.063-1.066,1.063l0,0C1275.476,324.318,1275,323.843,1275,323.255z
					 M1264.025,323.255c0-0.592,0.476-1.067,1.067-1.067l0,0c0.589,0,1.066,0.476,1.066,1.067l0,0c0,0.588-0.478,1.063-1.066,1.063
					l0,0C1264.501,324.318,1264.025,323.843,1264.025,323.255z M1253.051,323.255c0-0.592,0.477-1.067,1.068-1.067l0,0
					c0.587,0,1.063,0.476,1.063,1.067l0,0c0,0.588-0.476,1.063-1.063,1.063l0,0C1253.527,324.318,1253.051,323.843,1253.051,323.255
					z M1242.077,323.255c0-0.592,0.476-1.067,1.067-1.067l0,0c0.588,0,1.067,0.476,1.067,1.067l0,0c0,0.588-0.479,1.063-1.067,1.063
					l0,0C1242.553,324.318,1242.077,323.843,1242.077,323.255z M1231.104,323.255c0-0.592,0.476-1.067,1.066-1.067l0,0
					c0.589,0,1.067,0.476,1.067,1.067l0,0c0,0.588-0.479,1.063-1.067,1.063l0,0C1231.579,324.318,1231.104,323.843,1231.104,323.255
					z M1220.126,323.255c0-0.592,0.479-1.067,1.07-1.067l0,0c0.589,0,1.067,0.476,1.067,1.067l0,0c0,0.588-0.479,1.063-1.067,1.063
					l0,0C1220.604,324.318,1220.126,323.843,1220.126,323.255z M1209.154,323.255c0-0.592,0.477-1.067,1.068-1.067l0,0
					c0.588,0,1.066,0.476,1.066,1.067l0,0c0,0.588-0.479,1.063-1.066,1.063l0,0C1209.631,324.318,1209.154,323.843,1209.154,323.255
					z M1198.181,323.255c0-0.592,0.476-1.067,1.067-1.067l0,0c0.588,0,1.067,0.476,1.067,1.067l0,0c0,0.588-0.479,1.063-1.067,1.063
					l0,0C1198.656,324.318,1198.181,323.843,1198.181,323.255z M1187.207,323.255c0-0.592,0.476-1.067,1.066-1.067l0,0
					c0.589,0,1.067,0.476,1.067,1.067l0,0c0,0.588-0.479,1.063-1.067,1.063l0,0C1187.683,324.318,1187.207,323.843,1187.207,323.255
					z"/>
			</g>
		</g>
		<g id="XMLID_19_">
			<g id="XMLID_46_">
				<path id="XMLID_47_" fill="#272361" d="M636.728,470.316c0,0.611-0.491,1.102-1.099,1.102l0,0c-0.61,0-1.104-0.49-1.104-1.102
					l0,0c0-0.607,0.494-1.102,1.104-1.102l0,0C636.236,469.215,636.728,469.709,636.728,470.316z M648.052,470.316
					c0,0.611-0.491,1.102-1.102,1.102l0,0c-0.607,0-1.102-0.49-1.102-1.102l0,0c0-0.607,0.494-1.102,1.102-1.102l0,0
					C647.561,469.215,648.052,469.709,648.052,470.316z M659.376,470.316c0,0.611-0.49,1.102-1.102,1.102l0,0
					c-0.607,0-1.101-0.49-1.101-1.102l0,0c0-0.607,0.493-1.102,1.101-1.102l0,0C658.886,469.215,659.376,469.709,659.376,470.316z
					 M670.7,470.316c0,0.611-0.491,1.102-1.102,1.102l0,0c-0.607,0-1.101-0.49-1.101-1.102l0,0c0-0.607,0.493-1.102,1.101-1.102l0,0
					C670.209,469.215,670.7,469.709,670.7,470.316z M682.024,470.316c0,0.611-0.491,1.102-1.102,1.102l0,0
					c-0.606,0-1.098-0.49-1.098-1.102l0,0c0-0.607,0.491-1.102,1.098-1.102l0,0C681.533,469.215,682.024,469.709,682.024,470.316z
					 M693.349,470.316c0,0.611-0.49,1.102-1.101,1.102l0,0c-0.607,0-1.102-0.49-1.102-1.102l0,0c0-0.607,0.494-1.102,1.102-1.102
					l0,0C692.858,469.215,693.349,469.709,693.349,470.316z M704.673,470.316c0,0.611-0.49,1.102-1.101,1.102l0,0
					c-0.607,0-1.102-0.49-1.102-1.102l0,0c0-0.607,0.494-1.102,1.102-1.102l0,0C704.183,469.215,704.673,469.709,704.673,470.316z
					 M716,470.316c0,0.611-0.493,1.102-1.104,1.102l0,0c-0.606,0-1.102-0.49-1.102-1.102l0,0c0-0.607,0.495-1.102,1.102-1.102l0,0
					C715.507,469.215,716,469.709,716,470.316z M727.321,470.316c0,0.611-0.49,1.102-1.101,1.102l0,0
					c-0.606,0-1.101-0.49-1.101-1.102l0,0c0-0.607,0.494-1.102,1.101-1.102l0,0C726.831,469.215,727.321,469.709,727.321,470.316z
					 M738.646,470.316c0,0.611-0.49,1.102-1.101,1.102l0,0c-0.607,0-1.101-0.49-1.101-1.102l0,0c0-0.607,0.493-1.102,1.101-1.102
					l0,0C738.155,469.215,738.646,469.709,738.646,470.316z M749.97,470.316c0,0.611-0.489,1.102-1.101,1.102l0,0
					c-0.606,0-1.101-0.49-1.101-1.102l0,0c0-0.607,0.494-1.102,1.101-1.102l0,0C749.48,469.215,749.97,469.709,749.97,470.316z"/>
			</g>
			<g id="XMLID_33_">
				<path id="XMLID_34_" fill="#272361" d="M636.728,457.23c0,0.607-0.491,1.102-1.099,1.102l0,0c-0.61,0-1.104-0.494-1.104-1.102
					l0,0c0-0.606,0.494-1.101,1.104-1.101l0,0C636.236,456.13,636.728,456.624,636.728,457.23z M648.052,457.23
					c0,0.607-0.491,1.102-1.102,1.102l0,0c-0.607,0-1.102-0.494-1.102-1.102l0,0c0-0.606,0.494-1.101,1.102-1.101l0,0
					C647.561,456.13,648.052,456.624,648.052,457.23z M659.376,457.23c0,0.607-0.49,1.102-1.102,1.102l0,0
					c-0.607,0-1.101-0.494-1.101-1.102l0,0c0-0.606,0.493-1.101,1.101-1.101l0,0C658.886,456.13,659.376,456.624,659.376,457.23z
					 M670.7,457.23c0,0.607-0.491,1.102-1.102,1.102l0,0c-0.607,0-1.101-0.494-1.101-1.102l0,0c0-0.606,0.493-1.101,1.101-1.101l0,0
					C670.209,456.13,670.7,456.624,670.7,457.23z M682.024,457.23c0,0.607-0.491,1.102-1.102,1.102l0,0
					c-0.606,0-1.098-0.494-1.098-1.102l0,0c0-0.606,0.491-1.101,1.098-1.101l0,0C681.533,456.13,682.024,456.624,682.024,457.23z
					 M693.349,457.23c0,0.607-0.49,1.102-1.101,1.102l0,0c-0.607,0-1.102-0.494-1.102-1.102l0,0c0-0.606,0.494-1.101,1.102-1.101
					l0,0C692.858,456.13,693.349,456.624,693.349,457.23z M704.673,457.23c0,0.607-0.49,1.102-1.101,1.102l0,0
					c-0.607,0-1.102-0.494-1.102-1.102l0,0c0-0.606,0.494-1.101,1.102-1.101l0,0C704.183,456.13,704.673,456.624,704.673,457.23z
					 M716,457.23c0,0.607-0.493,1.102-1.104,1.102l0,0c-0.606,0-1.102-0.494-1.102-1.102l0,0c0-0.606,0.495-1.101,1.102-1.101l0,0
					C715.507,456.13,716,456.624,716,457.23z M727.321,457.23c0,0.607-0.49,1.102-1.101,1.102l0,0c-0.606,0-1.101-0.494-1.101-1.102
					l0,0c0-0.606,0.494-1.101,1.101-1.101l0,0C726.831,456.13,727.321,456.624,727.321,457.23z M738.646,457.23
					c0,0.607-0.49,1.102-1.101,1.102l0,0c-0.607,0-1.101-0.494-1.101-1.102l0,0c0-0.606,0.493-1.101,1.101-1.101l0,0
					C738.155,456.13,738.646,456.624,738.646,457.23z M749.97,457.23c0,0.607-0.489,1.102-1.101,1.102l0,0
					c-0.606,0-1.101-0.494-1.101-1.102l0,0c0-0.606,0.494-1.101,1.101-1.101l0,0C749.48,456.13,749.97,456.624,749.97,457.23z"/>
			</g>
			<g id="XMLID_20_">
				<path id="XMLID_21_" fill="#272361" d="M636.728,444.143c0,0.609-0.491,1.101-1.099,1.101l0,0c-0.61,0-1.104-0.491-1.104-1.101
					l0,0c0-0.607,0.494-1.099,1.104-1.099l0,0C636.236,443.044,636.728,443.535,636.728,444.143z M648.052,444.143
					c0,0.609-0.491,1.101-1.102,1.101l0,0c-0.607,0-1.102-0.491-1.102-1.101l0,0c0-0.607,0.494-1.099,1.102-1.099l0,0
					C647.561,443.044,648.052,443.535,648.052,444.143z M659.376,444.143c0,0.609-0.49,1.101-1.102,1.101l0,0
					c-0.607,0-1.101-0.491-1.101-1.101l0,0c0-0.607,0.493-1.099,1.101-1.099l0,0C658.886,443.044,659.376,443.535,659.376,444.143z
					 M670.7,444.143c0,0.609-0.491,1.101-1.102,1.101l0,0c-0.607,0-1.101-0.491-1.101-1.101l0,0c0-0.607,0.493-1.099,1.101-1.099
					l0,0C670.209,443.044,670.7,443.535,670.7,444.143z M682.024,444.143c0,0.609-0.491,1.101-1.102,1.101l0,0
					c-0.606,0-1.098-0.491-1.098-1.101l0,0c0-0.607,0.491-1.099,1.098-1.099l0,0C681.533,443.044,682.024,443.535,682.024,444.143z
					 M693.349,444.143c0,0.609-0.49,1.101-1.101,1.101l0,0c-0.607,0-1.102-0.491-1.102-1.101l0,0c0-0.607,0.494-1.099,1.102-1.099
					l0,0C692.858,443.044,693.349,443.535,693.349,444.143z M704.673,444.143c0,0.609-0.49,1.101-1.101,1.101l0,0
					c-0.607,0-1.102-0.491-1.102-1.101l0,0c0-0.607,0.494-1.099,1.102-1.099l0,0C704.183,443.044,704.673,443.535,704.673,444.143z
					 M716,444.143c0,0.609-0.493,1.101-1.104,1.101l0,0c-0.606,0-1.102-0.491-1.102-1.101l0,0c0-0.607,0.495-1.099,1.102-1.099l0,0
					C715.507,443.044,716,443.535,716,444.143z M727.321,444.143c0,0.609-0.49,1.101-1.101,1.101l0,0
					c-0.606,0-1.101-0.491-1.101-1.101l0,0c0-0.607,0.494-1.099,1.101-1.099l0,0C726.831,443.044,727.321,443.535,727.321,444.143z
					 M738.646,444.143c0,0.609-0.49,1.101-1.101,1.101l0,0c-0.607,0-1.101-0.491-1.101-1.101l0,0c0-0.607,0.493-1.099,1.101-1.099
					l0,0C738.155,443.044,738.646,443.535,738.646,444.143z M749.97,444.143c0,0.609-0.489,1.101-1.101,1.101l0,0
					c-0.606,0-1.101-0.491-1.101-1.101l0,0c0-0.607,0.494-1.099,1.101-1.099l0,0C749.48,443.044,749.97,443.535,749.97,444.143z"/>
			</g>
		</g>
	</g>
</g>
</svg>
