<?xml version="1.0" encoding="utf-8"?>
<!-- Generator: Adobe Illustrator 16.0.0, SVG Export Plug-In . SVG Version: 6.00 Build 0)  -->
<!DOCTYPE svg PUBLIC "-//W3C//DTD SVG 1.1//EN" "http://www.w3.org/Graphics/SVG/1.1/DTD/svg11.dtd">
<svg version="1.1" id="Layer_1" xmlns="http://www.w3.org/2000/svg" xmlns:xlink="http://www.w3.org/1999/xlink" x="0px" y="0px"
	 width="50px" height="50px" viewBox="0 0 50 50" enable-background="new 0 0 50 50" xml:space="preserve">
<g>
	<path fill="#FFFFFF" d="M30.018,31.014L17.09,43.94l0,0c-2.73-2.73-2.73-7.153,0-9.885l12.928-12.927l0,0
		C32.748,23.859,32.748,28.285,30.018,31.014z"/>
	<g>
		<path fill="#FFFFFF" d="M33.055,24.873c0.057,0.395,0.088,0.795,0.088,1.2c0,2.155-0.838,4.179-2.363,5.704L17.917,44.639
			c0.216,0.299,0.46,0.586,0.729,0.857l0,0l12.927-12.927C33.654,30.487,34.148,27.423,33.055,24.873z"/>
	</g>
	<g>
		<path fill="#FFFFFF" d="M35.41,7.044L17.542,24.911l0,0c-2.73-2.73-2.73-7.153,0-9.884l7.983-7.983
			C28.256,4.316,32.68,4.316,35.41,7.044L35.41,7.044z"/>
		<g>
			<polygon fill="#FFFFFF" points="23.11,26.514 28.848,20.775 24.509,19.467 18.725,25.254 			"/>
		</g>
	</g>
</g>
</svg>
